%
M48
M72
T01C0.0130
T02C0.0315
T03C0.1575
%
T01
X4702Y7683
X6040Y11483
X5132Y12392
X6193Y13891
X5734Y14219
X6686Y13765
X8946Y11967
X9203Y11734
X9471Y11493
X10498Y11298
X10975Y10979
X10646Y10659
X9816Y9846
X10742Y9304
X10742Y8763
X11983Y9036
X12043Y8675
X11967Y9604
X13258Y8733
X13633Y8676
X13724Y9006
X13848Y9740
X13806Y10082
X13952Y10653
X14996Y9646
X15129Y9140
X15599Y9708
X16027Y10217
X15410Y10693
X12811Y14568
X12811Y15277
X16696Y14857
X23071Y14754
X23663Y14068
X23976Y13822
X23426Y13463
X25297Y14016
X25501Y13451
X25872Y16324
X25198Y16394
X24856Y17670
X25271Y17812
X25806Y18078
X26424Y17808
X27551Y18387
X26099Y19465
X24826Y19060
X24519Y18888
X24468Y19218
X24267Y18667
X23527Y17013
X25388Y21136
X24277Y21698
X23722Y21410
X23039Y22468
X22728Y22789
X22376Y22840
X21998Y22897
X20741Y22634
X20364Y22202
X20369Y21498
X20350Y20965
X19030Y23543
X18208Y23995
X18540Y25529
X21430Y25413
X21459Y25064
X21771Y24622
X22118Y24619
X21445Y25955
X21445Y26518
X23631Y24168
X25367Y23911
X26371Y22227
X29127Y17913
X29375Y15926
X24825Y10237
X16324Y21504
X15527Y21610
X15189Y21614
X14081Y21565
X14350Y22770
X14680Y22784
X13900Y25385
X13570Y25318
X9633Y23166
X9208Y23646
X9241Y22405
T02
X3871Y1550
X4871Y1550
X5871Y1550
X6871Y1550
X8371Y1550
X9371Y1550
X10371Y1550
X11371Y1550
X12371Y1550
X13371Y1550
X14871Y1550
X15871Y1550
X16871Y1550
X17871Y1550
X18871Y1550
X19871Y1550
X21371Y1550
X22371Y1550
X23371Y1550
X24371Y1550
X25371Y1550
X26371Y1550
X26371Y3050
X25371Y3050
X24371Y3050
X23371Y3050
X22371Y3050
X21371Y3050
X21371Y4550
X22371Y4550
X23371Y4550
X24371Y4550
X25371Y4550
X26371Y4550
X26371Y6050
X25371Y6050
X24371Y6050
X23371Y6050
X22371Y6050
X21371Y6050
X19871Y6050
X18871Y6050
X17871Y6050
X16871Y6050
X15871Y6050
X14871Y6050
X14871Y4550
X15871Y4550
X16871Y4550
X17871Y4550
X18871Y4550
X19871Y4550
X19871Y3050
X18871Y3050
X17871Y3050
X16871Y3050
X15871Y3050
X14871Y3050
X13371Y3050
X12371Y3050
X11371Y3050
X10371Y3050
X9371Y3050
X8371Y3050
X8371Y4550
X9371Y4550
X10371Y4550
X11371Y4550
X12371Y4550
X13371Y4550
X13371Y6050
X12371Y6050
X11371Y6050
X10371Y6050
X9371Y6050
X8371Y6050
X6871Y6050
X5871Y6050
X4871Y6050
X3871Y6050
X3871Y4550
X4871Y4550
X5871Y4550
X6871Y4550
X6871Y3050
X5871Y3050
X4871Y3050
X3871Y3050
X3871Y9050
X3871Y10050
X3871Y11050
X3871Y12050
X3871Y13050
X3871Y14050
X3871Y15050
X3871Y16050
X3871Y19050
X3871Y20050
X3871Y21050
X5371Y21050
X5371Y20050
X5371Y19050
X7371Y18550
X7371Y19550
X7371Y21550
X7371Y22550
X9871Y22550
X10871Y22550
X10871Y23550
X10871Y24550
X9871Y24550
X9871Y23550
X9871Y25550
X10871Y25550
X11371Y27550
X12371Y27550
X13371Y27550
X14371Y27550
X15371Y27550
X16371Y27550
X17371Y27550
X18371Y27550
X19371Y27550
X20371Y27550
X21371Y27550
X22371Y27550
X23371Y27550
X24371Y27550
X25371Y27550
X26371Y27550
X27371Y27550
X28371Y27550
X28371Y19550
X28371Y18550
X28371Y17550
X28371Y16550
X28371Y15550
X28371Y14550
X29871Y14550
X29871Y15550
X29871Y16550
X29871Y17550
X29871Y18550
X29871Y19550
X29871Y13050
X29871Y12050
X29871Y11050
X29871Y10050
X29871Y9050
X29871Y8050
X29871Y6550
X29871Y5550
X29871Y4550
X29871Y3550
X29871Y2550
X29871Y1550
X28371Y1550
X28371Y2550
X28371Y3550
X28371Y4550
X28371Y5550
X28371Y6550
X28371Y8050
X28371Y9050
X28371Y10050
X28371Y11050
X28371Y12050
X28371Y13050
X17371Y15550
X16371Y15550
X16371Y16550
X17371Y16550
X17371Y17550
X16371Y17550
X10371Y27550
X9371Y27550
X8371Y27550
X7371Y27550
X6371Y27550
X5371Y27550
X4871Y25550
X3871Y25550
X3871Y24550
X4871Y24550
X4871Y23550
X3871Y23550
X3871Y22550
X4871Y22550
T03
X7371Y25050
X7371Y8550
X26371Y8550
X26371Y25050
M30
