G75*
%MOIN*%
%OFA0B0*%
%FSLAX24Y24*%
%IPPOS*%
%LPD*%
%AMOC8*
5,1,8,0,0,1.08239X$1,22.5*
%
%ADD10R,0.0532X0.0532*%
%ADD11C,0.0532*%
%ADD12C,0.0128*%
%ADD13C,0.0089*%
%ADD14C,0.0138*%
%ADD15C,0.0094*%
%ADD16C,0.0187*%
%ADD17C,0.0227*%
%ADD18C,0.0185*%
%ADD19C,0.0172*%
%ADD20C,0.1635*%
%ADD21C,0.0250*%
D10*
X003871Y001550D03*
X003871Y003050D03*
X003871Y004550D03*
X003871Y006050D03*
X005871Y006050D03*
X005871Y004550D03*
X005871Y003050D03*
X005871Y001550D03*
X008371Y001550D03*
X008371Y003050D03*
X008371Y004550D03*
X008371Y006050D03*
X011371Y006050D03*
X011371Y004550D03*
X011371Y003050D03*
X011371Y001550D03*
X014871Y001550D03*
X014871Y003050D03*
X014871Y004550D03*
X014871Y006050D03*
X017871Y006050D03*
X017871Y004550D03*
X017871Y003050D03*
X017871Y001550D03*
X021371Y001550D03*
X021371Y003050D03*
X021371Y004550D03*
X021371Y006050D03*
X024371Y006050D03*
X024371Y004550D03*
X024371Y003050D03*
X024371Y001550D03*
X028371Y001550D03*
X029871Y001550D03*
X029871Y004550D03*
X028371Y004550D03*
X028371Y008050D03*
X029871Y008050D03*
X029871Y011050D03*
X028371Y011050D03*
X028371Y014550D03*
X029871Y014550D03*
X029871Y017550D03*
X028371Y017550D03*
X028371Y027550D03*
X027371Y027550D03*
X026371Y027550D03*
X016371Y017550D03*
X010871Y025550D03*
X009871Y025550D03*
X007371Y021550D03*
X005371Y021050D03*
X003871Y021050D03*
X007371Y018550D03*
X004871Y025550D03*
X003871Y025550D03*
X003871Y009050D03*
D11*
X003871Y010050D03*
X003871Y011050D03*
X003871Y012050D03*
X003871Y013050D03*
X003871Y014050D03*
X003871Y015050D03*
X003871Y016050D03*
X003871Y019050D03*
X003871Y020050D03*
X005371Y020050D03*
X005371Y019050D03*
X007371Y019550D03*
X007371Y022550D03*
X009871Y022550D03*
X010871Y022550D03*
X010871Y023550D03*
X010871Y024550D03*
X009871Y024550D03*
X009871Y023550D03*
X010371Y027550D03*
X011371Y027550D03*
X012371Y027550D03*
X013371Y027550D03*
X014371Y027550D03*
X015371Y027550D03*
X016371Y027550D03*
X017371Y027550D03*
X018371Y027550D03*
X019371Y027550D03*
X020371Y027550D03*
X021371Y027550D03*
X022371Y027550D03*
X023371Y027550D03*
X024371Y027550D03*
X025371Y027550D03*
X028371Y019550D03*
X028371Y018550D03*
X029871Y018550D03*
X029871Y019550D03*
X029871Y016550D03*
X029871Y015550D03*
X028371Y015550D03*
X028371Y016550D03*
X028371Y013050D03*
X028371Y012050D03*
X029871Y012050D03*
X029871Y013050D03*
X029871Y010050D03*
X029871Y009050D03*
X028371Y009050D03*
X028371Y010050D03*
X028371Y006550D03*
X028371Y005550D03*
X029871Y005550D03*
X029871Y006550D03*
X029871Y003550D03*
X029871Y002550D03*
X028371Y002550D03*
X028371Y003550D03*
X026371Y003050D03*
X025371Y003050D03*
X025371Y001550D03*
X026371Y001550D03*
X023371Y001550D03*
X022371Y001550D03*
X022371Y003050D03*
X023371Y003050D03*
X023371Y004550D03*
X022371Y004550D03*
X022371Y006050D03*
X023371Y006050D03*
X025371Y006050D03*
X026371Y006050D03*
X026371Y004550D03*
X025371Y004550D03*
X019871Y004550D03*
X018871Y004550D03*
X018871Y003050D03*
X019871Y003050D03*
X019871Y001550D03*
X018871Y001550D03*
X016871Y001550D03*
X015871Y001550D03*
X015871Y003050D03*
X016871Y003050D03*
X016871Y004550D03*
X015871Y004550D03*
X015871Y006050D03*
X016871Y006050D03*
X018871Y006050D03*
X019871Y006050D03*
X013371Y006050D03*
X012371Y006050D03*
X012371Y004550D03*
X013371Y004550D03*
X013371Y003050D03*
X012371Y003050D03*
X012371Y001550D03*
X013371Y001550D03*
X010371Y001550D03*
X009371Y001550D03*
X009371Y003050D03*
X010371Y003050D03*
X010371Y004550D03*
X009371Y004550D03*
X009371Y006050D03*
X010371Y006050D03*
X006871Y006050D03*
X006871Y004550D03*
X006871Y003050D03*
X006871Y001550D03*
X004871Y001550D03*
X004871Y003050D03*
X004871Y004550D03*
X004871Y006050D03*
X016371Y015550D03*
X017371Y015550D03*
X017371Y016550D03*
X017371Y017550D03*
X016371Y016550D03*
X004871Y022550D03*
X003871Y022550D03*
X003871Y023550D03*
X004871Y023550D03*
X004871Y024550D03*
X003871Y024550D03*
X005371Y027550D03*
X006371Y027550D03*
X007371Y027550D03*
X008371Y027550D03*
X009371Y027550D03*
D12*
X021537Y024716D02*
X021537Y024588D01*
X020975Y024588D01*
X020975Y024716D01*
X021537Y024716D01*
X021537Y024715D02*
X020975Y024715D01*
X021537Y024401D02*
X021537Y024273D01*
X020975Y024273D01*
X020975Y024401D01*
X021537Y024401D01*
X021537Y024400D02*
X020975Y024400D01*
X021537Y024086D02*
X021537Y023958D01*
X020975Y023958D01*
X020975Y024086D01*
X021537Y024086D01*
X021537Y024085D02*
X020975Y024085D01*
X021537Y023771D02*
X021537Y023643D01*
X020975Y023643D01*
X020975Y023771D01*
X021537Y023771D01*
X021537Y023770D02*
X020975Y023770D01*
X021537Y023457D02*
X021537Y023329D01*
X020975Y023329D01*
X020975Y023457D01*
X021537Y023457D01*
X021537Y023456D02*
X020975Y023456D01*
X021537Y023142D02*
X021537Y023014D01*
X020975Y023014D01*
X020975Y023142D01*
X021537Y023142D01*
X021537Y023141D02*
X020975Y023141D01*
X021537Y022827D02*
X021537Y022699D01*
X020975Y022699D01*
X020975Y022827D01*
X021537Y022827D01*
X021537Y022826D02*
X020975Y022826D01*
X021537Y022512D02*
X021537Y022384D01*
X020975Y022384D01*
X020975Y022512D01*
X021537Y022512D01*
X021537Y022511D02*
X020975Y022511D01*
X021704Y021655D02*
X021832Y021655D01*
X021704Y021655D02*
X021704Y022217D01*
X021832Y022217D01*
X021832Y021655D01*
X021832Y021782D02*
X021704Y021782D01*
X021704Y021909D02*
X021832Y021909D01*
X021832Y022036D02*
X021704Y022036D01*
X021704Y022163D02*
X021832Y022163D01*
X022019Y021655D02*
X022147Y021655D01*
X022019Y021655D02*
X022019Y022217D01*
X022147Y022217D01*
X022147Y021655D01*
X022147Y021782D02*
X022019Y021782D01*
X022019Y021909D02*
X022147Y021909D01*
X022147Y022036D02*
X022019Y022036D01*
X022019Y022163D02*
X022147Y022163D01*
X022334Y021655D02*
X022462Y021655D01*
X022334Y021655D02*
X022334Y022217D01*
X022462Y022217D01*
X022462Y021655D01*
X022462Y021782D02*
X022334Y021782D01*
X022334Y021909D02*
X022462Y021909D01*
X022462Y022036D02*
X022334Y022036D01*
X022334Y022163D02*
X022462Y022163D01*
X022649Y021655D02*
X022777Y021655D01*
X022649Y021655D02*
X022649Y022217D01*
X022777Y022217D01*
X022777Y021655D01*
X022777Y021782D02*
X022649Y021782D01*
X022649Y021909D02*
X022777Y021909D01*
X022777Y022036D02*
X022649Y022036D01*
X022649Y022163D02*
X022777Y022163D01*
X022964Y021655D02*
X023092Y021655D01*
X022964Y021655D02*
X022964Y022217D01*
X023092Y022217D01*
X023092Y021655D01*
X023092Y021782D02*
X022964Y021782D01*
X022964Y021909D02*
X023092Y021909D01*
X023092Y022036D02*
X022964Y022036D01*
X022964Y022163D02*
X023092Y022163D01*
X023279Y021655D02*
X023407Y021655D01*
X023279Y021655D02*
X023279Y022217D01*
X023407Y022217D01*
X023407Y021655D01*
X023407Y021782D02*
X023279Y021782D01*
X023279Y021909D02*
X023407Y021909D01*
X023407Y022036D02*
X023279Y022036D01*
X023279Y022163D02*
X023407Y022163D01*
X023594Y021655D02*
X023722Y021655D01*
X023594Y021655D02*
X023594Y022217D01*
X023722Y022217D01*
X023722Y021655D01*
X023722Y021782D02*
X023594Y021782D01*
X023594Y021909D02*
X023722Y021909D01*
X023722Y022036D02*
X023594Y022036D01*
X023594Y022163D02*
X023722Y022163D01*
X023909Y021655D02*
X024037Y021655D01*
X023909Y021655D02*
X023909Y022217D01*
X024037Y022217D01*
X024037Y021655D01*
X024037Y021782D02*
X023909Y021782D01*
X023909Y021909D02*
X024037Y021909D01*
X024037Y022036D02*
X023909Y022036D01*
X023909Y022163D02*
X024037Y022163D01*
X024766Y022384D02*
X024766Y022512D01*
X024766Y022384D02*
X024204Y022384D01*
X024204Y022512D01*
X024766Y022512D01*
X024766Y022511D02*
X024204Y022511D01*
X024766Y022699D02*
X024766Y022827D01*
X024766Y022699D02*
X024204Y022699D01*
X024204Y022827D01*
X024766Y022827D01*
X024766Y022826D02*
X024204Y022826D01*
X024766Y023014D02*
X024766Y023142D01*
X024766Y023014D02*
X024204Y023014D01*
X024204Y023142D01*
X024766Y023142D01*
X024766Y023141D02*
X024204Y023141D01*
X024766Y023329D02*
X024766Y023457D01*
X024766Y023329D02*
X024204Y023329D01*
X024204Y023457D01*
X024766Y023457D01*
X024766Y023456D02*
X024204Y023456D01*
X024766Y023643D02*
X024766Y023771D01*
X024766Y023643D02*
X024204Y023643D01*
X024204Y023771D01*
X024766Y023771D01*
X024766Y023770D02*
X024204Y023770D01*
X024766Y023958D02*
X024766Y024086D01*
X024766Y023958D02*
X024204Y023958D01*
X024204Y024086D01*
X024766Y024086D01*
X024766Y024085D02*
X024204Y024085D01*
X024766Y024273D02*
X024766Y024401D01*
X024766Y024273D02*
X024204Y024273D01*
X024204Y024401D01*
X024766Y024401D01*
X024766Y024400D02*
X024204Y024400D01*
X024766Y024588D02*
X024766Y024716D01*
X024766Y024588D02*
X024204Y024588D01*
X024204Y024716D01*
X024766Y024716D01*
X024766Y024715D02*
X024204Y024715D01*
X024037Y024883D02*
X023909Y024883D01*
X023909Y025445D01*
X024037Y025445D01*
X024037Y024883D01*
X024037Y025010D02*
X023909Y025010D01*
X023909Y025137D02*
X024037Y025137D01*
X024037Y025264D02*
X023909Y025264D01*
X023909Y025391D02*
X024037Y025391D01*
X023722Y024883D02*
X023594Y024883D01*
X023594Y025445D01*
X023722Y025445D01*
X023722Y024883D01*
X023722Y025010D02*
X023594Y025010D01*
X023594Y025137D02*
X023722Y025137D01*
X023722Y025264D02*
X023594Y025264D01*
X023594Y025391D02*
X023722Y025391D01*
X023407Y024883D02*
X023279Y024883D01*
X023279Y025445D01*
X023407Y025445D01*
X023407Y024883D01*
X023407Y025010D02*
X023279Y025010D01*
X023279Y025137D02*
X023407Y025137D01*
X023407Y025264D02*
X023279Y025264D01*
X023279Y025391D02*
X023407Y025391D01*
X023092Y024883D02*
X022964Y024883D01*
X022964Y025445D01*
X023092Y025445D01*
X023092Y024883D01*
X023092Y025010D02*
X022964Y025010D01*
X022964Y025137D02*
X023092Y025137D01*
X023092Y025264D02*
X022964Y025264D01*
X022964Y025391D02*
X023092Y025391D01*
X022777Y024883D02*
X022649Y024883D01*
X022649Y025445D01*
X022777Y025445D01*
X022777Y024883D01*
X022777Y025010D02*
X022649Y025010D01*
X022649Y025137D02*
X022777Y025137D01*
X022777Y025264D02*
X022649Y025264D01*
X022649Y025391D02*
X022777Y025391D01*
X022462Y024883D02*
X022334Y024883D01*
X022334Y025445D01*
X022462Y025445D01*
X022462Y024883D01*
X022462Y025010D02*
X022334Y025010D01*
X022334Y025137D02*
X022462Y025137D01*
X022462Y025264D02*
X022334Y025264D01*
X022334Y025391D02*
X022462Y025391D01*
X022147Y024883D02*
X022019Y024883D01*
X022019Y025445D01*
X022147Y025445D01*
X022147Y024883D01*
X022147Y025010D02*
X022019Y025010D01*
X022019Y025137D02*
X022147Y025137D01*
X022147Y025264D02*
X022019Y025264D01*
X022019Y025391D02*
X022147Y025391D01*
X021832Y024883D02*
X021704Y024883D01*
X021704Y025445D01*
X021832Y025445D01*
X021832Y024883D01*
X021832Y025010D02*
X021704Y025010D01*
X021704Y025137D02*
X021832Y025137D01*
X021832Y025264D02*
X021704Y025264D01*
X021704Y025391D02*
X021832Y025391D01*
X024204Y020445D02*
X024332Y020445D01*
X024332Y019883D01*
X024204Y019883D01*
X024204Y020445D01*
X024204Y020010D02*
X024332Y020010D01*
X024332Y020137D02*
X024204Y020137D01*
X024204Y020264D02*
X024332Y020264D01*
X024332Y020391D02*
X024204Y020391D01*
X024519Y020445D02*
X024647Y020445D01*
X024647Y019883D01*
X024519Y019883D01*
X024519Y020445D01*
X024519Y020010D02*
X024647Y020010D01*
X024647Y020137D02*
X024519Y020137D01*
X024519Y020264D02*
X024647Y020264D01*
X024647Y020391D02*
X024519Y020391D01*
X024834Y020445D02*
X024962Y020445D01*
X024962Y019883D01*
X024834Y019883D01*
X024834Y020445D01*
X024834Y020010D02*
X024962Y020010D01*
X024962Y020137D02*
X024834Y020137D01*
X024834Y020264D02*
X024962Y020264D01*
X024962Y020391D02*
X024834Y020391D01*
X025149Y020445D02*
X025277Y020445D01*
X025277Y019883D01*
X025149Y019883D01*
X025149Y020445D01*
X025149Y020010D02*
X025277Y020010D01*
X025277Y020137D02*
X025149Y020137D01*
X025149Y020264D02*
X025277Y020264D01*
X025277Y020391D02*
X025149Y020391D01*
X025464Y020445D02*
X025592Y020445D01*
X025592Y019883D01*
X025464Y019883D01*
X025464Y020445D01*
X025464Y020010D02*
X025592Y020010D01*
X025592Y020137D02*
X025464Y020137D01*
X025464Y020264D02*
X025592Y020264D01*
X025592Y020391D02*
X025464Y020391D01*
X025779Y020445D02*
X025907Y020445D01*
X025907Y019883D01*
X025779Y019883D01*
X025779Y020445D01*
X025779Y020010D02*
X025907Y020010D01*
X025907Y020137D02*
X025779Y020137D01*
X025779Y020264D02*
X025907Y020264D01*
X025907Y020391D02*
X025779Y020391D01*
X026094Y020445D02*
X026222Y020445D01*
X026222Y019883D01*
X026094Y019883D01*
X026094Y020445D01*
X026094Y020010D02*
X026222Y020010D01*
X026222Y020137D02*
X026094Y020137D01*
X026094Y020264D02*
X026222Y020264D01*
X026222Y020391D02*
X026094Y020391D01*
X026409Y020445D02*
X026537Y020445D01*
X026537Y019883D01*
X026409Y019883D01*
X026409Y020445D01*
X026409Y020010D02*
X026537Y020010D01*
X026537Y020137D02*
X026409Y020137D01*
X026409Y020264D02*
X026537Y020264D01*
X026537Y020391D02*
X026409Y020391D01*
X027266Y019716D02*
X027266Y019588D01*
X026704Y019588D01*
X026704Y019716D01*
X027266Y019716D01*
X027266Y019715D02*
X026704Y019715D01*
X027266Y019401D02*
X027266Y019273D01*
X026704Y019273D01*
X026704Y019401D01*
X027266Y019401D01*
X027266Y019400D02*
X026704Y019400D01*
X027266Y019086D02*
X027266Y018958D01*
X026704Y018958D01*
X026704Y019086D01*
X027266Y019086D01*
X027266Y019085D02*
X026704Y019085D01*
X027266Y018771D02*
X027266Y018643D01*
X026704Y018643D01*
X026704Y018771D01*
X027266Y018771D01*
X027266Y018770D02*
X026704Y018770D01*
X027266Y018457D02*
X027266Y018329D01*
X026704Y018329D01*
X026704Y018457D01*
X027266Y018457D01*
X027266Y018456D02*
X026704Y018456D01*
X027266Y018142D02*
X027266Y018014D01*
X026704Y018014D01*
X026704Y018142D01*
X027266Y018142D01*
X027266Y018141D02*
X026704Y018141D01*
X027266Y017827D02*
X027266Y017699D01*
X026704Y017699D01*
X026704Y017827D01*
X027266Y017827D01*
X027266Y017826D02*
X026704Y017826D01*
X027266Y017512D02*
X027266Y017384D01*
X026704Y017384D01*
X026704Y017512D01*
X027266Y017512D01*
X027266Y017511D02*
X026704Y017511D01*
X026537Y017217D02*
X026409Y017217D01*
X026537Y017217D02*
X026537Y016655D01*
X026409Y016655D01*
X026409Y017217D01*
X026409Y016782D02*
X026537Y016782D01*
X026537Y016909D02*
X026409Y016909D01*
X026409Y017036D02*
X026537Y017036D01*
X026537Y017163D02*
X026409Y017163D01*
X026222Y017217D02*
X026094Y017217D01*
X026222Y017217D02*
X026222Y016655D01*
X026094Y016655D01*
X026094Y017217D01*
X026094Y016782D02*
X026222Y016782D01*
X026222Y016909D02*
X026094Y016909D01*
X026094Y017036D02*
X026222Y017036D01*
X026222Y017163D02*
X026094Y017163D01*
X025907Y017217D02*
X025779Y017217D01*
X025907Y017217D02*
X025907Y016655D01*
X025779Y016655D01*
X025779Y017217D01*
X025779Y016782D02*
X025907Y016782D01*
X025907Y016909D02*
X025779Y016909D01*
X025779Y017036D02*
X025907Y017036D01*
X025907Y017163D02*
X025779Y017163D01*
X025592Y017217D02*
X025464Y017217D01*
X025592Y017217D02*
X025592Y016655D01*
X025464Y016655D01*
X025464Y017217D01*
X025464Y016782D02*
X025592Y016782D01*
X025592Y016909D02*
X025464Y016909D01*
X025464Y017036D02*
X025592Y017036D01*
X025592Y017163D02*
X025464Y017163D01*
X025277Y017217D02*
X025149Y017217D01*
X025277Y017217D02*
X025277Y016655D01*
X025149Y016655D01*
X025149Y017217D01*
X025149Y016782D02*
X025277Y016782D01*
X025277Y016909D02*
X025149Y016909D01*
X025149Y017036D02*
X025277Y017036D01*
X025277Y017163D02*
X025149Y017163D01*
X024962Y017217D02*
X024834Y017217D01*
X024962Y017217D02*
X024962Y016655D01*
X024834Y016655D01*
X024834Y017217D01*
X024834Y016782D02*
X024962Y016782D01*
X024962Y016909D02*
X024834Y016909D01*
X024834Y017036D02*
X024962Y017036D01*
X024962Y017163D02*
X024834Y017163D01*
X024647Y017217D02*
X024519Y017217D01*
X024647Y017217D02*
X024647Y016655D01*
X024519Y016655D01*
X024519Y017217D01*
X024519Y016782D02*
X024647Y016782D01*
X024647Y016909D02*
X024519Y016909D01*
X024519Y017036D02*
X024647Y017036D01*
X024647Y017163D02*
X024519Y017163D01*
X024332Y017217D02*
X024204Y017217D01*
X024332Y017217D02*
X024332Y016655D01*
X024204Y016655D01*
X024204Y017217D01*
X024204Y016782D02*
X024332Y016782D01*
X024332Y016909D02*
X024204Y016909D01*
X024204Y017036D02*
X024332Y017036D01*
X024332Y017163D02*
X024204Y017163D01*
X024037Y017384D02*
X024037Y017512D01*
X024037Y017384D02*
X023475Y017384D01*
X023475Y017512D01*
X024037Y017512D01*
X024037Y017511D02*
X023475Y017511D01*
X024037Y017699D02*
X024037Y017827D01*
X024037Y017699D02*
X023475Y017699D01*
X023475Y017827D01*
X024037Y017827D01*
X024037Y017826D02*
X023475Y017826D01*
X024037Y018014D02*
X024037Y018142D01*
X024037Y018014D02*
X023475Y018014D01*
X023475Y018142D01*
X024037Y018142D01*
X024037Y018141D02*
X023475Y018141D01*
X024037Y018329D02*
X024037Y018457D01*
X024037Y018329D02*
X023475Y018329D01*
X023475Y018457D01*
X024037Y018457D01*
X024037Y018456D02*
X023475Y018456D01*
X024037Y018643D02*
X024037Y018771D01*
X024037Y018643D02*
X023475Y018643D01*
X023475Y018771D01*
X024037Y018771D01*
X024037Y018770D02*
X023475Y018770D01*
X024037Y018958D02*
X024037Y019086D01*
X024037Y018958D02*
X023475Y018958D01*
X023475Y019086D01*
X024037Y019086D01*
X024037Y019085D02*
X023475Y019085D01*
X024037Y019273D02*
X024037Y019401D01*
X024037Y019273D02*
X023475Y019273D01*
X023475Y019401D01*
X024037Y019401D01*
X024037Y019400D02*
X023475Y019400D01*
X024037Y019588D02*
X024037Y019716D01*
X024037Y019588D02*
X023475Y019588D01*
X023475Y019716D01*
X024037Y019716D01*
X024037Y019715D02*
X023475Y019715D01*
X014037Y010883D02*
X013909Y010883D01*
X013909Y011445D01*
X014037Y011445D01*
X014037Y010883D01*
X014037Y011010D02*
X013909Y011010D01*
X013909Y011137D02*
X014037Y011137D01*
X014037Y011264D02*
X013909Y011264D01*
X013909Y011391D02*
X014037Y011391D01*
X013722Y010883D02*
X013594Y010883D01*
X013594Y011445D01*
X013722Y011445D01*
X013722Y010883D01*
X013722Y011010D02*
X013594Y011010D01*
X013594Y011137D02*
X013722Y011137D01*
X013722Y011264D02*
X013594Y011264D01*
X013594Y011391D02*
X013722Y011391D01*
X013407Y010883D02*
X013279Y010883D01*
X013279Y011445D01*
X013407Y011445D01*
X013407Y010883D01*
X013407Y011010D02*
X013279Y011010D01*
X013279Y011137D02*
X013407Y011137D01*
X013407Y011264D02*
X013279Y011264D01*
X013279Y011391D02*
X013407Y011391D01*
X013092Y010883D02*
X012964Y010883D01*
X012964Y011445D01*
X013092Y011445D01*
X013092Y010883D01*
X013092Y011010D02*
X012964Y011010D01*
X012964Y011137D02*
X013092Y011137D01*
X013092Y011264D02*
X012964Y011264D01*
X012964Y011391D02*
X013092Y011391D01*
X012777Y010883D02*
X012649Y010883D01*
X012649Y011445D01*
X012777Y011445D01*
X012777Y010883D01*
X012777Y011010D02*
X012649Y011010D01*
X012649Y011137D02*
X012777Y011137D01*
X012777Y011264D02*
X012649Y011264D01*
X012649Y011391D02*
X012777Y011391D01*
X012462Y010883D02*
X012334Y010883D01*
X012334Y011445D01*
X012462Y011445D01*
X012462Y010883D01*
X012462Y011010D02*
X012334Y011010D01*
X012334Y011137D02*
X012462Y011137D01*
X012462Y011264D02*
X012334Y011264D01*
X012334Y011391D02*
X012462Y011391D01*
X012147Y010883D02*
X012019Y010883D01*
X012019Y011445D01*
X012147Y011445D01*
X012147Y010883D01*
X012147Y011010D02*
X012019Y011010D01*
X012019Y011137D02*
X012147Y011137D01*
X012147Y011264D02*
X012019Y011264D01*
X012019Y011391D02*
X012147Y011391D01*
X011832Y010883D02*
X011704Y010883D01*
X011704Y011445D01*
X011832Y011445D01*
X011832Y010883D01*
X011832Y011010D02*
X011704Y011010D01*
X011704Y011137D02*
X011832Y011137D01*
X011832Y011264D02*
X011704Y011264D01*
X011704Y011391D02*
X011832Y011391D01*
X011537Y010716D02*
X011537Y010588D01*
X010975Y010588D01*
X010975Y010716D01*
X011537Y010716D01*
X011537Y010715D02*
X010975Y010715D01*
X011537Y010401D02*
X011537Y010273D01*
X010975Y010273D01*
X010975Y010401D01*
X011537Y010401D01*
X011537Y010400D02*
X010975Y010400D01*
X011537Y010086D02*
X011537Y009958D01*
X010975Y009958D01*
X010975Y010086D01*
X011537Y010086D01*
X011537Y010085D02*
X010975Y010085D01*
X011537Y009771D02*
X011537Y009643D01*
X010975Y009643D01*
X010975Y009771D01*
X011537Y009771D01*
X011537Y009770D02*
X010975Y009770D01*
X011537Y009457D02*
X011537Y009329D01*
X010975Y009329D01*
X010975Y009457D01*
X011537Y009457D01*
X011537Y009456D02*
X010975Y009456D01*
X011537Y009142D02*
X011537Y009014D01*
X010975Y009014D01*
X010975Y009142D01*
X011537Y009142D01*
X011537Y009141D02*
X010975Y009141D01*
X011537Y008827D02*
X011537Y008699D01*
X010975Y008699D01*
X010975Y008827D01*
X011537Y008827D01*
X011537Y008826D02*
X010975Y008826D01*
X011537Y008512D02*
X011537Y008384D01*
X010975Y008384D01*
X010975Y008512D01*
X011537Y008512D01*
X011537Y008511D02*
X010975Y008511D01*
X011704Y007655D02*
X011832Y007655D01*
X011704Y007655D02*
X011704Y008217D01*
X011832Y008217D01*
X011832Y007655D01*
X011832Y007782D02*
X011704Y007782D01*
X011704Y007909D02*
X011832Y007909D01*
X011832Y008036D02*
X011704Y008036D01*
X011704Y008163D02*
X011832Y008163D01*
X012019Y007655D02*
X012147Y007655D01*
X012019Y007655D02*
X012019Y008217D01*
X012147Y008217D01*
X012147Y007655D01*
X012147Y007782D02*
X012019Y007782D01*
X012019Y007909D02*
X012147Y007909D01*
X012147Y008036D02*
X012019Y008036D01*
X012019Y008163D02*
X012147Y008163D01*
X012334Y007655D02*
X012462Y007655D01*
X012334Y007655D02*
X012334Y008217D01*
X012462Y008217D01*
X012462Y007655D01*
X012462Y007782D02*
X012334Y007782D01*
X012334Y007909D02*
X012462Y007909D01*
X012462Y008036D02*
X012334Y008036D01*
X012334Y008163D02*
X012462Y008163D01*
X012649Y007655D02*
X012777Y007655D01*
X012649Y007655D02*
X012649Y008217D01*
X012777Y008217D01*
X012777Y007655D01*
X012777Y007782D02*
X012649Y007782D01*
X012649Y007909D02*
X012777Y007909D01*
X012777Y008036D02*
X012649Y008036D01*
X012649Y008163D02*
X012777Y008163D01*
X012964Y007655D02*
X013092Y007655D01*
X012964Y007655D02*
X012964Y008217D01*
X013092Y008217D01*
X013092Y007655D01*
X013092Y007782D02*
X012964Y007782D01*
X012964Y007909D02*
X013092Y007909D01*
X013092Y008036D02*
X012964Y008036D01*
X012964Y008163D02*
X013092Y008163D01*
X013279Y007655D02*
X013407Y007655D01*
X013279Y007655D02*
X013279Y008217D01*
X013407Y008217D01*
X013407Y007655D01*
X013407Y007782D02*
X013279Y007782D01*
X013279Y007909D02*
X013407Y007909D01*
X013407Y008036D02*
X013279Y008036D01*
X013279Y008163D02*
X013407Y008163D01*
X013594Y007655D02*
X013722Y007655D01*
X013594Y007655D02*
X013594Y008217D01*
X013722Y008217D01*
X013722Y007655D01*
X013722Y007782D02*
X013594Y007782D01*
X013594Y007909D02*
X013722Y007909D01*
X013722Y008036D02*
X013594Y008036D01*
X013594Y008163D02*
X013722Y008163D01*
X013909Y007655D02*
X014037Y007655D01*
X013909Y007655D02*
X013909Y008217D01*
X014037Y008217D01*
X014037Y007655D01*
X014037Y007782D02*
X013909Y007782D01*
X013909Y007909D02*
X014037Y007909D01*
X014037Y008036D02*
X013909Y008036D01*
X013909Y008163D02*
X014037Y008163D01*
X014766Y008384D02*
X014766Y008512D01*
X014766Y008384D02*
X014204Y008384D01*
X014204Y008512D01*
X014766Y008512D01*
X014766Y008511D02*
X014204Y008511D01*
X014766Y008699D02*
X014766Y008827D01*
X014766Y008699D02*
X014204Y008699D01*
X014204Y008827D01*
X014766Y008827D01*
X014766Y008826D02*
X014204Y008826D01*
X014766Y009014D02*
X014766Y009142D01*
X014766Y009014D02*
X014204Y009014D01*
X014204Y009142D01*
X014766Y009142D01*
X014766Y009141D02*
X014204Y009141D01*
X014766Y009329D02*
X014766Y009457D01*
X014766Y009329D02*
X014204Y009329D01*
X014204Y009457D01*
X014766Y009457D01*
X014766Y009456D02*
X014204Y009456D01*
X014766Y009643D02*
X014766Y009771D01*
X014766Y009643D02*
X014204Y009643D01*
X014204Y009771D01*
X014766Y009771D01*
X014766Y009770D02*
X014204Y009770D01*
X014766Y009958D02*
X014766Y010086D01*
X014766Y009958D02*
X014204Y009958D01*
X014204Y010086D01*
X014766Y010086D01*
X014766Y010085D02*
X014204Y010085D01*
X014766Y010273D02*
X014766Y010401D01*
X014766Y010273D02*
X014204Y010273D01*
X014204Y010401D01*
X014766Y010401D01*
X014766Y010400D02*
X014204Y010400D01*
X014766Y010588D02*
X014766Y010716D01*
X014766Y010588D02*
X014204Y010588D01*
X014204Y010716D01*
X014766Y010716D01*
X014766Y010715D02*
X014204Y010715D01*
D13*
X015977Y009491D02*
X015977Y009401D01*
X015977Y009491D02*
X016559Y009491D01*
X016559Y009401D01*
X015977Y009401D01*
X015977Y009489D02*
X016559Y009489D01*
X015977Y009235D02*
X015977Y009145D01*
X015977Y009235D02*
X016559Y009235D01*
X016559Y009145D01*
X015977Y009145D01*
X015977Y009233D02*
X016559Y009233D01*
X015977Y008979D02*
X015977Y008889D01*
X015977Y008979D02*
X016559Y008979D01*
X016559Y008889D01*
X015977Y008889D01*
X015977Y008977D02*
X016559Y008977D01*
X015977Y008723D02*
X015977Y008633D01*
X015977Y008723D02*
X016559Y008723D01*
X016559Y008633D01*
X015977Y008633D01*
X015977Y008721D02*
X016559Y008721D01*
X015977Y008467D02*
X015977Y008377D01*
X015977Y008467D02*
X016559Y008467D01*
X016559Y008377D01*
X015977Y008377D01*
X015977Y008465D02*
X016559Y008465D01*
X015977Y008211D02*
X015977Y008121D01*
X015977Y008211D02*
X016559Y008211D01*
X016559Y008121D01*
X015977Y008121D01*
X015977Y008209D02*
X016559Y008209D01*
X015977Y007955D02*
X015977Y007865D01*
X015977Y007955D02*
X016559Y007955D01*
X016559Y007865D01*
X015977Y007865D01*
X015977Y007953D02*
X016559Y007953D01*
X015977Y007699D02*
X015977Y007609D01*
X015977Y007699D02*
X016559Y007699D01*
X016559Y007609D01*
X015977Y007609D01*
X015977Y007697D02*
X016559Y007697D01*
X018182Y007699D02*
X018182Y007609D01*
X018182Y007699D02*
X018764Y007699D01*
X018764Y007609D01*
X018182Y007609D01*
X018182Y007697D02*
X018764Y007697D01*
X018182Y007865D02*
X018182Y007955D01*
X018764Y007955D01*
X018764Y007865D01*
X018182Y007865D01*
X018182Y007953D02*
X018764Y007953D01*
X018182Y008121D02*
X018182Y008211D01*
X018764Y008211D01*
X018764Y008121D01*
X018182Y008121D01*
X018182Y008209D02*
X018764Y008209D01*
X018182Y008377D02*
X018182Y008467D01*
X018764Y008467D01*
X018764Y008377D01*
X018182Y008377D01*
X018182Y008465D02*
X018764Y008465D01*
X018182Y008633D02*
X018182Y008723D01*
X018764Y008723D01*
X018764Y008633D01*
X018182Y008633D01*
X018182Y008721D02*
X018764Y008721D01*
X018182Y008889D02*
X018182Y008979D01*
X018764Y008979D01*
X018764Y008889D01*
X018182Y008889D01*
X018182Y008977D02*
X018764Y008977D01*
X018182Y009145D02*
X018182Y009235D01*
X018764Y009235D01*
X018764Y009145D01*
X018182Y009145D01*
X018182Y009233D02*
X018764Y009233D01*
X018182Y009401D02*
X018182Y009491D01*
X018764Y009491D01*
X018764Y009401D01*
X018182Y009401D01*
X018182Y009489D02*
X018764Y009489D01*
X014264Y012609D02*
X014264Y012699D01*
X014264Y012609D02*
X013682Y012609D01*
X013682Y012699D01*
X014264Y012699D01*
X014264Y012697D02*
X013682Y012697D01*
X014264Y012865D02*
X014264Y012955D01*
X014264Y012865D02*
X013682Y012865D01*
X013682Y012955D01*
X014264Y012955D01*
X014264Y012953D02*
X013682Y012953D01*
X014264Y013121D02*
X014264Y013211D01*
X014264Y013121D02*
X013682Y013121D01*
X013682Y013211D01*
X014264Y013211D01*
X014264Y013209D02*
X013682Y013209D01*
X014264Y013377D02*
X014264Y013467D01*
X014264Y013377D02*
X013682Y013377D01*
X013682Y013467D01*
X014264Y013467D01*
X014264Y013465D02*
X013682Y013465D01*
X014264Y013633D02*
X014264Y013723D01*
X014264Y013633D02*
X013682Y013633D01*
X013682Y013723D01*
X014264Y013723D01*
X014264Y013721D02*
X013682Y013721D01*
X014264Y013889D02*
X014264Y013979D01*
X014264Y013889D02*
X013682Y013889D01*
X013682Y013979D01*
X014264Y013979D01*
X014264Y013977D02*
X013682Y013977D01*
X014264Y014145D02*
X014264Y014235D01*
X014264Y014145D02*
X013682Y014145D01*
X013682Y014235D01*
X014264Y014235D01*
X014264Y014233D02*
X013682Y014233D01*
X014264Y014401D02*
X014264Y014491D01*
X014264Y014401D02*
X013682Y014401D01*
X013682Y014491D01*
X014264Y014491D01*
X014264Y014489D02*
X013682Y014489D01*
X012059Y014491D02*
X012059Y014401D01*
X011477Y014401D01*
X011477Y014491D01*
X012059Y014491D01*
X012059Y014489D02*
X011477Y014489D01*
X012059Y014235D02*
X012059Y014145D01*
X011477Y014145D01*
X011477Y014235D01*
X012059Y014235D01*
X012059Y014233D02*
X011477Y014233D01*
X012059Y013979D02*
X012059Y013889D01*
X011477Y013889D01*
X011477Y013979D01*
X012059Y013979D01*
X012059Y013977D02*
X011477Y013977D01*
X012059Y013723D02*
X012059Y013633D01*
X011477Y013633D01*
X011477Y013723D01*
X012059Y013723D01*
X012059Y013721D02*
X011477Y013721D01*
X012059Y013467D02*
X012059Y013377D01*
X011477Y013377D01*
X011477Y013467D01*
X012059Y013467D01*
X012059Y013465D02*
X011477Y013465D01*
X012059Y013211D02*
X012059Y013121D01*
X011477Y013121D01*
X011477Y013211D01*
X012059Y013211D01*
X012059Y013209D02*
X011477Y013209D01*
X012059Y012955D02*
X012059Y012865D01*
X011477Y012865D01*
X011477Y012955D01*
X012059Y012955D01*
X012059Y012953D02*
X011477Y012953D01*
X012059Y012699D02*
X012059Y012609D01*
X011477Y012609D01*
X011477Y012699D01*
X012059Y012699D01*
X012059Y012697D02*
X011477Y012697D01*
X009682Y011991D02*
X009682Y011901D01*
X009682Y011991D02*
X010264Y011991D01*
X010264Y011901D01*
X009682Y011901D01*
X009682Y011989D02*
X010264Y011989D01*
X009682Y011735D02*
X009682Y011645D01*
X009682Y011735D02*
X010264Y011735D01*
X010264Y011645D01*
X009682Y011645D01*
X009682Y011733D02*
X010264Y011733D01*
X009682Y011479D02*
X009682Y011389D01*
X009682Y011479D02*
X010264Y011479D01*
X010264Y011389D01*
X009682Y011389D01*
X009682Y011477D02*
X010264Y011477D01*
X009682Y011223D02*
X009682Y011133D01*
X009682Y011223D02*
X010264Y011223D01*
X010264Y011133D01*
X009682Y011133D01*
X009682Y011221D02*
X010264Y011221D01*
X009682Y010967D02*
X009682Y010877D01*
X009682Y010967D02*
X010264Y010967D01*
X010264Y010877D01*
X009682Y010877D01*
X009682Y010965D02*
X010264Y010965D01*
X009682Y010711D02*
X009682Y010621D01*
X009682Y010711D02*
X010264Y010711D01*
X010264Y010621D01*
X009682Y010621D01*
X009682Y010709D02*
X010264Y010709D01*
X009682Y010455D02*
X009682Y010365D01*
X009682Y010455D02*
X010264Y010455D01*
X010264Y010365D01*
X009682Y010365D01*
X009682Y010453D02*
X010264Y010453D01*
X009682Y010199D02*
X009682Y010109D01*
X009682Y010199D02*
X010264Y010199D01*
X010264Y010109D01*
X009682Y010109D01*
X009682Y010197D02*
X010264Y010197D01*
X007477Y010199D02*
X007477Y010109D01*
X007477Y010199D02*
X008059Y010199D01*
X008059Y010109D01*
X007477Y010109D01*
X007477Y010197D02*
X008059Y010197D01*
X007477Y010365D02*
X007477Y010455D01*
X008059Y010455D01*
X008059Y010365D01*
X007477Y010365D01*
X007477Y010453D02*
X008059Y010453D01*
X007477Y010621D02*
X007477Y010711D01*
X008059Y010711D01*
X008059Y010621D01*
X007477Y010621D01*
X007477Y010709D02*
X008059Y010709D01*
X007477Y010877D02*
X007477Y010967D01*
X008059Y010967D01*
X008059Y010877D01*
X007477Y010877D01*
X007477Y010965D02*
X008059Y010965D01*
X007477Y011133D02*
X007477Y011223D01*
X008059Y011223D01*
X008059Y011133D01*
X007477Y011133D01*
X007477Y011221D02*
X008059Y011221D01*
X007477Y011389D02*
X007477Y011479D01*
X008059Y011479D01*
X008059Y011389D01*
X007477Y011389D01*
X007477Y011477D02*
X008059Y011477D01*
X007477Y011645D02*
X007477Y011735D01*
X008059Y011735D01*
X008059Y011645D01*
X007477Y011645D01*
X007477Y011733D02*
X008059Y011733D01*
X007477Y011901D02*
X007477Y011991D01*
X008059Y011991D01*
X008059Y011901D01*
X007477Y011901D01*
X007477Y011989D02*
X008059Y011989D01*
X006932Y012609D02*
X006932Y012699D01*
X007514Y012699D01*
X007514Y012609D01*
X006932Y012609D01*
X006932Y012697D02*
X007514Y012697D01*
X006932Y012865D02*
X006932Y012955D01*
X007514Y012955D01*
X007514Y012865D01*
X006932Y012865D01*
X006932Y012953D02*
X007514Y012953D01*
X006932Y013121D02*
X006932Y013211D01*
X007514Y013211D01*
X007514Y013121D01*
X006932Y013121D01*
X006932Y013209D02*
X007514Y013209D01*
X006932Y013377D02*
X006932Y013467D01*
X007514Y013467D01*
X007514Y013377D01*
X006932Y013377D01*
X006932Y013465D02*
X007514Y013465D01*
X006932Y013633D02*
X006932Y013723D01*
X007514Y013723D01*
X007514Y013633D01*
X006932Y013633D01*
X006932Y013721D02*
X007514Y013721D01*
X006932Y013889D02*
X006932Y013979D01*
X007514Y013979D01*
X007514Y013889D01*
X006932Y013889D01*
X006932Y013977D02*
X007514Y013977D01*
X006932Y014145D02*
X006932Y014235D01*
X007514Y014235D01*
X007514Y014145D01*
X006932Y014145D01*
X006932Y014233D02*
X007514Y014233D01*
X006932Y014401D02*
X006932Y014491D01*
X007514Y014491D01*
X007514Y014401D01*
X006932Y014401D01*
X006932Y014489D02*
X007514Y014489D01*
X004727Y014491D02*
X004727Y014401D01*
X004727Y014491D02*
X005309Y014491D01*
X005309Y014401D01*
X004727Y014401D01*
X004727Y014489D02*
X005309Y014489D01*
X004727Y014235D02*
X004727Y014145D01*
X004727Y014235D02*
X005309Y014235D01*
X005309Y014145D01*
X004727Y014145D01*
X004727Y014233D02*
X005309Y014233D01*
X004727Y013979D02*
X004727Y013889D01*
X004727Y013979D02*
X005309Y013979D01*
X005309Y013889D01*
X004727Y013889D01*
X004727Y013977D02*
X005309Y013977D01*
X004727Y013723D02*
X004727Y013633D01*
X004727Y013723D02*
X005309Y013723D01*
X005309Y013633D01*
X004727Y013633D01*
X004727Y013721D02*
X005309Y013721D01*
X004727Y013467D02*
X004727Y013377D01*
X004727Y013467D02*
X005309Y013467D01*
X005309Y013377D01*
X004727Y013377D01*
X004727Y013465D02*
X005309Y013465D01*
X004727Y013211D02*
X004727Y013121D01*
X004727Y013211D02*
X005309Y013211D01*
X005309Y013121D01*
X004727Y013121D01*
X004727Y013209D02*
X005309Y013209D01*
X004727Y012955D02*
X004727Y012865D01*
X004727Y012955D02*
X005309Y012955D01*
X005309Y012865D01*
X004727Y012865D01*
X004727Y012953D02*
X005309Y012953D01*
X004727Y012699D02*
X004727Y012609D01*
X004727Y012699D02*
X005309Y012699D01*
X005309Y012609D01*
X004727Y012609D01*
X004727Y012697D02*
X005309Y012697D01*
X024477Y012491D02*
X024477Y012401D01*
X024477Y012491D02*
X025059Y012491D01*
X025059Y012401D01*
X024477Y012401D01*
X024477Y012489D02*
X025059Y012489D01*
X024477Y012235D02*
X024477Y012145D01*
X024477Y012235D02*
X025059Y012235D01*
X025059Y012145D01*
X024477Y012145D01*
X024477Y012233D02*
X025059Y012233D01*
X024477Y011979D02*
X024477Y011889D01*
X024477Y011979D02*
X025059Y011979D01*
X025059Y011889D01*
X024477Y011889D01*
X024477Y011977D02*
X025059Y011977D01*
X024477Y011723D02*
X024477Y011633D01*
X024477Y011723D02*
X025059Y011723D01*
X025059Y011633D01*
X024477Y011633D01*
X024477Y011721D02*
X025059Y011721D01*
X024477Y011467D02*
X024477Y011377D01*
X024477Y011467D02*
X025059Y011467D01*
X025059Y011377D01*
X024477Y011377D01*
X024477Y011465D02*
X025059Y011465D01*
X024477Y011211D02*
X024477Y011121D01*
X024477Y011211D02*
X025059Y011211D01*
X025059Y011121D01*
X024477Y011121D01*
X024477Y011209D02*
X025059Y011209D01*
X024477Y010955D02*
X024477Y010865D01*
X024477Y010955D02*
X025059Y010955D01*
X025059Y010865D01*
X024477Y010865D01*
X024477Y010953D02*
X025059Y010953D01*
X024477Y010699D02*
X024477Y010609D01*
X024477Y010699D02*
X025059Y010699D01*
X025059Y010609D01*
X024477Y010609D01*
X024477Y010697D02*
X025059Y010697D01*
X026682Y010699D02*
X026682Y010609D01*
X026682Y010699D02*
X027264Y010699D01*
X027264Y010609D01*
X026682Y010609D01*
X026682Y010697D02*
X027264Y010697D01*
X026682Y010865D02*
X026682Y010955D01*
X027264Y010955D01*
X027264Y010865D01*
X026682Y010865D01*
X026682Y010953D02*
X027264Y010953D01*
X026682Y011121D02*
X026682Y011211D01*
X027264Y011211D01*
X027264Y011121D01*
X026682Y011121D01*
X026682Y011209D02*
X027264Y011209D01*
X026682Y011377D02*
X026682Y011467D01*
X027264Y011467D01*
X027264Y011377D01*
X026682Y011377D01*
X026682Y011465D02*
X027264Y011465D01*
X026682Y011633D02*
X026682Y011723D01*
X027264Y011723D01*
X027264Y011633D01*
X026682Y011633D01*
X026682Y011721D02*
X027264Y011721D01*
X026682Y011889D02*
X026682Y011979D01*
X027264Y011979D01*
X027264Y011889D01*
X026682Y011889D01*
X026682Y011977D02*
X027264Y011977D01*
X026682Y012145D02*
X026682Y012235D01*
X027264Y012235D01*
X027264Y012145D01*
X026682Y012145D01*
X026682Y012233D02*
X027264Y012233D01*
X026682Y012401D02*
X026682Y012491D01*
X027264Y012491D01*
X027264Y012401D01*
X026682Y012401D01*
X026682Y012489D02*
X027264Y012489D01*
X026682Y013609D02*
X026682Y013699D01*
X027264Y013699D01*
X027264Y013609D01*
X026682Y013609D01*
X026682Y013697D02*
X027264Y013697D01*
X026682Y013865D02*
X026682Y013955D01*
X027264Y013955D01*
X027264Y013865D01*
X026682Y013865D01*
X026682Y013953D02*
X027264Y013953D01*
X026682Y014121D02*
X026682Y014211D01*
X027264Y014211D01*
X027264Y014121D01*
X026682Y014121D01*
X026682Y014209D02*
X027264Y014209D01*
X026682Y014377D02*
X026682Y014467D01*
X027264Y014467D01*
X027264Y014377D01*
X026682Y014377D01*
X026682Y014465D02*
X027264Y014465D01*
X026682Y014633D02*
X026682Y014723D01*
X027264Y014723D01*
X027264Y014633D01*
X026682Y014633D01*
X026682Y014721D02*
X027264Y014721D01*
X026682Y014889D02*
X026682Y014979D01*
X027264Y014979D01*
X027264Y014889D01*
X026682Y014889D01*
X026682Y014977D02*
X027264Y014977D01*
X026682Y015145D02*
X026682Y015235D01*
X027264Y015235D01*
X027264Y015145D01*
X026682Y015145D01*
X026682Y015233D02*
X027264Y015233D01*
X026682Y015401D02*
X026682Y015491D01*
X027264Y015491D01*
X027264Y015401D01*
X026682Y015401D01*
X026682Y015489D02*
X027264Y015489D01*
X024477Y015491D02*
X024477Y015401D01*
X024477Y015491D02*
X025059Y015491D01*
X025059Y015401D01*
X024477Y015401D01*
X024477Y015489D02*
X025059Y015489D01*
X024477Y015235D02*
X024477Y015145D01*
X024477Y015235D02*
X025059Y015235D01*
X025059Y015145D01*
X024477Y015145D01*
X024477Y015233D02*
X025059Y015233D01*
X024477Y014979D02*
X024477Y014889D01*
X024477Y014979D02*
X025059Y014979D01*
X025059Y014889D01*
X024477Y014889D01*
X024477Y014977D02*
X025059Y014977D01*
X024477Y014723D02*
X024477Y014633D01*
X024477Y014723D02*
X025059Y014723D01*
X025059Y014633D01*
X024477Y014633D01*
X024477Y014721D02*
X025059Y014721D01*
X024477Y014467D02*
X024477Y014377D01*
X024477Y014467D02*
X025059Y014467D01*
X025059Y014377D01*
X024477Y014377D01*
X024477Y014465D02*
X025059Y014465D01*
X024477Y014211D02*
X024477Y014121D01*
X024477Y014211D02*
X025059Y014211D01*
X025059Y014121D01*
X024477Y014121D01*
X024477Y014209D02*
X025059Y014209D01*
X024477Y013955D02*
X024477Y013865D01*
X024477Y013955D02*
X025059Y013955D01*
X025059Y013865D01*
X024477Y013865D01*
X024477Y013953D02*
X025059Y013953D01*
X024477Y013699D02*
X024477Y013609D01*
X024477Y013699D02*
X025059Y013699D01*
X025059Y013609D01*
X024477Y013609D01*
X024477Y013697D02*
X025059Y013697D01*
D14*
X018190Y022545D02*
X018052Y022545D01*
X018190Y022545D02*
X018190Y021855D01*
X018052Y021855D01*
X018052Y022545D01*
X018052Y021992D02*
X018190Y021992D01*
X018190Y022129D02*
X018052Y022129D01*
X018052Y022266D02*
X018190Y022266D01*
X018190Y022403D02*
X018052Y022403D01*
X018052Y022540D02*
X018190Y022540D01*
X017690Y022545D02*
X017552Y022545D01*
X017690Y022545D02*
X017690Y021855D01*
X017552Y021855D01*
X017552Y022545D01*
X017552Y021992D02*
X017690Y021992D01*
X017690Y022129D02*
X017552Y022129D01*
X017552Y022266D02*
X017690Y022266D01*
X017690Y022403D02*
X017552Y022403D01*
X017552Y022540D02*
X017690Y022540D01*
X017190Y022545D02*
X017052Y022545D01*
X017190Y022545D02*
X017190Y021855D01*
X017052Y021855D01*
X017052Y022545D01*
X017052Y021992D02*
X017190Y021992D01*
X017190Y022129D02*
X017052Y022129D01*
X017052Y022266D02*
X017190Y022266D01*
X017190Y022403D02*
X017052Y022403D01*
X017052Y022540D02*
X017190Y022540D01*
X016690Y022545D02*
X016552Y022545D01*
X016690Y022545D02*
X016690Y021855D01*
X016552Y021855D01*
X016552Y022545D01*
X016552Y021992D02*
X016690Y021992D01*
X016690Y022129D02*
X016552Y022129D01*
X016552Y022266D02*
X016690Y022266D01*
X016690Y022403D02*
X016552Y022403D01*
X016552Y022540D02*
X016690Y022540D01*
X016190Y022545D02*
X016052Y022545D01*
X016190Y022545D02*
X016190Y021855D01*
X016052Y021855D01*
X016052Y022545D01*
X016052Y021992D02*
X016190Y021992D01*
X016190Y022129D02*
X016052Y022129D01*
X016052Y022266D02*
X016190Y022266D01*
X016190Y022403D02*
X016052Y022403D01*
X016052Y022540D02*
X016190Y022540D01*
X015690Y022545D02*
X015552Y022545D01*
X015690Y022545D02*
X015690Y021855D01*
X015552Y021855D01*
X015552Y022545D01*
X015552Y021992D02*
X015690Y021992D01*
X015690Y022129D02*
X015552Y022129D01*
X015552Y022266D02*
X015690Y022266D01*
X015690Y022403D02*
X015552Y022403D01*
X015552Y022540D02*
X015690Y022540D01*
X015190Y022545D02*
X015052Y022545D01*
X015190Y022545D02*
X015190Y021855D01*
X015052Y021855D01*
X015052Y022545D01*
X015052Y021992D02*
X015190Y021992D01*
X015190Y022129D02*
X015052Y022129D01*
X015052Y022266D02*
X015190Y022266D01*
X015190Y022403D02*
X015052Y022403D01*
X015052Y022540D02*
X015190Y022540D01*
X014690Y022545D02*
X014552Y022545D01*
X014690Y022545D02*
X014690Y021855D01*
X014552Y021855D01*
X014552Y022545D01*
X014552Y021992D02*
X014690Y021992D01*
X014690Y022129D02*
X014552Y022129D01*
X014552Y022266D02*
X014690Y022266D01*
X014690Y022403D02*
X014552Y022403D01*
X014552Y022540D02*
X014690Y022540D01*
X014190Y022545D02*
X014052Y022545D01*
X014190Y022545D02*
X014190Y021855D01*
X014052Y021855D01*
X014052Y022545D01*
X014052Y021992D02*
X014190Y021992D01*
X014190Y022129D02*
X014052Y022129D01*
X014052Y022266D02*
X014190Y022266D01*
X014190Y022403D02*
X014052Y022403D01*
X014052Y022540D02*
X014190Y022540D01*
X013690Y022545D02*
X013552Y022545D01*
X013690Y022545D02*
X013690Y021855D01*
X013552Y021855D01*
X013552Y022545D01*
X013552Y021992D02*
X013690Y021992D01*
X013690Y022129D02*
X013552Y022129D01*
X013552Y022266D02*
X013690Y022266D01*
X013690Y022403D02*
X013552Y022403D01*
X013552Y022540D02*
X013690Y022540D01*
X013190Y022545D02*
X013052Y022545D01*
X013190Y022545D02*
X013190Y021855D01*
X013052Y021855D01*
X013052Y022545D01*
X013052Y021992D02*
X013190Y021992D01*
X013190Y022129D02*
X013052Y022129D01*
X013052Y022266D02*
X013190Y022266D01*
X013190Y022403D02*
X013052Y022403D01*
X013052Y022540D02*
X013190Y022540D01*
X012690Y022545D02*
X012552Y022545D01*
X012690Y022545D02*
X012690Y021855D01*
X012552Y021855D01*
X012552Y022545D01*
X012552Y021992D02*
X012690Y021992D01*
X012690Y022129D02*
X012552Y022129D01*
X012552Y022266D02*
X012690Y022266D01*
X012690Y022403D02*
X012552Y022403D01*
X012552Y022540D02*
X012690Y022540D01*
X012690Y026245D02*
X012552Y026245D01*
X012690Y026245D02*
X012690Y025555D01*
X012552Y025555D01*
X012552Y026245D01*
X012552Y025692D02*
X012690Y025692D01*
X012690Y025829D02*
X012552Y025829D01*
X012552Y025966D02*
X012690Y025966D01*
X012690Y026103D02*
X012552Y026103D01*
X012552Y026240D02*
X012690Y026240D01*
X013052Y026245D02*
X013190Y026245D01*
X013190Y025555D01*
X013052Y025555D01*
X013052Y026245D01*
X013052Y025692D02*
X013190Y025692D01*
X013190Y025829D02*
X013052Y025829D01*
X013052Y025966D02*
X013190Y025966D01*
X013190Y026103D02*
X013052Y026103D01*
X013052Y026240D02*
X013190Y026240D01*
X013552Y026245D02*
X013690Y026245D01*
X013690Y025555D01*
X013552Y025555D01*
X013552Y026245D01*
X013552Y025692D02*
X013690Y025692D01*
X013690Y025829D02*
X013552Y025829D01*
X013552Y025966D02*
X013690Y025966D01*
X013690Y026103D02*
X013552Y026103D01*
X013552Y026240D02*
X013690Y026240D01*
X014052Y026245D02*
X014190Y026245D01*
X014190Y025555D01*
X014052Y025555D01*
X014052Y026245D01*
X014052Y025692D02*
X014190Y025692D01*
X014190Y025829D02*
X014052Y025829D01*
X014052Y025966D02*
X014190Y025966D01*
X014190Y026103D02*
X014052Y026103D01*
X014052Y026240D02*
X014190Y026240D01*
X014552Y026245D02*
X014690Y026245D01*
X014690Y025555D01*
X014552Y025555D01*
X014552Y026245D01*
X014552Y025692D02*
X014690Y025692D01*
X014690Y025829D02*
X014552Y025829D01*
X014552Y025966D02*
X014690Y025966D01*
X014690Y026103D02*
X014552Y026103D01*
X014552Y026240D02*
X014690Y026240D01*
X015052Y026245D02*
X015190Y026245D01*
X015190Y025555D01*
X015052Y025555D01*
X015052Y026245D01*
X015052Y025692D02*
X015190Y025692D01*
X015190Y025829D02*
X015052Y025829D01*
X015052Y025966D02*
X015190Y025966D01*
X015190Y026103D02*
X015052Y026103D01*
X015052Y026240D02*
X015190Y026240D01*
X015552Y026245D02*
X015690Y026245D01*
X015690Y025555D01*
X015552Y025555D01*
X015552Y026245D01*
X015552Y025692D02*
X015690Y025692D01*
X015690Y025829D02*
X015552Y025829D01*
X015552Y025966D02*
X015690Y025966D01*
X015690Y026103D02*
X015552Y026103D01*
X015552Y026240D02*
X015690Y026240D01*
X016052Y026245D02*
X016190Y026245D01*
X016190Y025555D01*
X016052Y025555D01*
X016052Y026245D01*
X016052Y025692D02*
X016190Y025692D01*
X016190Y025829D02*
X016052Y025829D01*
X016052Y025966D02*
X016190Y025966D01*
X016190Y026103D02*
X016052Y026103D01*
X016052Y026240D02*
X016190Y026240D01*
X016552Y026245D02*
X016690Y026245D01*
X016690Y025555D01*
X016552Y025555D01*
X016552Y026245D01*
X016552Y025692D02*
X016690Y025692D01*
X016690Y025829D02*
X016552Y025829D01*
X016552Y025966D02*
X016690Y025966D01*
X016690Y026103D02*
X016552Y026103D01*
X016552Y026240D02*
X016690Y026240D01*
X017052Y026245D02*
X017190Y026245D01*
X017190Y025555D01*
X017052Y025555D01*
X017052Y026245D01*
X017052Y025692D02*
X017190Y025692D01*
X017190Y025829D02*
X017052Y025829D01*
X017052Y025966D02*
X017190Y025966D01*
X017190Y026103D02*
X017052Y026103D01*
X017052Y026240D02*
X017190Y026240D01*
X017552Y026245D02*
X017690Y026245D01*
X017690Y025555D01*
X017552Y025555D01*
X017552Y026245D01*
X017552Y025692D02*
X017690Y025692D01*
X017690Y025829D02*
X017552Y025829D01*
X017552Y025966D02*
X017690Y025966D01*
X017690Y026103D02*
X017552Y026103D01*
X017552Y026240D02*
X017690Y026240D01*
X018052Y026245D02*
X018190Y026245D01*
X018190Y025555D01*
X018052Y025555D01*
X018052Y026245D01*
X018052Y025692D02*
X018190Y025692D01*
X018190Y025829D02*
X018052Y025829D01*
X018052Y025966D02*
X018190Y025966D01*
X018190Y026103D02*
X018052Y026103D01*
X018052Y026240D02*
X018190Y026240D01*
D15*
X019231Y025985D02*
X019231Y025705D01*
X019231Y025985D02*
X019511Y025985D01*
X019511Y025705D01*
X019231Y025705D01*
X019231Y025798D02*
X019511Y025798D01*
X019511Y025891D02*
X019231Y025891D01*
X019231Y025984D02*
X019511Y025984D01*
X019981Y025985D02*
X019981Y025705D01*
X019981Y025985D02*
X020261Y025985D01*
X020261Y025705D01*
X019981Y025705D01*
X019981Y025798D02*
X020261Y025798D01*
X020261Y025891D02*
X019981Y025891D01*
X019981Y025984D02*
X020261Y025984D01*
X020731Y025985D02*
X020731Y025705D01*
X020731Y025985D02*
X021011Y025985D01*
X021011Y025705D01*
X020731Y025705D01*
X020731Y025798D02*
X021011Y025798D01*
X021011Y025891D02*
X020731Y025891D01*
X020731Y025984D02*
X021011Y025984D01*
X020731Y025395D02*
X020731Y025115D01*
X020731Y025395D02*
X021011Y025395D01*
X021011Y025115D01*
X020731Y025115D01*
X020731Y025208D02*
X021011Y025208D01*
X021011Y025301D02*
X020731Y025301D01*
X020731Y025394D02*
X021011Y025394D01*
X019981Y025395D02*
X019981Y025115D01*
X019981Y025395D02*
X020261Y025395D01*
X020261Y025115D01*
X019981Y025115D01*
X019981Y025208D02*
X020261Y025208D01*
X020261Y025301D02*
X019981Y025301D01*
X019981Y025394D02*
X020261Y025394D01*
X019231Y025395D02*
X019231Y025115D01*
X019231Y025395D02*
X019511Y025395D01*
X019511Y025115D01*
X019231Y025115D01*
X019231Y025208D02*
X019511Y025208D01*
X019511Y025301D02*
X019231Y025301D01*
X019231Y025394D02*
X019511Y025394D01*
X010829Y017456D02*
X010632Y017259D01*
X010829Y017456D02*
X011026Y017259D01*
X010829Y017062D01*
X010632Y017259D01*
X010736Y017155D02*
X010922Y017155D01*
X011015Y017248D02*
X010643Y017248D01*
X010714Y017341D02*
X010944Y017341D01*
X010851Y017434D02*
X010807Y017434D01*
X010412Y017038D02*
X010215Y016841D01*
X010412Y017038D02*
X010609Y016841D01*
X010412Y016644D01*
X010215Y016841D01*
X010319Y016737D02*
X010505Y016737D01*
X010598Y016830D02*
X010226Y016830D01*
X010297Y016923D02*
X010527Y016923D01*
X010434Y017016D02*
X010390Y017016D01*
X009481Y017115D02*
X009481Y017395D01*
X009761Y017395D01*
X009761Y017115D01*
X009481Y017115D01*
X009481Y017208D02*
X009761Y017208D01*
X009761Y017301D02*
X009481Y017301D01*
X009481Y017394D02*
X009761Y017394D01*
X009481Y017705D02*
X009481Y017985D01*
X009761Y017985D01*
X009761Y017705D01*
X009481Y017705D01*
X009481Y017798D02*
X009761Y017798D01*
X009761Y017891D02*
X009481Y017891D01*
X009481Y017984D02*
X009761Y017984D01*
X008632Y016841D02*
X008829Y016644D01*
X008632Y016841D02*
X008829Y017038D01*
X009026Y016841D01*
X008829Y016644D01*
X008922Y016737D02*
X008736Y016737D01*
X008643Y016830D02*
X009015Y016830D01*
X008944Y016923D02*
X008714Y016923D01*
X008807Y017016D02*
X008851Y017016D01*
X008412Y017062D02*
X008215Y017259D01*
X008412Y017456D01*
X008609Y017259D01*
X008412Y017062D01*
X008505Y017155D02*
X008319Y017155D01*
X008226Y017248D02*
X008598Y017248D01*
X008527Y017341D02*
X008297Y017341D01*
X008390Y017434D02*
X008434Y017434D01*
X008556Y015910D02*
X008276Y015910D01*
X008276Y016190D01*
X008556Y016190D01*
X008556Y015910D01*
X008556Y016003D02*
X008276Y016003D01*
X008276Y016096D02*
X008556Y016096D01*
X008556Y016189D02*
X008276Y016189D01*
X007965Y015910D02*
X007685Y015910D01*
X007685Y016190D01*
X007965Y016190D01*
X007965Y015910D01*
X007965Y016003D02*
X007685Y016003D01*
X007685Y016096D02*
X007965Y016096D01*
X007965Y016189D02*
X007685Y016189D01*
X008829Y015062D02*
X009026Y015259D01*
X008829Y015062D02*
X008632Y015259D01*
X008829Y015456D01*
X009026Y015259D01*
X008922Y015155D02*
X008736Y015155D01*
X008643Y015248D02*
X009015Y015248D01*
X008944Y015341D02*
X008714Y015341D01*
X008807Y015434D02*
X008851Y015434D01*
X008609Y014841D02*
X008412Y014644D01*
X008215Y014841D01*
X008412Y015038D01*
X008609Y014841D01*
X008505Y014737D02*
X008319Y014737D01*
X008226Y014830D02*
X008598Y014830D01*
X008527Y014923D02*
X008297Y014923D01*
X008390Y015016D02*
X008434Y015016D01*
X009761Y014985D02*
X009761Y014705D01*
X009481Y014705D01*
X009481Y014985D01*
X009761Y014985D01*
X009761Y014798D02*
X009481Y014798D01*
X009481Y014891D02*
X009761Y014891D01*
X009761Y014984D02*
X009481Y014984D01*
X009761Y014395D02*
X009761Y014115D01*
X009481Y014115D01*
X009481Y014395D01*
X009761Y014395D01*
X009761Y014208D02*
X009481Y014208D01*
X009481Y014301D02*
X009761Y014301D01*
X009761Y014394D02*
X009481Y014394D01*
X010412Y015456D02*
X010609Y015259D01*
X010412Y015062D01*
X010215Y015259D01*
X010412Y015456D01*
X010505Y015155D02*
X010319Y015155D01*
X010226Y015248D02*
X010598Y015248D01*
X010527Y015341D02*
X010297Y015341D01*
X010390Y015434D02*
X010434Y015434D01*
X010829Y015038D02*
X011026Y014841D01*
X010829Y014644D01*
X010632Y014841D01*
X010829Y015038D01*
X010922Y014737D02*
X010736Y014737D01*
X010643Y014830D02*
X011015Y014830D01*
X010944Y014923D02*
X010714Y014923D01*
X010807Y015016D02*
X010851Y015016D01*
X010965Y016190D02*
X010685Y016190D01*
X010965Y016190D02*
X010965Y015910D01*
X010685Y015910D01*
X010685Y016190D01*
X010685Y016003D02*
X010965Y016003D01*
X010965Y016096D02*
X010685Y016096D01*
X010685Y016189D02*
X010965Y016189D01*
X011276Y016190D02*
X011556Y016190D01*
X011556Y015910D01*
X011276Y015910D01*
X011276Y016190D01*
X011276Y016003D02*
X011556Y016003D01*
X011556Y016096D02*
X011276Y016096D01*
X011276Y016189D02*
X011556Y016189D01*
D16*
X026071Y021680D02*
X026071Y021868D01*
X026071Y021680D02*
X025567Y021680D01*
X025567Y021868D01*
X026071Y021868D01*
X026071Y021866D02*
X025567Y021866D01*
X026071Y022232D02*
X026071Y022420D01*
X026071Y022232D02*
X025567Y022232D01*
X025567Y022420D01*
X026071Y022420D01*
X026071Y022418D02*
X025567Y022418D01*
X027174Y022420D02*
X027174Y022232D01*
X026670Y022232D01*
X026670Y022420D01*
X027174Y022420D01*
X027174Y022418D02*
X026670Y022418D01*
X027174Y021868D02*
X027174Y021680D01*
X026670Y021680D01*
X026670Y021868D01*
X027174Y021868D01*
X027174Y021866D02*
X026670Y021866D01*
D17*
X023689Y012451D02*
X023689Y012223D01*
X022635Y012223D01*
X022635Y012451D01*
X023689Y012451D01*
X023689Y012449D02*
X022635Y012449D01*
X023689Y010877D02*
X023689Y010649D01*
X022635Y010649D01*
X022635Y010877D01*
X023689Y010877D01*
X023689Y010875D02*
X022635Y010875D01*
X024189Y009451D02*
X024189Y009223D01*
X023135Y009223D01*
X023135Y009451D01*
X024189Y009451D01*
X024189Y009449D02*
X023135Y009449D01*
X024189Y007877D02*
X024189Y007649D01*
X023135Y007649D01*
X023135Y007877D01*
X024189Y007877D01*
X024189Y007875D02*
X023135Y007875D01*
X020606Y007877D02*
X020606Y007649D01*
X019552Y007649D01*
X019552Y007877D01*
X020606Y007877D01*
X020606Y007875D02*
X019552Y007875D01*
X020606Y009223D02*
X020606Y009451D01*
X020606Y009223D02*
X019552Y009223D01*
X019552Y009451D01*
X020606Y009451D01*
X020606Y009449D02*
X019552Y009449D01*
X020106Y010649D02*
X020106Y010877D01*
X020106Y010649D02*
X019052Y010649D01*
X019052Y010877D01*
X020106Y010877D01*
X020106Y010875D02*
X019052Y010875D01*
X020106Y012223D02*
X020106Y012451D01*
X020106Y012223D02*
X019052Y012223D01*
X019052Y012451D01*
X020106Y012451D01*
X020106Y012449D02*
X019052Y012449D01*
D18*
X014264Y019442D02*
X014078Y019442D01*
X014078Y019658D01*
X014264Y019658D01*
X014264Y019442D01*
X014264Y019626D02*
X014078Y019626D01*
X013664Y019442D02*
X013478Y019442D01*
X013478Y019658D01*
X013664Y019658D01*
X013664Y019442D01*
X013664Y019626D02*
X013478Y019626D01*
X013478Y020442D02*
X013664Y020442D01*
X013478Y020442D02*
X013478Y020658D01*
X013664Y020658D01*
X013664Y020442D01*
X013664Y020626D02*
X013478Y020626D01*
X014078Y020442D02*
X014264Y020442D01*
X014078Y020442D02*
X014078Y020658D01*
X014264Y020658D01*
X014264Y020442D01*
X014264Y020626D02*
X014078Y020626D01*
X008979Y020757D02*
X008979Y020943D01*
X008979Y020757D02*
X008763Y020757D01*
X008763Y020943D01*
X008979Y020943D01*
X008979Y020941D02*
X008763Y020941D01*
X008229Y020943D02*
X008229Y020757D01*
X008013Y020757D01*
X008013Y020943D01*
X008229Y020943D01*
X008229Y020941D02*
X008013Y020941D01*
X008229Y020343D02*
X008229Y020157D01*
X008013Y020157D01*
X008013Y020343D01*
X008229Y020343D01*
X008229Y020341D02*
X008013Y020341D01*
X008979Y020343D02*
X008979Y020157D01*
X008763Y020157D01*
X008763Y020343D01*
X008979Y020343D01*
X008979Y020341D02*
X008763Y020341D01*
X009228Y016158D02*
X009414Y016158D01*
X009414Y015942D01*
X009228Y015942D01*
X009228Y016158D01*
X009228Y016126D02*
X009414Y016126D01*
X009828Y016158D02*
X010014Y016158D01*
X010014Y015942D01*
X009828Y015942D01*
X009828Y016158D01*
X009828Y016126D02*
X010014Y016126D01*
X019228Y024158D02*
X019414Y024158D01*
X019414Y023942D01*
X019228Y023942D01*
X019228Y024158D01*
X019228Y024126D02*
X019414Y024126D01*
X019828Y024158D02*
X020014Y024158D01*
X020014Y023942D01*
X019828Y023942D01*
X019828Y024158D01*
X019828Y024126D02*
X020014Y024126D01*
X027978Y022158D02*
X028164Y022158D01*
X028164Y021942D01*
X027978Y021942D01*
X027978Y022158D01*
X027978Y022126D02*
X028164Y022126D01*
X028578Y022158D02*
X028764Y022158D01*
X028764Y021942D01*
X028578Y021942D01*
X028578Y022158D01*
X028578Y022126D02*
X028764Y022126D01*
D19*
X012130Y019980D02*
X011612Y019980D01*
X011612Y021246D01*
X012130Y021246D01*
X012130Y019980D01*
X012130Y020151D02*
X011612Y020151D01*
X011612Y020322D02*
X012130Y020322D01*
X012130Y020493D02*
X011612Y020493D01*
X011612Y020664D02*
X012130Y020664D01*
X012130Y020835D02*
X011612Y020835D01*
X011612Y021006D02*
X012130Y021006D01*
X012130Y021177D02*
X011612Y021177D01*
X011612Y017854D02*
X012130Y017854D01*
X011612Y017854D02*
X011612Y019120D01*
X012130Y019120D01*
X012130Y017854D01*
X012130Y018025D02*
X011612Y018025D01*
X011612Y018196D02*
X012130Y018196D01*
X012130Y018367D02*
X011612Y018367D01*
X011612Y018538D02*
X012130Y018538D01*
X012130Y018709D02*
X011612Y018709D01*
X011612Y018880D02*
X012130Y018880D01*
X012130Y019051D02*
X011612Y019051D01*
D20*
X007371Y025050D03*
X007371Y008550D03*
X026371Y008550D03*
X026371Y025050D03*
D21*
X022496Y018635D02*
X022496Y017865D01*
X022246Y017865D01*
X022246Y018635D01*
X022496Y018635D01*
X022496Y018114D02*
X022246Y018114D01*
X022246Y018363D02*
X022496Y018363D01*
X022496Y018612D02*
X022246Y018612D01*
X021496Y018635D02*
X021496Y017865D01*
X021246Y017865D01*
X021246Y018635D01*
X021496Y018635D01*
X021496Y018114D02*
X021246Y018114D01*
X021246Y018363D02*
X021496Y018363D01*
X021496Y018612D02*
X021246Y018612D01*
X020496Y018635D02*
X020496Y017865D01*
X020246Y017865D01*
X020246Y018635D01*
X020496Y018635D01*
X020496Y018114D02*
X020246Y018114D01*
X020246Y018363D02*
X020496Y018363D01*
X020496Y018612D02*
X020246Y018612D01*
X020496Y015235D02*
X020496Y014465D01*
X020246Y014465D01*
X020246Y015235D01*
X020496Y015235D01*
X020496Y014714D02*
X020246Y014714D01*
X020246Y014963D02*
X020496Y014963D01*
X020496Y015212D02*
X020246Y015212D01*
X021496Y015235D02*
X021496Y014465D01*
X021246Y014465D01*
X021246Y015235D01*
X021496Y015235D01*
X021496Y014714D02*
X021246Y014714D01*
X021246Y014963D02*
X021496Y014963D01*
X021496Y015212D02*
X021246Y015212D01*
X022496Y015235D02*
X022496Y014465D01*
X022246Y014465D01*
X022246Y015235D01*
X022496Y015235D01*
X022496Y014714D02*
X022246Y014714D01*
X022246Y014963D02*
X022496Y014963D01*
X022496Y015212D02*
X022246Y015212D01*
M02*
