G75*
%MOIN*%
%OFA0B0*%
%FSLAX24Y24*%
%IPPOS*%
%LPD*%
%AMOC8*
5,1,8,0,0,1.08239X$1,22.5*
%
%ADD10R,0.0532X0.0532*%
%ADD11C,0.0532*%
%ADD12C,0.1635*%
D10*
X003871Y001550D03*
X003871Y003050D03*
X003871Y004550D03*
X003871Y006050D03*
X005871Y006050D03*
X005871Y004550D03*
X005871Y003050D03*
X005871Y001550D03*
X008371Y001550D03*
X008371Y003050D03*
X008371Y004550D03*
X008371Y006050D03*
X011371Y006050D03*
X011371Y004550D03*
X011371Y003050D03*
X011371Y001550D03*
X014871Y001550D03*
X014871Y003050D03*
X014871Y004550D03*
X014871Y006050D03*
X017871Y006050D03*
X017871Y004550D03*
X017871Y003050D03*
X017871Y001550D03*
X021371Y001550D03*
X021371Y003050D03*
X021371Y004550D03*
X021371Y006050D03*
X024371Y006050D03*
X024371Y004550D03*
X024371Y003050D03*
X024371Y001550D03*
X028371Y001550D03*
X029871Y001550D03*
X029871Y004550D03*
X028371Y004550D03*
X028371Y008050D03*
X029871Y008050D03*
X029871Y011050D03*
X028371Y011050D03*
X028371Y014550D03*
X029871Y014550D03*
X029871Y017550D03*
X028371Y017550D03*
X028371Y027550D03*
X027371Y027550D03*
X026371Y027550D03*
X016371Y017550D03*
X010871Y025550D03*
X009871Y025550D03*
X007371Y021550D03*
X005371Y021050D03*
X003871Y021050D03*
X007371Y018550D03*
X004871Y025550D03*
X003871Y025550D03*
X003871Y009050D03*
D11*
X003871Y010050D03*
X003871Y011050D03*
X003871Y012050D03*
X003871Y013050D03*
X003871Y014050D03*
X003871Y015050D03*
X003871Y016050D03*
X003871Y019050D03*
X003871Y020050D03*
X005371Y020050D03*
X005371Y019050D03*
X007371Y019550D03*
X007371Y022550D03*
X009871Y022550D03*
X010871Y022550D03*
X010871Y023550D03*
X010871Y024550D03*
X009871Y024550D03*
X009871Y023550D03*
X010371Y027550D03*
X011371Y027550D03*
X012371Y027550D03*
X013371Y027550D03*
X014371Y027550D03*
X015371Y027550D03*
X016371Y027550D03*
X017371Y027550D03*
X018371Y027550D03*
X019371Y027550D03*
X020371Y027550D03*
X021371Y027550D03*
X022371Y027550D03*
X023371Y027550D03*
X024371Y027550D03*
X025371Y027550D03*
X028371Y019550D03*
X028371Y018550D03*
X029871Y018550D03*
X029871Y019550D03*
X029871Y016550D03*
X029871Y015550D03*
X028371Y015550D03*
X028371Y016550D03*
X028371Y013050D03*
X028371Y012050D03*
X029871Y012050D03*
X029871Y013050D03*
X029871Y010050D03*
X029871Y009050D03*
X028371Y009050D03*
X028371Y010050D03*
X028371Y006550D03*
X028371Y005550D03*
X029871Y005550D03*
X029871Y006550D03*
X029871Y003550D03*
X029871Y002550D03*
X028371Y002550D03*
X028371Y003550D03*
X026371Y003050D03*
X025371Y003050D03*
X025371Y001550D03*
X026371Y001550D03*
X023371Y001550D03*
X022371Y001550D03*
X022371Y003050D03*
X023371Y003050D03*
X023371Y004550D03*
X022371Y004550D03*
X022371Y006050D03*
X023371Y006050D03*
X025371Y006050D03*
X026371Y006050D03*
X026371Y004550D03*
X025371Y004550D03*
X019871Y004550D03*
X018871Y004550D03*
X018871Y003050D03*
X019871Y003050D03*
X019871Y001550D03*
X018871Y001550D03*
X016871Y001550D03*
X015871Y001550D03*
X015871Y003050D03*
X016871Y003050D03*
X016871Y004550D03*
X015871Y004550D03*
X015871Y006050D03*
X016871Y006050D03*
X018871Y006050D03*
X019871Y006050D03*
X013371Y006050D03*
X012371Y006050D03*
X012371Y004550D03*
X013371Y004550D03*
X013371Y003050D03*
X012371Y003050D03*
X012371Y001550D03*
X013371Y001550D03*
X010371Y001550D03*
X009371Y001550D03*
X009371Y003050D03*
X010371Y003050D03*
X010371Y004550D03*
X009371Y004550D03*
X009371Y006050D03*
X010371Y006050D03*
X006871Y006050D03*
X006871Y004550D03*
X006871Y003050D03*
X006871Y001550D03*
X004871Y001550D03*
X004871Y003050D03*
X004871Y004550D03*
X004871Y006050D03*
X016371Y015550D03*
X017371Y015550D03*
X017371Y016550D03*
X017371Y017550D03*
X016371Y016550D03*
X004871Y022550D03*
X003871Y022550D03*
X003871Y023550D03*
X004871Y023550D03*
X004871Y024550D03*
X003871Y024550D03*
X005371Y027550D03*
X006371Y027550D03*
X007371Y027550D03*
X008371Y027550D03*
X009371Y027550D03*
D12*
X007371Y025050D03*
X007371Y008550D03*
X026371Y008550D03*
X026371Y025050D03*
M02*
