G75*
%MOIN*%
%OFA0B0*%
%FSLAX24Y24*%
%IPPOS*%
%LPD*%
%AMOC8*
5,1,8,0,0,1.08239X$1,22.5*
%
%ADD10C,0.0100*%
%ADD11C,0.0040*%
%ADD12C,0.0160*%
D10*
X003730Y006800D02*
X003997Y006800D01*
X003863Y006800D02*
X003863Y007200D01*
X003730Y007067D01*
X004190Y007000D02*
X004457Y007000D01*
X004651Y007000D02*
X004918Y007000D01*
X004851Y006800D02*
X004851Y007200D01*
X004651Y007000D01*
X005730Y007000D02*
X005863Y007067D01*
X005930Y007067D01*
X005997Y007000D01*
X005997Y006867D01*
X005930Y006800D01*
X005797Y006800D01*
X005730Y006867D01*
X005730Y007000D02*
X005730Y007200D01*
X005997Y007200D01*
X006190Y007000D02*
X006457Y007000D01*
X006651Y006933D02*
X006718Y007000D01*
X006851Y007000D01*
X006918Y006933D01*
X006918Y006867D01*
X006851Y006800D01*
X006718Y006800D01*
X006651Y006867D01*
X006651Y006933D01*
X006718Y007000D02*
X006651Y007067D01*
X006651Y007134D01*
X006718Y007200D01*
X006851Y007200D01*
X006918Y007134D01*
X006918Y007067D01*
X006851Y007000D01*
X008695Y006800D02*
X008829Y006800D01*
X008762Y006800D02*
X008762Y007200D01*
X008695Y007200D02*
X008829Y007200D01*
X009002Y007200D02*
X009202Y007200D01*
X009269Y007134D01*
X009269Y007000D01*
X009202Y006933D01*
X009002Y006933D01*
X009002Y006800D02*
X009002Y007200D01*
X009136Y006933D02*
X009269Y006800D01*
X009923Y006800D02*
X010190Y006800D01*
X010057Y006800D02*
X010057Y007200D01*
X009923Y007067D01*
X010383Y007000D02*
X010650Y007000D01*
X010844Y007000D02*
X011111Y007000D01*
X011044Y006800D02*
X011044Y007200D01*
X010844Y007000D01*
X011765Y007000D02*
X011898Y007067D01*
X011965Y007067D01*
X012032Y007000D01*
X012032Y006867D01*
X011965Y006800D01*
X011831Y006800D01*
X011765Y006867D01*
X011765Y007000D02*
X011765Y007200D01*
X012032Y007200D01*
X012225Y007000D02*
X012492Y007000D01*
X012685Y006933D02*
X012752Y007000D01*
X012886Y007000D01*
X012952Y006933D01*
X012952Y006867D01*
X012886Y006800D01*
X012752Y006800D01*
X012685Y006867D01*
X012685Y006933D01*
X012752Y007000D02*
X012685Y007067D01*
X012685Y007134D01*
X012752Y007200D01*
X012886Y007200D01*
X012952Y007134D01*
X012952Y007067D01*
X012886Y007000D01*
X014658Y007200D02*
X014925Y007200D01*
X014792Y007200D02*
X014792Y006800D01*
X015119Y006800D02*
X015119Y007200D01*
X015386Y007200D01*
X015579Y007200D02*
X015579Y006800D01*
X015386Y006800D02*
X015119Y006800D01*
X015119Y007000D02*
X015252Y007000D01*
X015579Y007200D02*
X015712Y007067D01*
X015846Y007200D01*
X015846Y006800D01*
X016039Y006800D02*
X016039Y007200D01*
X016240Y007200D01*
X016306Y007134D01*
X016306Y007000D01*
X016240Y006933D01*
X016039Y006933D01*
X016960Y006800D02*
X017227Y006800D01*
X017094Y006800D02*
X017094Y007200D01*
X016960Y007067D01*
X017421Y007000D02*
X017687Y007000D01*
X017881Y007000D02*
X018148Y007000D01*
X018081Y006800D02*
X018081Y007200D01*
X017881Y007000D01*
X018802Y007000D02*
X018935Y007067D01*
X019002Y007067D01*
X019069Y007000D01*
X019069Y006867D01*
X019002Y006800D01*
X018868Y006800D01*
X018802Y006867D01*
X018802Y007000D02*
X018802Y007200D01*
X019069Y007200D01*
X019262Y007000D02*
X019529Y007000D01*
X019723Y006933D02*
X019789Y007000D01*
X019923Y007000D01*
X019989Y006933D01*
X019989Y006867D01*
X019923Y006800D01*
X019789Y006800D01*
X019723Y006867D01*
X019723Y006933D01*
X019789Y007000D02*
X019723Y007067D01*
X019723Y007134D01*
X019789Y007200D01*
X019923Y007200D01*
X019989Y007134D01*
X019989Y007067D01*
X019923Y007000D01*
X020928Y006800D02*
X021195Y006800D01*
X021388Y006867D02*
X021388Y007134D01*
X021455Y007200D01*
X021589Y007200D01*
X021655Y007134D01*
X021655Y007000D02*
X021522Y007000D01*
X021655Y007000D02*
X021655Y006867D01*
X021589Y006800D01*
X021455Y006800D01*
X021388Y006867D01*
X021849Y007200D02*
X022116Y007200D01*
X021982Y007200D02*
X021982Y006800D01*
X022309Y006733D02*
X022576Y006733D01*
X022770Y006800D02*
X022770Y007200D01*
X022970Y007200D01*
X023037Y007134D01*
X023037Y007067D01*
X022970Y007000D01*
X022770Y007000D01*
X022970Y007000D02*
X023037Y006933D01*
X023037Y006867D01*
X022970Y006800D01*
X022770Y006800D01*
X023690Y006800D02*
X023957Y006800D01*
X023824Y006800D02*
X023824Y007200D01*
X023690Y007067D01*
X024151Y007000D02*
X024418Y007000D01*
X024611Y007000D02*
X024878Y007000D01*
X024811Y006800D02*
X024811Y007200D01*
X024611Y007000D01*
X025532Y007000D02*
X025665Y007067D01*
X025732Y007067D01*
X025799Y007000D01*
X025799Y006867D01*
X025732Y006800D01*
X025599Y006800D01*
X025532Y006867D01*
X025532Y007000D02*
X025532Y007200D01*
X025799Y007200D01*
X025992Y007000D02*
X026259Y007000D01*
X026453Y006933D02*
X026519Y007000D01*
X026653Y007000D01*
X026720Y006933D01*
X026720Y006867D01*
X026653Y006800D01*
X026519Y006800D01*
X026453Y006867D01*
X026453Y006933D01*
X026519Y007000D02*
X026453Y007067D01*
X026453Y007134D01*
X026519Y007200D01*
X026653Y007200D01*
X026720Y007134D01*
X026720Y007067D01*
X026653Y007000D01*
X027220Y006999D02*
X027220Y006732D01*
X027220Y006999D02*
X027287Y006999D01*
X027554Y006732D01*
X027621Y006732D01*
X027554Y006078D02*
X027621Y006012D01*
X027621Y005878D01*
X027554Y005811D01*
X027420Y005811D02*
X027354Y005945D01*
X027354Y006012D01*
X027420Y006078D01*
X027554Y006078D01*
X027420Y005811D02*
X027220Y005811D01*
X027220Y006078D01*
X027287Y005157D02*
X027354Y005157D01*
X027420Y005091D01*
X027487Y005157D01*
X027554Y005157D01*
X027621Y005091D01*
X027621Y004957D01*
X027554Y004891D01*
X027420Y005024D02*
X027420Y005091D01*
X027287Y005157D02*
X027220Y005091D01*
X027220Y004957D01*
X027287Y004891D01*
X027621Y004237D02*
X027621Y003970D01*
X027621Y004103D02*
X027220Y004103D01*
X027354Y003970D01*
X027354Y003316D02*
X027621Y003316D01*
X027420Y003316D02*
X027420Y003049D01*
X027354Y003049D02*
X027220Y003182D01*
X027354Y003316D01*
X027354Y003049D02*
X027621Y003049D01*
X027687Y002856D02*
X027687Y002589D01*
X027621Y002262D02*
X027220Y002262D01*
X027220Y002395D02*
X027220Y002128D01*
X027287Y001935D02*
X027220Y001868D01*
X027220Y001735D01*
X027287Y001668D01*
X027554Y001668D01*
X027621Y001735D01*
X027621Y001868D01*
X027554Y001935D01*
X027420Y001935D01*
X027420Y001801D01*
X027621Y001474D02*
X027621Y001207D01*
X027220Y001207D01*
X020928Y006800D02*
X020928Y007200D01*
X023530Y008350D02*
X023530Y008750D01*
X023730Y008750D01*
X023797Y008684D01*
X023797Y008550D01*
X023730Y008483D01*
X023530Y008483D01*
X023990Y008350D02*
X024191Y008350D01*
X024257Y008417D01*
X024257Y008684D01*
X024191Y008750D01*
X023990Y008750D01*
X023990Y008350D01*
X024451Y008350D02*
X024718Y008350D01*
X024584Y008350D02*
X024584Y008750D01*
X024451Y008617D01*
X019718Y011417D02*
X019651Y011350D01*
X019518Y011350D01*
X019451Y011417D01*
X019718Y011684D01*
X019718Y011417D01*
X019718Y011684D02*
X019651Y011750D01*
X019518Y011750D01*
X019451Y011684D01*
X019451Y011417D01*
X019257Y011417D02*
X019257Y011684D01*
X019191Y011750D01*
X018990Y011750D01*
X018990Y011350D01*
X019191Y011350D01*
X019257Y011417D01*
X018797Y011550D02*
X018730Y011483D01*
X018530Y011483D01*
X018530Y011350D02*
X018530Y011750D01*
X018730Y011750D01*
X018797Y011684D01*
X018797Y011550D01*
X012221Y016030D02*
X012154Y015963D01*
X012087Y015963D01*
X012021Y016030D01*
X011954Y015963D01*
X011887Y015963D01*
X011821Y016030D01*
X011821Y016163D01*
X011887Y016230D01*
X012021Y016097D02*
X012021Y016030D01*
X012221Y016030D02*
X012221Y016163D01*
X012154Y016230D01*
X011167Y017424D02*
X010979Y017613D01*
X011356Y017613D01*
X011403Y017660D01*
X011403Y017754D01*
X011309Y017849D01*
X011214Y017849D01*
X009757Y018200D02*
X009490Y018200D01*
X009624Y018200D02*
X009624Y018600D01*
X009490Y018467D01*
X008149Y017694D02*
X008149Y017599D01*
X008055Y017505D01*
X007961Y017505D01*
X007913Y017552D01*
X007913Y017647D01*
X008008Y017741D01*
X008102Y017741D01*
X008149Y017694D01*
X008008Y017741D02*
X008008Y017835D01*
X007961Y017883D01*
X007866Y017883D01*
X007772Y017788D01*
X007772Y017694D01*
X007819Y017647D01*
X007913Y017647D01*
X007087Y016237D02*
X007354Y015970D01*
X007421Y015970D01*
X007020Y015970D02*
X007020Y016237D01*
X007087Y016237D01*
X008027Y014629D02*
X007980Y014582D01*
X007980Y014487D01*
X008121Y014346D01*
X008215Y014440D01*
X008215Y014534D01*
X008121Y014629D01*
X008027Y014629D01*
X007932Y014346D02*
X008121Y014346D01*
X007932Y014346D02*
X007791Y014393D01*
X009484Y013833D02*
X009551Y013900D01*
X009684Y013900D01*
X009751Y013833D01*
X009751Y013700D02*
X009617Y013633D01*
X009551Y013633D01*
X009484Y013700D01*
X009484Y013833D01*
X009751Y013700D02*
X009751Y013500D01*
X009484Y013500D01*
X010992Y014501D02*
X011275Y014217D01*
X011275Y014501D01*
X011086Y014312D01*
X019190Y026200D02*
X019457Y026200D01*
X019324Y026200D02*
X019324Y026600D01*
X019190Y026467D01*
X019990Y026534D02*
X020057Y026600D01*
X020191Y026600D01*
X020257Y026534D01*
X020257Y026467D01*
X019990Y026200D01*
X020257Y026200D01*
X020790Y026267D02*
X020857Y026200D01*
X020991Y026200D01*
X021057Y026267D01*
X021057Y026333D01*
X020991Y026400D01*
X020924Y026400D01*
X020991Y026400D02*
X021057Y026467D01*
X021057Y026534D01*
X020991Y026600D01*
X020857Y026600D01*
X020790Y026534D01*
X028470Y021364D02*
X028604Y021497D01*
X028871Y021497D01*
X028670Y021497D02*
X028670Y021230D01*
X028604Y021230D02*
X028470Y021364D01*
X028604Y021230D02*
X028871Y021230D01*
X029171Y021550D02*
X029171Y020250D01*
X028871Y020309D02*
X028871Y020510D01*
X028804Y020576D01*
X028537Y020576D01*
X028470Y020510D01*
X028470Y020309D01*
X028871Y020309D01*
X029470Y020376D02*
X029537Y020309D01*
X029804Y020309D01*
X029871Y020376D01*
X029871Y020510D01*
X029804Y020576D01*
X029537Y020576D02*
X029470Y020510D01*
X029470Y020376D01*
X029971Y020950D02*
X028371Y020950D01*
X029470Y021230D02*
X029470Y021430D01*
X029537Y021497D01*
X029604Y021497D01*
X029670Y021430D01*
X029670Y021230D01*
X029470Y021230D02*
X029871Y021230D01*
X029871Y021430D01*
X029804Y021497D01*
X029737Y021497D01*
X029670Y021430D01*
D11*
X029780Y022149D02*
X029780Y022329D01*
X029720Y022389D01*
X029600Y022389D01*
X029540Y022329D01*
X029540Y022149D01*
X029901Y022149D01*
X029780Y022269D02*
X029901Y022389D01*
X029720Y022518D02*
X029720Y022758D01*
X029600Y022886D02*
X029841Y022886D01*
X029901Y022946D01*
X029901Y023066D01*
X029841Y023126D01*
X029720Y023126D01*
X029720Y023006D01*
X029600Y023126D02*
X029540Y023066D01*
X029540Y022946D01*
X029600Y022886D01*
X029720Y023254D02*
X029720Y023494D01*
X029720Y023622D02*
X029720Y023803D01*
X029780Y023863D01*
X029841Y023863D01*
X029901Y023803D01*
X029901Y023622D01*
X029540Y023622D01*
X029540Y023803D01*
X029600Y023863D01*
X029660Y023863D01*
X029720Y023803D01*
X010183Y007870D02*
X010183Y007810D01*
X010123Y007750D01*
X009943Y007750D01*
X009815Y007750D02*
X009575Y007750D01*
X009447Y007750D02*
X009387Y007690D01*
X009206Y007690D01*
X009206Y007570D02*
X009206Y007930D01*
X009387Y007930D01*
X009447Y007870D01*
X009447Y007750D01*
X009327Y007690D02*
X009447Y007570D01*
X009943Y007570D02*
X009943Y007930D01*
X010123Y007930D01*
X010183Y007870D01*
X010123Y007750D02*
X010183Y007690D01*
X010183Y007630D01*
X010123Y007570D01*
X009943Y007570D01*
X009078Y007750D02*
X008838Y007750D01*
X008710Y007570D02*
X008710Y007930D01*
X008470Y007930D02*
X008470Y007570D01*
X008590Y007690D01*
X008710Y007570D01*
X005815Y007630D02*
X005755Y007570D01*
X005575Y007570D01*
X005575Y007930D01*
X005755Y007930D01*
X005815Y007870D01*
X005815Y007810D01*
X005755Y007750D01*
X005575Y007750D01*
X005447Y007750D02*
X005206Y007750D01*
X005078Y007570D02*
X005078Y007930D01*
X004838Y007930D02*
X004838Y007570D01*
X004958Y007690D01*
X005078Y007570D01*
X005755Y007750D02*
X005815Y007690D01*
X005815Y007630D01*
X004616Y016820D02*
X004496Y016820D01*
X004556Y016820D02*
X004556Y017180D01*
X004496Y017180D02*
X004616Y017180D01*
X004553Y017420D02*
X004613Y017480D01*
X004613Y017720D01*
X004553Y017780D01*
X004433Y017780D01*
X004373Y017720D01*
X004373Y017480D01*
X004433Y017420D01*
X004553Y017420D01*
X004245Y017480D02*
X004185Y017420D01*
X004065Y017420D01*
X004004Y017480D01*
X004065Y017600D02*
X004185Y017600D01*
X004245Y017540D01*
X004245Y017480D01*
X004065Y017600D02*
X004004Y017660D01*
X004004Y017720D01*
X004065Y017780D01*
X004185Y017780D01*
X004245Y017720D01*
X004127Y018020D02*
X004127Y018380D01*
X003999Y018320D02*
X003939Y018380D01*
X003819Y018380D01*
X003759Y018320D01*
X003759Y018080D01*
X003819Y018020D01*
X003939Y018020D01*
X003999Y018080D01*
X004127Y018140D02*
X004367Y018380D01*
X004187Y018200D02*
X004367Y018020D01*
X003879Y017780D02*
X003759Y017780D01*
X003819Y017780D02*
X003819Y017420D01*
X003759Y017420D02*
X003879Y017420D01*
X003819Y017180D02*
X003759Y017120D01*
X003759Y016880D01*
X003819Y016820D01*
X003939Y016820D01*
X003999Y016880D01*
X003999Y017120D01*
X003939Y017180D01*
X003819Y017180D01*
X003631Y017180D02*
X003511Y017060D01*
X003391Y017180D01*
X003391Y016820D01*
X003631Y016820D02*
X003631Y017180D01*
X003631Y017420D02*
X003631Y017780D01*
X003511Y017660D01*
X003391Y017780D01*
X003391Y017420D01*
X003451Y018020D02*
X003391Y018080D01*
X003451Y018020D02*
X003571Y018020D01*
X003631Y018080D01*
X003631Y018140D01*
X003571Y018200D01*
X003451Y018200D01*
X003391Y018260D01*
X003391Y018320D01*
X003451Y018380D01*
X003571Y018380D01*
X003631Y018320D01*
X004187Y017180D02*
X004127Y017120D01*
X004127Y017060D01*
X004187Y017000D01*
X004307Y017000D01*
X004367Y016940D01*
X004367Y016880D01*
X004307Y016820D01*
X004187Y016820D01*
X004127Y016880D01*
X004187Y017180D02*
X004307Y017180D01*
X004367Y017120D01*
D12*
X008082Y018550D02*
X008509Y018550D01*
X008296Y018764D02*
X008296Y018337D01*
X008403Y019230D02*
X008509Y019337D01*
X008509Y019550D01*
X008403Y019657D01*
X008189Y019657D01*
X008082Y019550D01*
X008082Y019337D01*
X008189Y019230D01*
X008403Y019230D01*
X008296Y021337D02*
X008296Y021764D01*
X008509Y021550D02*
X008082Y021550D01*
X008189Y022230D02*
X008082Y022337D01*
X008082Y022550D01*
X008189Y022657D01*
X008403Y022657D01*
X008509Y022550D01*
X008509Y022337D01*
X008403Y022230D01*
X008189Y022230D01*
X014482Y011871D02*
X014803Y011871D01*
X014909Y011764D01*
X014909Y011657D01*
X014803Y011550D01*
X014482Y011550D01*
X014482Y011230D02*
X014803Y011230D01*
X014909Y011337D01*
X014909Y011444D01*
X014803Y011550D01*
X014482Y011230D02*
X014482Y011871D01*
X020182Y013330D02*
X020182Y013757D01*
X020396Y013971D01*
X020609Y013757D01*
X020609Y013330D01*
X020609Y013650D02*
X020182Y013650D01*
X021182Y013650D02*
X021503Y013650D01*
X021609Y013544D01*
X021609Y013437D01*
X021503Y013330D01*
X021182Y013330D01*
X021182Y013971D01*
X021503Y013971D01*
X021609Y013864D01*
X021609Y013757D01*
X021503Y013650D01*
X022182Y013437D02*
X022289Y013330D01*
X022503Y013330D01*
X022609Y013437D01*
X022182Y013437D02*
X022182Y013864D01*
X022289Y013971D01*
X022503Y013971D01*
X022609Y013864D01*
X023489Y016230D02*
X023703Y016230D01*
X023809Y016337D01*
X023489Y016230D02*
X023382Y016337D01*
X023382Y016764D01*
X023489Y016871D01*
X023703Y016871D01*
X023809Y016764D01*
X024482Y025130D02*
X024482Y025557D01*
X024696Y025771D01*
X024909Y025557D01*
X024909Y025130D01*
X024909Y025450D02*
X024482Y025450D01*
M02*
