G75*
%MOIN*%
%OFA0B0*%
%FSLAX24Y24*%
%IPPOS*%
%LPD*%
%AMOC8*
5,1,8,0,0,1.08239X$1,22.5*
%
%ADD10C,0.0100*%
%ADD11R,0.0472X0.0472*%
%ADD12C,0.0472*%
%ADD13C,0.0098*%
%ADD14C,0.0059*%
%ADD15C,0.0108*%
%ADD16C,0.0079*%
%ADD17C,0.0157*%
%ADD18C,0.0197*%
%ADD19C,0.0155*%
%ADD20C,0.0220*%
%ADD21C,0.0270*%
D10*
X003871Y001550D02*
X003871Y001896D01*
X004217Y001896D01*
X005331Y003010D01*
X005331Y010366D01*
X005605Y010640D01*
X005605Y013349D01*
X005276Y013678D01*
X005018Y013678D01*
X005018Y013934D02*
X006149Y013934D01*
X006193Y013891D01*
X005734Y014219D02*
X005507Y014446D01*
X005018Y014446D01*
X005018Y014190D02*
X004769Y014190D01*
X004590Y014369D01*
X004590Y014523D01*
X004703Y014636D01*
X005814Y014636D01*
X006686Y013765D01*
X006977Y013678D02*
X006040Y012741D01*
X006040Y011483D01*
X005442Y010980D02*
X004702Y010240D01*
X004702Y007683D01*
X004217Y006743D02*
X004217Y010324D01*
X004377Y010484D01*
X004377Y013028D01*
X004771Y013422D01*
X005018Y013422D01*
X005018Y013166D02*
X005278Y013166D01*
X005442Y013002D01*
X005442Y010980D01*
X004537Y010417D02*
X004537Y012692D01*
X004755Y012910D01*
X005018Y012910D01*
X005018Y012654D02*
X005018Y012506D01*
X005132Y012392D01*
X004217Y011704D02*
X004217Y010906D01*
X003994Y010684D01*
X003727Y010684D01*
X003332Y011079D01*
X003332Y015267D01*
X003643Y015578D01*
X006820Y015578D01*
X010059Y012339D01*
X011136Y012339D01*
X011296Y012179D01*
X012581Y012179D01*
X013343Y011417D01*
X013343Y011164D01*
X013028Y011164D02*
X013028Y011397D01*
X012406Y012019D01*
X011230Y012019D01*
X011103Y012146D01*
X010026Y012146D01*
X006774Y015398D01*
X003689Y015398D01*
X003523Y015232D01*
X003523Y011397D01*
X003871Y011050D01*
X004217Y011704D02*
X003871Y012050D01*
X004537Y010417D02*
X004446Y010326D01*
X004446Y003971D01*
X003871Y003396D01*
X003871Y003050D01*
X005491Y002275D02*
X005491Y009786D01*
X006654Y010949D01*
X006654Y013105D01*
X006972Y013422D01*
X007223Y013422D01*
X007223Y013166D02*
X007477Y013166D01*
X007808Y012835D01*
X007808Y012484D01*
X007481Y012156D01*
X007449Y012156D01*
X007353Y012060D01*
X007353Y010662D01*
X005972Y009281D01*
X005972Y007978D01*
X007217Y006732D01*
X007217Y001840D01*
X008032Y001025D01*
X012590Y001025D01*
X012898Y001333D01*
X012898Y006197D01*
X011256Y007838D01*
X011256Y008448D01*
X011256Y008763D02*
X010742Y008763D01*
X011256Y009078D02*
X011481Y009078D01*
X011688Y009284D01*
X013966Y009284D01*
X014057Y009193D01*
X014057Y008949D01*
X014244Y008763D01*
X014485Y008763D01*
X014485Y009078D02*
X014709Y009078D01*
X015033Y009401D01*
X015660Y009401D01*
X015875Y009616D01*
X016747Y009616D01*
X018197Y008166D01*
X018473Y008166D01*
X018473Y007910D02*
X018216Y007910D01*
X017524Y007218D01*
X017524Y003743D01*
X017871Y003396D01*
X017871Y003050D01*
X018217Y002768D02*
X018217Y003857D01*
X017871Y004204D01*
X017871Y004550D01*
X016871Y004550D02*
X016871Y003050D01*
X015871Y003050D02*
X015871Y001550D01*
X016871Y001550D02*
X017394Y001027D01*
X019347Y001027D01*
X019871Y001550D01*
X019228Y002587D02*
X018377Y001736D01*
X018377Y001403D01*
X018177Y001204D01*
X017577Y001204D01*
X017520Y001260D01*
X017520Y002071D01*
X018217Y002768D01*
X018507Y002533D02*
X017871Y001896D01*
X017871Y001550D01*
X018507Y002533D02*
X018507Y006846D01*
X018895Y007233D01*
X018895Y008254D01*
X018726Y008422D01*
X018473Y008422D01*
X018473Y008678D02*
X018733Y008678D01*
X019228Y008183D01*
X019228Y002587D01*
X021024Y002243D02*
X021371Y001896D01*
X021371Y001550D01*
X021024Y002243D02*
X021024Y009531D01*
X023172Y011678D01*
X024768Y011678D01*
X024768Y011934D02*
X025020Y011934D01*
X025185Y012098D01*
X025185Y012613D01*
X023976Y013822D01*
X023663Y013758D02*
X023663Y014068D01*
X023663Y013758D02*
X024768Y012653D01*
X024768Y012446D01*
X024768Y012190D02*
X024518Y012190D01*
X023426Y013282D01*
X023426Y013463D01*
X024518Y013654D02*
X023173Y014999D01*
X022970Y014999D01*
X022821Y014850D01*
X022371Y014850D01*
X021371Y014850D01*
X020371Y014850D01*
X019966Y014446D01*
X013973Y014446D01*
X013973Y014190D02*
X013720Y014190D01*
X012988Y014922D01*
X012543Y014922D01*
X011416Y016050D01*
X011121Y015898D02*
X011121Y016550D01*
X009825Y017845D01*
X009621Y017845D01*
X009348Y018049D02*
X009348Y017633D01*
X009173Y017633D01*
X007911Y016371D01*
X007694Y016371D01*
X007557Y016234D01*
X007557Y015294D01*
X009685Y013166D01*
X011768Y013166D01*
X011768Y012910D01*
X011768Y012654D01*
X012103Y012479D02*
X012190Y012566D01*
X012190Y013535D01*
X012047Y013678D01*
X011768Y013678D01*
X011768Y013934D02*
X012017Y013934D01*
X013061Y012891D01*
X013061Y012369D01*
X013658Y011771D01*
X013658Y011164D01*
X013973Y011164D02*
X013973Y011909D01*
X013388Y012494D01*
X013388Y012830D01*
X013724Y013166D01*
X013973Y013166D01*
X013973Y012910D02*
X013709Y012910D01*
X013555Y012756D01*
X013555Y012553D01*
X014485Y011624D01*
X014485Y010652D01*
X014485Y010337D02*
X014711Y010337D01*
X014912Y010538D01*
X014912Y011716D01*
X013973Y012654D01*
X013973Y013422D02*
X013320Y013422D01*
X011901Y014841D01*
X010829Y014841D01*
X010412Y015259D02*
X009921Y015259D01*
X009653Y014991D01*
X009621Y014991D01*
X009097Y014991D01*
X008829Y015259D01*
X008416Y015672D01*
X008416Y016050D01*
X008416Y016428D01*
X008829Y016841D01*
X009207Y016841D01*
X009621Y017255D01*
X009912Y017452D02*
X009813Y017550D01*
X009431Y017550D01*
X009348Y017633D01*
X009348Y018049D02*
X009417Y018119D01*
X010382Y018119D01*
X012497Y016004D01*
X016917Y016004D01*
X017371Y015550D01*
X017009Y016188D02*
X012567Y016188D01*
X010470Y018285D01*
X008266Y018285D01*
X007859Y017878D01*
X006543Y017878D01*
X005371Y019050D01*
X003871Y019050D01*
X003871Y020050D02*
X005371Y020050D01*
X005371Y019670D01*
X007000Y018040D01*
X007737Y018040D01*
X008163Y018466D01*
X010515Y018466D01*
X011472Y017510D01*
X015984Y017510D01*
X016024Y017550D01*
X016371Y017550D01*
X016717Y017851D02*
X016717Y017001D01*
X016717Y016896D01*
X016371Y016550D01*
X016717Y017001D02*
X019930Y017001D01*
X020871Y017941D01*
X020871Y018540D01*
X023469Y021138D01*
X024068Y021138D01*
X024549Y021619D01*
X024549Y022383D01*
X024485Y022448D01*
X024485Y022763D02*
X024253Y022763D01*
X024057Y022959D01*
X024057Y023157D01*
X021336Y023157D01*
X021256Y023078D01*
X020837Y023078D01*
X020823Y023092D01*
X020823Y023525D01*
X021006Y023707D01*
X021256Y023707D01*
X021256Y023393D02*
X021487Y023393D01*
X021692Y023598D01*
X021692Y023707D01*
X024485Y023707D01*
X024485Y023393D02*
X024247Y023393D01*
X024057Y023203D01*
X024057Y023157D01*
X023343Y022165D02*
X023343Y021936D01*
X023343Y022165D02*
X023039Y022468D01*
X022728Y022789D02*
X022398Y022459D01*
X022398Y021936D01*
X022083Y021936D02*
X022083Y022546D01*
X022376Y022840D01*
X021998Y022897D02*
X021768Y022667D01*
X021768Y021936D01*
X021256Y022448D02*
X021011Y022202D01*
X020364Y022202D01*
X020105Y022346D02*
X020105Y018515D01*
X020371Y018250D01*
X021371Y018215D02*
X021371Y018250D01*
X021371Y018215D02*
X018013Y014857D01*
X016696Y014857D01*
X017009Y016188D02*
X017371Y016550D01*
X017212Y017185D02*
X017535Y017185D01*
X018348Y017999D01*
X018348Y022589D01*
X018429Y022589D01*
X019321Y023480D01*
X019321Y023598D01*
X020499Y023598D01*
X020924Y024022D01*
X021256Y024022D01*
X021482Y024022D01*
X021692Y023812D01*
X021692Y023707D01*
X021256Y024337D02*
X020815Y024337D01*
X020242Y023764D01*
X019745Y023764D01*
X019621Y023888D01*
X019621Y024193D01*
X019094Y024719D01*
X019094Y026017D01*
X019892Y026814D01*
X021635Y026814D01*
X022371Y027550D01*
X022210Y027900D02*
X021514Y027204D01*
X017292Y027204D01*
X016402Y026314D01*
X016402Y025566D01*
X016232Y025396D01*
X016003Y025396D01*
X015871Y025528D01*
X015871Y026285D01*
X015753Y026403D01*
X014999Y026403D01*
X014621Y026025D01*
X014621Y025900D01*
X014621Y025759D01*
X013860Y024999D01*
X011319Y024999D01*
X010871Y024550D01*
X010371Y024050D02*
X009871Y024550D01*
X010371Y024050D02*
X010371Y022536D01*
X010718Y022189D01*
X011401Y022189D01*
X013511Y024299D01*
X015362Y024299D01*
X016621Y025558D01*
X016621Y025900D01*
X016871Y025532D02*
X016871Y026274D01*
X017006Y026410D01*
X017240Y026410D01*
X017621Y026030D01*
X017621Y025900D01*
X018121Y025900D02*
X018169Y025900D01*
X018540Y025529D01*
X019371Y025255D02*
X019721Y025255D01*
X019921Y025055D01*
X019921Y024050D01*
X019321Y024050D02*
X019321Y023598D01*
X019030Y023543D02*
X014336Y023543D01*
X013121Y022327D01*
X013121Y022200D01*
X012621Y022200D02*
X012621Y022317D01*
X014010Y023706D01*
X017918Y023706D01*
X018208Y023995D01*
X017718Y023219D02*
X014452Y023219D01*
X013621Y022388D01*
X013621Y022200D01*
X014121Y022200D02*
X014121Y022065D01*
X013759Y021703D01*
X008087Y021703D01*
X007637Y022153D01*
X006284Y022153D01*
X005524Y022913D01*
X004234Y022913D01*
X003871Y022550D01*
X004339Y023082D02*
X003871Y023550D01*
X004339Y023082D02*
X005695Y023082D01*
X005784Y022993D01*
X008652Y022993D01*
X009241Y022405D01*
X009524Y022405D02*
X009524Y022711D01*
X009878Y023065D01*
X009878Y023542D01*
X009871Y023550D01*
X009633Y023166D02*
X006254Y023166D01*
X004871Y024550D01*
X005217Y025247D02*
X006818Y023646D01*
X009208Y023646D01*
X009871Y022550D02*
X010396Y022024D01*
X011593Y022024D01*
X013689Y024120D01*
X015458Y024120D01*
X016871Y025532D01*
X017121Y025556D02*
X017121Y025900D01*
X017121Y025556D02*
X015431Y023866D01*
X013662Y023866D01*
X011660Y021864D01*
X010064Y021864D01*
X009524Y022405D01*
X010871Y022550D02*
X012999Y024679D01*
X014515Y024679D01*
X015621Y025784D01*
X015621Y025900D01*
X015121Y025900D02*
X015121Y025783D01*
X014176Y024839D01*
X012159Y024839D01*
X010871Y023550D01*
X011924Y025204D02*
X009178Y025204D01*
X007850Y026532D01*
X006389Y026532D01*
X005371Y027550D01*
X005217Y025550D02*
X004871Y025550D01*
X005217Y025550D02*
X005217Y025247D01*
X004871Y022550D02*
X005427Y021993D01*
X007555Y021993D01*
X008121Y021427D01*
X013872Y021427D01*
X013979Y021320D01*
X015597Y021320D01*
X016121Y021844D01*
X016121Y022200D01*
X016621Y022200D02*
X016621Y022328D01*
X016165Y022784D01*
X014680Y022784D01*
X014608Y023059D02*
X014350Y022800D01*
X014350Y022770D01*
X014608Y023059D02*
X016379Y023059D01*
X017121Y022317D01*
X017121Y022200D01*
X017621Y022200D02*
X017621Y022054D01*
X017071Y021504D01*
X016324Y021504D01*
X015621Y021704D02*
X015621Y022200D01*
X015189Y022132D02*
X015189Y021614D01*
X015527Y021610D02*
X015621Y021704D01*
X015189Y022132D02*
X015121Y022200D01*
X014621Y022200D02*
X014621Y022071D01*
X014114Y021565D01*
X014081Y021565D01*
X013890Y020831D02*
X014171Y020550D01*
X014171Y019550D01*
X015527Y019550D01*
X015559Y019517D01*
X018121Y022079D01*
X018121Y022200D01*
X018348Y022589D02*
X017718Y023219D01*
X020105Y022346D02*
X020837Y023078D01*
X020869Y022763D02*
X021256Y022763D01*
X020869Y022763D02*
X020741Y022634D01*
X020369Y021498D02*
X022501Y021498D01*
X022713Y021711D01*
X022713Y021936D01*
X023028Y021936D02*
X023028Y021689D01*
X022304Y020965D01*
X020350Y020965D01*
X022371Y019290D02*
X022371Y018250D01*
X023319Y018833D02*
X023319Y017221D01*
X023527Y017013D01*
X023147Y017033D02*
X023147Y019298D01*
X023501Y019652D01*
X023756Y019652D01*
X023756Y019337D02*
X024002Y019337D01*
X024451Y018888D01*
X024519Y018888D01*
X024826Y018840D02*
X024826Y019060D01*
X024826Y018840D02*
X024379Y018393D01*
X023756Y018393D01*
X023797Y018667D02*
X023756Y018707D01*
X023797Y018667D02*
X024267Y018667D01*
X024468Y019218D02*
X024504Y019218D01*
X025213Y019927D01*
X025213Y020164D01*
X025528Y020164D02*
X025528Y019933D01*
X025739Y019723D01*
X025841Y019723D01*
X025942Y019723D01*
X026158Y019938D01*
X026158Y020164D01*
X026473Y020164D02*
X026473Y020409D01*
X025991Y020891D01*
X025277Y020891D01*
X024549Y021619D01*
X024277Y021698D02*
X024211Y021698D01*
X023973Y021936D01*
X023658Y021936D02*
X023658Y021474D01*
X023722Y021410D01*
X023842Y020762D02*
X022371Y019290D01*
X022826Y019520D02*
X023908Y020602D01*
X024393Y020602D01*
X024583Y020412D01*
X024583Y020164D01*
X024268Y020164D02*
X023701Y020164D01*
X022987Y019450D01*
X022987Y016725D01*
X024522Y015190D01*
X024768Y015190D01*
X024768Y015446D02*
X024734Y015446D01*
X023147Y017033D01*
X022826Y016627D02*
X022826Y019520D01*
X023508Y019022D02*
X023756Y019022D01*
X023508Y019022D02*
X023319Y018833D01*
X023756Y018078D02*
X025806Y018078D01*
X026051Y017583D02*
X025843Y017375D01*
X025428Y017375D01*
X025213Y017160D01*
X025213Y016936D01*
X024898Y016936D02*
X024898Y016694D01*
X025198Y016394D01*
X025137Y016074D02*
X026236Y016074D01*
X026335Y016173D01*
X029988Y016173D01*
X030217Y016402D01*
X030217Y018204D01*
X029871Y018550D01*
X029462Y019141D02*
X029462Y017897D01*
X028768Y017204D01*
X027229Y017204D01*
X026985Y017448D01*
X026985Y017763D02*
X027823Y017763D01*
X027973Y017913D01*
X029127Y017913D01*
X029485Y016936D02*
X029871Y016550D01*
X029485Y016936D02*
X026473Y016936D01*
X026158Y016936D02*
X026158Y016707D01*
X026375Y016490D01*
X028311Y016490D01*
X028371Y016550D01*
X029339Y015962D02*
X029375Y015926D01*
X029339Y015962D02*
X026352Y015962D01*
X026300Y015910D01*
X025069Y015910D01*
X024269Y016709D01*
X024269Y016935D01*
X024269Y016935D01*
X024268Y016936D01*
X024583Y016936D02*
X024583Y016628D01*
X025137Y016074D01*
X025528Y016667D02*
X025872Y016324D01*
X025528Y016667D02*
X025528Y016936D01*
X025843Y016936D02*
X025843Y017375D01*
X026051Y017583D02*
X026051Y018702D01*
X025841Y018912D01*
X025841Y019723D01*
X026099Y019465D02*
X026227Y019337D01*
X026985Y019337D01*
X026985Y019022D02*
X027222Y019022D01*
X028940Y020741D01*
X028940Y027626D01*
X028666Y027900D01*
X022210Y027900D01*
X022530Y026518D02*
X021445Y026518D01*
X021445Y025955D02*
X020980Y025955D01*
X020871Y025845D01*
X021231Y025561D02*
X019655Y025561D01*
X019371Y025845D01*
X020121Y025845D02*
X020476Y026200D01*
X022543Y026200D01*
X023343Y025400D01*
X023343Y025164D01*
X023028Y025164D02*
X023028Y025400D01*
X022770Y025658D01*
X021328Y025658D01*
X021231Y025561D01*
X021430Y025413D02*
X021519Y025413D01*
X021768Y025164D01*
X022083Y025164D02*
X022083Y024934D01*
X021771Y024622D01*
X022118Y024619D02*
X022398Y024899D01*
X022398Y025164D01*
X022713Y025164D02*
X022713Y024922D01*
X023468Y024168D01*
X023631Y024168D01*
X024485Y024337D02*
X024731Y024337D01*
X025122Y023947D01*
X025122Y022421D01*
X025768Y021774D01*
X025819Y021774D01*
X025819Y022326D02*
X026087Y022593D01*
X027527Y022593D01*
X028071Y022050D01*
X028349Y021875D02*
X028228Y021754D01*
X027909Y021754D01*
X027338Y022326D01*
X026922Y022326D01*
X026922Y021774D02*
X026823Y021774D01*
X026371Y022227D01*
X026072Y021136D02*
X025388Y021136D01*
X025163Y020762D02*
X023842Y020762D01*
X025163Y020762D02*
X025528Y020397D01*
X025528Y020164D01*
X026072Y021136D02*
X026985Y020223D01*
X026985Y019652D01*
X026985Y018707D02*
X027230Y018707D01*
X027551Y018387D01*
X027796Y018486D02*
X027796Y018285D01*
X027588Y018078D01*
X026985Y018078D01*
X026985Y018393D02*
X026760Y018393D01*
X026424Y018057D01*
X026424Y017808D01*
X025271Y017812D02*
X025167Y017916D01*
X024739Y017916D01*
X024585Y017763D01*
X023756Y017763D01*
X023756Y017448D02*
X024634Y017448D01*
X024856Y017670D01*
X026569Y015790D02*
X025457Y014678D01*
X024768Y014678D01*
X024768Y014934D02*
X024519Y014934D01*
X022826Y016627D01*
X022821Y014850D02*
X022821Y014850D01*
X023071Y014754D02*
X020348Y012030D01*
X018443Y012030D01*
X016382Y009969D01*
X014971Y009969D01*
X014710Y009707D01*
X014485Y009707D01*
X014485Y009393D02*
X014257Y009393D01*
X014057Y009193D01*
X013724Y009006D02*
X013973Y008757D01*
X013973Y007936D01*
X013658Y007936D02*
X013633Y007961D01*
X013633Y008676D01*
X013343Y008648D02*
X013258Y008733D01*
X013343Y008648D02*
X013343Y007936D01*
X013028Y007936D02*
X013028Y008191D01*
X012183Y009036D01*
X011983Y009036D01*
X011688Y009284D02*
X011688Y009506D01*
X011487Y009707D01*
X011256Y009707D01*
X011256Y009393D02*
X010830Y009393D01*
X010742Y009304D01*
X010552Y009461D02*
X010552Y010317D01*
X010388Y010481D01*
X010388Y010757D01*
X010223Y010922D01*
X009973Y010922D01*
X009973Y010666D02*
X009711Y010666D01*
X009555Y010510D01*
X009555Y010039D01*
X009748Y009846D01*
X009816Y009846D01*
X009614Y009673D02*
X009614Y006306D01*
X011024Y004896D01*
X011371Y004896D01*
X011371Y004550D01*
X011894Y004037D02*
X011894Y006681D01*
X010476Y008098D01*
X010476Y009385D01*
X010552Y009461D01*
X010388Y009524D02*
X010388Y010254D01*
X010232Y010410D01*
X009973Y010410D01*
X009973Y010154D02*
X010072Y010056D01*
X010072Y007695D01*
X011371Y006396D01*
X011371Y006050D01*
X011717Y006570D02*
X010310Y007977D01*
X010310Y009445D01*
X010388Y009524D01*
X011256Y010022D02*
X011548Y010022D01*
X011967Y009604D01*
X011256Y010337D02*
X010968Y010337D01*
X010646Y010659D01*
X010975Y010979D02*
X011256Y010697D01*
X011256Y010652D01*
X011768Y011164D02*
X011634Y011298D01*
X010498Y011298D01*
X009973Y011178D02*
X009726Y011178D01*
X009395Y010847D01*
X009395Y009893D01*
X009614Y009673D01*
X009406Y009545D02*
X009406Y006735D01*
X008717Y006046D01*
X008717Y002243D01*
X008371Y001896D01*
X008371Y001550D01*
X008086Y001204D02*
X009024Y001204D01*
X009371Y001550D01*
X009371Y002275D01*
X009758Y002662D01*
X011983Y002662D01*
X012371Y003050D01*
X012734Y003197D02*
X011894Y004037D01*
X011717Y003743D02*
X011717Y006570D01*
X012302Y007174D02*
X014241Y007174D01*
X016001Y008934D01*
X016268Y008934D01*
X016268Y009190D02*
X015998Y009190D01*
X014153Y007345D01*
X012448Y007345D01*
X012083Y007709D01*
X012083Y007936D01*
X011768Y007936D02*
X011768Y007708D01*
X012302Y007174D01*
X012587Y007511D02*
X012398Y007700D01*
X012398Y007936D01*
X012713Y007936D02*
X012713Y008176D01*
X012215Y008675D01*
X012043Y008675D01*
X012587Y007511D02*
X014087Y007511D01*
X016022Y009446D01*
X016268Y009446D01*
X015668Y009776D02*
X017144Y009776D01*
X018453Y011085D01*
X020199Y011085D01*
X020302Y010982D01*
X020302Y009560D01*
X020079Y009337D01*
X018741Y008934D02*
X018473Y008934D01*
X018473Y009190D01*
X018473Y009446D01*
X018473Y009656D01*
X019579Y010763D01*
X019579Y012337D02*
X017054Y012337D01*
X015410Y010693D01*
X015938Y010129D02*
X014591Y010129D01*
X014485Y010022D01*
X014996Y009646D02*
X014742Y009393D01*
X014485Y009393D01*
X015129Y009140D02*
X015129Y008857D01*
X014719Y008448D01*
X014485Y008448D01*
X014871Y007283D02*
X016010Y008422D01*
X016268Y008422D01*
X016268Y008166D02*
X016016Y008166D01*
X015217Y007367D01*
X015217Y005243D01*
X014871Y004896D01*
X014871Y004550D01*
X015524Y004050D02*
X015524Y007412D01*
X016022Y007910D01*
X016268Y007910D01*
X016268Y007654D02*
X015871Y007257D01*
X015871Y006050D01*
X014871Y006050D02*
X014871Y007283D01*
X014524Y007180D02*
X016022Y008678D01*
X016268Y008678D01*
X015599Y009708D02*
X015668Y009776D01*
X015938Y010129D02*
X016027Y010217D01*
X013952Y010653D02*
X012989Y010653D01*
X012713Y010929D01*
X012713Y011164D01*
X012398Y011164D02*
X012398Y010939D01*
X013256Y010082D01*
X013806Y010082D01*
X013848Y009740D02*
X013274Y009740D01*
X012083Y010931D01*
X012083Y011164D01*
X012103Y012479D02*
X011303Y012479D01*
X010873Y012909D01*
X009716Y012909D01*
X007397Y015228D01*
X007397Y016329D01*
X008327Y017259D01*
X008412Y017259D01*
X007671Y018200D02*
X008097Y018627D01*
X010614Y018627D01*
X011560Y017681D01*
X013265Y017681D01*
X013482Y017898D01*
X016669Y017898D01*
X016717Y017851D01*
X016877Y017946D02*
X016877Y017520D01*
X017212Y017185D01*
X017371Y017550D02*
X017371Y017706D01*
X015559Y019517D01*
X014863Y018257D02*
X016565Y018257D01*
X016877Y017946D01*
X014863Y018257D02*
X013571Y019550D01*
X013571Y020550D01*
X013890Y020831D02*
X012088Y020831D01*
X011871Y020613D01*
X009108Y020613D01*
X008871Y020850D01*
X008121Y020850D01*
X007020Y019749D01*
X007020Y019247D01*
X007371Y018896D01*
X007371Y018550D01*
X007671Y018200D02*
X007067Y018200D01*
X005717Y019550D01*
X005717Y020357D01*
X005371Y020704D01*
X005371Y021050D01*
X004217Y021050D01*
X003871Y021050D01*
X007371Y021550D02*
X007717Y021550D01*
X007717Y021254D01*
X008121Y020850D01*
X008121Y020250D02*
X007421Y019550D01*
X007371Y019550D01*
X008121Y020250D02*
X008871Y020250D01*
X010108Y020250D01*
X011871Y018487D01*
X012934Y019550D01*
X013571Y019550D01*
X010829Y017259D02*
X012811Y015277D01*
X012811Y014568D02*
X013445Y013934D01*
X013973Y013934D01*
X013973Y013678D02*
X013341Y013678D01*
X011121Y015898D01*
X010825Y016050D02*
X010395Y016481D01*
X010412Y016498D01*
X010412Y016841D01*
X010395Y016481D02*
X009964Y016050D01*
X009921Y016050D01*
X009921Y015259D01*
X009621Y014991D02*
X009621Y014845D01*
X009812Y014446D02*
X009621Y014255D01*
X009812Y014446D02*
X011768Y014446D01*
X011768Y014190D02*
X010055Y014190D01*
X009832Y013967D01*
X009449Y013967D01*
X009104Y014313D01*
X009104Y014566D01*
X007825Y015845D01*
X007825Y016050D01*
X008412Y014841D02*
X008412Y014765D01*
X009754Y013422D01*
X011768Y013422D01*
X009973Y011946D02*
X009973Y011690D01*
X009973Y011434D01*
X009471Y011493D02*
X009471Y011813D01*
X009066Y012219D01*
X008041Y012219D01*
X007768Y011946D01*
X007768Y011690D02*
X008669Y011690D01*
X008946Y011967D01*
X009203Y011734D02*
X008903Y011434D01*
X007768Y011434D01*
X007768Y011178D02*
X008016Y011178D01*
X009216Y009978D01*
X009216Y009735D01*
X009406Y009545D01*
X009246Y009335D02*
X009246Y007272D01*
X008371Y006396D01*
X008371Y006050D01*
X008024Y006540D02*
X008024Y005243D01*
X008371Y004896D01*
X008371Y004550D01*
X007845Y003922D02*
X008371Y003396D01*
X008371Y003050D01*
X009371Y003050D02*
X009758Y002662D01*
X011371Y003050D02*
X011371Y003396D01*
X011717Y003743D01*
X011983Y002662D02*
X012371Y002275D01*
X012371Y001550D01*
X012537Y001204D02*
X012063Y001204D01*
X011717Y001550D01*
X011371Y001550D01*
X012537Y001204D02*
X012734Y001400D01*
X012734Y003197D01*
X014524Y002243D02*
X014524Y007180D01*
X017871Y007052D02*
X017871Y006050D01*
X017871Y007052D02*
X018473Y007654D01*
X018741Y008934D02*
X019871Y007804D01*
X019871Y007763D01*
X020079Y007763D01*
X019871Y007763D02*
X019871Y006050D01*
X021371Y006050D02*
X021371Y008664D01*
X023162Y010456D01*
X023758Y010456D01*
X023882Y010579D01*
X023882Y010788D01*
X024517Y011422D01*
X024768Y011422D01*
X024768Y011166D02*
X024510Y011166D01*
X024042Y010699D01*
X024042Y010513D01*
X023825Y010296D01*
X023259Y010296D01*
X021717Y008754D01*
X021717Y005243D01*
X021371Y004896D01*
X021371Y004550D01*
X021938Y003964D02*
X021938Y008748D01*
X023325Y010136D01*
X023891Y010136D01*
X024202Y010447D01*
X024202Y010591D01*
X024521Y010910D01*
X024768Y010910D01*
X024768Y010654D02*
X023981Y009867D01*
X023283Y009867D01*
X022371Y008954D01*
X022371Y006050D01*
X023860Y005407D02*
X024371Y004896D01*
X024371Y004550D01*
X024717Y004214D02*
X024717Y005074D01*
X024021Y005770D01*
X024021Y006536D01*
X024814Y007329D01*
X024814Y009181D01*
X026543Y010910D01*
X026973Y010910D01*
X026973Y010654D02*
X026516Y010654D01*
X024979Y009118D01*
X024979Y007005D01*
X024371Y006396D01*
X024371Y006050D01*
X023860Y005407D02*
X023860Y006822D01*
X024494Y007456D01*
X024494Y009451D01*
X026721Y011678D01*
X026973Y011678D01*
X026973Y011934D02*
X026973Y012190D01*
X026973Y012446D01*
X026973Y011934D02*
X027220Y011934D01*
X027598Y011556D01*
X027598Y010823D01*
X028371Y010050D01*
X028717Y010208D02*
X028717Y008743D01*
X028371Y008396D01*
X028371Y008050D01*
X027890Y007890D02*
X028781Y006999D01*
X029938Y006999D01*
X030217Y006721D01*
X030217Y006386D01*
X029524Y005694D01*
X029524Y004246D01*
X029771Y003999D01*
X029938Y003999D01*
X030217Y003720D01*
X030217Y003386D01*
X030035Y003204D01*
X028529Y003204D01*
X026529Y001204D01*
X025063Y001204D01*
X024717Y001550D01*
X024371Y001550D01*
X023777Y001956D02*
X023777Y002178D01*
X026371Y002178D01*
X026371Y001550D01*
X026371Y002178D02*
X026371Y003050D01*
X026393Y003050D01*
X026893Y003550D01*
X028371Y003550D01*
X029871Y003550D01*
X029871Y004550D02*
X029871Y004896D01*
X030377Y005403D01*
X030377Y013412D01*
X028631Y015157D01*
X028019Y015157D01*
X027386Y015790D01*
X026569Y015790D01*
X026652Y015630D02*
X027319Y015630D01*
X027952Y014997D01*
X028565Y014997D01*
X030217Y013345D01*
X030217Y008743D01*
X029871Y008396D01*
X029871Y008050D01*
X029871Y006550D02*
X028371Y006550D01*
X026871Y006550D01*
X026371Y006050D01*
X025871Y005550D02*
X025371Y006050D01*
X025871Y005550D02*
X028371Y005550D01*
X026893Y004028D02*
X026893Y003550D01*
X026893Y004028D02*
X026371Y004550D01*
X025371Y004550D02*
X025371Y005050D01*
X025871Y005550D01*
X024717Y004214D02*
X025717Y003214D01*
X025717Y002889D01*
X025532Y002704D01*
X025063Y002704D01*
X024717Y003050D01*
X024371Y003050D01*
X023777Y002644D02*
X023777Y002178D01*
X023777Y001956D02*
X023371Y001550D01*
X023777Y002644D02*
X023371Y003050D01*
X022371Y003050D02*
X022371Y004550D01*
X021938Y003964D02*
X021371Y003396D01*
X021371Y003050D01*
X015524Y004050D02*
X014871Y003396D01*
X014871Y003050D01*
X014524Y002243D02*
X014871Y001896D01*
X014871Y001550D01*
X009086Y007602D02*
X008024Y006540D01*
X007845Y006700D02*
X007845Y003922D01*
X006217Y003743D02*
X006217Y007426D01*
X005812Y007831D01*
X005812Y009427D01*
X007017Y010633D01*
X007017Y011953D01*
X007520Y012455D01*
X007551Y012455D01*
X007644Y012548D01*
X007644Y012759D01*
X007492Y012910D01*
X007223Y012910D01*
X007223Y012654D02*
X006857Y012289D01*
X006857Y010812D01*
X005651Y009606D01*
X005651Y006615D01*
X005871Y006396D01*
X005871Y006050D01*
X004217Y006743D02*
X003871Y006396D01*
X003871Y006050D01*
X006217Y003743D02*
X005871Y003396D01*
X005871Y003050D01*
X005491Y002275D02*
X005871Y001896D01*
X005871Y001550D01*
X007685Y001605D02*
X008086Y001204D01*
X007685Y001605D02*
X007685Y006911D01*
X008766Y007992D01*
X008766Y009136D01*
X007768Y010134D01*
X007768Y010154D01*
X007768Y010410D02*
X008045Y010410D01*
X008584Y009871D01*
X008584Y009545D01*
X008926Y009203D01*
X008926Y007782D01*
X007845Y006700D01*
X009086Y007602D02*
X009086Y009269D01*
X008744Y009611D01*
X008744Y009938D01*
X008016Y010666D01*
X007768Y010666D01*
X007768Y010922D02*
X008031Y010922D01*
X008904Y010049D01*
X008904Y009678D01*
X009246Y009335D01*
X009973Y011946D02*
X007985Y013934D01*
X007223Y013934D01*
X007223Y014190D01*
X007223Y014446D01*
X006619Y015050D01*
X003871Y015050D01*
X006977Y013678D02*
X007223Y013678D01*
X009321Y016050D02*
X009912Y016641D01*
X009912Y017452D01*
X011924Y025204D02*
X012621Y025900D01*
X013121Y025900D02*
X013121Y025767D01*
X013570Y025318D01*
X013900Y025385D02*
X013900Y025621D01*
X013621Y025900D01*
X014121Y025900D02*
X014121Y026024D01*
X013742Y026403D01*
X012070Y026403D01*
X011217Y025550D01*
X010871Y025550D01*
X010217Y025550D02*
X011238Y026571D01*
X015811Y026571D01*
X016121Y026261D01*
X016121Y025900D01*
X019921Y025055D02*
X020121Y025255D01*
X020871Y025255D01*
X021459Y025064D02*
X021459Y024855D01*
X021256Y024652D01*
X022530Y026518D02*
X023658Y025390D01*
X023658Y025164D01*
X023973Y025164D02*
X025243Y026434D01*
X026948Y026434D01*
X028349Y025033D01*
X028349Y021875D01*
X028671Y022050D02*
X028671Y026904D01*
X028371Y027204D01*
X028371Y027550D01*
X029304Y026320D02*
X029571Y026320D01*
X029571Y026120D01*
X029504Y026053D01*
X029304Y026053D01*
X029370Y025859D02*
X029370Y025726D01*
X029370Y025859D02*
X029504Y025859D01*
X029571Y025793D01*
X029571Y025659D01*
X029504Y025593D01*
X029237Y025593D01*
X029170Y025659D01*
X029170Y025793D01*
X029237Y025859D01*
X029304Y024959D02*
X029304Y024825D01*
X029237Y024892D02*
X029504Y024892D01*
X029571Y024959D01*
X029504Y024632D02*
X029437Y024565D01*
X029437Y024432D01*
X029370Y024365D01*
X029304Y024432D01*
X029304Y024632D01*
X029504Y024632D02*
X029571Y024565D01*
X029571Y024365D01*
X029437Y024171D02*
X029437Y023904D01*
X029370Y023904D02*
X029304Y023971D01*
X029304Y024105D01*
X029370Y024171D01*
X029437Y024171D01*
X029571Y024105D02*
X029571Y023971D01*
X029504Y023904D01*
X029370Y023904D01*
X029370Y023711D02*
X029571Y023711D01*
X029370Y023711D02*
X029304Y023644D01*
X029304Y023444D01*
X029571Y023444D01*
X029304Y023261D02*
X029304Y023194D01*
X029437Y023060D01*
X029304Y023060D02*
X029571Y023060D01*
X029571Y022867D02*
X029571Y022600D01*
X029170Y022600D01*
X029170Y022867D01*
X029370Y022733D02*
X029370Y022600D01*
X029212Y019902D02*
X030009Y019902D01*
X030388Y019523D01*
X030388Y016067D01*
X029871Y015550D01*
X028371Y013789D02*
X028371Y013050D01*
X029871Y013050D01*
X029871Y011396D02*
X029524Y011396D01*
X028010Y012911D01*
X028010Y013645D01*
X027232Y014422D01*
X026973Y014422D01*
X026973Y014678D02*
X026713Y014678D01*
X026530Y014861D01*
X026530Y015509D01*
X026652Y015630D01*
X026973Y015446D02*
X026973Y015190D01*
X026973Y014934D01*
X027226Y014934D01*
X028371Y013789D01*
X027781Y013354D02*
X027781Y012027D01*
X028371Y011437D01*
X028371Y011050D01*
X028024Y010768D02*
X028186Y010607D01*
X028319Y010607D01*
X028717Y010208D01*
X028024Y010768D02*
X028024Y011537D01*
X027388Y012173D01*
X027388Y013239D01*
X026973Y013654D01*
X026973Y013910D02*
X027225Y013910D01*
X027781Y013354D01*
X027232Y011422D02*
X026973Y011422D01*
X027232Y011422D02*
X027413Y011241D01*
X027413Y009518D01*
X027890Y009041D01*
X027890Y007890D01*
X024853Y010237D02*
X025747Y011131D01*
X025747Y013913D01*
X025238Y014422D01*
X024768Y014422D01*
X024768Y014166D02*
X025147Y014166D01*
X025297Y014016D01*
X025042Y013910D02*
X025501Y013451D01*
X025352Y013070D02*
X024768Y013654D01*
X024518Y013654D01*
X024768Y013910D02*
X025042Y013910D01*
X025352Y013070D02*
X025352Y010990D01*
X025016Y010654D01*
X024768Y010654D01*
X024825Y010237D02*
X024853Y010237D01*
X029871Y011050D02*
X029871Y011396D01*
X027796Y018486D02*
X029212Y019902D01*
X029871Y019550D02*
X029462Y019141D01*
X025367Y023911D02*
X025367Y024003D01*
X024717Y024652D01*
X024485Y024652D01*
X010217Y025550D02*
X009871Y025550D01*
X028371Y002550D02*
X029871Y002550D01*
D11*
X003871Y001550D03*
X003871Y003050D03*
X003871Y004550D03*
X003871Y006050D03*
X005871Y006050D03*
X005871Y004550D03*
X005871Y003050D03*
X005871Y001550D03*
X008371Y001550D03*
X008371Y003050D03*
X008371Y004550D03*
X008371Y006050D03*
X011371Y006050D03*
X011371Y004550D03*
X011371Y003050D03*
X011371Y001550D03*
X014871Y001550D03*
X014871Y003050D03*
X014871Y004550D03*
X014871Y006050D03*
X017871Y006050D03*
X017871Y004550D03*
X017871Y003050D03*
X017871Y001550D03*
X021371Y001550D03*
X021371Y003050D03*
X021371Y004550D03*
X021371Y006050D03*
X024371Y006050D03*
X024371Y004550D03*
X024371Y003050D03*
X024371Y001550D03*
X028371Y001550D03*
X029871Y001550D03*
X029871Y004550D03*
X028371Y004550D03*
X028371Y008050D03*
X029871Y008050D03*
X029871Y011050D03*
X028371Y011050D03*
X028371Y014550D03*
X029871Y014550D03*
X029871Y017550D03*
X028371Y017550D03*
X028371Y027550D03*
X027371Y027550D03*
X026371Y027550D03*
X016371Y017550D03*
X010871Y025550D03*
X009871Y025550D03*
X007371Y021550D03*
X005371Y021050D03*
X003871Y021050D03*
X007371Y018550D03*
X004871Y025550D03*
X003871Y025550D03*
X003871Y009050D03*
D12*
X003871Y010050D03*
X003871Y011050D03*
X003871Y012050D03*
X003871Y013050D03*
X003871Y014050D03*
X003871Y015050D03*
X003871Y016050D03*
X003871Y019050D03*
X003871Y020050D03*
X005371Y020050D03*
X005371Y019050D03*
X007371Y019550D03*
X007371Y022550D03*
X009871Y022550D03*
X010871Y022550D03*
X010871Y023550D03*
X010871Y024550D03*
X009871Y024550D03*
X009871Y023550D03*
X010371Y027550D03*
X011371Y027550D03*
X012371Y027550D03*
X013371Y027550D03*
X014371Y027550D03*
X015371Y027550D03*
X016371Y027550D03*
X017371Y027550D03*
X018371Y027550D03*
X019371Y027550D03*
X020371Y027550D03*
X021371Y027550D03*
X022371Y027550D03*
X023371Y027550D03*
X024371Y027550D03*
X025371Y027550D03*
X028371Y019550D03*
X028371Y018550D03*
X029871Y018550D03*
X029871Y019550D03*
X029871Y016550D03*
X029871Y015550D03*
X028371Y015550D03*
X028371Y016550D03*
X028371Y013050D03*
X028371Y012050D03*
X029871Y012050D03*
X029871Y013050D03*
X029871Y010050D03*
X029871Y009050D03*
X028371Y009050D03*
X028371Y010050D03*
X028371Y006550D03*
X028371Y005550D03*
X029871Y005550D03*
X029871Y006550D03*
X029871Y003550D03*
X029871Y002550D03*
X028371Y002550D03*
X028371Y003550D03*
X026371Y003050D03*
X025371Y003050D03*
X025371Y001550D03*
X026371Y001550D03*
X023371Y001550D03*
X022371Y001550D03*
X022371Y003050D03*
X023371Y003050D03*
X023371Y004550D03*
X022371Y004550D03*
X022371Y006050D03*
X023371Y006050D03*
X025371Y006050D03*
X026371Y006050D03*
X026371Y004550D03*
X025371Y004550D03*
X019871Y004550D03*
X018871Y004550D03*
X018871Y003050D03*
X019871Y003050D03*
X019871Y001550D03*
X018871Y001550D03*
X016871Y001550D03*
X015871Y001550D03*
X015871Y003050D03*
X016871Y003050D03*
X016871Y004550D03*
X015871Y004550D03*
X015871Y006050D03*
X016871Y006050D03*
X018871Y006050D03*
X019871Y006050D03*
X013371Y006050D03*
X012371Y006050D03*
X012371Y004550D03*
X013371Y004550D03*
X013371Y003050D03*
X012371Y003050D03*
X012371Y001550D03*
X013371Y001550D03*
X010371Y001550D03*
X009371Y001550D03*
X009371Y003050D03*
X010371Y003050D03*
X010371Y004550D03*
X009371Y004550D03*
X009371Y006050D03*
X010371Y006050D03*
X006871Y006050D03*
X006871Y004550D03*
X006871Y003050D03*
X006871Y001550D03*
X004871Y001550D03*
X004871Y003050D03*
X004871Y004550D03*
X004871Y006050D03*
X016371Y015550D03*
X017371Y015550D03*
X017371Y016550D03*
X017371Y017550D03*
X016371Y016550D03*
X004871Y022550D03*
X003871Y022550D03*
X003871Y023550D03*
X004871Y023550D03*
X004871Y024550D03*
X003871Y024550D03*
X005371Y027550D03*
X006371Y027550D03*
X007371Y027550D03*
X008371Y027550D03*
X009371Y027550D03*
D13*
X021522Y024701D02*
X021522Y024603D01*
X020990Y024603D01*
X020990Y024701D01*
X021522Y024701D01*
X021522Y024700D02*
X020990Y024700D01*
X021522Y024386D02*
X021522Y024288D01*
X020990Y024288D01*
X020990Y024386D01*
X021522Y024386D01*
X021522Y024385D02*
X020990Y024385D01*
X021522Y024071D02*
X021522Y023973D01*
X020990Y023973D01*
X020990Y024071D01*
X021522Y024071D01*
X021522Y024070D02*
X020990Y024070D01*
X021522Y023756D02*
X021522Y023658D01*
X020990Y023658D01*
X020990Y023756D01*
X021522Y023756D01*
X021522Y023755D02*
X020990Y023755D01*
X021522Y023442D02*
X021522Y023344D01*
X020990Y023344D01*
X020990Y023442D01*
X021522Y023442D01*
X021522Y023441D02*
X020990Y023441D01*
X021522Y023127D02*
X021522Y023029D01*
X020990Y023029D01*
X020990Y023127D01*
X021522Y023127D01*
X021522Y023126D02*
X020990Y023126D01*
X021522Y022812D02*
X021522Y022714D01*
X020990Y022714D01*
X020990Y022812D01*
X021522Y022812D01*
X021522Y022811D02*
X020990Y022811D01*
X021522Y022497D02*
X021522Y022399D01*
X020990Y022399D01*
X020990Y022497D01*
X021522Y022497D01*
X021522Y022496D02*
X020990Y022496D01*
X021719Y021670D02*
X021817Y021670D01*
X021719Y021670D02*
X021719Y022202D01*
X021817Y022202D01*
X021817Y021670D01*
X021817Y021767D02*
X021719Y021767D01*
X021719Y021864D02*
X021817Y021864D01*
X021817Y021961D02*
X021719Y021961D01*
X021719Y022058D02*
X021817Y022058D01*
X021817Y022155D02*
X021719Y022155D01*
X022034Y021670D02*
X022132Y021670D01*
X022034Y021670D02*
X022034Y022202D01*
X022132Y022202D01*
X022132Y021670D01*
X022132Y021767D02*
X022034Y021767D01*
X022034Y021864D02*
X022132Y021864D01*
X022132Y021961D02*
X022034Y021961D01*
X022034Y022058D02*
X022132Y022058D01*
X022132Y022155D02*
X022034Y022155D01*
X022349Y021670D02*
X022447Y021670D01*
X022349Y021670D02*
X022349Y022202D01*
X022447Y022202D01*
X022447Y021670D01*
X022447Y021767D02*
X022349Y021767D01*
X022349Y021864D02*
X022447Y021864D01*
X022447Y021961D02*
X022349Y021961D01*
X022349Y022058D02*
X022447Y022058D01*
X022447Y022155D02*
X022349Y022155D01*
X022664Y021670D02*
X022762Y021670D01*
X022664Y021670D02*
X022664Y022202D01*
X022762Y022202D01*
X022762Y021670D01*
X022762Y021767D02*
X022664Y021767D01*
X022664Y021864D02*
X022762Y021864D01*
X022762Y021961D02*
X022664Y021961D01*
X022664Y022058D02*
X022762Y022058D01*
X022762Y022155D02*
X022664Y022155D01*
X022979Y021670D02*
X023077Y021670D01*
X022979Y021670D02*
X022979Y022202D01*
X023077Y022202D01*
X023077Y021670D01*
X023077Y021767D02*
X022979Y021767D01*
X022979Y021864D02*
X023077Y021864D01*
X023077Y021961D02*
X022979Y021961D01*
X022979Y022058D02*
X023077Y022058D01*
X023077Y022155D02*
X022979Y022155D01*
X023294Y021670D02*
X023392Y021670D01*
X023294Y021670D02*
X023294Y022202D01*
X023392Y022202D01*
X023392Y021670D01*
X023392Y021767D02*
X023294Y021767D01*
X023294Y021864D02*
X023392Y021864D01*
X023392Y021961D02*
X023294Y021961D01*
X023294Y022058D02*
X023392Y022058D01*
X023392Y022155D02*
X023294Y022155D01*
X023609Y021670D02*
X023707Y021670D01*
X023609Y021670D02*
X023609Y022202D01*
X023707Y022202D01*
X023707Y021670D01*
X023707Y021767D02*
X023609Y021767D01*
X023609Y021864D02*
X023707Y021864D01*
X023707Y021961D02*
X023609Y021961D01*
X023609Y022058D02*
X023707Y022058D01*
X023707Y022155D02*
X023609Y022155D01*
X023924Y021670D02*
X024022Y021670D01*
X023924Y021670D02*
X023924Y022202D01*
X024022Y022202D01*
X024022Y021670D01*
X024022Y021767D02*
X023924Y021767D01*
X023924Y021864D02*
X024022Y021864D01*
X024022Y021961D02*
X023924Y021961D01*
X023924Y022058D02*
X024022Y022058D01*
X024022Y022155D02*
X023924Y022155D01*
X024751Y022399D02*
X024751Y022497D01*
X024751Y022399D02*
X024219Y022399D01*
X024219Y022497D01*
X024751Y022497D01*
X024751Y022496D02*
X024219Y022496D01*
X024751Y022714D02*
X024751Y022812D01*
X024751Y022714D02*
X024219Y022714D01*
X024219Y022812D01*
X024751Y022812D01*
X024751Y022811D02*
X024219Y022811D01*
X024751Y023029D02*
X024751Y023127D01*
X024751Y023029D02*
X024219Y023029D01*
X024219Y023127D01*
X024751Y023127D01*
X024751Y023126D02*
X024219Y023126D01*
X024751Y023344D02*
X024751Y023442D01*
X024751Y023344D02*
X024219Y023344D01*
X024219Y023442D01*
X024751Y023442D01*
X024751Y023441D02*
X024219Y023441D01*
X024751Y023658D02*
X024751Y023756D01*
X024751Y023658D02*
X024219Y023658D01*
X024219Y023756D01*
X024751Y023756D01*
X024751Y023755D02*
X024219Y023755D01*
X024751Y023973D02*
X024751Y024071D01*
X024751Y023973D02*
X024219Y023973D01*
X024219Y024071D01*
X024751Y024071D01*
X024751Y024070D02*
X024219Y024070D01*
X024751Y024288D02*
X024751Y024386D01*
X024751Y024288D02*
X024219Y024288D01*
X024219Y024386D01*
X024751Y024386D01*
X024751Y024385D02*
X024219Y024385D01*
X024751Y024603D02*
X024751Y024701D01*
X024751Y024603D02*
X024219Y024603D01*
X024219Y024701D01*
X024751Y024701D01*
X024751Y024700D02*
X024219Y024700D01*
X024022Y024898D02*
X023924Y024898D01*
X023924Y025430D01*
X024022Y025430D01*
X024022Y024898D01*
X024022Y024995D02*
X023924Y024995D01*
X023924Y025092D02*
X024022Y025092D01*
X024022Y025189D02*
X023924Y025189D01*
X023924Y025286D02*
X024022Y025286D01*
X024022Y025383D02*
X023924Y025383D01*
X023707Y024898D02*
X023609Y024898D01*
X023609Y025430D01*
X023707Y025430D01*
X023707Y024898D01*
X023707Y024995D02*
X023609Y024995D01*
X023609Y025092D02*
X023707Y025092D01*
X023707Y025189D02*
X023609Y025189D01*
X023609Y025286D02*
X023707Y025286D01*
X023707Y025383D02*
X023609Y025383D01*
X023392Y024898D02*
X023294Y024898D01*
X023294Y025430D01*
X023392Y025430D01*
X023392Y024898D01*
X023392Y024995D02*
X023294Y024995D01*
X023294Y025092D02*
X023392Y025092D01*
X023392Y025189D02*
X023294Y025189D01*
X023294Y025286D02*
X023392Y025286D01*
X023392Y025383D02*
X023294Y025383D01*
X023077Y024898D02*
X022979Y024898D01*
X022979Y025430D01*
X023077Y025430D01*
X023077Y024898D01*
X023077Y024995D02*
X022979Y024995D01*
X022979Y025092D02*
X023077Y025092D01*
X023077Y025189D02*
X022979Y025189D01*
X022979Y025286D02*
X023077Y025286D01*
X023077Y025383D02*
X022979Y025383D01*
X022762Y024898D02*
X022664Y024898D01*
X022664Y025430D01*
X022762Y025430D01*
X022762Y024898D01*
X022762Y024995D02*
X022664Y024995D01*
X022664Y025092D02*
X022762Y025092D01*
X022762Y025189D02*
X022664Y025189D01*
X022664Y025286D02*
X022762Y025286D01*
X022762Y025383D02*
X022664Y025383D01*
X022447Y024898D02*
X022349Y024898D01*
X022349Y025430D01*
X022447Y025430D01*
X022447Y024898D01*
X022447Y024995D02*
X022349Y024995D01*
X022349Y025092D02*
X022447Y025092D01*
X022447Y025189D02*
X022349Y025189D01*
X022349Y025286D02*
X022447Y025286D01*
X022447Y025383D02*
X022349Y025383D01*
X022132Y024898D02*
X022034Y024898D01*
X022034Y025430D01*
X022132Y025430D01*
X022132Y024898D01*
X022132Y024995D02*
X022034Y024995D01*
X022034Y025092D02*
X022132Y025092D01*
X022132Y025189D02*
X022034Y025189D01*
X022034Y025286D02*
X022132Y025286D01*
X022132Y025383D02*
X022034Y025383D01*
X021817Y024898D02*
X021719Y024898D01*
X021719Y025430D01*
X021817Y025430D01*
X021817Y024898D01*
X021817Y024995D02*
X021719Y024995D01*
X021719Y025092D02*
X021817Y025092D01*
X021817Y025189D02*
X021719Y025189D01*
X021719Y025286D02*
X021817Y025286D01*
X021817Y025383D02*
X021719Y025383D01*
X024219Y020430D02*
X024317Y020430D01*
X024317Y019898D01*
X024219Y019898D01*
X024219Y020430D01*
X024219Y019995D02*
X024317Y019995D01*
X024317Y020092D02*
X024219Y020092D01*
X024219Y020189D02*
X024317Y020189D01*
X024317Y020286D02*
X024219Y020286D01*
X024219Y020383D02*
X024317Y020383D01*
X024534Y020430D02*
X024632Y020430D01*
X024632Y019898D01*
X024534Y019898D01*
X024534Y020430D01*
X024534Y019995D02*
X024632Y019995D01*
X024632Y020092D02*
X024534Y020092D01*
X024534Y020189D02*
X024632Y020189D01*
X024632Y020286D02*
X024534Y020286D01*
X024534Y020383D02*
X024632Y020383D01*
X024849Y020430D02*
X024947Y020430D01*
X024947Y019898D01*
X024849Y019898D01*
X024849Y020430D01*
X024849Y019995D02*
X024947Y019995D01*
X024947Y020092D02*
X024849Y020092D01*
X024849Y020189D02*
X024947Y020189D01*
X024947Y020286D02*
X024849Y020286D01*
X024849Y020383D02*
X024947Y020383D01*
X025164Y020430D02*
X025262Y020430D01*
X025262Y019898D01*
X025164Y019898D01*
X025164Y020430D01*
X025164Y019995D02*
X025262Y019995D01*
X025262Y020092D02*
X025164Y020092D01*
X025164Y020189D02*
X025262Y020189D01*
X025262Y020286D02*
X025164Y020286D01*
X025164Y020383D02*
X025262Y020383D01*
X025479Y020430D02*
X025577Y020430D01*
X025577Y019898D01*
X025479Y019898D01*
X025479Y020430D01*
X025479Y019995D02*
X025577Y019995D01*
X025577Y020092D02*
X025479Y020092D01*
X025479Y020189D02*
X025577Y020189D01*
X025577Y020286D02*
X025479Y020286D01*
X025479Y020383D02*
X025577Y020383D01*
X025794Y020430D02*
X025892Y020430D01*
X025892Y019898D01*
X025794Y019898D01*
X025794Y020430D01*
X025794Y019995D02*
X025892Y019995D01*
X025892Y020092D02*
X025794Y020092D01*
X025794Y020189D02*
X025892Y020189D01*
X025892Y020286D02*
X025794Y020286D01*
X025794Y020383D02*
X025892Y020383D01*
X026109Y020430D02*
X026207Y020430D01*
X026207Y019898D01*
X026109Y019898D01*
X026109Y020430D01*
X026109Y019995D02*
X026207Y019995D01*
X026207Y020092D02*
X026109Y020092D01*
X026109Y020189D02*
X026207Y020189D01*
X026207Y020286D02*
X026109Y020286D01*
X026109Y020383D02*
X026207Y020383D01*
X026424Y020430D02*
X026522Y020430D01*
X026522Y019898D01*
X026424Y019898D01*
X026424Y020430D01*
X026424Y019995D02*
X026522Y019995D01*
X026522Y020092D02*
X026424Y020092D01*
X026424Y020189D02*
X026522Y020189D01*
X026522Y020286D02*
X026424Y020286D01*
X026424Y020383D02*
X026522Y020383D01*
X027251Y019701D02*
X027251Y019603D01*
X026719Y019603D01*
X026719Y019701D01*
X027251Y019701D01*
X027251Y019700D02*
X026719Y019700D01*
X027251Y019386D02*
X027251Y019288D01*
X026719Y019288D01*
X026719Y019386D01*
X027251Y019386D01*
X027251Y019385D02*
X026719Y019385D01*
X027251Y019071D02*
X027251Y018973D01*
X026719Y018973D01*
X026719Y019071D01*
X027251Y019071D01*
X027251Y019070D02*
X026719Y019070D01*
X027251Y018756D02*
X027251Y018658D01*
X026719Y018658D01*
X026719Y018756D01*
X027251Y018756D01*
X027251Y018755D02*
X026719Y018755D01*
X027251Y018442D02*
X027251Y018344D01*
X026719Y018344D01*
X026719Y018442D01*
X027251Y018442D01*
X027251Y018441D02*
X026719Y018441D01*
X027251Y018127D02*
X027251Y018029D01*
X026719Y018029D01*
X026719Y018127D01*
X027251Y018127D01*
X027251Y018126D02*
X026719Y018126D01*
X027251Y017812D02*
X027251Y017714D01*
X026719Y017714D01*
X026719Y017812D01*
X027251Y017812D01*
X027251Y017811D02*
X026719Y017811D01*
X027251Y017497D02*
X027251Y017399D01*
X026719Y017399D01*
X026719Y017497D01*
X027251Y017497D01*
X027251Y017496D02*
X026719Y017496D01*
X026522Y017202D02*
X026424Y017202D01*
X026522Y017202D02*
X026522Y016670D01*
X026424Y016670D01*
X026424Y017202D01*
X026424Y016767D02*
X026522Y016767D01*
X026522Y016864D02*
X026424Y016864D01*
X026424Y016961D02*
X026522Y016961D01*
X026522Y017058D02*
X026424Y017058D01*
X026424Y017155D02*
X026522Y017155D01*
X026207Y017202D02*
X026109Y017202D01*
X026207Y017202D02*
X026207Y016670D01*
X026109Y016670D01*
X026109Y017202D01*
X026109Y016767D02*
X026207Y016767D01*
X026207Y016864D02*
X026109Y016864D01*
X026109Y016961D02*
X026207Y016961D01*
X026207Y017058D02*
X026109Y017058D01*
X026109Y017155D02*
X026207Y017155D01*
X025892Y017202D02*
X025794Y017202D01*
X025892Y017202D02*
X025892Y016670D01*
X025794Y016670D01*
X025794Y017202D01*
X025794Y016767D02*
X025892Y016767D01*
X025892Y016864D02*
X025794Y016864D01*
X025794Y016961D02*
X025892Y016961D01*
X025892Y017058D02*
X025794Y017058D01*
X025794Y017155D02*
X025892Y017155D01*
X025577Y017202D02*
X025479Y017202D01*
X025577Y017202D02*
X025577Y016670D01*
X025479Y016670D01*
X025479Y017202D01*
X025479Y016767D02*
X025577Y016767D01*
X025577Y016864D02*
X025479Y016864D01*
X025479Y016961D02*
X025577Y016961D01*
X025577Y017058D02*
X025479Y017058D01*
X025479Y017155D02*
X025577Y017155D01*
X025262Y017202D02*
X025164Y017202D01*
X025262Y017202D02*
X025262Y016670D01*
X025164Y016670D01*
X025164Y017202D01*
X025164Y016767D02*
X025262Y016767D01*
X025262Y016864D02*
X025164Y016864D01*
X025164Y016961D02*
X025262Y016961D01*
X025262Y017058D02*
X025164Y017058D01*
X025164Y017155D02*
X025262Y017155D01*
X024947Y017202D02*
X024849Y017202D01*
X024947Y017202D02*
X024947Y016670D01*
X024849Y016670D01*
X024849Y017202D01*
X024849Y016767D02*
X024947Y016767D01*
X024947Y016864D02*
X024849Y016864D01*
X024849Y016961D02*
X024947Y016961D01*
X024947Y017058D02*
X024849Y017058D01*
X024849Y017155D02*
X024947Y017155D01*
X024632Y017202D02*
X024534Y017202D01*
X024632Y017202D02*
X024632Y016670D01*
X024534Y016670D01*
X024534Y017202D01*
X024534Y016767D02*
X024632Y016767D01*
X024632Y016864D02*
X024534Y016864D01*
X024534Y016961D02*
X024632Y016961D01*
X024632Y017058D02*
X024534Y017058D01*
X024534Y017155D02*
X024632Y017155D01*
X024317Y017202D02*
X024219Y017202D01*
X024317Y017202D02*
X024317Y016670D01*
X024219Y016670D01*
X024219Y017202D01*
X024219Y016767D02*
X024317Y016767D01*
X024317Y016864D02*
X024219Y016864D01*
X024219Y016961D02*
X024317Y016961D01*
X024317Y017058D02*
X024219Y017058D01*
X024219Y017155D02*
X024317Y017155D01*
X024022Y017399D02*
X024022Y017497D01*
X024022Y017399D02*
X023490Y017399D01*
X023490Y017497D01*
X024022Y017497D01*
X024022Y017496D02*
X023490Y017496D01*
X024022Y017714D02*
X024022Y017812D01*
X024022Y017714D02*
X023490Y017714D01*
X023490Y017812D01*
X024022Y017812D01*
X024022Y017811D02*
X023490Y017811D01*
X024022Y018029D02*
X024022Y018127D01*
X024022Y018029D02*
X023490Y018029D01*
X023490Y018127D01*
X024022Y018127D01*
X024022Y018126D02*
X023490Y018126D01*
X024022Y018344D02*
X024022Y018442D01*
X024022Y018344D02*
X023490Y018344D01*
X023490Y018442D01*
X024022Y018442D01*
X024022Y018441D02*
X023490Y018441D01*
X024022Y018658D02*
X024022Y018756D01*
X024022Y018658D02*
X023490Y018658D01*
X023490Y018756D01*
X024022Y018756D01*
X024022Y018755D02*
X023490Y018755D01*
X024022Y018973D02*
X024022Y019071D01*
X024022Y018973D02*
X023490Y018973D01*
X023490Y019071D01*
X024022Y019071D01*
X024022Y019070D02*
X023490Y019070D01*
X024022Y019288D02*
X024022Y019386D01*
X024022Y019288D02*
X023490Y019288D01*
X023490Y019386D01*
X024022Y019386D01*
X024022Y019385D02*
X023490Y019385D01*
X024022Y019603D02*
X024022Y019701D01*
X024022Y019603D02*
X023490Y019603D01*
X023490Y019701D01*
X024022Y019701D01*
X024022Y019700D02*
X023490Y019700D01*
X014022Y010898D02*
X013924Y010898D01*
X013924Y011430D01*
X014022Y011430D01*
X014022Y010898D01*
X014022Y010995D02*
X013924Y010995D01*
X013924Y011092D02*
X014022Y011092D01*
X014022Y011189D02*
X013924Y011189D01*
X013924Y011286D02*
X014022Y011286D01*
X014022Y011383D02*
X013924Y011383D01*
X013707Y010898D02*
X013609Y010898D01*
X013609Y011430D01*
X013707Y011430D01*
X013707Y010898D01*
X013707Y010995D02*
X013609Y010995D01*
X013609Y011092D02*
X013707Y011092D01*
X013707Y011189D02*
X013609Y011189D01*
X013609Y011286D02*
X013707Y011286D01*
X013707Y011383D02*
X013609Y011383D01*
X013392Y010898D02*
X013294Y010898D01*
X013294Y011430D01*
X013392Y011430D01*
X013392Y010898D01*
X013392Y010995D02*
X013294Y010995D01*
X013294Y011092D02*
X013392Y011092D01*
X013392Y011189D02*
X013294Y011189D01*
X013294Y011286D02*
X013392Y011286D01*
X013392Y011383D02*
X013294Y011383D01*
X013077Y010898D02*
X012979Y010898D01*
X012979Y011430D01*
X013077Y011430D01*
X013077Y010898D01*
X013077Y010995D02*
X012979Y010995D01*
X012979Y011092D02*
X013077Y011092D01*
X013077Y011189D02*
X012979Y011189D01*
X012979Y011286D02*
X013077Y011286D01*
X013077Y011383D02*
X012979Y011383D01*
X012762Y010898D02*
X012664Y010898D01*
X012664Y011430D01*
X012762Y011430D01*
X012762Y010898D01*
X012762Y010995D02*
X012664Y010995D01*
X012664Y011092D02*
X012762Y011092D01*
X012762Y011189D02*
X012664Y011189D01*
X012664Y011286D02*
X012762Y011286D01*
X012762Y011383D02*
X012664Y011383D01*
X012447Y010898D02*
X012349Y010898D01*
X012349Y011430D01*
X012447Y011430D01*
X012447Y010898D01*
X012447Y010995D02*
X012349Y010995D01*
X012349Y011092D02*
X012447Y011092D01*
X012447Y011189D02*
X012349Y011189D01*
X012349Y011286D02*
X012447Y011286D01*
X012447Y011383D02*
X012349Y011383D01*
X012132Y010898D02*
X012034Y010898D01*
X012034Y011430D01*
X012132Y011430D01*
X012132Y010898D01*
X012132Y010995D02*
X012034Y010995D01*
X012034Y011092D02*
X012132Y011092D01*
X012132Y011189D02*
X012034Y011189D01*
X012034Y011286D02*
X012132Y011286D01*
X012132Y011383D02*
X012034Y011383D01*
X011817Y010898D02*
X011719Y010898D01*
X011719Y011430D01*
X011817Y011430D01*
X011817Y010898D01*
X011817Y010995D02*
X011719Y010995D01*
X011719Y011092D02*
X011817Y011092D01*
X011817Y011189D02*
X011719Y011189D01*
X011719Y011286D02*
X011817Y011286D01*
X011817Y011383D02*
X011719Y011383D01*
X011522Y010701D02*
X011522Y010603D01*
X010990Y010603D01*
X010990Y010701D01*
X011522Y010701D01*
X011522Y010700D02*
X010990Y010700D01*
X011522Y010386D02*
X011522Y010288D01*
X010990Y010288D01*
X010990Y010386D01*
X011522Y010386D01*
X011522Y010385D02*
X010990Y010385D01*
X011522Y010071D02*
X011522Y009973D01*
X010990Y009973D01*
X010990Y010071D01*
X011522Y010071D01*
X011522Y010070D02*
X010990Y010070D01*
X011522Y009756D02*
X011522Y009658D01*
X010990Y009658D01*
X010990Y009756D01*
X011522Y009756D01*
X011522Y009755D02*
X010990Y009755D01*
X011522Y009442D02*
X011522Y009344D01*
X010990Y009344D01*
X010990Y009442D01*
X011522Y009442D01*
X011522Y009441D02*
X010990Y009441D01*
X011522Y009127D02*
X011522Y009029D01*
X010990Y009029D01*
X010990Y009127D01*
X011522Y009127D01*
X011522Y009126D02*
X010990Y009126D01*
X011522Y008812D02*
X011522Y008714D01*
X010990Y008714D01*
X010990Y008812D01*
X011522Y008812D01*
X011522Y008811D02*
X010990Y008811D01*
X011522Y008497D02*
X011522Y008399D01*
X010990Y008399D01*
X010990Y008497D01*
X011522Y008497D01*
X011522Y008496D02*
X010990Y008496D01*
X011719Y007670D02*
X011817Y007670D01*
X011719Y007670D02*
X011719Y008202D01*
X011817Y008202D01*
X011817Y007670D01*
X011817Y007767D02*
X011719Y007767D01*
X011719Y007864D02*
X011817Y007864D01*
X011817Y007961D02*
X011719Y007961D01*
X011719Y008058D02*
X011817Y008058D01*
X011817Y008155D02*
X011719Y008155D01*
X012034Y007670D02*
X012132Y007670D01*
X012034Y007670D02*
X012034Y008202D01*
X012132Y008202D01*
X012132Y007670D01*
X012132Y007767D02*
X012034Y007767D01*
X012034Y007864D02*
X012132Y007864D01*
X012132Y007961D02*
X012034Y007961D01*
X012034Y008058D02*
X012132Y008058D01*
X012132Y008155D02*
X012034Y008155D01*
X012349Y007670D02*
X012447Y007670D01*
X012349Y007670D02*
X012349Y008202D01*
X012447Y008202D01*
X012447Y007670D01*
X012447Y007767D02*
X012349Y007767D01*
X012349Y007864D02*
X012447Y007864D01*
X012447Y007961D02*
X012349Y007961D01*
X012349Y008058D02*
X012447Y008058D01*
X012447Y008155D02*
X012349Y008155D01*
X012664Y007670D02*
X012762Y007670D01*
X012664Y007670D02*
X012664Y008202D01*
X012762Y008202D01*
X012762Y007670D01*
X012762Y007767D02*
X012664Y007767D01*
X012664Y007864D02*
X012762Y007864D01*
X012762Y007961D02*
X012664Y007961D01*
X012664Y008058D02*
X012762Y008058D01*
X012762Y008155D02*
X012664Y008155D01*
X012979Y007670D02*
X013077Y007670D01*
X012979Y007670D02*
X012979Y008202D01*
X013077Y008202D01*
X013077Y007670D01*
X013077Y007767D02*
X012979Y007767D01*
X012979Y007864D02*
X013077Y007864D01*
X013077Y007961D02*
X012979Y007961D01*
X012979Y008058D02*
X013077Y008058D01*
X013077Y008155D02*
X012979Y008155D01*
X013294Y007670D02*
X013392Y007670D01*
X013294Y007670D02*
X013294Y008202D01*
X013392Y008202D01*
X013392Y007670D01*
X013392Y007767D02*
X013294Y007767D01*
X013294Y007864D02*
X013392Y007864D01*
X013392Y007961D02*
X013294Y007961D01*
X013294Y008058D02*
X013392Y008058D01*
X013392Y008155D02*
X013294Y008155D01*
X013609Y007670D02*
X013707Y007670D01*
X013609Y007670D02*
X013609Y008202D01*
X013707Y008202D01*
X013707Y007670D01*
X013707Y007767D02*
X013609Y007767D01*
X013609Y007864D02*
X013707Y007864D01*
X013707Y007961D02*
X013609Y007961D01*
X013609Y008058D02*
X013707Y008058D01*
X013707Y008155D02*
X013609Y008155D01*
X013924Y007670D02*
X014022Y007670D01*
X013924Y007670D02*
X013924Y008202D01*
X014022Y008202D01*
X014022Y007670D01*
X014022Y007767D02*
X013924Y007767D01*
X013924Y007864D02*
X014022Y007864D01*
X014022Y007961D02*
X013924Y007961D01*
X013924Y008058D02*
X014022Y008058D01*
X014022Y008155D02*
X013924Y008155D01*
X014751Y008399D02*
X014751Y008497D01*
X014751Y008399D02*
X014219Y008399D01*
X014219Y008497D01*
X014751Y008497D01*
X014751Y008496D02*
X014219Y008496D01*
X014751Y008714D02*
X014751Y008812D01*
X014751Y008714D02*
X014219Y008714D01*
X014219Y008812D01*
X014751Y008812D01*
X014751Y008811D02*
X014219Y008811D01*
X014751Y009029D02*
X014751Y009127D01*
X014751Y009029D02*
X014219Y009029D01*
X014219Y009127D01*
X014751Y009127D01*
X014751Y009126D02*
X014219Y009126D01*
X014751Y009344D02*
X014751Y009442D01*
X014751Y009344D02*
X014219Y009344D01*
X014219Y009442D01*
X014751Y009442D01*
X014751Y009441D02*
X014219Y009441D01*
X014751Y009658D02*
X014751Y009756D01*
X014751Y009658D02*
X014219Y009658D01*
X014219Y009756D01*
X014751Y009756D01*
X014751Y009755D02*
X014219Y009755D01*
X014751Y009973D02*
X014751Y010071D01*
X014751Y009973D02*
X014219Y009973D01*
X014219Y010071D01*
X014751Y010071D01*
X014751Y010070D02*
X014219Y010070D01*
X014751Y010288D02*
X014751Y010386D01*
X014751Y010288D02*
X014219Y010288D01*
X014219Y010386D01*
X014751Y010386D01*
X014751Y010385D02*
X014219Y010385D01*
X014751Y010603D02*
X014751Y010701D01*
X014751Y010603D02*
X014219Y010603D01*
X014219Y010701D01*
X014751Y010701D01*
X014751Y010700D02*
X014219Y010700D01*
D14*
X015992Y009476D02*
X015992Y009416D01*
X015992Y009476D02*
X016544Y009476D01*
X016544Y009416D01*
X015992Y009416D01*
X015992Y009474D02*
X016544Y009474D01*
X015992Y009220D02*
X015992Y009160D01*
X015992Y009220D02*
X016544Y009220D01*
X016544Y009160D01*
X015992Y009160D01*
X015992Y009218D02*
X016544Y009218D01*
X015992Y008964D02*
X015992Y008904D01*
X015992Y008964D02*
X016544Y008964D01*
X016544Y008904D01*
X015992Y008904D01*
X015992Y008962D02*
X016544Y008962D01*
X015992Y008708D02*
X015992Y008648D01*
X015992Y008708D02*
X016544Y008708D01*
X016544Y008648D01*
X015992Y008648D01*
X015992Y008706D02*
X016544Y008706D01*
X015992Y008452D02*
X015992Y008392D01*
X015992Y008452D02*
X016544Y008452D01*
X016544Y008392D01*
X015992Y008392D01*
X015992Y008450D02*
X016544Y008450D01*
X015992Y008196D02*
X015992Y008136D01*
X015992Y008196D02*
X016544Y008196D01*
X016544Y008136D01*
X015992Y008136D01*
X015992Y008194D02*
X016544Y008194D01*
X015992Y007940D02*
X015992Y007880D01*
X015992Y007940D02*
X016544Y007940D01*
X016544Y007880D01*
X015992Y007880D01*
X015992Y007938D02*
X016544Y007938D01*
X015992Y007684D02*
X015992Y007624D01*
X015992Y007684D02*
X016544Y007684D01*
X016544Y007624D01*
X015992Y007624D01*
X015992Y007682D02*
X016544Y007682D01*
X018197Y007684D02*
X018197Y007624D01*
X018197Y007684D02*
X018749Y007684D01*
X018749Y007624D01*
X018197Y007624D01*
X018197Y007682D02*
X018749Y007682D01*
X018197Y007880D02*
X018197Y007940D01*
X018749Y007940D01*
X018749Y007880D01*
X018197Y007880D01*
X018197Y007938D02*
X018749Y007938D01*
X018197Y008136D02*
X018197Y008196D01*
X018749Y008196D01*
X018749Y008136D01*
X018197Y008136D01*
X018197Y008194D02*
X018749Y008194D01*
X018197Y008392D02*
X018197Y008452D01*
X018749Y008452D01*
X018749Y008392D01*
X018197Y008392D01*
X018197Y008450D02*
X018749Y008450D01*
X018197Y008648D02*
X018197Y008708D01*
X018749Y008708D01*
X018749Y008648D01*
X018197Y008648D01*
X018197Y008706D02*
X018749Y008706D01*
X018197Y008904D02*
X018197Y008964D01*
X018749Y008964D01*
X018749Y008904D01*
X018197Y008904D01*
X018197Y008962D02*
X018749Y008962D01*
X018197Y009160D02*
X018197Y009220D01*
X018749Y009220D01*
X018749Y009160D01*
X018197Y009160D01*
X018197Y009218D02*
X018749Y009218D01*
X018197Y009416D02*
X018197Y009476D01*
X018749Y009476D01*
X018749Y009416D01*
X018197Y009416D01*
X018197Y009474D02*
X018749Y009474D01*
X014249Y012624D02*
X014249Y012684D01*
X014249Y012624D02*
X013697Y012624D01*
X013697Y012684D01*
X014249Y012684D01*
X014249Y012682D02*
X013697Y012682D01*
X014249Y012880D02*
X014249Y012940D01*
X014249Y012880D02*
X013697Y012880D01*
X013697Y012940D01*
X014249Y012940D01*
X014249Y012938D02*
X013697Y012938D01*
X014249Y013136D02*
X014249Y013196D01*
X014249Y013136D02*
X013697Y013136D01*
X013697Y013196D01*
X014249Y013196D01*
X014249Y013194D02*
X013697Y013194D01*
X014249Y013392D02*
X014249Y013452D01*
X014249Y013392D02*
X013697Y013392D01*
X013697Y013452D01*
X014249Y013452D01*
X014249Y013450D02*
X013697Y013450D01*
X014249Y013648D02*
X014249Y013708D01*
X014249Y013648D02*
X013697Y013648D01*
X013697Y013708D01*
X014249Y013708D01*
X014249Y013706D02*
X013697Y013706D01*
X014249Y013904D02*
X014249Y013964D01*
X014249Y013904D02*
X013697Y013904D01*
X013697Y013964D01*
X014249Y013964D01*
X014249Y013962D02*
X013697Y013962D01*
X014249Y014160D02*
X014249Y014220D01*
X014249Y014160D02*
X013697Y014160D01*
X013697Y014220D01*
X014249Y014220D01*
X014249Y014218D02*
X013697Y014218D01*
X014249Y014416D02*
X014249Y014476D01*
X014249Y014416D02*
X013697Y014416D01*
X013697Y014476D01*
X014249Y014476D01*
X014249Y014474D02*
X013697Y014474D01*
X012044Y014476D02*
X012044Y014416D01*
X011492Y014416D01*
X011492Y014476D01*
X012044Y014476D01*
X012044Y014474D02*
X011492Y014474D01*
X012044Y014220D02*
X012044Y014160D01*
X011492Y014160D01*
X011492Y014220D01*
X012044Y014220D01*
X012044Y014218D02*
X011492Y014218D01*
X012044Y013964D02*
X012044Y013904D01*
X011492Y013904D01*
X011492Y013964D01*
X012044Y013964D01*
X012044Y013962D02*
X011492Y013962D01*
X012044Y013708D02*
X012044Y013648D01*
X011492Y013648D01*
X011492Y013708D01*
X012044Y013708D01*
X012044Y013706D02*
X011492Y013706D01*
X012044Y013452D02*
X012044Y013392D01*
X011492Y013392D01*
X011492Y013452D01*
X012044Y013452D01*
X012044Y013450D02*
X011492Y013450D01*
X012044Y013196D02*
X012044Y013136D01*
X011492Y013136D01*
X011492Y013196D01*
X012044Y013196D01*
X012044Y013194D02*
X011492Y013194D01*
X012044Y012940D02*
X012044Y012880D01*
X011492Y012880D01*
X011492Y012940D01*
X012044Y012940D01*
X012044Y012938D02*
X011492Y012938D01*
X012044Y012684D02*
X012044Y012624D01*
X011492Y012624D01*
X011492Y012684D01*
X012044Y012684D01*
X012044Y012682D02*
X011492Y012682D01*
X009697Y011976D02*
X009697Y011916D01*
X009697Y011976D02*
X010249Y011976D01*
X010249Y011916D01*
X009697Y011916D01*
X009697Y011974D02*
X010249Y011974D01*
X009697Y011720D02*
X009697Y011660D01*
X009697Y011720D02*
X010249Y011720D01*
X010249Y011660D01*
X009697Y011660D01*
X009697Y011718D02*
X010249Y011718D01*
X009697Y011464D02*
X009697Y011404D01*
X009697Y011464D02*
X010249Y011464D01*
X010249Y011404D01*
X009697Y011404D01*
X009697Y011462D02*
X010249Y011462D01*
X009697Y011208D02*
X009697Y011148D01*
X009697Y011208D02*
X010249Y011208D01*
X010249Y011148D01*
X009697Y011148D01*
X009697Y011206D02*
X010249Y011206D01*
X009697Y010952D02*
X009697Y010892D01*
X009697Y010952D02*
X010249Y010952D01*
X010249Y010892D01*
X009697Y010892D01*
X009697Y010950D02*
X010249Y010950D01*
X009697Y010696D02*
X009697Y010636D01*
X009697Y010696D02*
X010249Y010696D01*
X010249Y010636D01*
X009697Y010636D01*
X009697Y010694D02*
X010249Y010694D01*
X009697Y010440D02*
X009697Y010380D01*
X009697Y010440D02*
X010249Y010440D01*
X010249Y010380D01*
X009697Y010380D01*
X009697Y010438D02*
X010249Y010438D01*
X009697Y010184D02*
X009697Y010124D01*
X009697Y010184D02*
X010249Y010184D01*
X010249Y010124D01*
X009697Y010124D01*
X009697Y010182D02*
X010249Y010182D01*
X007492Y010124D02*
X007492Y010184D01*
X008044Y010184D01*
X008044Y010124D01*
X007492Y010124D01*
X007492Y010182D02*
X008044Y010182D01*
X007492Y010380D02*
X007492Y010440D01*
X008044Y010440D01*
X008044Y010380D01*
X007492Y010380D01*
X007492Y010438D02*
X008044Y010438D01*
X007492Y010636D02*
X007492Y010696D01*
X008044Y010696D01*
X008044Y010636D01*
X007492Y010636D01*
X007492Y010694D02*
X008044Y010694D01*
X007492Y010892D02*
X007492Y010952D01*
X008044Y010952D01*
X008044Y010892D01*
X007492Y010892D01*
X007492Y010950D02*
X008044Y010950D01*
X007492Y011148D02*
X007492Y011208D01*
X008044Y011208D01*
X008044Y011148D01*
X007492Y011148D01*
X007492Y011206D02*
X008044Y011206D01*
X007492Y011404D02*
X007492Y011464D01*
X008044Y011464D01*
X008044Y011404D01*
X007492Y011404D01*
X007492Y011462D02*
X008044Y011462D01*
X007492Y011660D02*
X007492Y011720D01*
X008044Y011720D01*
X008044Y011660D01*
X007492Y011660D01*
X007492Y011718D02*
X008044Y011718D01*
X007492Y011916D02*
X007492Y011976D01*
X008044Y011976D01*
X008044Y011916D01*
X007492Y011916D01*
X007492Y011974D02*
X008044Y011974D01*
X006947Y012624D02*
X006947Y012684D01*
X007499Y012684D01*
X007499Y012624D01*
X006947Y012624D01*
X006947Y012682D02*
X007499Y012682D01*
X006947Y012880D02*
X006947Y012940D01*
X007499Y012940D01*
X007499Y012880D01*
X006947Y012880D01*
X006947Y012938D02*
X007499Y012938D01*
X006947Y013136D02*
X006947Y013196D01*
X007499Y013196D01*
X007499Y013136D01*
X006947Y013136D01*
X006947Y013194D02*
X007499Y013194D01*
X006947Y013392D02*
X006947Y013452D01*
X007499Y013452D01*
X007499Y013392D01*
X006947Y013392D01*
X006947Y013450D02*
X007499Y013450D01*
X006947Y013648D02*
X006947Y013708D01*
X007499Y013708D01*
X007499Y013648D01*
X006947Y013648D01*
X006947Y013706D02*
X007499Y013706D01*
X006947Y013904D02*
X006947Y013964D01*
X007499Y013964D01*
X007499Y013904D01*
X006947Y013904D01*
X006947Y013962D02*
X007499Y013962D01*
X006947Y014160D02*
X006947Y014220D01*
X007499Y014220D01*
X007499Y014160D01*
X006947Y014160D01*
X006947Y014218D02*
X007499Y014218D01*
X006947Y014416D02*
X006947Y014476D01*
X007499Y014476D01*
X007499Y014416D01*
X006947Y014416D01*
X006947Y014474D02*
X007499Y014474D01*
X004742Y014416D02*
X004742Y014476D01*
X005294Y014476D01*
X005294Y014416D01*
X004742Y014416D01*
X004742Y014474D02*
X005294Y014474D01*
X004742Y014220D02*
X004742Y014160D01*
X004742Y014220D02*
X005294Y014220D01*
X005294Y014160D01*
X004742Y014160D01*
X004742Y014218D02*
X005294Y014218D01*
X004742Y013964D02*
X004742Y013904D01*
X004742Y013964D02*
X005294Y013964D01*
X005294Y013904D01*
X004742Y013904D01*
X004742Y013962D02*
X005294Y013962D01*
X004742Y013708D02*
X004742Y013648D01*
X004742Y013708D02*
X005294Y013708D01*
X005294Y013648D01*
X004742Y013648D01*
X004742Y013706D02*
X005294Y013706D01*
X004742Y013452D02*
X004742Y013392D01*
X004742Y013452D02*
X005294Y013452D01*
X005294Y013392D01*
X004742Y013392D01*
X004742Y013450D02*
X005294Y013450D01*
X004742Y013196D02*
X004742Y013136D01*
X004742Y013196D02*
X005294Y013196D01*
X005294Y013136D01*
X004742Y013136D01*
X004742Y013194D02*
X005294Y013194D01*
X004742Y012940D02*
X004742Y012880D01*
X004742Y012940D02*
X005294Y012940D01*
X005294Y012880D01*
X004742Y012880D01*
X004742Y012938D02*
X005294Y012938D01*
X004742Y012684D02*
X004742Y012624D01*
X004742Y012684D02*
X005294Y012684D01*
X005294Y012624D01*
X004742Y012624D01*
X004742Y012682D02*
X005294Y012682D01*
X024492Y012416D02*
X024492Y012476D01*
X025044Y012476D01*
X025044Y012416D01*
X024492Y012416D01*
X024492Y012474D02*
X025044Y012474D01*
X024492Y012220D02*
X024492Y012160D01*
X024492Y012220D02*
X025044Y012220D01*
X025044Y012160D01*
X024492Y012160D01*
X024492Y012218D02*
X025044Y012218D01*
X024492Y011964D02*
X024492Y011904D01*
X024492Y011964D02*
X025044Y011964D01*
X025044Y011904D01*
X024492Y011904D01*
X024492Y011962D02*
X025044Y011962D01*
X024492Y011708D02*
X024492Y011648D01*
X024492Y011708D02*
X025044Y011708D01*
X025044Y011648D01*
X024492Y011648D01*
X024492Y011706D02*
X025044Y011706D01*
X024492Y011452D02*
X024492Y011392D01*
X024492Y011452D02*
X025044Y011452D01*
X025044Y011392D01*
X024492Y011392D01*
X024492Y011450D02*
X025044Y011450D01*
X024492Y011196D02*
X024492Y011136D01*
X024492Y011196D02*
X025044Y011196D01*
X025044Y011136D01*
X024492Y011136D01*
X024492Y011194D02*
X025044Y011194D01*
X024492Y010940D02*
X024492Y010880D01*
X024492Y010940D02*
X025044Y010940D01*
X025044Y010880D01*
X024492Y010880D01*
X024492Y010938D02*
X025044Y010938D01*
X024492Y010684D02*
X024492Y010624D01*
X024492Y010684D02*
X025044Y010684D01*
X025044Y010624D01*
X024492Y010624D01*
X024492Y010682D02*
X025044Y010682D01*
X026697Y010684D02*
X026697Y010624D01*
X026697Y010684D02*
X027249Y010684D01*
X027249Y010624D01*
X026697Y010624D01*
X026697Y010682D02*
X027249Y010682D01*
X026697Y010880D02*
X026697Y010940D01*
X027249Y010940D01*
X027249Y010880D01*
X026697Y010880D01*
X026697Y010938D02*
X027249Y010938D01*
X026697Y011136D02*
X026697Y011196D01*
X027249Y011196D01*
X027249Y011136D01*
X026697Y011136D01*
X026697Y011194D02*
X027249Y011194D01*
X026697Y011392D02*
X026697Y011452D01*
X027249Y011452D01*
X027249Y011392D01*
X026697Y011392D01*
X026697Y011450D02*
X027249Y011450D01*
X026697Y011648D02*
X026697Y011708D01*
X027249Y011708D01*
X027249Y011648D01*
X026697Y011648D01*
X026697Y011706D02*
X027249Y011706D01*
X026697Y011904D02*
X026697Y011964D01*
X027249Y011964D01*
X027249Y011904D01*
X026697Y011904D01*
X026697Y011962D02*
X027249Y011962D01*
X026697Y012160D02*
X026697Y012220D01*
X027249Y012220D01*
X027249Y012160D01*
X026697Y012160D01*
X026697Y012218D02*
X027249Y012218D01*
X026697Y012416D02*
X026697Y012476D01*
X027249Y012476D01*
X027249Y012416D01*
X026697Y012416D01*
X026697Y012474D02*
X027249Y012474D01*
X026697Y013624D02*
X026697Y013684D01*
X027249Y013684D01*
X027249Y013624D01*
X026697Y013624D01*
X026697Y013682D02*
X027249Y013682D01*
X026697Y013880D02*
X026697Y013940D01*
X027249Y013940D01*
X027249Y013880D01*
X026697Y013880D01*
X026697Y013938D02*
X027249Y013938D01*
X026697Y014136D02*
X026697Y014196D01*
X027249Y014196D01*
X027249Y014136D01*
X026697Y014136D01*
X026697Y014194D02*
X027249Y014194D01*
X026697Y014392D02*
X026697Y014452D01*
X027249Y014452D01*
X027249Y014392D01*
X026697Y014392D01*
X026697Y014450D02*
X027249Y014450D01*
X026697Y014648D02*
X026697Y014708D01*
X027249Y014708D01*
X027249Y014648D01*
X026697Y014648D01*
X026697Y014706D02*
X027249Y014706D01*
X026697Y014904D02*
X026697Y014964D01*
X027249Y014964D01*
X027249Y014904D01*
X026697Y014904D01*
X026697Y014962D02*
X027249Y014962D01*
X026697Y015160D02*
X026697Y015220D01*
X027249Y015220D01*
X027249Y015160D01*
X026697Y015160D01*
X026697Y015218D02*
X027249Y015218D01*
X026697Y015416D02*
X026697Y015476D01*
X027249Y015476D01*
X027249Y015416D01*
X026697Y015416D01*
X026697Y015474D02*
X027249Y015474D01*
X024492Y015416D02*
X024492Y015476D01*
X025044Y015476D01*
X025044Y015416D01*
X024492Y015416D01*
X024492Y015474D02*
X025044Y015474D01*
X024492Y015220D02*
X024492Y015160D01*
X024492Y015220D02*
X025044Y015220D01*
X025044Y015160D01*
X024492Y015160D01*
X024492Y015218D02*
X025044Y015218D01*
X024492Y014964D02*
X024492Y014904D01*
X024492Y014964D02*
X025044Y014964D01*
X025044Y014904D01*
X024492Y014904D01*
X024492Y014962D02*
X025044Y014962D01*
X024492Y014708D02*
X024492Y014648D01*
X024492Y014708D02*
X025044Y014708D01*
X025044Y014648D01*
X024492Y014648D01*
X024492Y014706D02*
X025044Y014706D01*
X024492Y014452D02*
X024492Y014392D01*
X024492Y014452D02*
X025044Y014452D01*
X025044Y014392D01*
X024492Y014392D01*
X024492Y014450D02*
X025044Y014450D01*
X024492Y014196D02*
X024492Y014136D01*
X024492Y014196D02*
X025044Y014196D01*
X025044Y014136D01*
X024492Y014136D01*
X024492Y014194D02*
X025044Y014194D01*
X024492Y013940D02*
X024492Y013880D01*
X024492Y013940D02*
X025044Y013940D01*
X025044Y013880D01*
X024492Y013880D01*
X024492Y013938D02*
X025044Y013938D01*
X024492Y013684D02*
X024492Y013624D01*
X024492Y013684D02*
X025044Y013684D01*
X025044Y013624D01*
X024492Y013624D01*
X024492Y013682D02*
X025044Y013682D01*
D15*
X018175Y022530D02*
X018067Y022530D01*
X018175Y022530D02*
X018175Y021870D01*
X018067Y021870D01*
X018067Y022530D01*
X018067Y021977D02*
X018175Y021977D01*
X018175Y022084D02*
X018067Y022084D01*
X018067Y022191D02*
X018175Y022191D01*
X018175Y022298D02*
X018067Y022298D01*
X018067Y022405D02*
X018175Y022405D01*
X018175Y022512D02*
X018067Y022512D01*
X017675Y022530D02*
X017567Y022530D01*
X017675Y022530D02*
X017675Y021870D01*
X017567Y021870D01*
X017567Y022530D01*
X017567Y021977D02*
X017675Y021977D01*
X017675Y022084D02*
X017567Y022084D01*
X017567Y022191D02*
X017675Y022191D01*
X017675Y022298D02*
X017567Y022298D01*
X017567Y022405D02*
X017675Y022405D01*
X017675Y022512D02*
X017567Y022512D01*
X017175Y022530D02*
X017067Y022530D01*
X017175Y022530D02*
X017175Y021870D01*
X017067Y021870D01*
X017067Y022530D01*
X017067Y021977D02*
X017175Y021977D01*
X017175Y022084D02*
X017067Y022084D01*
X017067Y022191D02*
X017175Y022191D01*
X017175Y022298D02*
X017067Y022298D01*
X017067Y022405D02*
X017175Y022405D01*
X017175Y022512D02*
X017067Y022512D01*
X016675Y022530D02*
X016567Y022530D01*
X016675Y022530D02*
X016675Y021870D01*
X016567Y021870D01*
X016567Y022530D01*
X016567Y021977D02*
X016675Y021977D01*
X016675Y022084D02*
X016567Y022084D01*
X016567Y022191D02*
X016675Y022191D01*
X016675Y022298D02*
X016567Y022298D01*
X016567Y022405D02*
X016675Y022405D01*
X016675Y022512D02*
X016567Y022512D01*
X016175Y022530D02*
X016067Y022530D01*
X016175Y022530D02*
X016175Y021870D01*
X016067Y021870D01*
X016067Y022530D01*
X016067Y021977D02*
X016175Y021977D01*
X016175Y022084D02*
X016067Y022084D01*
X016067Y022191D02*
X016175Y022191D01*
X016175Y022298D02*
X016067Y022298D01*
X016067Y022405D02*
X016175Y022405D01*
X016175Y022512D02*
X016067Y022512D01*
X015675Y022530D02*
X015567Y022530D01*
X015675Y022530D02*
X015675Y021870D01*
X015567Y021870D01*
X015567Y022530D01*
X015567Y021977D02*
X015675Y021977D01*
X015675Y022084D02*
X015567Y022084D01*
X015567Y022191D02*
X015675Y022191D01*
X015675Y022298D02*
X015567Y022298D01*
X015567Y022405D02*
X015675Y022405D01*
X015675Y022512D02*
X015567Y022512D01*
X015175Y022530D02*
X015067Y022530D01*
X015175Y022530D02*
X015175Y021870D01*
X015067Y021870D01*
X015067Y022530D01*
X015067Y021977D02*
X015175Y021977D01*
X015175Y022084D02*
X015067Y022084D01*
X015067Y022191D02*
X015175Y022191D01*
X015175Y022298D02*
X015067Y022298D01*
X015067Y022405D02*
X015175Y022405D01*
X015175Y022512D02*
X015067Y022512D01*
X014675Y022530D02*
X014567Y022530D01*
X014675Y022530D02*
X014675Y021870D01*
X014567Y021870D01*
X014567Y022530D01*
X014567Y021977D02*
X014675Y021977D01*
X014675Y022084D02*
X014567Y022084D01*
X014567Y022191D02*
X014675Y022191D01*
X014675Y022298D02*
X014567Y022298D01*
X014567Y022405D02*
X014675Y022405D01*
X014675Y022512D02*
X014567Y022512D01*
X014175Y022530D02*
X014067Y022530D01*
X014175Y022530D02*
X014175Y021870D01*
X014067Y021870D01*
X014067Y022530D01*
X014067Y021977D02*
X014175Y021977D01*
X014175Y022084D02*
X014067Y022084D01*
X014067Y022191D02*
X014175Y022191D01*
X014175Y022298D02*
X014067Y022298D01*
X014067Y022405D02*
X014175Y022405D01*
X014175Y022512D02*
X014067Y022512D01*
X013675Y022530D02*
X013567Y022530D01*
X013675Y022530D02*
X013675Y021870D01*
X013567Y021870D01*
X013567Y022530D01*
X013567Y021977D02*
X013675Y021977D01*
X013675Y022084D02*
X013567Y022084D01*
X013567Y022191D02*
X013675Y022191D01*
X013675Y022298D02*
X013567Y022298D01*
X013567Y022405D02*
X013675Y022405D01*
X013675Y022512D02*
X013567Y022512D01*
X013175Y022530D02*
X013067Y022530D01*
X013175Y022530D02*
X013175Y021870D01*
X013067Y021870D01*
X013067Y022530D01*
X013067Y021977D02*
X013175Y021977D01*
X013175Y022084D02*
X013067Y022084D01*
X013067Y022191D02*
X013175Y022191D01*
X013175Y022298D02*
X013067Y022298D01*
X013067Y022405D02*
X013175Y022405D01*
X013175Y022512D02*
X013067Y022512D01*
X012675Y022530D02*
X012567Y022530D01*
X012675Y022530D02*
X012675Y021870D01*
X012567Y021870D01*
X012567Y022530D01*
X012567Y021977D02*
X012675Y021977D01*
X012675Y022084D02*
X012567Y022084D01*
X012567Y022191D02*
X012675Y022191D01*
X012675Y022298D02*
X012567Y022298D01*
X012567Y022405D02*
X012675Y022405D01*
X012675Y022512D02*
X012567Y022512D01*
X012567Y026230D02*
X012675Y026230D01*
X012675Y025570D01*
X012567Y025570D01*
X012567Y026230D01*
X012567Y025677D02*
X012675Y025677D01*
X012675Y025784D02*
X012567Y025784D01*
X012567Y025891D02*
X012675Y025891D01*
X012675Y025998D02*
X012567Y025998D01*
X012567Y026105D02*
X012675Y026105D01*
X012675Y026212D02*
X012567Y026212D01*
X013067Y026230D02*
X013175Y026230D01*
X013175Y025570D01*
X013067Y025570D01*
X013067Y026230D01*
X013067Y025677D02*
X013175Y025677D01*
X013175Y025784D02*
X013067Y025784D01*
X013067Y025891D02*
X013175Y025891D01*
X013175Y025998D02*
X013067Y025998D01*
X013067Y026105D02*
X013175Y026105D01*
X013175Y026212D02*
X013067Y026212D01*
X013567Y026230D02*
X013675Y026230D01*
X013675Y025570D01*
X013567Y025570D01*
X013567Y026230D01*
X013567Y025677D02*
X013675Y025677D01*
X013675Y025784D02*
X013567Y025784D01*
X013567Y025891D02*
X013675Y025891D01*
X013675Y025998D02*
X013567Y025998D01*
X013567Y026105D02*
X013675Y026105D01*
X013675Y026212D02*
X013567Y026212D01*
X014067Y026230D02*
X014175Y026230D01*
X014175Y025570D01*
X014067Y025570D01*
X014067Y026230D01*
X014067Y025677D02*
X014175Y025677D01*
X014175Y025784D02*
X014067Y025784D01*
X014067Y025891D02*
X014175Y025891D01*
X014175Y025998D02*
X014067Y025998D01*
X014067Y026105D02*
X014175Y026105D01*
X014175Y026212D02*
X014067Y026212D01*
X014567Y026230D02*
X014675Y026230D01*
X014675Y025570D01*
X014567Y025570D01*
X014567Y026230D01*
X014567Y025677D02*
X014675Y025677D01*
X014675Y025784D02*
X014567Y025784D01*
X014567Y025891D02*
X014675Y025891D01*
X014675Y025998D02*
X014567Y025998D01*
X014567Y026105D02*
X014675Y026105D01*
X014675Y026212D02*
X014567Y026212D01*
X015067Y026230D02*
X015175Y026230D01*
X015175Y025570D01*
X015067Y025570D01*
X015067Y026230D01*
X015067Y025677D02*
X015175Y025677D01*
X015175Y025784D02*
X015067Y025784D01*
X015067Y025891D02*
X015175Y025891D01*
X015175Y025998D02*
X015067Y025998D01*
X015067Y026105D02*
X015175Y026105D01*
X015175Y026212D02*
X015067Y026212D01*
X015567Y026230D02*
X015675Y026230D01*
X015675Y025570D01*
X015567Y025570D01*
X015567Y026230D01*
X015567Y025677D02*
X015675Y025677D01*
X015675Y025784D02*
X015567Y025784D01*
X015567Y025891D02*
X015675Y025891D01*
X015675Y025998D02*
X015567Y025998D01*
X015567Y026105D02*
X015675Y026105D01*
X015675Y026212D02*
X015567Y026212D01*
X016067Y026230D02*
X016175Y026230D01*
X016175Y025570D01*
X016067Y025570D01*
X016067Y026230D01*
X016067Y025677D02*
X016175Y025677D01*
X016175Y025784D02*
X016067Y025784D01*
X016067Y025891D02*
X016175Y025891D01*
X016175Y025998D02*
X016067Y025998D01*
X016067Y026105D02*
X016175Y026105D01*
X016175Y026212D02*
X016067Y026212D01*
X016567Y026230D02*
X016675Y026230D01*
X016675Y025570D01*
X016567Y025570D01*
X016567Y026230D01*
X016567Y025677D02*
X016675Y025677D01*
X016675Y025784D02*
X016567Y025784D01*
X016567Y025891D02*
X016675Y025891D01*
X016675Y025998D02*
X016567Y025998D01*
X016567Y026105D02*
X016675Y026105D01*
X016675Y026212D02*
X016567Y026212D01*
X017067Y026230D02*
X017175Y026230D01*
X017175Y025570D01*
X017067Y025570D01*
X017067Y026230D01*
X017067Y025677D02*
X017175Y025677D01*
X017175Y025784D02*
X017067Y025784D01*
X017067Y025891D02*
X017175Y025891D01*
X017175Y025998D02*
X017067Y025998D01*
X017067Y026105D02*
X017175Y026105D01*
X017175Y026212D02*
X017067Y026212D01*
X017567Y026230D02*
X017675Y026230D01*
X017675Y025570D01*
X017567Y025570D01*
X017567Y026230D01*
X017567Y025677D02*
X017675Y025677D01*
X017675Y025784D02*
X017567Y025784D01*
X017567Y025891D02*
X017675Y025891D01*
X017675Y025998D02*
X017567Y025998D01*
X017567Y026105D02*
X017675Y026105D01*
X017675Y026212D02*
X017567Y026212D01*
X018067Y026230D02*
X018175Y026230D01*
X018175Y025570D01*
X018067Y025570D01*
X018067Y026230D01*
X018067Y025677D02*
X018175Y025677D01*
X018175Y025784D02*
X018067Y025784D01*
X018067Y025891D02*
X018175Y025891D01*
X018175Y025998D02*
X018067Y025998D01*
X018067Y026105D02*
X018175Y026105D01*
X018175Y026212D02*
X018067Y026212D01*
D16*
X019253Y025963D02*
X019253Y025727D01*
X019253Y025963D02*
X019489Y025963D01*
X019489Y025727D01*
X019253Y025727D01*
X019253Y025805D02*
X019489Y025805D01*
X019489Y025883D02*
X019253Y025883D01*
X019253Y025961D02*
X019489Y025961D01*
X020003Y025963D02*
X020003Y025727D01*
X020003Y025963D02*
X020239Y025963D01*
X020239Y025727D01*
X020003Y025727D01*
X020003Y025805D02*
X020239Y025805D01*
X020239Y025883D02*
X020003Y025883D01*
X020003Y025961D02*
X020239Y025961D01*
X020753Y025963D02*
X020753Y025727D01*
X020753Y025963D02*
X020989Y025963D01*
X020989Y025727D01*
X020753Y025727D01*
X020753Y025805D02*
X020989Y025805D01*
X020989Y025883D02*
X020753Y025883D01*
X020753Y025961D02*
X020989Y025961D01*
X020753Y025373D02*
X020753Y025137D01*
X020753Y025373D02*
X020989Y025373D01*
X020989Y025137D01*
X020753Y025137D01*
X020753Y025215D02*
X020989Y025215D01*
X020989Y025293D02*
X020753Y025293D01*
X020753Y025371D02*
X020989Y025371D01*
X020003Y025373D02*
X020003Y025137D01*
X020003Y025373D02*
X020239Y025373D01*
X020239Y025137D01*
X020003Y025137D01*
X020003Y025215D02*
X020239Y025215D01*
X020239Y025293D02*
X020003Y025293D01*
X020003Y025371D02*
X020239Y025371D01*
X019253Y025373D02*
X019253Y025137D01*
X019253Y025373D02*
X019489Y025373D01*
X019489Y025137D01*
X019253Y025137D01*
X019253Y025215D02*
X019489Y025215D01*
X019489Y025293D02*
X019253Y025293D01*
X019253Y025371D02*
X019489Y025371D01*
X010829Y017425D02*
X010663Y017259D01*
X010829Y017425D02*
X010995Y017259D01*
X010829Y017093D01*
X010663Y017259D01*
X010751Y017171D02*
X010907Y017171D01*
X010985Y017249D02*
X010673Y017249D01*
X010731Y017327D02*
X010927Y017327D01*
X010849Y017405D02*
X010809Y017405D01*
X010412Y017007D02*
X010246Y016841D01*
X010412Y017007D02*
X010578Y016841D01*
X010412Y016675D01*
X010246Y016841D01*
X010334Y016753D02*
X010490Y016753D01*
X010568Y016831D02*
X010256Y016831D01*
X010314Y016909D02*
X010510Y016909D01*
X010432Y016987D02*
X010392Y016987D01*
X009503Y017137D02*
X009503Y017373D01*
X009739Y017373D01*
X009739Y017137D01*
X009503Y017137D01*
X009503Y017215D02*
X009739Y017215D01*
X009739Y017293D02*
X009503Y017293D01*
X009503Y017371D02*
X009739Y017371D01*
X009503Y017727D02*
X009503Y017963D01*
X009739Y017963D01*
X009739Y017727D01*
X009503Y017727D01*
X009503Y017805D02*
X009739Y017805D01*
X009739Y017883D02*
X009503Y017883D01*
X009503Y017961D02*
X009739Y017961D01*
X008663Y016841D02*
X008829Y016675D01*
X008663Y016841D02*
X008829Y017007D01*
X008995Y016841D01*
X008829Y016675D01*
X008907Y016753D02*
X008751Y016753D01*
X008673Y016831D02*
X008985Y016831D01*
X008927Y016909D02*
X008731Y016909D01*
X008809Y016987D02*
X008849Y016987D01*
X008412Y017093D02*
X008246Y017259D01*
X008412Y017425D01*
X008578Y017259D01*
X008412Y017093D01*
X008490Y017171D02*
X008334Y017171D01*
X008256Y017249D02*
X008568Y017249D01*
X008510Y017327D02*
X008314Y017327D01*
X008392Y017405D02*
X008432Y017405D01*
X008534Y015932D02*
X008298Y015932D01*
X008298Y016168D01*
X008534Y016168D01*
X008534Y015932D01*
X008534Y016010D02*
X008298Y016010D01*
X008298Y016088D02*
X008534Y016088D01*
X008534Y016166D02*
X008298Y016166D01*
X007943Y015932D02*
X007707Y015932D01*
X007707Y016168D01*
X007943Y016168D01*
X007943Y015932D01*
X007943Y016010D02*
X007707Y016010D01*
X007707Y016088D02*
X007943Y016088D01*
X007943Y016166D02*
X007707Y016166D01*
X008829Y015093D02*
X008995Y015259D01*
X008829Y015093D02*
X008663Y015259D01*
X008829Y015425D01*
X008995Y015259D01*
X008907Y015171D02*
X008751Y015171D01*
X008673Y015249D02*
X008985Y015249D01*
X008927Y015327D02*
X008731Y015327D01*
X008809Y015405D02*
X008849Y015405D01*
X008578Y014841D02*
X008412Y014675D01*
X008246Y014841D01*
X008412Y015007D01*
X008578Y014841D01*
X008490Y014753D02*
X008334Y014753D01*
X008256Y014831D02*
X008568Y014831D01*
X008510Y014909D02*
X008314Y014909D01*
X008392Y014987D02*
X008432Y014987D01*
X009739Y014963D02*
X009739Y014727D01*
X009503Y014727D01*
X009503Y014963D01*
X009739Y014963D01*
X009739Y014805D02*
X009503Y014805D01*
X009503Y014883D02*
X009739Y014883D01*
X009739Y014961D02*
X009503Y014961D01*
X009739Y014373D02*
X009739Y014137D01*
X009503Y014137D01*
X009503Y014373D01*
X009739Y014373D01*
X009739Y014215D02*
X009503Y014215D01*
X009503Y014293D02*
X009739Y014293D01*
X009739Y014371D02*
X009503Y014371D01*
X010412Y015425D02*
X010578Y015259D01*
X010412Y015093D01*
X010246Y015259D01*
X010412Y015425D01*
X010490Y015171D02*
X010334Y015171D01*
X010256Y015249D02*
X010568Y015249D01*
X010510Y015327D02*
X010314Y015327D01*
X010392Y015405D02*
X010432Y015405D01*
X010829Y015007D02*
X010995Y014841D01*
X010829Y014675D01*
X010663Y014841D01*
X010829Y015007D01*
X010907Y014753D02*
X010751Y014753D01*
X010673Y014831D02*
X010985Y014831D01*
X010927Y014909D02*
X010731Y014909D01*
X010809Y014987D02*
X010849Y014987D01*
X010943Y016168D02*
X010707Y016168D01*
X010943Y016168D02*
X010943Y015932D01*
X010707Y015932D01*
X010707Y016168D01*
X010707Y016010D02*
X010943Y016010D01*
X010943Y016088D02*
X010707Y016088D01*
X010707Y016166D02*
X010943Y016166D01*
X011298Y016168D02*
X011534Y016168D01*
X011534Y015932D01*
X011298Y015932D01*
X011298Y016168D01*
X011298Y016010D02*
X011534Y016010D01*
X011534Y016088D02*
X011298Y016088D01*
X011298Y016166D02*
X011534Y016166D01*
D17*
X011634Y017876D02*
X012108Y017876D01*
X011634Y017876D02*
X011634Y019098D01*
X012108Y019098D01*
X012108Y017876D01*
X012108Y018032D02*
X011634Y018032D01*
X011634Y018188D02*
X012108Y018188D01*
X012108Y018344D02*
X011634Y018344D01*
X011634Y018500D02*
X012108Y018500D01*
X012108Y018656D02*
X011634Y018656D01*
X011634Y018812D02*
X012108Y018812D01*
X012108Y018968D02*
X011634Y018968D01*
X011634Y020002D02*
X012108Y020002D01*
X011634Y020002D02*
X011634Y021224D01*
X012108Y021224D01*
X012108Y020002D01*
X012108Y020158D02*
X011634Y020158D01*
X011634Y020314D02*
X012108Y020314D01*
X012108Y020470D02*
X011634Y020470D01*
X011634Y020626D02*
X012108Y020626D01*
X012108Y020782D02*
X011634Y020782D01*
X011634Y020938D02*
X012108Y020938D01*
X012108Y021094D02*
X011634Y021094D01*
X026056Y021695D02*
X026056Y021853D01*
X026056Y021695D02*
X025582Y021695D01*
X025582Y021853D01*
X026056Y021853D01*
X026056Y021851D02*
X025582Y021851D01*
X026056Y022247D02*
X026056Y022405D01*
X026056Y022247D02*
X025582Y022247D01*
X025582Y022405D01*
X026056Y022405D01*
X026056Y022403D02*
X025582Y022403D01*
X027159Y022405D02*
X027159Y022247D01*
X026685Y022247D01*
X026685Y022405D01*
X027159Y022405D01*
X027159Y022403D02*
X026685Y022403D01*
X027159Y021853D02*
X027159Y021695D01*
X026685Y021695D01*
X026685Y021853D01*
X027159Y021853D01*
X027159Y021851D02*
X026685Y021851D01*
D18*
X023674Y012436D02*
X023674Y012238D01*
X022650Y012238D01*
X022650Y012436D01*
X023674Y012436D01*
X023674Y012434D02*
X022650Y012434D01*
X023674Y010862D02*
X023674Y010664D01*
X022650Y010664D01*
X022650Y010862D01*
X023674Y010862D01*
X023674Y010860D02*
X022650Y010860D01*
X024174Y009436D02*
X024174Y009238D01*
X023150Y009238D01*
X023150Y009436D01*
X024174Y009436D01*
X024174Y009434D02*
X023150Y009434D01*
X024174Y007862D02*
X024174Y007664D01*
X023150Y007664D01*
X023150Y007862D01*
X024174Y007862D01*
X024174Y007860D02*
X023150Y007860D01*
X020591Y007862D02*
X020591Y007664D01*
X019567Y007664D01*
X019567Y007862D01*
X020591Y007862D01*
X020591Y007860D02*
X019567Y007860D01*
X020591Y009238D02*
X020591Y009436D01*
X020591Y009238D02*
X019567Y009238D01*
X019567Y009436D01*
X020591Y009436D01*
X020591Y009434D02*
X019567Y009434D01*
X020091Y010664D02*
X020091Y010862D01*
X020091Y010664D02*
X019067Y010664D01*
X019067Y010862D01*
X020091Y010862D01*
X020091Y010860D02*
X019067Y010860D01*
X020091Y012238D02*
X020091Y012436D01*
X020091Y012238D02*
X019067Y012238D01*
X019067Y012436D01*
X020091Y012436D01*
X020091Y012434D02*
X019067Y012434D01*
D19*
X014249Y019457D02*
X014093Y019457D01*
X014093Y019643D01*
X014249Y019643D01*
X014249Y019457D01*
X014249Y019611D02*
X014093Y019611D01*
X013649Y019457D02*
X013493Y019457D01*
X013493Y019643D01*
X013649Y019643D01*
X013649Y019457D01*
X013649Y019611D02*
X013493Y019611D01*
X013493Y020457D02*
X013649Y020457D01*
X013493Y020457D02*
X013493Y020643D01*
X013649Y020643D01*
X013649Y020457D01*
X013649Y020611D02*
X013493Y020611D01*
X014093Y020457D02*
X014249Y020457D01*
X014093Y020457D02*
X014093Y020643D01*
X014249Y020643D01*
X014249Y020457D01*
X014249Y020611D02*
X014093Y020611D01*
X009999Y016143D02*
X009843Y016143D01*
X009999Y016143D02*
X009999Y015957D01*
X009843Y015957D01*
X009843Y016143D01*
X009843Y016111D02*
X009999Y016111D01*
X009399Y016143D02*
X009243Y016143D01*
X009399Y016143D02*
X009399Y015957D01*
X009243Y015957D01*
X009243Y016143D01*
X009243Y016111D02*
X009399Y016111D01*
X008964Y020172D02*
X008964Y020328D01*
X008964Y020172D02*
X008778Y020172D01*
X008778Y020328D01*
X008964Y020328D01*
X008964Y020326D02*
X008778Y020326D01*
X008964Y020772D02*
X008964Y020928D01*
X008964Y020772D02*
X008778Y020772D01*
X008778Y020928D01*
X008964Y020928D01*
X008964Y020926D02*
X008778Y020926D01*
X008214Y020928D02*
X008214Y020772D01*
X008028Y020772D01*
X008028Y020928D01*
X008214Y020928D01*
X008214Y020926D02*
X008028Y020926D01*
X008214Y020328D02*
X008214Y020172D01*
X008028Y020172D01*
X008028Y020328D01*
X008214Y020328D01*
X008214Y020326D02*
X008028Y020326D01*
X019243Y024143D02*
X019399Y024143D01*
X019399Y023957D01*
X019243Y023957D01*
X019243Y024143D01*
X019243Y024111D02*
X019399Y024111D01*
X019843Y024143D02*
X019999Y024143D01*
X019999Y023957D01*
X019843Y023957D01*
X019843Y024143D01*
X019843Y024111D02*
X019999Y024111D01*
X027993Y022143D02*
X028149Y022143D01*
X028149Y021957D01*
X027993Y021957D01*
X027993Y022143D01*
X027993Y022111D02*
X028149Y022111D01*
X028593Y022143D02*
X028749Y022143D01*
X028749Y021957D01*
X028593Y021957D01*
X028593Y022143D01*
X028593Y022111D02*
X028749Y022111D01*
D20*
X022481Y018620D02*
X022481Y017880D01*
X022261Y017880D01*
X022261Y018620D01*
X022481Y018620D01*
X022481Y018099D02*
X022261Y018099D01*
X022261Y018318D02*
X022481Y018318D01*
X022481Y018537D02*
X022261Y018537D01*
X021481Y018620D02*
X021481Y017880D01*
X021261Y017880D01*
X021261Y018620D01*
X021481Y018620D01*
X021481Y018099D02*
X021261Y018099D01*
X021261Y018318D02*
X021481Y018318D01*
X021481Y018537D02*
X021261Y018537D01*
X020481Y018620D02*
X020481Y017880D01*
X020261Y017880D01*
X020261Y018620D01*
X020481Y018620D01*
X020481Y018099D02*
X020261Y018099D01*
X020261Y018318D02*
X020481Y018318D01*
X020481Y018537D02*
X020261Y018537D01*
X020481Y015220D02*
X020481Y014480D01*
X020261Y014480D01*
X020261Y015220D01*
X020481Y015220D01*
X020481Y014699D02*
X020261Y014699D01*
X020261Y014918D02*
X020481Y014918D01*
X020481Y015137D02*
X020261Y015137D01*
X021481Y015220D02*
X021481Y014480D01*
X021261Y014480D01*
X021261Y015220D01*
X021481Y015220D01*
X021481Y014699D02*
X021261Y014699D01*
X021261Y014918D02*
X021481Y014918D01*
X021481Y015137D02*
X021261Y015137D01*
X022481Y015220D02*
X022481Y014480D01*
X022261Y014480D01*
X022261Y015220D01*
X022481Y015220D01*
X022481Y014699D02*
X022261Y014699D01*
X022261Y014918D02*
X022481Y014918D01*
X022481Y015137D02*
X022261Y015137D01*
D21*
X023071Y014754D03*
X023663Y014068D03*
X023976Y013822D03*
X023426Y013463D03*
X025297Y014016D03*
X025501Y013451D03*
X025872Y016324D03*
X025198Y016394D03*
X024856Y017670D03*
X025271Y017812D03*
X025806Y018078D03*
X026424Y017808D03*
X027551Y018387D03*
X026099Y019465D03*
X024826Y019060D03*
X024519Y018888D03*
X024468Y019218D03*
X024267Y018667D03*
X023527Y017013D03*
X025388Y021136D03*
X024277Y021698D03*
X023722Y021410D03*
X023039Y022468D03*
X022728Y022789D03*
X022376Y022840D03*
X021998Y022897D03*
X020741Y022634D03*
X020364Y022202D03*
X020369Y021498D03*
X020350Y020965D03*
X019030Y023543D03*
X018208Y023995D03*
X018540Y025529D03*
X021430Y025413D03*
X021459Y025064D03*
X021771Y024622D03*
X022118Y024619D03*
X021445Y025955D03*
X021445Y026518D03*
X023631Y024168D03*
X025367Y023911D03*
X026371Y022227D03*
X029127Y017913D03*
X029375Y015926D03*
X024825Y010237D03*
X016696Y014857D03*
X012811Y014568D03*
X012811Y015277D03*
X009203Y011734D03*
X008946Y011967D03*
X009471Y011493D03*
X010498Y011298D03*
X010975Y010979D03*
X010646Y010659D03*
X009816Y009846D03*
X010742Y009304D03*
X010742Y008763D03*
X011983Y009036D03*
X012043Y008675D03*
X011967Y009604D03*
X013258Y008733D03*
X013633Y008676D03*
X013724Y009006D03*
X013848Y009740D03*
X013806Y010082D03*
X013952Y010653D03*
X014996Y009646D03*
X015129Y009140D03*
X015599Y009708D03*
X016027Y010217D03*
X015410Y010693D03*
X006686Y013765D03*
X006193Y013891D03*
X005734Y014219D03*
X005132Y012392D03*
X006040Y011483D03*
X004702Y007683D03*
X014081Y021565D03*
X015189Y021614D03*
X015527Y021610D03*
X016324Y021504D03*
X014680Y022784D03*
X014350Y022770D03*
X013900Y025385D03*
X013570Y025318D03*
X009633Y023166D03*
X009208Y023646D03*
X009241Y022405D03*
M02*
