G75*
%MOIN*%
%OFA0B0*%
%FSLAX24Y24*%
%IPPOS*%
%LPD*%
%AMOC8*
5,1,8,0,0,1.08239X$1,22.5*
%
%ADD10C,0.0098*%
%ADD11C,0.0059*%
%ADD12C,0.0108*%
%ADD13C,0.0079*%
%ADD14C,0.0157*%
%ADD15C,0.0197*%
%ADD16C,0.0155*%
%ADD17C,0.0220*%
D10*
X011522Y008399D02*
X011522Y008497D01*
X011522Y008399D02*
X010990Y008399D01*
X010990Y008497D01*
X011522Y008497D01*
X011522Y008496D02*
X010990Y008496D01*
X011522Y008714D02*
X011522Y008812D01*
X011522Y008714D02*
X010990Y008714D01*
X010990Y008812D01*
X011522Y008812D01*
X011522Y008811D02*
X010990Y008811D01*
X011522Y009029D02*
X011522Y009127D01*
X011522Y009029D02*
X010990Y009029D01*
X010990Y009127D01*
X011522Y009127D01*
X011522Y009126D02*
X010990Y009126D01*
X011522Y009344D02*
X011522Y009442D01*
X011522Y009344D02*
X010990Y009344D01*
X010990Y009442D01*
X011522Y009442D01*
X011522Y009441D02*
X010990Y009441D01*
X011522Y009658D02*
X011522Y009756D01*
X011522Y009658D02*
X010990Y009658D01*
X010990Y009756D01*
X011522Y009756D01*
X011522Y009755D02*
X010990Y009755D01*
X011522Y009973D02*
X011522Y010071D01*
X011522Y009973D02*
X010990Y009973D01*
X010990Y010071D01*
X011522Y010071D01*
X011522Y010070D02*
X010990Y010070D01*
X011522Y010288D02*
X011522Y010386D01*
X011522Y010288D02*
X010990Y010288D01*
X010990Y010386D01*
X011522Y010386D01*
X011522Y010385D02*
X010990Y010385D01*
X011522Y010603D02*
X011522Y010701D01*
X011522Y010603D02*
X010990Y010603D01*
X010990Y010701D01*
X011522Y010701D01*
X011522Y010700D02*
X010990Y010700D01*
X011719Y010898D02*
X011817Y010898D01*
X011719Y010898D02*
X011719Y011430D01*
X011817Y011430D01*
X011817Y010898D01*
X011817Y010995D02*
X011719Y010995D01*
X011719Y011092D02*
X011817Y011092D01*
X011817Y011189D02*
X011719Y011189D01*
X011719Y011286D02*
X011817Y011286D01*
X011817Y011383D02*
X011719Y011383D01*
X012034Y010898D02*
X012132Y010898D01*
X012034Y010898D02*
X012034Y011430D01*
X012132Y011430D01*
X012132Y010898D01*
X012132Y010995D02*
X012034Y010995D01*
X012034Y011092D02*
X012132Y011092D01*
X012132Y011189D02*
X012034Y011189D01*
X012034Y011286D02*
X012132Y011286D01*
X012132Y011383D02*
X012034Y011383D01*
X012349Y010898D02*
X012447Y010898D01*
X012349Y010898D02*
X012349Y011430D01*
X012447Y011430D01*
X012447Y010898D01*
X012447Y010995D02*
X012349Y010995D01*
X012349Y011092D02*
X012447Y011092D01*
X012447Y011189D02*
X012349Y011189D01*
X012349Y011286D02*
X012447Y011286D01*
X012447Y011383D02*
X012349Y011383D01*
X012664Y010898D02*
X012762Y010898D01*
X012664Y010898D02*
X012664Y011430D01*
X012762Y011430D01*
X012762Y010898D01*
X012762Y010995D02*
X012664Y010995D01*
X012664Y011092D02*
X012762Y011092D01*
X012762Y011189D02*
X012664Y011189D01*
X012664Y011286D02*
X012762Y011286D01*
X012762Y011383D02*
X012664Y011383D01*
X012979Y010898D02*
X013077Y010898D01*
X012979Y010898D02*
X012979Y011430D01*
X013077Y011430D01*
X013077Y010898D01*
X013077Y010995D02*
X012979Y010995D01*
X012979Y011092D02*
X013077Y011092D01*
X013077Y011189D02*
X012979Y011189D01*
X012979Y011286D02*
X013077Y011286D01*
X013077Y011383D02*
X012979Y011383D01*
X013294Y010898D02*
X013392Y010898D01*
X013294Y010898D02*
X013294Y011430D01*
X013392Y011430D01*
X013392Y010898D01*
X013392Y010995D02*
X013294Y010995D01*
X013294Y011092D02*
X013392Y011092D01*
X013392Y011189D02*
X013294Y011189D01*
X013294Y011286D02*
X013392Y011286D01*
X013392Y011383D02*
X013294Y011383D01*
X013609Y010898D02*
X013707Y010898D01*
X013609Y010898D02*
X013609Y011430D01*
X013707Y011430D01*
X013707Y010898D01*
X013707Y010995D02*
X013609Y010995D01*
X013609Y011092D02*
X013707Y011092D01*
X013707Y011189D02*
X013609Y011189D01*
X013609Y011286D02*
X013707Y011286D01*
X013707Y011383D02*
X013609Y011383D01*
X013924Y010898D02*
X014022Y010898D01*
X013924Y010898D02*
X013924Y011430D01*
X014022Y011430D01*
X014022Y010898D01*
X014022Y010995D02*
X013924Y010995D01*
X013924Y011092D02*
X014022Y011092D01*
X014022Y011189D02*
X013924Y011189D01*
X013924Y011286D02*
X014022Y011286D01*
X014022Y011383D02*
X013924Y011383D01*
X014751Y010701D02*
X014751Y010603D01*
X014219Y010603D01*
X014219Y010701D01*
X014751Y010701D01*
X014751Y010700D02*
X014219Y010700D01*
X014751Y010386D02*
X014751Y010288D01*
X014219Y010288D01*
X014219Y010386D01*
X014751Y010386D01*
X014751Y010385D02*
X014219Y010385D01*
X014751Y010071D02*
X014751Y009973D01*
X014219Y009973D01*
X014219Y010071D01*
X014751Y010071D01*
X014751Y010070D02*
X014219Y010070D01*
X014751Y009756D02*
X014751Y009658D01*
X014219Y009658D01*
X014219Y009756D01*
X014751Y009756D01*
X014751Y009755D02*
X014219Y009755D01*
X014751Y009442D02*
X014751Y009344D01*
X014219Y009344D01*
X014219Y009442D01*
X014751Y009442D01*
X014751Y009441D02*
X014219Y009441D01*
X014751Y009127D02*
X014751Y009029D01*
X014219Y009029D01*
X014219Y009127D01*
X014751Y009127D01*
X014751Y009126D02*
X014219Y009126D01*
X014751Y008812D02*
X014751Y008714D01*
X014219Y008714D01*
X014219Y008812D01*
X014751Y008812D01*
X014751Y008811D02*
X014219Y008811D01*
X014751Y008497D02*
X014751Y008399D01*
X014219Y008399D01*
X014219Y008497D01*
X014751Y008497D01*
X014751Y008496D02*
X014219Y008496D01*
X014022Y007670D02*
X013924Y007670D01*
X013924Y008202D01*
X014022Y008202D01*
X014022Y007670D01*
X014022Y007767D02*
X013924Y007767D01*
X013924Y007864D02*
X014022Y007864D01*
X014022Y007961D02*
X013924Y007961D01*
X013924Y008058D02*
X014022Y008058D01*
X014022Y008155D02*
X013924Y008155D01*
X013707Y007670D02*
X013609Y007670D01*
X013609Y008202D01*
X013707Y008202D01*
X013707Y007670D01*
X013707Y007767D02*
X013609Y007767D01*
X013609Y007864D02*
X013707Y007864D01*
X013707Y007961D02*
X013609Y007961D01*
X013609Y008058D02*
X013707Y008058D01*
X013707Y008155D02*
X013609Y008155D01*
X013392Y007670D02*
X013294Y007670D01*
X013294Y008202D01*
X013392Y008202D01*
X013392Y007670D01*
X013392Y007767D02*
X013294Y007767D01*
X013294Y007864D02*
X013392Y007864D01*
X013392Y007961D02*
X013294Y007961D01*
X013294Y008058D02*
X013392Y008058D01*
X013392Y008155D02*
X013294Y008155D01*
X013077Y007670D02*
X012979Y007670D01*
X012979Y008202D01*
X013077Y008202D01*
X013077Y007670D01*
X013077Y007767D02*
X012979Y007767D01*
X012979Y007864D02*
X013077Y007864D01*
X013077Y007961D02*
X012979Y007961D01*
X012979Y008058D02*
X013077Y008058D01*
X013077Y008155D02*
X012979Y008155D01*
X012762Y007670D02*
X012664Y007670D01*
X012664Y008202D01*
X012762Y008202D01*
X012762Y007670D01*
X012762Y007767D02*
X012664Y007767D01*
X012664Y007864D02*
X012762Y007864D01*
X012762Y007961D02*
X012664Y007961D01*
X012664Y008058D02*
X012762Y008058D01*
X012762Y008155D02*
X012664Y008155D01*
X012447Y007670D02*
X012349Y007670D01*
X012349Y008202D01*
X012447Y008202D01*
X012447Y007670D01*
X012447Y007767D02*
X012349Y007767D01*
X012349Y007864D02*
X012447Y007864D01*
X012447Y007961D02*
X012349Y007961D01*
X012349Y008058D02*
X012447Y008058D01*
X012447Y008155D02*
X012349Y008155D01*
X012132Y007670D02*
X012034Y007670D01*
X012034Y008202D01*
X012132Y008202D01*
X012132Y007670D01*
X012132Y007767D02*
X012034Y007767D01*
X012034Y007864D02*
X012132Y007864D01*
X012132Y007961D02*
X012034Y007961D01*
X012034Y008058D02*
X012132Y008058D01*
X012132Y008155D02*
X012034Y008155D01*
X011817Y007670D02*
X011719Y007670D01*
X011719Y008202D01*
X011817Y008202D01*
X011817Y007670D01*
X011817Y007767D02*
X011719Y007767D01*
X011719Y007864D02*
X011817Y007864D01*
X011817Y007961D02*
X011719Y007961D01*
X011719Y008058D02*
X011817Y008058D01*
X011817Y008155D02*
X011719Y008155D01*
X024022Y017399D02*
X024022Y017497D01*
X024022Y017399D02*
X023490Y017399D01*
X023490Y017497D01*
X024022Y017497D01*
X024022Y017496D02*
X023490Y017496D01*
X024022Y017714D02*
X024022Y017812D01*
X024022Y017714D02*
X023490Y017714D01*
X023490Y017812D01*
X024022Y017812D01*
X024022Y017811D02*
X023490Y017811D01*
X024022Y018029D02*
X024022Y018127D01*
X024022Y018029D02*
X023490Y018029D01*
X023490Y018127D01*
X024022Y018127D01*
X024022Y018126D02*
X023490Y018126D01*
X024022Y018344D02*
X024022Y018442D01*
X024022Y018344D02*
X023490Y018344D01*
X023490Y018442D01*
X024022Y018442D01*
X024022Y018441D02*
X023490Y018441D01*
X024022Y018658D02*
X024022Y018756D01*
X024022Y018658D02*
X023490Y018658D01*
X023490Y018756D01*
X024022Y018756D01*
X024022Y018755D02*
X023490Y018755D01*
X024022Y018973D02*
X024022Y019071D01*
X024022Y018973D02*
X023490Y018973D01*
X023490Y019071D01*
X024022Y019071D01*
X024022Y019070D02*
X023490Y019070D01*
X024022Y019288D02*
X024022Y019386D01*
X024022Y019288D02*
X023490Y019288D01*
X023490Y019386D01*
X024022Y019386D01*
X024022Y019385D02*
X023490Y019385D01*
X024022Y019603D02*
X024022Y019701D01*
X024022Y019603D02*
X023490Y019603D01*
X023490Y019701D01*
X024022Y019701D01*
X024022Y019700D02*
X023490Y019700D01*
X024219Y020430D02*
X024317Y020430D01*
X024317Y019898D01*
X024219Y019898D01*
X024219Y020430D01*
X024219Y019995D02*
X024317Y019995D01*
X024317Y020092D02*
X024219Y020092D01*
X024219Y020189D02*
X024317Y020189D01*
X024317Y020286D02*
X024219Y020286D01*
X024219Y020383D02*
X024317Y020383D01*
X024534Y020430D02*
X024632Y020430D01*
X024632Y019898D01*
X024534Y019898D01*
X024534Y020430D01*
X024534Y019995D02*
X024632Y019995D01*
X024632Y020092D02*
X024534Y020092D01*
X024534Y020189D02*
X024632Y020189D01*
X024632Y020286D02*
X024534Y020286D01*
X024534Y020383D02*
X024632Y020383D01*
X024849Y020430D02*
X024947Y020430D01*
X024947Y019898D01*
X024849Y019898D01*
X024849Y020430D01*
X024849Y019995D02*
X024947Y019995D01*
X024947Y020092D02*
X024849Y020092D01*
X024849Y020189D02*
X024947Y020189D01*
X024947Y020286D02*
X024849Y020286D01*
X024849Y020383D02*
X024947Y020383D01*
X025164Y020430D02*
X025262Y020430D01*
X025262Y019898D01*
X025164Y019898D01*
X025164Y020430D01*
X025164Y019995D02*
X025262Y019995D01*
X025262Y020092D02*
X025164Y020092D01*
X025164Y020189D02*
X025262Y020189D01*
X025262Y020286D02*
X025164Y020286D01*
X025164Y020383D02*
X025262Y020383D01*
X025479Y020430D02*
X025577Y020430D01*
X025577Y019898D01*
X025479Y019898D01*
X025479Y020430D01*
X025479Y019995D02*
X025577Y019995D01*
X025577Y020092D02*
X025479Y020092D01*
X025479Y020189D02*
X025577Y020189D01*
X025577Y020286D02*
X025479Y020286D01*
X025479Y020383D02*
X025577Y020383D01*
X025794Y020430D02*
X025892Y020430D01*
X025892Y019898D01*
X025794Y019898D01*
X025794Y020430D01*
X025794Y019995D02*
X025892Y019995D01*
X025892Y020092D02*
X025794Y020092D01*
X025794Y020189D02*
X025892Y020189D01*
X025892Y020286D02*
X025794Y020286D01*
X025794Y020383D02*
X025892Y020383D01*
X026109Y020430D02*
X026207Y020430D01*
X026207Y019898D01*
X026109Y019898D01*
X026109Y020430D01*
X026109Y019995D02*
X026207Y019995D01*
X026207Y020092D02*
X026109Y020092D01*
X026109Y020189D02*
X026207Y020189D01*
X026207Y020286D02*
X026109Y020286D01*
X026109Y020383D02*
X026207Y020383D01*
X026424Y020430D02*
X026522Y020430D01*
X026522Y019898D01*
X026424Y019898D01*
X026424Y020430D01*
X026424Y019995D02*
X026522Y019995D01*
X026522Y020092D02*
X026424Y020092D01*
X026424Y020189D02*
X026522Y020189D01*
X026522Y020286D02*
X026424Y020286D01*
X026424Y020383D02*
X026522Y020383D01*
X027251Y019701D02*
X027251Y019603D01*
X026719Y019603D01*
X026719Y019701D01*
X027251Y019701D01*
X027251Y019700D02*
X026719Y019700D01*
X027251Y019386D02*
X027251Y019288D01*
X026719Y019288D01*
X026719Y019386D01*
X027251Y019386D01*
X027251Y019385D02*
X026719Y019385D01*
X027251Y019071D02*
X027251Y018973D01*
X026719Y018973D01*
X026719Y019071D01*
X027251Y019071D01*
X027251Y019070D02*
X026719Y019070D01*
X027251Y018756D02*
X027251Y018658D01*
X026719Y018658D01*
X026719Y018756D01*
X027251Y018756D01*
X027251Y018755D02*
X026719Y018755D01*
X027251Y018442D02*
X027251Y018344D01*
X026719Y018344D01*
X026719Y018442D01*
X027251Y018442D01*
X027251Y018441D02*
X026719Y018441D01*
X027251Y018127D02*
X027251Y018029D01*
X026719Y018029D01*
X026719Y018127D01*
X027251Y018127D01*
X027251Y018126D02*
X026719Y018126D01*
X027251Y017812D02*
X027251Y017714D01*
X026719Y017714D01*
X026719Y017812D01*
X027251Y017812D01*
X027251Y017811D02*
X026719Y017811D01*
X027251Y017497D02*
X027251Y017399D01*
X026719Y017399D01*
X026719Y017497D01*
X027251Y017497D01*
X027251Y017496D02*
X026719Y017496D01*
X026522Y017202D02*
X026424Y017202D01*
X026522Y017202D02*
X026522Y016670D01*
X026424Y016670D01*
X026424Y017202D01*
X026424Y016767D02*
X026522Y016767D01*
X026522Y016864D02*
X026424Y016864D01*
X026424Y016961D02*
X026522Y016961D01*
X026522Y017058D02*
X026424Y017058D01*
X026424Y017155D02*
X026522Y017155D01*
X026207Y017202D02*
X026109Y017202D01*
X026207Y017202D02*
X026207Y016670D01*
X026109Y016670D01*
X026109Y017202D01*
X026109Y016767D02*
X026207Y016767D01*
X026207Y016864D02*
X026109Y016864D01*
X026109Y016961D02*
X026207Y016961D01*
X026207Y017058D02*
X026109Y017058D01*
X026109Y017155D02*
X026207Y017155D01*
X025892Y017202D02*
X025794Y017202D01*
X025892Y017202D02*
X025892Y016670D01*
X025794Y016670D01*
X025794Y017202D01*
X025794Y016767D02*
X025892Y016767D01*
X025892Y016864D02*
X025794Y016864D01*
X025794Y016961D02*
X025892Y016961D01*
X025892Y017058D02*
X025794Y017058D01*
X025794Y017155D02*
X025892Y017155D01*
X025577Y017202D02*
X025479Y017202D01*
X025577Y017202D02*
X025577Y016670D01*
X025479Y016670D01*
X025479Y017202D01*
X025479Y016767D02*
X025577Y016767D01*
X025577Y016864D02*
X025479Y016864D01*
X025479Y016961D02*
X025577Y016961D01*
X025577Y017058D02*
X025479Y017058D01*
X025479Y017155D02*
X025577Y017155D01*
X025262Y017202D02*
X025164Y017202D01*
X025262Y017202D02*
X025262Y016670D01*
X025164Y016670D01*
X025164Y017202D01*
X025164Y016767D02*
X025262Y016767D01*
X025262Y016864D02*
X025164Y016864D01*
X025164Y016961D02*
X025262Y016961D01*
X025262Y017058D02*
X025164Y017058D01*
X025164Y017155D02*
X025262Y017155D01*
X024947Y017202D02*
X024849Y017202D01*
X024947Y017202D02*
X024947Y016670D01*
X024849Y016670D01*
X024849Y017202D01*
X024849Y016767D02*
X024947Y016767D01*
X024947Y016864D02*
X024849Y016864D01*
X024849Y016961D02*
X024947Y016961D01*
X024947Y017058D02*
X024849Y017058D01*
X024849Y017155D02*
X024947Y017155D01*
X024632Y017202D02*
X024534Y017202D01*
X024632Y017202D02*
X024632Y016670D01*
X024534Y016670D01*
X024534Y017202D01*
X024534Y016767D02*
X024632Y016767D01*
X024632Y016864D02*
X024534Y016864D01*
X024534Y016961D02*
X024632Y016961D01*
X024632Y017058D02*
X024534Y017058D01*
X024534Y017155D02*
X024632Y017155D01*
X024317Y017202D02*
X024219Y017202D01*
X024317Y017202D02*
X024317Y016670D01*
X024219Y016670D01*
X024219Y017202D01*
X024219Y016767D02*
X024317Y016767D01*
X024317Y016864D02*
X024219Y016864D01*
X024219Y016961D02*
X024317Y016961D01*
X024317Y017058D02*
X024219Y017058D01*
X024219Y017155D02*
X024317Y017155D01*
X024022Y021670D02*
X023924Y021670D01*
X023924Y022202D01*
X024022Y022202D01*
X024022Y021670D01*
X024022Y021767D02*
X023924Y021767D01*
X023924Y021864D02*
X024022Y021864D01*
X024022Y021961D02*
X023924Y021961D01*
X023924Y022058D02*
X024022Y022058D01*
X024022Y022155D02*
X023924Y022155D01*
X023707Y021670D02*
X023609Y021670D01*
X023609Y022202D01*
X023707Y022202D01*
X023707Y021670D01*
X023707Y021767D02*
X023609Y021767D01*
X023609Y021864D02*
X023707Y021864D01*
X023707Y021961D02*
X023609Y021961D01*
X023609Y022058D02*
X023707Y022058D01*
X023707Y022155D02*
X023609Y022155D01*
X023392Y021670D02*
X023294Y021670D01*
X023294Y022202D01*
X023392Y022202D01*
X023392Y021670D01*
X023392Y021767D02*
X023294Y021767D01*
X023294Y021864D02*
X023392Y021864D01*
X023392Y021961D02*
X023294Y021961D01*
X023294Y022058D02*
X023392Y022058D01*
X023392Y022155D02*
X023294Y022155D01*
X023077Y021670D02*
X022979Y021670D01*
X022979Y022202D01*
X023077Y022202D01*
X023077Y021670D01*
X023077Y021767D02*
X022979Y021767D01*
X022979Y021864D02*
X023077Y021864D01*
X023077Y021961D02*
X022979Y021961D01*
X022979Y022058D02*
X023077Y022058D01*
X023077Y022155D02*
X022979Y022155D01*
X022762Y021670D02*
X022664Y021670D01*
X022664Y022202D01*
X022762Y022202D01*
X022762Y021670D01*
X022762Y021767D02*
X022664Y021767D01*
X022664Y021864D02*
X022762Y021864D01*
X022762Y021961D02*
X022664Y021961D01*
X022664Y022058D02*
X022762Y022058D01*
X022762Y022155D02*
X022664Y022155D01*
X022447Y021670D02*
X022349Y021670D01*
X022349Y022202D01*
X022447Y022202D01*
X022447Y021670D01*
X022447Y021767D02*
X022349Y021767D01*
X022349Y021864D02*
X022447Y021864D01*
X022447Y021961D02*
X022349Y021961D01*
X022349Y022058D02*
X022447Y022058D01*
X022447Y022155D02*
X022349Y022155D01*
X022132Y021670D02*
X022034Y021670D01*
X022034Y022202D01*
X022132Y022202D01*
X022132Y021670D01*
X022132Y021767D02*
X022034Y021767D01*
X022034Y021864D02*
X022132Y021864D01*
X022132Y021961D02*
X022034Y021961D01*
X022034Y022058D02*
X022132Y022058D01*
X022132Y022155D02*
X022034Y022155D01*
X021817Y021670D02*
X021719Y021670D01*
X021719Y022202D01*
X021817Y022202D01*
X021817Y021670D01*
X021817Y021767D02*
X021719Y021767D01*
X021719Y021864D02*
X021817Y021864D01*
X021817Y021961D02*
X021719Y021961D01*
X021719Y022058D02*
X021817Y022058D01*
X021817Y022155D02*
X021719Y022155D01*
X021522Y022399D02*
X021522Y022497D01*
X021522Y022399D02*
X020990Y022399D01*
X020990Y022497D01*
X021522Y022497D01*
X021522Y022496D02*
X020990Y022496D01*
X021522Y022714D02*
X021522Y022812D01*
X021522Y022714D02*
X020990Y022714D01*
X020990Y022812D01*
X021522Y022812D01*
X021522Y022811D02*
X020990Y022811D01*
X021522Y023029D02*
X021522Y023127D01*
X021522Y023029D02*
X020990Y023029D01*
X020990Y023127D01*
X021522Y023127D01*
X021522Y023126D02*
X020990Y023126D01*
X021522Y023344D02*
X021522Y023442D01*
X021522Y023344D02*
X020990Y023344D01*
X020990Y023442D01*
X021522Y023442D01*
X021522Y023441D02*
X020990Y023441D01*
X021522Y023658D02*
X021522Y023756D01*
X021522Y023658D02*
X020990Y023658D01*
X020990Y023756D01*
X021522Y023756D01*
X021522Y023755D02*
X020990Y023755D01*
X021522Y023973D02*
X021522Y024071D01*
X021522Y023973D02*
X020990Y023973D01*
X020990Y024071D01*
X021522Y024071D01*
X021522Y024070D02*
X020990Y024070D01*
X021522Y024288D02*
X021522Y024386D01*
X021522Y024288D02*
X020990Y024288D01*
X020990Y024386D01*
X021522Y024386D01*
X021522Y024385D02*
X020990Y024385D01*
X021522Y024603D02*
X021522Y024701D01*
X021522Y024603D02*
X020990Y024603D01*
X020990Y024701D01*
X021522Y024701D01*
X021522Y024700D02*
X020990Y024700D01*
X021719Y024898D02*
X021817Y024898D01*
X021719Y024898D02*
X021719Y025430D01*
X021817Y025430D01*
X021817Y024898D01*
X021817Y024995D02*
X021719Y024995D01*
X021719Y025092D02*
X021817Y025092D01*
X021817Y025189D02*
X021719Y025189D01*
X021719Y025286D02*
X021817Y025286D01*
X021817Y025383D02*
X021719Y025383D01*
X022034Y024898D02*
X022132Y024898D01*
X022034Y024898D02*
X022034Y025430D01*
X022132Y025430D01*
X022132Y024898D01*
X022132Y024995D02*
X022034Y024995D01*
X022034Y025092D02*
X022132Y025092D01*
X022132Y025189D02*
X022034Y025189D01*
X022034Y025286D02*
X022132Y025286D01*
X022132Y025383D02*
X022034Y025383D01*
X022349Y024898D02*
X022447Y024898D01*
X022349Y024898D02*
X022349Y025430D01*
X022447Y025430D01*
X022447Y024898D01*
X022447Y024995D02*
X022349Y024995D01*
X022349Y025092D02*
X022447Y025092D01*
X022447Y025189D02*
X022349Y025189D01*
X022349Y025286D02*
X022447Y025286D01*
X022447Y025383D02*
X022349Y025383D01*
X022664Y024898D02*
X022762Y024898D01*
X022664Y024898D02*
X022664Y025430D01*
X022762Y025430D01*
X022762Y024898D01*
X022762Y024995D02*
X022664Y024995D01*
X022664Y025092D02*
X022762Y025092D01*
X022762Y025189D02*
X022664Y025189D01*
X022664Y025286D02*
X022762Y025286D01*
X022762Y025383D02*
X022664Y025383D01*
X022979Y024898D02*
X023077Y024898D01*
X022979Y024898D02*
X022979Y025430D01*
X023077Y025430D01*
X023077Y024898D01*
X023077Y024995D02*
X022979Y024995D01*
X022979Y025092D02*
X023077Y025092D01*
X023077Y025189D02*
X022979Y025189D01*
X022979Y025286D02*
X023077Y025286D01*
X023077Y025383D02*
X022979Y025383D01*
X023294Y024898D02*
X023392Y024898D01*
X023294Y024898D02*
X023294Y025430D01*
X023392Y025430D01*
X023392Y024898D01*
X023392Y024995D02*
X023294Y024995D01*
X023294Y025092D02*
X023392Y025092D01*
X023392Y025189D02*
X023294Y025189D01*
X023294Y025286D02*
X023392Y025286D01*
X023392Y025383D02*
X023294Y025383D01*
X023609Y024898D02*
X023707Y024898D01*
X023609Y024898D02*
X023609Y025430D01*
X023707Y025430D01*
X023707Y024898D01*
X023707Y024995D02*
X023609Y024995D01*
X023609Y025092D02*
X023707Y025092D01*
X023707Y025189D02*
X023609Y025189D01*
X023609Y025286D02*
X023707Y025286D01*
X023707Y025383D02*
X023609Y025383D01*
X023924Y024898D02*
X024022Y024898D01*
X023924Y024898D02*
X023924Y025430D01*
X024022Y025430D01*
X024022Y024898D01*
X024022Y024995D02*
X023924Y024995D01*
X023924Y025092D02*
X024022Y025092D01*
X024022Y025189D02*
X023924Y025189D01*
X023924Y025286D02*
X024022Y025286D01*
X024022Y025383D02*
X023924Y025383D01*
X024751Y024701D02*
X024751Y024603D01*
X024219Y024603D01*
X024219Y024701D01*
X024751Y024701D01*
X024751Y024700D02*
X024219Y024700D01*
X024751Y024386D02*
X024751Y024288D01*
X024219Y024288D01*
X024219Y024386D01*
X024751Y024386D01*
X024751Y024385D02*
X024219Y024385D01*
X024751Y024071D02*
X024751Y023973D01*
X024219Y023973D01*
X024219Y024071D01*
X024751Y024071D01*
X024751Y024070D02*
X024219Y024070D01*
X024751Y023756D02*
X024751Y023658D01*
X024219Y023658D01*
X024219Y023756D01*
X024751Y023756D01*
X024751Y023755D02*
X024219Y023755D01*
X024751Y023442D02*
X024751Y023344D01*
X024219Y023344D01*
X024219Y023442D01*
X024751Y023442D01*
X024751Y023441D02*
X024219Y023441D01*
X024751Y023127D02*
X024751Y023029D01*
X024219Y023029D01*
X024219Y023127D01*
X024751Y023127D01*
X024751Y023126D02*
X024219Y023126D01*
X024751Y022812D02*
X024751Y022714D01*
X024219Y022714D01*
X024219Y022812D01*
X024751Y022812D01*
X024751Y022811D02*
X024219Y022811D01*
X024751Y022497D02*
X024751Y022399D01*
X024219Y022399D01*
X024219Y022497D01*
X024751Y022497D01*
X024751Y022496D02*
X024219Y022496D01*
D11*
X007492Y010184D02*
X007492Y010124D01*
X007492Y010184D02*
X008044Y010184D01*
X008044Y010124D01*
X007492Y010124D01*
X007492Y010182D02*
X008044Y010182D01*
X007492Y010380D02*
X007492Y010440D01*
X008044Y010440D01*
X008044Y010380D01*
X007492Y010380D01*
X007492Y010438D02*
X008044Y010438D01*
X007492Y010636D02*
X007492Y010696D01*
X008044Y010696D01*
X008044Y010636D01*
X007492Y010636D01*
X007492Y010694D02*
X008044Y010694D01*
X007492Y010892D02*
X007492Y010952D01*
X008044Y010952D01*
X008044Y010892D01*
X007492Y010892D01*
X007492Y010950D02*
X008044Y010950D01*
X007492Y011148D02*
X007492Y011208D01*
X008044Y011208D01*
X008044Y011148D01*
X007492Y011148D01*
X007492Y011206D02*
X008044Y011206D01*
X007492Y011404D02*
X007492Y011464D01*
X008044Y011464D01*
X008044Y011404D01*
X007492Y011404D01*
X007492Y011462D02*
X008044Y011462D01*
X007492Y011660D02*
X007492Y011720D01*
X008044Y011720D01*
X008044Y011660D01*
X007492Y011660D01*
X007492Y011718D02*
X008044Y011718D01*
X007492Y011916D02*
X007492Y011976D01*
X008044Y011976D01*
X008044Y011916D01*
X007492Y011916D01*
X007492Y011974D02*
X008044Y011974D01*
X006947Y012624D02*
X006947Y012684D01*
X007499Y012684D01*
X007499Y012624D01*
X006947Y012624D01*
X006947Y012682D02*
X007499Y012682D01*
X006947Y012880D02*
X006947Y012940D01*
X007499Y012940D01*
X007499Y012880D01*
X006947Y012880D01*
X006947Y012938D02*
X007499Y012938D01*
X006947Y013136D02*
X006947Y013196D01*
X007499Y013196D01*
X007499Y013136D01*
X006947Y013136D01*
X006947Y013194D02*
X007499Y013194D01*
X006947Y013392D02*
X006947Y013452D01*
X007499Y013452D01*
X007499Y013392D01*
X006947Y013392D01*
X006947Y013450D02*
X007499Y013450D01*
X006947Y013648D02*
X006947Y013708D01*
X007499Y013708D01*
X007499Y013648D01*
X006947Y013648D01*
X006947Y013706D02*
X007499Y013706D01*
X006947Y013904D02*
X006947Y013964D01*
X007499Y013964D01*
X007499Y013904D01*
X006947Y013904D01*
X006947Y013962D02*
X007499Y013962D01*
X006947Y014160D02*
X006947Y014220D01*
X007499Y014220D01*
X007499Y014160D01*
X006947Y014160D01*
X006947Y014218D02*
X007499Y014218D01*
X006947Y014416D02*
X006947Y014476D01*
X007499Y014476D01*
X007499Y014416D01*
X006947Y014416D01*
X006947Y014474D02*
X007499Y014474D01*
X004742Y014416D02*
X004742Y014476D01*
X005294Y014476D01*
X005294Y014416D01*
X004742Y014416D01*
X004742Y014474D02*
X005294Y014474D01*
X004742Y014220D02*
X004742Y014160D01*
X004742Y014220D02*
X005294Y014220D01*
X005294Y014160D01*
X004742Y014160D01*
X004742Y014218D02*
X005294Y014218D01*
X004742Y013964D02*
X004742Y013904D01*
X004742Y013964D02*
X005294Y013964D01*
X005294Y013904D01*
X004742Y013904D01*
X004742Y013962D02*
X005294Y013962D01*
X004742Y013708D02*
X004742Y013648D01*
X004742Y013708D02*
X005294Y013708D01*
X005294Y013648D01*
X004742Y013648D01*
X004742Y013706D02*
X005294Y013706D01*
X004742Y013452D02*
X004742Y013392D01*
X004742Y013452D02*
X005294Y013452D01*
X005294Y013392D01*
X004742Y013392D01*
X004742Y013450D02*
X005294Y013450D01*
X004742Y013196D02*
X004742Y013136D01*
X004742Y013196D02*
X005294Y013196D01*
X005294Y013136D01*
X004742Y013136D01*
X004742Y013194D02*
X005294Y013194D01*
X004742Y012940D02*
X004742Y012880D01*
X004742Y012940D02*
X005294Y012940D01*
X005294Y012880D01*
X004742Y012880D01*
X004742Y012938D02*
X005294Y012938D01*
X004742Y012684D02*
X004742Y012624D01*
X004742Y012684D02*
X005294Y012684D01*
X005294Y012624D01*
X004742Y012624D01*
X004742Y012682D02*
X005294Y012682D01*
X009697Y011976D02*
X009697Y011916D01*
X009697Y011976D02*
X010249Y011976D01*
X010249Y011916D01*
X009697Y011916D01*
X009697Y011974D02*
X010249Y011974D01*
X009697Y011720D02*
X009697Y011660D01*
X009697Y011720D02*
X010249Y011720D01*
X010249Y011660D01*
X009697Y011660D01*
X009697Y011718D02*
X010249Y011718D01*
X009697Y011464D02*
X009697Y011404D01*
X009697Y011464D02*
X010249Y011464D01*
X010249Y011404D01*
X009697Y011404D01*
X009697Y011462D02*
X010249Y011462D01*
X009697Y011208D02*
X009697Y011148D01*
X009697Y011208D02*
X010249Y011208D01*
X010249Y011148D01*
X009697Y011148D01*
X009697Y011206D02*
X010249Y011206D01*
X009697Y010952D02*
X009697Y010892D01*
X009697Y010952D02*
X010249Y010952D01*
X010249Y010892D01*
X009697Y010892D01*
X009697Y010950D02*
X010249Y010950D01*
X009697Y010696D02*
X009697Y010636D01*
X009697Y010696D02*
X010249Y010696D01*
X010249Y010636D01*
X009697Y010636D01*
X009697Y010694D02*
X010249Y010694D01*
X009697Y010440D02*
X009697Y010380D01*
X009697Y010440D02*
X010249Y010440D01*
X010249Y010380D01*
X009697Y010380D01*
X009697Y010438D02*
X010249Y010438D01*
X009697Y010184D02*
X009697Y010124D01*
X009697Y010184D02*
X010249Y010184D01*
X010249Y010124D01*
X009697Y010124D01*
X009697Y010182D02*
X010249Y010182D01*
X012044Y012624D02*
X012044Y012684D01*
X012044Y012624D02*
X011492Y012624D01*
X011492Y012684D01*
X012044Y012684D01*
X012044Y012682D02*
X011492Y012682D01*
X012044Y012880D02*
X012044Y012940D01*
X012044Y012880D02*
X011492Y012880D01*
X011492Y012940D01*
X012044Y012940D01*
X012044Y012938D02*
X011492Y012938D01*
X012044Y013136D02*
X012044Y013196D01*
X012044Y013136D02*
X011492Y013136D01*
X011492Y013196D01*
X012044Y013196D01*
X012044Y013194D02*
X011492Y013194D01*
X012044Y013392D02*
X012044Y013452D01*
X012044Y013392D02*
X011492Y013392D01*
X011492Y013452D01*
X012044Y013452D01*
X012044Y013450D02*
X011492Y013450D01*
X012044Y013648D02*
X012044Y013708D01*
X012044Y013648D02*
X011492Y013648D01*
X011492Y013708D01*
X012044Y013708D01*
X012044Y013706D02*
X011492Y013706D01*
X012044Y013904D02*
X012044Y013964D01*
X012044Y013904D02*
X011492Y013904D01*
X011492Y013964D01*
X012044Y013964D01*
X012044Y013962D02*
X011492Y013962D01*
X012044Y014160D02*
X012044Y014220D01*
X012044Y014160D02*
X011492Y014160D01*
X011492Y014220D01*
X012044Y014220D01*
X012044Y014218D02*
X011492Y014218D01*
X012044Y014416D02*
X012044Y014476D01*
X012044Y014416D02*
X011492Y014416D01*
X011492Y014476D01*
X012044Y014476D01*
X012044Y014474D02*
X011492Y014474D01*
X014249Y014476D02*
X014249Y014416D01*
X013697Y014416D01*
X013697Y014476D01*
X014249Y014476D01*
X014249Y014474D02*
X013697Y014474D01*
X014249Y014220D02*
X014249Y014160D01*
X013697Y014160D01*
X013697Y014220D01*
X014249Y014220D01*
X014249Y014218D02*
X013697Y014218D01*
X014249Y013964D02*
X014249Y013904D01*
X013697Y013904D01*
X013697Y013964D01*
X014249Y013964D01*
X014249Y013962D02*
X013697Y013962D01*
X014249Y013708D02*
X014249Y013648D01*
X013697Y013648D01*
X013697Y013708D01*
X014249Y013708D01*
X014249Y013706D02*
X013697Y013706D01*
X014249Y013452D02*
X014249Y013392D01*
X013697Y013392D01*
X013697Y013452D01*
X014249Y013452D01*
X014249Y013450D02*
X013697Y013450D01*
X014249Y013196D02*
X014249Y013136D01*
X013697Y013136D01*
X013697Y013196D01*
X014249Y013196D01*
X014249Y013194D02*
X013697Y013194D01*
X014249Y012940D02*
X014249Y012880D01*
X013697Y012880D01*
X013697Y012940D01*
X014249Y012940D01*
X014249Y012938D02*
X013697Y012938D01*
X014249Y012684D02*
X014249Y012624D01*
X013697Y012624D01*
X013697Y012684D01*
X014249Y012684D01*
X014249Y012682D02*
X013697Y012682D01*
X015992Y009476D02*
X015992Y009416D01*
X015992Y009476D02*
X016544Y009476D01*
X016544Y009416D01*
X015992Y009416D01*
X015992Y009474D02*
X016544Y009474D01*
X015992Y009220D02*
X015992Y009160D01*
X015992Y009220D02*
X016544Y009220D01*
X016544Y009160D01*
X015992Y009160D01*
X015992Y009218D02*
X016544Y009218D01*
X015992Y008964D02*
X015992Y008904D01*
X015992Y008964D02*
X016544Y008964D01*
X016544Y008904D01*
X015992Y008904D01*
X015992Y008962D02*
X016544Y008962D01*
X015992Y008708D02*
X015992Y008648D01*
X015992Y008708D02*
X016544Y008708D01*
X016544Y008648D01*
X015992Y008648D01*
X015992Y008706D02*
X016544Y008706D01*
X015992Y008452D02*
X015992Y008392D01*
X015992Y008452D02*
X016544Y008452D01*
X016544Y008392D01*
X015992Y008392D01*
X015992Y008450D02*
X016544Y008450D01*
X015992Y008196D02*
X015992Y008136D01*
X015992Y008196D02*
X016544Y008196D01*
X016544Y008136D01*
X015992Y008136D01*
X015992Y008194D02*
X016544Y008194D01*
X015992Y007940D02*
X015992Y007880D01*
X015992Y007940D02*
X016544Y007940D01*
X016544Y007880D01*
X015992Y007880D01*
X015992Y007938D02*
X016544Y007938D01*
X015992Y007684D02*
X015992Y007624D01*
X015992Y007684D02*
X016544Y007684D01*
X016544Y007624D01*
X015992Y007624D01*
X015992Y007682D02*
X016544Y007682D01*
X018197Y007684D02*
X018197Y007624D01*
X018197Y007684D02*
X018749Y007684D01*
X018749Y007624D01*
X018197Y007624D01*
X018197Y007682D02*
X018749Y007682D01*
X018197Y007880D02*
X018197Y007940D01*
X018749Y007940D01*
X018749Y007880D01*
X018197Y007880D01*
X018197Y007938D02*
X018749Y007938D01*
X018197Y008136D02*
X018197Y008196D01*
X018749Y008196D01*
X018749Y008136D01*
X018197Y008136D01*
X018197Y008194D02*
X018749Y008194D01*
X018197Y008392D02*
X018197Y008452D01*
X018749Y008452D01*
X018749Y008392D01*
X018197Y008392D01*
X018197Y008450D02*
X018749Y008450D01*
X018197Y008648D02*
X018197Y008708D01*
X018749Y008708D01*
X018749Y008648D01*
X018197Y008648D01*
X018197Y008706D02*
X018749Y008706D01*
X018197Y008904D02*
X018197Y008964D01*
X018749Y008964D01*
X018749Y008904D01*
X018197Y008904D01*
X018197Y008962D02*
X018749Y008962D01*
X018197Y009160D02*
X018197Y009220D01*
X018749Y009220D01*
X018749Y009160D01*
X018197Y009160D01*
X018197Y009218D02*
X018749Y009218D01*
X018197Y009416D02*
X018197Y009476D01*
X018749Y009476D01*
X018749Y009416D01*
X018197Y009416D01*
X018197Y009474D02*
X018749Y009474D01*
X024492Y010624D02*
X024492Y010684D01*
X025044Y010684D01*
X025044Y010624D01*
X024492Y010624D01*
X024492Y010682D02*
X025044Y010682D01*
X024492Y010880D02*
X024492Y010940D01*
X025044Y010940D01*
X025044Y010880D01*
X024492Y010880D01*
X024492Y010938D02*
X025044Y010938D01*
X024492Y011136D02*
X024492Y011196D01*
X025044Y011196D01*
X025044Y011136D01*
X024492Y011136D01*
X024492Y011194D02*
X025044Y011194D01*
X024492Y011392D02*
X024492Y011452D01*
X025044Y011452D01*
X025044Y011392D01*
X024492Y011392D01*
X024492Y011450D02*
X025044Y011450D01*
X024492Y011648D02*
X024492Y011708D01*
X025044Y011708D01*
X025044Y011648D01*
X024492Y011648D01*
X024492Y011706D02*
X025044Y011706D01*
X024492Y011904D02*
X024492Y011964D01*
X025044Y011964D01*
X025044Y011904D01*
X024492Y011904D01*
X024492Y011962D02*
X025044Y011962D01*
X024492Y012160D02*
X024492Y012220D01*
X025044Y012220D01*
X025044Y012160D01*
X024492Y012160D01*
X024492Y012218D02*
X025044Y012218D01*
X024492Y012416D02*
X024492Y012476D01*
X025044Y012476D01*
X025044Y012416D01*
X024492Y012416D01*
X024492Y012474D02*
X025044Y012474D01*
X024492Y013624D02*
X024492Y013684D01*
X025044Y013684D01*
X025044Y013624D01*
X024492Y013624D01*
X024492Y013682D02*
X025044Y013682D01*
X024492Y013880D02*
X024492Y013940D01*
X025044Y013940D01*
X025044Y013880D01*
X024492Y013880D01*
X024492Y013938D02*
X025044Y013938D01*
X024492Y014136D02*
X024492Y014196D01*
X025044Y014196D01*
X025044Y014136D01*
X024492Y014136D01*
X024492Y014194D02*
X025044Y014194D01*
X024492Y014392D02*
X024492Y014452D01*
X025044Y014452D01*
X025044Y014392D01*
X024492Y014392D01*
X024492Y014450D02*
X025044Y014450D01*
X024492Y014648D02*
X024492Y014708D01*
X025044Y014708D01*
X025044Y014648D01*
X024492Y014648D01*
X024492Y014706D02*
X025044Y014706D01*
X024492Y014904D02*
X024492Y014964D01*
X025044Y014964D01*
X025044Y014904D01*
X024492Y014904D01*
X024492Y014962D02*
X025044Y014962D01*
X024492Y015160D02*
X024492Y015220D01*
X025044Y015220D01*
X025044Y015160D01*
X024492Y015160D01*
X024492Y015218D02*
X025044Y015218D01*
X024492Y015416D02*
X024492Y015476D01*
X025044Y015476D01*
X025044Y015416D01*
X024492Y015416D01*
X024492Y015474D02*
X025044Y015474D01*
X026697Y015476D02*
X026697Y015416D01*
X026697Y015476D02*
X027249Y015476D01*
X027249Y015416D01*
X026697Y015416D01*
X026697Y015474D02*
X027249Y015474D01*
X026697Y015220D02*
X026697Y015160D01*
X026697Y015220D02*
X027249Y015220D01*
X027249Y015160D01*
X026697Y015160D01*
X026697Y015218D02*
X027249Y015218D01*
X026697Y014964D02*
X026697Y014904D01*
X026697Y014964D02*
X027249Y014964D01*
X027249Y014904D01*
X026697Y014904D01*
X026697Y014962D02*
X027249Y014962D01*
X026697Y014708D02*
X026697Y014648D01*
X026697Y014708D02*
X027249Y014708D01*
X027249Y014648D01*
X026697Y014648D01*
X026697Y014706D02*
X027249Y014706D01*
X026697Y014452D02*
X026697Y014392D01*
X026697Y014452D02*
X027249Y014452D01*
X027249Y014392D01*
X026697Y014392D01*
X026697Y014450D02*
X027249Y014450D01*
X026697Y014196D02*
X026697Y014136D01*
X026697Y014196D02*
X027249Y014196D01*
X027249Y014136D01*
X026697Y014136D01*
X026697Y014194D02*
X027249Y014194D01*
X026697Y013940D02*
X026697Y013880D01*
X026697Y013940D02*
X027249Y013940D01*
X027249Y013880D01*
X026697Y013880D01*
X026697Y013938D02*
X027249Y013938D01*
X026697Y013684D02*
X026697Y013624D01*
X026697Y013684D02*
X027249Y013684D01*
X027249Y013624D01*
X026697Y013624D01*
X026697Y013682D02*
X027249Y013682D01*
X026697Y012476D02*
X026697Y012416D01*
X026697Y012476D02*
X027249Y012476D01*
X027249Y012416D01*
X026697Y012416D01*
X026697Y012474D02*
X027249Y012474D01*
X026697Y012220D02*
X026697Y012160D01*
X026697Y012220D02*
X027249Y012220D01*
X027249Y012160D01*
X026697Y012160D01*
X026697Y012218D02*
X027249Y012218D01*
X026697Y011964D02*
X026697Y011904D01*
X026697Y011964D02*
X027249Y011964D01*
X027249Y011904D01*
X026697Y011904D01*
X026697Y011962D02*
X027249Y011962D01*
X026697Y011708D02*
X026697Y011648D01*
X026697Y011708D02*
X027249Y011708D01*
X027249Y011648D01*
X026697Y011648D01*
X026697Y011706D02*
X027249Y011706D01*
X026697Y011452D02*
X026697Y011392D01*
X026697Y011452D02*
X027249Y011452D01*
X027249Y011392D01*
X026697Y011392D01*
X026697Y011450D02*
X027249Y011450D01*
X026697Y011196D02*
X026697Y011136D01*
X026697Y011196D02*
X027249Y011196D01*
X027249Y011136D01*
X026697Y011136D01*
X026697Y011194D02*
X027249Y011194D01*
X026697Y010940D02*
X026697Y010880D01*
X026697Y010940D02*
X027249Y010940D01*
X027249Y010880D01*
X026697Y010880D01*
X026697Y010938D02*
X027249Y010938D01*
X026697Y010684D02*
X026697Y010624D01*
X026697Y010684D02*
X027249Y010684D01*
X027249Y010624D01*
X026697Y010624D01*
X026697Y010682D02*
X027249Y010682D01*
D12*
X018175Y022530D02*
X018067Y022530D01*
X018175Y022530D02*
X018175Y021870D01*
X018067Y021870D01*
X018067Y022530D01*
X018067Y021977D02*
X018175Y021977D01*
X018175Y022084D02*
X018067Y022084D01*
X018067Y022191D02*
X018175Y022191D01*
X018175Y022298D02*
X018067Y022298D01*
X018067Y022405D02*
X018175Y022405D01*
X018175Y022512D02*
X018067Y022512D01*
X017675Y022530D02*
X017567Y022530D01*
X017675Y022530D02*
X017675Y021870D01*
X017567Y021870D01*
X017567Y022530D01*
X017567Y021977D02*
X017675Y021977D01*
X017675Y022084D02*
X017567Y022084D01*
X017567Y022191D02*
X017675Y022191D01*
X017675Y022298D02*
X017567Y022298D01*
X017567Y022405D02*
X017675Y022405D01*
X017675Y022512D02*
X017567Y022512D01*
X017175Y022530D02*
X017067Y022530D01*
X017175Y022530D02*
X017175Y021870D01*
X017067Y021870D01*
X017067Y022530D01*
X017067Y021977D02*
X017175Y021977D01*
X017175Y022084D02*
X017067Y022084D01*
X017067Y022191D02*
X017175Y022191D01*
X017175Y022298D02*
X017067Y022298D01*
X017067Y022405D02*
X017175Y022405D01*
X017175Y022512D02*
X017067Y022512D01*
X016675Y022530D02*
X016567Y022530D01*
X016675Y022530D02*
X016675Y021870D01*
X016567Y021870D01*
X016567Y022530D01*
X016567Y021977D02*
X016675Y021977D01*
X016675Y022084D02*
X016567Y022084D01*
X016567Y022191D02*
X016675Y022191D01*
X016675Y022298D02*
X016567Y022298D01*
X016567Y022405D02*
X016675Y022405D01*
X016675Y022512D02*
X016567Y022512D01*
X016175Y022530D02*
X016067Y022530D01*
X016175Y022530D02*
X016175Y021870D01*
X016067Y021870D01*
X016067Y022530D01*
X016067Y021977D02*
X016175Y021977D01*
X016175Y022084D02*
X016067Y022084D01*
X016067Y022191D02*
X016175Y022191D01*
X016175Y022298D02*
X016067Y022298D01*
X016067Y022405D02*
X016175Y022405D01*
X016175Y022512D02*
X016067Y022512D01*
X015675Y022530D02*
X015567Y022530D01*
X015675Y022530D02*
X015675Y021870D01*
X015567Y021870D01*
X015567Y022530D01*
X015567Y021977D02*
X015675Y021977D01*
X015675Y022084D02*
X015567Y022084D01*
X015567Y022191D02*
X015675Y022191D01*
X015675Y022298D02*
X015567Y022298D01*
X015567Y022405D02*
X015675Y022405D01*
X015675Y022512D02*
X015567Y022512D01*
X015175Y022530D02*
X015067Y022530D01*
X015175Y022530D02*
X015175Y021870D01*
X015067Y021870D01*
X015067Y022530D01*
X015067Y021977D02*
X015175Y021977D01*
X015175Y022084D02*
X015067Y022084D01*
X015067Y022191D02*
X015175Y022191D01*
X015175Y022298D02*
X015067Y022298D01*
X015067Y022405D02*
X015175Y022405D01*
X015175Y022512D02*
X015067Y022512D01*
X014675Y022530D02*
X014567Y022530D01*
X014675Y022530D02*
X014675Y021870D01*
X014567Y021870D01*
X014567Y022530D01*
X014567Y021977D02*
X014675Y021977D01*
X014675Y022084D02*
X014567Y022084D01*
X014567Y022191D02*
X014675Y022191D01*
X014675Y022298D02*
X014567Y022298D01*
X014567Y022405D02*
X014675Y022405D01*
X014675Y022512D02*
X014567Y022512D01*
X014175Y022530D02*
X014067Y022530D01*
X014175Y022530D02*
X014175Y021870D01*
X014067Y021870D01*
X014067Y022530D01*
X014067Y021977D02*
X014175Y021977D01*
X014175Y022084D02*
X014067Y022084D01*
X014067Y022191D02*
X014175Y022191D01*
X014175Y022298D02*
X014067Y022298D01*
X014067Y022405D02*
X014175Y022405D01*
X014175Y022512D02*
X014067Y022512D01*
X013675Y022530D02*
X013567Y022530D01*
X013675Y022530D02*
X013675Y021870D01*
X013567Y021870D01*
X013567Y022530D01*
X013567Y021977D02*
X013675Y021977D01*
X013675Y022084D02*
X013567Y022084D01*
X013567Y022191D02*
X013675Y022191D01*
X013675Y022298D02*
X013567Y022298D01*
X013567Y022405D02*
X013675Y022405D01*
X013675Y022512D02*
X013567Y022512D01*
X013175Y022530D02*
X013067Y022530D01*
X013175Y022530D02*
X013175Y021870D01*
X013067Y021870D01*
X013067Y022530D01*
X013067Y021977D02*
X013175Y021977D01*
X013175Y022084D02*
X013067Y022084D01*
X013067Y022191D02*
X013175Y022191D01*
X013175Y022298D02*
X013067Y022298D01*
X013067Y022405D02*
X013175Y022405D01*
X013175Y022512D02*
X013067Y022512D01*
X012675Y022530D02*
X012567Y022530D01*
X012675Y022530D02*
X012675Y021870D01*
X012567Y021870D01*
X012567Y022530D01*
X012567Y021977D02*
X012675Y021977D01*
X012675Y022084D02*
X012567Y022084D01*
X012567Y022191D02*
X012675Y022191D01*
X012675Y022298D02*
X012567Y022298D01*
X012567Y022405D02*
X012675Y022405D01*
X012675Y022512D02*
X012567Y022512D01*
X012567Y026230D02*
X012675Y026230D01*
X012675Y025570D01*
X012567Y025570D01*
X012567Y026230D01*
X012567Y025677D02*
X012675Y025677D01*
X012675Y025784D02*
X012567Y025784D01*
X012567Y025891D02*
X012675Y025891D01*
X012675Y025998D02*
X012567Y025998D01*
X012567Y026105D02*
X012675Y026105D01*
X012675Y026212D02*
X012567Y026212D01*
X013067Y026230D02*
X013175Y026230D01*
X013175Y025570D01*
X013067Y025570D01*
X013067Y026230D01*
X013067Y025677D02*
X013175Y025677D01*
X013175Y025784D02*
X013067Y025784D01*
X013067Y025891D02*
X013175Y025891D01*
X013175Y025998D02*
X013067Y025998D01*
X013067Y026105D02*
X013175Y026105D01*
X013175Y026212D02*
X013067Y026212D01*
X013567Y026230D02*
X013675Y026230D01*
X013675Y025570D01*
X013567Y025570D01*
X013567Y026230D01*
X013567Y025677D02*
X013675Y025677D01*
X013675Y025784D02*
X013567Y025784D01*
X013567Y025891D02*
X013675Y025891D01*
X013675Y025998D02*
X013567Y025998D01*
X013567Y026105D02*
X013675Y026105D01*
X013675Y026212D02*
X013567Y026212D01*
X014067Y026230D02*
X014175Y026230D01*
X014175Y025570D01*
X014067Y025570D01*
X014067Y026230D01*
X014067Y025677D02*
X014175Y025677D01*
X014175Y025784D02*
X014067Y025784D01*
X014067Y025891D02*
X014175Y025891D01*
X014175Y025998D02*
X014067Y025998D01*
X014067Y026105D02*
X014175Y026105D01*
X014175Y026212D02*
X014067Y026212D01*
X014567Y026230D02*
X014675Y026230D01*
X014675Y025570D01*
X014567Y025570D01*
X014567Y026230D01*
X014567Y025677D02*
X014675Y025677D01*
X014675Y025784D02*
X014567Y025784D01*
X014567Y025891D02*
X014675Y025891D01*
X014675Y025998D02*
X014567Y025998D01*
X014567Y026105D02*
X014675Y026105D01*
X014675Y026212D02*
X014567Y026212D01*
X015067Y026230D02*
X015175Y026230D01*
X015175Y025570D01*
X015067Y025570D01*
X015067Y026230D01*
X015067Y025677D02*
X015175Y025677D01*
X015175Y025784D02*
X015067Y025784D01*
X015067Y025891D02*
X015175Y025891D01*
X015175Y025998D02*
X015067Y025998D01*
X015067Y026105D02*
X015175Y026105D01*
X015175Y026212D02*
X015067Y026212D01*
X015567Y026230D02*
X015675Y026230D01*
X015675Y025570D01*
X015567Y025570D01*
X015567Y026230D01*
X015567Y025677D02*
X015675Y025677D01*
X015675Y025784D02*
X015567Y025784D01*
X015567Y025891D02*
X015675Y025891D01*
X015675Y025998D02*
X015567Y025998D01*
X015567Y026105D02*
X015675Y026105D01*
X015675Y026212D02*
X015567Y026212D01*
X016067Y026230D02*
X016175Y026230D01*
X016175Y025570D01*
X016067Y025570D01*
X016067Y026230D01*
X016067Y025677D02*
X016175Y025677D01*
X016175Y025784D02*
X016067Y025784D01*
X016067Y025891D02*
X016175Y025891D01*
X016175Y025998D02*
X016067Y025998D01*
X016067Y026105D02*
X016175Y026105D01*
X016175Y026212D02*
X016067Y026212D01*
X016567Y026230D02*
X016675Y026230D01*
X016675Y025570D01*
X016567Y025570D01*
X016567Y026230D01*
X016567Y025677D02*
X016675Y025677D01*
X016675Y025784D02*
X016567Y025784D01*
X016567Y025891D02*
X016675Y025891D01*
X016675Y025998D02*
X016567Y025998D01*
X016567Y026105D02*
X016675Y026105D01*
X016675Y026212D02*
X016567Y026212D01*
X017067Y026230D02*
X017175Y026230D01*
X017175Y025570D01*
X017067Y025570D01*
X017067Y026230D01*
X017067Y025677D02*
X017175Y025677D01*
X017175Y025784D02*
X017067Y025784D01*
X017067Y025891D02*
X017175Y025891D01*
X017175Y025998D02*
X017067Y025998D01*
X017067Y026105D02*
X017175Y026105D01*
X017175Y026212D02*
X017067Y026212D01*
X017567Y026230D02*
X017675Y026230D01*
X017675Y025570D01*
X017567Y025570D01*
X017567Y026230D01*
X017567Y025677D02*
X017675Y025677D01*
X017675Y025784D02*
X017567Y025784D01*
X017567Y025891D02*
X017675Y025891D01*
X017675Y025998D02*
X017567Y025998D01*
X017567Y026105D02*
X017675Y026105D01*
X017675Y026212D02*
X017567Y026212D01*
X018067Y026230D02*
X018175Y026230D01*
X018175Y025570D01*
X018067Y025570D01*
X018067Y026230D01*
X018067Y025677D02*
X018175Y025677D01*
X018175Y025784D02*
X018067Y025784D01*
X018067Y025891D02*
X018175Y025891D01*
X018175Y025998D02*
X018067Y025998D01*
X018067Y026105D02*
X018175Y026105D01*
X018175Y026212D02*
X018067Y026212D01*
D13*
X019253Y025963D02*
X019253Y025727D01*
X019253Y025963D02*
X019489Y025963D01*
X019489Y025727D01*
X019253Y025727D01*
X019253Y025805D02*
X019489Y025805D01*
X019489Y025883D02*
X019253Y025883D01*
X019253Y025961D02*
X019489Y025961D01*
X020003Y025963D02*
X020003Y025727D01*
X020003Y025963D02*
X020239Y025963D01*
X020239Y025727D01*
X020003Y025727D01*
X020003Y025805D02*
X020239Y025805D01*
X020239Y025883D02*
X020003Y025883D01*
X020003Y025961D02*
X020239Y025961D01*
X020753Y025963D02*
X020753Y025727D01*
X020753Y025963D02*
X020989Y025963D01*
X020989Y025727D01*
X020753Y025727D01*
X020753Y025805D02*
X020989Y025805D01*
X020989Y025883D02*
X020753Y025883D01*
X020753Y025961D02*
X020989Y025961D01*
X020753Y025373D02*
X020753Y025137D01*
X020753Y025373D02*
X020989Y025373D01*
X020989Y025137D01*
X020753Y025137D01*
X020753Y025215D02*
X020989Y025215D01*
X020989Y025293D02*
X020753Y025293D01*
X020753Y025371D02*
X020989Y025371D01*
X020003Y025373D02*
X020003Y025137D01*
X020003Y025373D02*
X020239Y025373D01*
X020239Y025137D01*
X020003Y025137D01*
X020003Y025215D02*
X020239Y025215D01*
X020239Y025293D02*
X020003Y025293D01*
X020003Y025371D02*
X020239Y025371D01*
X019253Y025373D02*
X019253Y025137D01*
X019253Y025373D02*
X019489Y025373D01*
X019489Y025137D01*
X019253Y025137D01*
X019253Y025215D02*
X019489Y025215D01*
X019489Y025293D02*
X019253Y025293D01*
X019253Y025371D02*
X019489Y025371D01*
X010829Y017425D02*
X010663Y017259D01*
X010829Y017425D02*
X010995Y017259D01*
X010829Y017093D01*
X010663Y017259D01*
X010751Y017171D02*
X010907Y017171D01*
X010985Y017249D02*
X010673Y017249D01*
X010731Y017327D02*
X010927Y017327D01*
X010849Y017405D02*
X010809Y017405D01*
X010412Y017007D02*
X010246Y016841D01*
X010412Y017007D02*
X010578Y016841D01*
X010412Y016675D01*
X010246Y016841D01*
X010334Y016753D02*
X010490Y016753D01*
X010568Y016831D02*
X010256Y016831D01*
X010314Y016909D02*
X010510Y016909D01*
X010432Y016987D02*
X010392Y016987D01*
X009503Y017137D02*
X009503Y017373D01*
X009739Y017373D01*
X009739Y017137D01*
X009503Y017137D01*
X009503Y017215D02*
X009739Y017215D01*
X009739Y017293D02*
X009503Y017293D01*
X009503Y017371D02*
X009739Y017371D01*
X009503Y017727D02*
X009503Y017963D01*
X009739Y017963D01*
X009739Y017727D01*
X009503Y017727D01*
X009503Y017805D02*
X009739Y017805D01*
X009739Y017883D02*
X009503Y017883D01*
X009503Y017961D02*
X009739Y017961D01*
X008663Y016841D02*
X008829Y016675D01*
X008663Y016841D02*
X008829Y017007D01*
X008995Y016841D01*
X008829Y016675D01*
X008907Y016753D02*
X008751Y016753D01*
X008673Y016831D02*
X008985Y016831D01*
X008927Y016909D02*
X008731Y016909D01*
X008809Y016987D02*
X008849Y016987D01*
X008412Y017093D02*
X008246Y017259D01*
X008412Y017425D01*
X008578Y017259D01*
X008412Y017093D01*
X008490Y017171D02*
X008334Y017171D01*
X008256Y017249D02*
X008568Y017249D01*
X008510Y017327D02*
X008314Y017327D01*
X008392Y017405D02*
X008432Y017405D01*
X008534Y015932D02*
X008298Y015932D01*
X008298Y016168D01*
X008534Y016168D01*
X008534Y015932D01*
X008534Y016010D02*
X008298Y016010D01*
X008298Y016088D02*
X008534Y016088D01*
X008534Y016166D02*
X008298Y016166D01*
X007943Y015932D02*
X007707Y015932D01*
X007707Y016168D01*
X007943Y016168D01*
X007943Y015932D01*
X007943Y016010D02*
X007707Y016010D01*
X007707Y016088D02*
X007943Y016088D01*
X007943Y016166D02*
X007707Y016166D01*
X008829Y015093D02*
X008995Y015259D01*
X008829Y015093D02*
X008663Y015259D01*
X008829Y015425D01*
X008995Y015259D01*
X008907Y015171D02*
X008751Y015171D01*
X008673Y015249D02*
X008985Y015249D01*
X008927Y015327D02*
X008731Y015327D01*
X008809Y015405D02*
X008849Y015405D01*
X008578Y014841D02*
X008412Y014675D01*
X008246Y014841D01*
X008412Y015007D01*
X008578Y014841D01*
X008490Y014753D02*
X008334Y014753D01*
X008256Y014831D02*
X008568Y014831D01*
X008510Y014909D02*
X008314Y014909D01*
X008392Y014987D02*
X008432Y014987D01*
X009739Y014963D02*
X009739Y014727D01*
X009503Y014727D01*
X009503Y014963D01*
X009739Y014963D01*
X009739Y014805D02*
X009503Y014805D01*
X009503Y014883D02*
X009739Y014883D01*
X009739Y014961D02*
X009503Y014961D01*
X009739Y014373D02*
X009739Y014137D01*
X009503Y014137D01*
X009503Y014373D01*
X009739Y014373D01*
X009739Y014215D02*
X009503Y014215D01*
X009503Y014293D02*
X009739Y014293D01*
X009739Y014371D02*
X009503Y014371D01*
X010412Y015425D02*
X010578Y015259D01*
X010412Y015093D01*
X010246Y015259D01*
X010412Y015425D01*
X010490Y015171D02*
X010334Y015171D01*
X010256Y015249D02*
X010568Y015249D01*
X010510Y015327D02*
X010314Y015327D01*
X010392Y015405D02*
X010432Y015405D01*
X010829Y015007D02*
X010995Y014841D01*
X010829Y014675D01*
X010663Y014841D01*
X010829Y015007D01*
X010907Y014753D02*
X010751Y014753D01*
X010673Y014831D02*
X010985Y014831D01*
X010927Y014909D02*
X010731Y014909D01*
X010809Y014987D02*
X010849Y014987D01*
X010943Y016168D02*
X010707Y016168D01*
X010943Y016168D02*
X010943Y015932D01*
X010707Y015932D01*
X010707Y016168D01*
X010707Y016010D02*
X010943Y016010D01*
X010943Y016088D02*
X010707Y016088D01*
X010707Y016166D02*
X010943Y016166D01*
X011298Y016168D02*
X011534Y016168D01*
X011534Y015932D01*
X011298Y015932D01*
X011298Y016168D01*
X011298Y016010D02*
X011534Y016010D01*
X011534Y016088D02*
X011298Y016088D01*
X011298Y016166D02*
X011534Y016166D01*
D14*
X011634Y017876D02*
X012108Y017876D01*
X011634Y017876D02*
X011634Y019098D01*
X012108Y019098D01*
X012108Y017876D01*
X012108Y018032D02*
X011634Y018032D01*
X011634Y018188D02*
X012108Y018188D01*
X012108Y018344D02*
X011634Y018344D01*
X011634Y018500D02*
X012108Y018500D01*
X012108Y018656D02*
X011634Y018656D01*
X011634Y018812D02*
X012108Y018812D01*
X012108Y018968D02*
X011634Y018968D01*
X011634Y020002D02*
X012108Y020002D01*
X011634Y020002D02*
X011634Y021224D01*
X012108Y021224D01*
X012108Y020002D01*
X012108Y020158D02*
X011634Y020158D01*
X011634Y020314D02*
X012108Y020314D01*
X012108Y020470D02*
X011634Y020470D01*
X011634Y020626D02*
X012108Y020626D01*
X012108Y020782D02*
X011634Y020782D01*
X011634Y020938D02*
X012108Y020938D01*
X012108Y021094D02*
X011634Y021094D01*
X026056Y021695D02*
X026056Y021853D01*
X026056Y021695D02*
X025582Y021695D01*
X025582Y021853D01*
X026056Y021853D01*
X026056Y021851D02*
X025582Y021851D01*
X026056Y022247D02*
X026056Y022405D01*
X026056Y022247D02*
X025582Y022247D01*
X025582Y022405D01*
X026056Y022405D01*
X026056Y022403D02*
X025582Y022403D01*
X027159Y022405D02*
X027159Y022247D01*
X026685Y022247D01*
X026685Y022405D01*
X027159Y022405D01*
X027159Y022403D02*
X026685Y022403D01*
X027159Y021853D02*
X027159Y021695D01*
X026685Y021695D01*
X026685Y021853D01*
X027159Y021853D01*
X027159Y021851D02*
X026685Y021851D01*
D15*
X023674Y012436D02*
X023674Y012238D01*
X022650Y012238D01*
X022650Y012436D01*
X023674Y012436D01*
X023674Y012434D02*
X022650Y012434D01*
X023674Y010862D02*
X023674Y010664D01*
X022650Y010664D01*
X022650Y010862D01*
X023674Y010862D01*
X023674Y010860D02*
X022650Y010860D01*
X024174Y009436D02*
X024174Y009238D01*
X023150Y009238D01*
X023150Y009436D01*
X024174Y009436D01*
X024174Y009434D02*
X023150Y009434D01*
X024174Y007862D02*
X024174Y007664D01*
X023150Y007664D01*
X023150Y007862D01*
X024174Y007862D01*
X024174Y007860D02*
X023150Y007860D01*
X020591Y007862D02*
X020591Y007664D01*
X019567Y007664D01*
X019567Y007862D01*
X020591Y007862D01*
X020591Y007860D02*
X019567Y007860D01*
X020591Y009238D02*
X020591Y009436D01*
X020591Y009238D02*
X019567Y009238D01*
X019567Y009436D01*
X020591Y009436D01*
X020591Y009434D02*
X019567Y009434D01*
X020091Y010664D02*
X020091Y010862D01*
X020091Y010664D02*
X019067Y010664D01*
X019067Y010862D01*
X020091Y010862D01*
X020091Y010860D02*
X019067Y010860D01*
X020091Y012238D02*
X020091Y012436D01*
X020091Y012238D02*
X019067Y012238D01*
X019067Y012436D01*
X020091Y012436D01*
X020091Y012434D02*
X019067Y012434D01*
D16*
X014249Y019457D02*
X014093Y019457D01*
X014093Y019643D01*
X014249Y019643D01*
X014249Y019457D01*
X014249Y019611D02*
X014093Y019611D01*
X013649Y019457D02*
X013493Y019457D01*
X013493Y019643D01*
X013649Y019643D01*
X013649Y019457D01*
X013649Y019611D02*
X013493Y019611D01*
X013493Y020457D02*
X013649Y020457D01*
X013493Y020457D02*
X013493Y020643D01*
X013649Y020643D01*
X013649Y020457D01*
X013649Y020611D02*
X013493Y020611D01*
X014093Y020457D02*
X014249Y020457D01*
X014093Y020457D02*
X014093Y020643D01*
X014249Y020643D01*
X014249Y020457D01*
X014249Y020611D02*
X014093Y020611D01*
X009999Y016143D02*
X009843Y016143D01*
X009999Y016143D02*
X009999Y015957D01*
X009843Y015957D01*
X009843Y016143D01*
X009843Y016111D02*
X009999Y016111D01*
X009399Y016143D02*
X009243Y016143D01*
X009399Y016143D02*
X009399Y015957D01*
X009243Y015957D01*
X009243Y016143D01*
X009243Y016111D02*
X009399Y016111D01*
X008964Y020172D02*
X008964Y020328D01*
X008964Y020172D02*
X008778Y020172D01*
X008778Y020328D01*
X008964Y020328D01*
X008964Y020326D02*
X008778Y020326D01*
X008964Y020772D02*
X008964Y020928D01*
X008964Y020772D02*
X008778Y020772D01*
X008778Y020928D01*
X008964Y020928D01*
X008964Y020926D02*
X008778Y020926D01*
X008214Y020928D02*
X008214Y020772D01*
X008028Y020772D01*
X008028Y020928D01*
X008214Y020928D01*
X008214Y020926D02*
X008028Y020926D01*
X008214Y020328D02*
X008214Y020172D01*
X008028Y020172D01*
X008028Y020328D01*
X008214Y020328D01*
X008214Y020326D02*
X008028Y020326D01*
X019243Y024143D02*
X019399Y024143D01*
X019399Y023957D01*
X019243Y023957D01*
X019243Y024143D01*
X019243Y024111D02*
X019399Y024111D01*
X019843Y024143D02*
X019999Y024143D01*
X019999Y023957D01*
X019843Y023957D01*
X019843Y024143D01*
X019843Y024111D02*
X019999Y024111D01*
X027993Y022143D02*
X028149Y022143D01*
X028149Y021957D01*
X027993Y021957D01*
X027993Y022143D01*
X027993Y022111D02*
X028149Y022111D01*
X028593Y022143D02*
X028749Y022143D01*
X028749Y021957D01*
X028593Y021957D01*
X028593Y022143D01*
X028593Y022111D02*
X028749Y022111D01*
D17*
X022481Y018620D02*
X022481Y017880D01*
X022261Y017880D01*
X022261Y018620D01*
X022481Y018620D01*
X022481Y018099D02*
X022261Y018099D01*
X022261Y018318D02*
X022481Y018318D01*
X022481Y018537D02*
X022261Y018537D01*
X021481Y018620D02*
X021481Y017880D01*
X021261Y017880D01*
X021261Y018620D01*
X021481Y018620D01*
X021481Y018099D02*
X021261Y018099D01*
X021261Y018318D02*
X021481Y018318D01*
X021481Y018537D02*
X021261Y018537D01*
X020481Y018620D02*
X020481Y017880D01*
X020261Y017880D01*
X020261Y018620D01*
X020481Y018620D01*
X020481Y018099D02*
X020261Y018099D01*
X020261Y018318D02*
X020481Y018318D01*
X020481Y018537D02*
X020261Y018537D01*
X020481Y015220D02*
X020481Y014480D01*
X020261Y014480D01*
X020261Y015220D01*
X020481Y015220D01*
X020481Y014699D02*
X020261Y014699D01*
X020261Y014918D02*
X020481Y014918D01*
X020481Y015137D02*
X020261Y015137D01*
X021481Y015220D02*
X021481Y014480D01*
X021261Y014480D01*
X021261Y015220D01*
X021481Y015220D01*
X021481Y014699D02*
X021261Y014699D01*
X021261Y014918D02*
X021481Y014918D01*
X021481Y015137D02*
X021261Y015137D01*
X022481Y015220D02*
X022481Y014480D01*
X022261Y014480D01*
X022261Y015220D01*
X022481Y015220D01*
X022481Y014699D02*
X022261Y014699D01*
X022261Y014918D02*
X022481Y014918D01*
X022481Y015137D02*
X022261Y015137D01*
M02*
