G75*
%MOIN*%
%OFA0B0*%
%FSLAX24Y24*%
%IPPOS*%
%LPD*%
%AMOC8*
5,1,8,0,0,1.08239X$1,22.5*
%
%ADD10C,0.0080*%
%ADD11C,0.0060*%
%ADD12C,0.0100*%
%ADD13R,0.0008X0.0008*%
%ADD14R,0.0472X0.0008*%
%ADD15R,0.0394X0.0008*%
%ADD16R,0.0433X0.0008*%
%ADD17R,0.0480X0.0008*%
%ADD18R,0.0402X0.0008*%
%ADD19R,0.0449X0.0008*%
%ADD20R,0.0488X0.0008*%
%ADD21R,0.0457X0.0008*%
%ADD22R,0.0465X0.0008*%
%ADD23R,0.0496X0.0008*%
%ADD24R,0.0409X0.0008*%
%ADD25R,0.0417X0.0008*%
%ADD26R,0.0425X0.0008*%
%ADD27R,0.0441X0.0008*%
%ADD28R,0.0504X0.0008*%
%ADD29R,0.0512X0.0008*%
%ADD30R,0.0386X0.0008*%
%ADD31R,0.0520X0.0008*%
%ADD32R,0.0378X0.0008*%
%ADD33R,0.0528X0.0008*%
%ADD34R,0.0535X0.0008*%
%ADD35R,0.0551X0.0008*%
%ADD36R,0.0370X0.0008*%
%ADD37R,0.0559X0.0008*%
%ADD38R,0.0567X0.0008*%
%ADD39R,0.0575X0.0008*%
%ADD40R,0.0583X0.0008*%
%ADD41R,0.0591X0.0008*%
%ADD42R,0.0598X0.0008*%
%ADD43R,0.0606X0.0008*%
%ADD44R,0.0614X0.0008*%
%ADD45R,0.0622X0.0008*%
%ADD46R,0.0630X0.0008*%
%ADD47R,0.0543X0.0008*%
%ADD48R,0.0638X0.0008*%
%ADD49R,0.0646X0.0008*%
%ADD50R,0.0654X0.0008*%
%ADD51R,0.0661X0.0008*%
%ADD52R,0.0669X0.0008*%
%ADD53R,0.0677X0.0008*%
%ADD54R,0.0685X0.0008*%
%ADD55R,0.0079X0.0008*%
%ADD56R,0.0811X0.0008*%
%ADD57R,0.0819X0.0008*%
%ADD58R,0.0835X0.0008*%
%ADD59R,0.1417X0.0008*%
%ADD60R,0.1441X0.0008*%
%ADD61R,0.1472X0.0008*%
%ADD62R,0.1496X0.0008*%
%ADD63R,0.1512X0.0008*%
%ADD64R,0.1520X0.0008*%
%ADD65R,0.1528X0.0008*%
%ADD66R,0.1543X0.0008*%
%ADD67R,0.1551X0.0008*%
%ADD68R,0.1559X0.0008*%
%ADD69R,0.1575X0.0008*%
%ADD70R,0.1583X0.0008*%
%ADD71R,0.1591X0.0008*%
%ADD72R,0.1606X0.0008*%
%ADD73R,0.1614X0.0008*%
%ADD74R,0.1622X0.0008*%
%ADD75R,0.1630X0.0008*%
%ADD76R,0.1638X0.0008*%
%ADD77R,0.1646X0.0008*%
%ADD78R,0.1654X0.0008*%
%ADD79R,0.1661X0.0008*%
%ADD80R,0.1669X0.0008*%
%ADD81R,0.1677X0.0008*%
%ADD82R,0.1685X0.0008*%
%ADD83R,0.1693X0.0008*%
%ADD84R,0.0039X0.0008*%
%ADD85R,0.1701X0.0008*%
%ADD86R,0.0063X0.0008*%
%ADD87R,0.1709X0.0008*%
%ADD88R,0.0102X0.0008*%
%ADD89R,0.1882X0.0008*%
%ADD90R,0.1890X0.0008*%
%ADD91R,0.1906X0.0008*%
%ADD92R,0.1913X0.0008*%
%ADD93R,0.1921X0.0008*%
%ADD94R,0.1929X0.0008*%
%ADD95R,0.1945X0.0008*%
%ADD96R,0.1953X0.0008*%
%ADD97R,0.1961X0.0008*%
%ADD98R,0.1969X0.0008*%
%ADD99R,0.1976X0.0008*%
%ADD100R,0.1984X0.0008*%
%ADD101R,0.2520X0.0008*%
%ADD102R,0.2512X0.0008*%
%ADD103R,0.2504X0.0008*%
%ADD104R,0.2496X0.0008*%
%ADD105R,0.2488X0.0008*%
%ADD106R,0.2480X0.0008*%
%ADD107R,0.2472X0.0008*%
%ADD108R,0.2465X0.0008*%
%ADD109R,0.2457X0.0008*%
%ADD110R,0.2449X0.0008*%
%ADD111R,0.2441X0.0008*%
%ADD112R,0.2433X0.0008*%
%ADD113R,0.2425X0.0008*%
%ADD114R,0.2409X0.0008*%
%ADD115R,0.2402X0.0008*%
%ADD116R,0.2394X0.0008*%
%ADD117R,0.2378X0.0008*%
%ADD118R,0.2370X0.0008*%
%ADD119R,0.2362X0.0008*%
%ADD120R,0.0331X0.0008*%
%ADD121R,0.0260X0.0008*%
%ADD122R,0.0189X0.0008*%
%ADD123R,0.0031X0.0008*%
%ADD124R,0.1717X0.0008*%
%ADD125R,0.1732X0.0008*%
%ADD126R,0.1748X0.0008*%
%ADD127R,0.1756X0.0008*%
%ADD128R,0.1772X0.0008*%
%ADD129R,0.1780X0.0008*%
%ADD130R,0.1795X0.0008*%
%ADD131R,0.1811X0.0008*%
%ADD132R,0.1819X0.0008*%
%ADD133R,0.1827X0.0008*%
%ADD134R,0.1843X0.0008*%
%ADD135R,0.1850X0.0008*%
%ADD136R,0.1858X0.0008*%
%ADD137R,0.1866X0.0008*%
%ADD138R,0.1874X0.0008*%
%ADD139R,0.1898X0.0008*%
%ADD140R,0.1937X0.0008*%
%ADD141R,0.1992X0.0008*%
%ADD142R,0.2000X0.0008*%
%ADD143R,0.2008X0.0008*%
%ADD144R,0.2016X0.0008*%
%ADD145R,0.0157X0.0008*%
%ADD146R,0.0291X0.0008*%
%ADD147R,0.2024X0.0008*%
%ADD148R,0.2031X0.0008*%
%ADD149R,0.2039X0.0008*%
%ADD150R,0.2047X0.0008*%
%ADD151R,0.2055X0.0008*%
%ADD152R,0.0724X0.0008*%
%ADD153R,0.2063X0.0008*%
%ADD154R,0.0772X0.0008*%
%ADD155R,0.0803X0.0008*%
%ADD156R,0.0850X0.0008*%
%ADD157R,0.2071X0.0008*%
%ADD158R,0.0882X0.0008*%
%ADD159R,0.2079X0.0008*%
%ADD160R,0.0921X0.0008*%
%ADD161R,0.0953X0.0008*%
%ADD162R,0.0984X0.0008*%
%ADD163R,0.2087X0.0008*%
%ADD164R,0.1016X0.0008*%
%ADD165R,0.1047X0.0008*%
%ADD166R,0.1079X0.0008*%
%ADD167R,0.2094X0.0008*%
%ADD168R,0.1110X0.0008*%
%ADD169R,0.1134X0.0008*%
%ADD170R,0.1165X0.0008*%
%ADD171R,0.2102X0.0008*%
%ADD172R,0.1189X0.0008*%
%ADD173R,0.1213X0.0008*%
%ADD174R,0.1244X0.0008*%
%ADD175R,0.1268X0.0008*%
%ADD176R,0.1291X0.0008*%
%ADD177R,0.1315X0.0008*%
%ADD178R,0.2110X0.0008*%
%ADD179R,0.1331X0.0008*%
%ADD180R,0.1362X0.0008*%
%ADD181R,0.1386X0.0008*%
%ADD182R,0.1402X0.0008*%
%ADD183R,0.1433X0.0008*%
%ADD184R,0.1457X0.0008*%
%ADD185R,0.1465X0.0008*%
%ADD186R,0.1480X0.0008*%
%ADD187R,0.1488X0.0008*%
%ADD188R,0.1504X0.0008*%
%ADD189R,0.1535X0.0008*%
%ADD190R,0.1567X0.0008*%
%ADD191R,0.1740X0.0008*%
%ADD192R,0.1764X0.0008*%
%ADD193R,0.1787X0.0008*%
%ADD194R,0.1835X0.0008*%
%ADD195R,0.1803X0.0008*%
%ADD196R,0.2118X0.0008*%
%ADD197R,0.2126X0.0008*%
%ADD198R,0.1724X0.0008*%
%ADD199R,0.1598X0.0008*%
%ADD200R,0.1449X0.0008*%
%ADD201R,0.1425X0.0008*%
%ADD202R,0.1409X0.0008*%
%ADD203R,0.1394X0.0008*%
%ADD204R,0.1370X0.0008*%
%ADD205R,0.1346X0.0008*%
%ADD206R,0.1323X0.0008*%
%ADD207R,0.1299X0.0008*%
%ADD208R,0.1276X0.0008*%
%ADD209R,0.1252X0.0008*%
%ADD210R,0.1228X0.0008*%
%ADD211R,0.1220X0.0008*%
%ADD212R,0.1197X0.0008*%
%ADD213R,0.1173X0.0008*%
%ADD214R,0.1157X0.0008*%
%ADD215R,0.1142X0.0008*%
%ADD216R,0.1102X0.0008*%
%ADD217R,0.1071X0.0008*%
%ADD218R,0.1039X0.0008*%
%ADD219R,0.1000X0.0008*%
%ADD220R,0.0969X0.0008*%
%ADD221R,0.0945X0.0008*%
%ADD222R,0.0929X0.0008*%
%ADD223R,0.0906X0.0008*%
%ADD224R,0.0890X0.0008*%
%ADD225R,0.0866X0.0008*%
%ADD226R,0.0843X0.0008*%
%ADD227R,0.0795X0.0008*%
%ADD228R,0.0748X0.0008*%
%ADD229R,0.0709X0.0008*%
%ADD230R,0.0118X0.0008*%
%ADD231R,0.0205X0.0008*%
%ADD232R,0.0307X0.0008*%
%ADD233R,0.0094X0.0008*%
%ADD234R,0.0346X0.0008*%
%ADD235R,0.2213X0.0008*%
%ADD236R,0.2236X0.0008*%
%ADD237R,0.2252X0.0008*%
%ADD238R,0.2260X0.0008*%
%ADD239R,0.2268X0.0008*%
%ADD240R,0.2276X0.0008*%
%ADD241R,0.2283X0.0008*%
%ADD242R,0.2291X0.0008*%
%ADD243R,0.2307X0.0008*%
%ADD244R,0.2315X0.0008*%
%ADD245R,0.2323X0.0008*%
%ADD246R,0.2331X0.0008*%
%ADD247R,0.2339X0.0008*%
%ADD248R,0.2346X0.0008*%
%ADD249R,0.2299X0.0008*%
%ADD250R,0.0126X0.0008*%
%ADD251R,0.0173X0.0008*%
%ADD252R,0.0236X0.0008*%
%ADD253R,0.0244X0.0008*%
%ADD254R,0.0268X0.0008*%
%ADD255R,0.0283X0.0008*%
%ADD256R,0.2244X0.0008*%
%ADD257R,0.0299X0.0008*%
%ADD258R,0.0315X0.0008*%
%ADD259R,0.2220X0.0008*%
%ADD260R,0.0339X0.0008*%
%ADD261R,0.0354X0.0008*%
%ADD262R,0.2197X0.0008*%
%ADD263R,0.0362X0.0008*%
%ADD264R,0.2189X0.0008*%
%ADD265R,0.2173X0.0008*%
%ADD266R,0.2181X0.0008*%
%ADD267R,0.2205X0.0008*%
%ADD268R,0.2228X0.0008*%
%ADD269R,0.2354X0.0008*%
%ADD270R,0.2386X0.0008*%
%ADD271R,0.2764X0.0008*%
%ADD272R,0.2740X0.0008*%
%ADD273R,0.2717X0.0008*%
%ADD274R,0.2693X0.0008*%
%ADD275R,0.2669X0.0008*%
%ADD276R,0.2646X0.0008*%
%ADD277R,0.2614X0.0008*%
%ADD278R,0.2583X0.0008*%
%ADD279R,0.2551X0.0008*%
%ADD280R,0.2134X0.0008*%
%ADD281R,0.0055X0.0008*%
%ADD282R,0.0213X0.0008*%
%ADD283R,0.0142X0.0008*%
%ADD284R,0.0827X0.0008*%
%ADD285R,0.0858X0.0008*%
%ADD286R,0.0961X0.0008*%
%ADD287R,0.1024X0.0008*%
%ADD288R,0.3441X0.0008*%
%ADD289R,0.3449X0.0008*%
%ADD290R,0.3457X0.0008*%
%ADD291R,0.3465X0.0008*%
%ADD292R,0.3472X0.0008*%
%ADD293R,0.3480X0.0008*%
%ADD294R,0.3433X0.0008*%
%ADD295R,0.3417X0.0008*%
%ADD296R,0.3409X0.0008*%
%ADD297R,0.3394X0.0008*%
%ADD298R,0.3378X0.0008*%
%ADD299R,0.3370X0.0008*%
%ADD300R,0.3346X0.0008*%
%ADD301R,0.3331X0.0008*%
%ADD302R,0.3315X0.0008*%
%ADD303R,0.3291X0.0008*%
%ADD304R,0.3268X0.0008*%
%ADD305R,0.3244X0.0008*%
%ADD306R,0.3213X0.0008*%
%ADD307R,0.3189X0.0008*%
%ADD308R,0.3150X0.0008*%
%ADD309R,0.3118X0.0008*%
%ADD310R,0.3063X0.0008*%
%ADD311R,0.3016X0.0008*%
%ADD312R,0.2945X0.0008*%
%ADD313R,0.2874X0.0008*%
%ADD314R,0.2811X0.0008*%
%ADD315R,0.2701X0.0008*%
%ADD316R,0.2654X0.0008*%
%ADD317R,0.2622X0.0008*%
%ADD318R,0.2528X0.0008*%
%ADD319R,0.2417X0.0008*%
%ADD320R,0.0276X0.0008*%
%ADD321R,0.1339X0.0008*%
%ADD322R,0.1307X0.0008*%
%ADD323R,0.1260X0.0008*%
%ADD324R,0.1236X0.0008*%
%ADD325R,0.0323X0.0008*%
%ADD326R,0.1205X0.0008*%
%ADD327R,0.1181X0.0008*%
%ADD328R,0.0252X0.0008*%
%ADD329R,0.0220X0.0008*%
%ADD330R,0.0150X0.0008*%
%ADD331R,0.0228X0.0008*%
%ADD332R,0.0197X0.0008*%
%ADD333R,0.0181X0.0008*%
%ADD334R,0.0165X0.0008*%
%ADD335R,0.0134X0.0008*%
%ADD336R,0.0110X0.0008*%
%ADD337R,0.0087X0.0008*%
%ADD338R,0.0071X0.0008*%
%ADD339R,0.0024X0.0008*%
%ADD340R,0.0064X0.0008*%
%ADD341R,0.0232X0.0008*%
%ADD342R,0.0304X0.0008*%
%ADD343R,0.0368X0.0008*%
%ADD344R,0.0416X0.0008*%
%ADD345R,0.0448X0.0008*%
%ADD346R,0.0480X0.0008*%
%ADD347R,0.0512X0.0008*%
%ADD348R,0.0544X0.0008*%
%ADD349R,0.0576X0.0008*%
%ADD350R,0.0592X0.0008*%
%ADD351R,0.0608X0.0008*%
%ADD352R,0.0632X0.0008*%
%ADD353R,0.0656X0.0008*%
%ADD354R,0.0672X0.0008*%
%ADD355R,0.0688X0.0008*%
%ADD356R,0.0704X0.0008*%
%ADD357R,0.0720X0.0008*%
%ADD358R,0.0728X0.0008*%
%ADD359R,0.0736X0.0008*%
%ADD360R,0.0752X0.0008*%
%ADD361R,0.0768X0.0008*%
%ADD362R,0.0776X0.0008*%
%ADD363R,0.0784X0.0008*%
%ADD364R,0.0376X0.0008*%
%ADD365R,0.0312X0.0008*%
%ADD366R,0.0312X0.0008*%
%ADD367R,0.0288X0.0008*%
%ADD368R,0.0280X0.0008*%
%ADD369R,0.0272X0.0008*%
%ADD370R,0.0264X0.0008*%
%ADD371R,0.0256X0.0008*%
%ADD372R,0.0248X0.0008*%
%ADD373R,0.0240X0.0008*%
%ADD374R,0.0224X0.0008*%
%ADD375R,0.0224X0.0008*%
%ADD376R,0.0216X0.0008*%
%ADD377R,0.0208X0.0008*%
%ADD378R,0.0168X0.0008*%
%ADD379R,0.0264X0.0008*%
%ADD380R,0.0160X0.0008*%
%ADD381R,0.0136X0.0008*%
%ADD382R,0.0128X0.0008*%
%ADD383R,0.0144X0.0008*%
%ADD384R,0.0072X0.0008*%
%ADD385R,0.0328X0.0008*%
%ADD386R,0.0200X0.0008*%
%ADD387R,0.0104X0.0008*%
%ADD388R,0.0424X0.0008*%
%ADD389R,0.0336X0.0008*%
%ADD390R,0.0320X0.0008*%
%ADD391R,0.0360X0.0008*%
%ADD392R,0.0296X0.0008*%
%ADD393R,0.0152X0.0008*%
%ADD394R,0.0472X0.0008*%
%ADD395R,0.0400X0.0008*%
%ADD396R,0.0504X0.0008*%
%ADD397R,0.0352X0.0008*%
%ADD398R,0.0432X0.0008*%
%ADD399R,0.0184X0.0008*%
%ADD400R,0.0536X0.0008*%
%ADD401R,0.0384X0.0008*%
%ADD402R,0.0424X0.0008*%
%ADD403R,0.0464X0.0008*%
%ADD404R,0.0568X0.0008*%
%ADD405R,0.0408X0.0008*%
%ADD406R,0.0344X0.0008*%
%ADD407R,0.0456X0.0008*%
%ADD408R,0.0496X0.0008*%
%ADD409R,0.0600X0.0008*%
%ADD410R,0.0512X0.0008*%
%ADD411R,0.0616X0.0008*%
%ADD412R,0.0488X0.0008*%
%ADD413R,0.0504X0.0008*%
%ADD414R,0.0648X0.0008*%
%ADD415R,0.0472X0.0008*%
%ADD416R,0.0528X0.0008*%
%ADD417R,0.0560X0.0008*%
%ADD418R,0.0232X0.0008*%
%ADD419R,0.0664X0.0008*%
%ADD420R,0.0552X0.0008*%
%ADD421R,0.0520X0.0008*%
%ADD422R,0.0584X0.0008*%
%ADD423R,0.0696X0.0008*%
%ADD424R,0.0712X0.0008*%
%ADD425R,0.0624X0.0008*%
%ADD426R,0.0752X0.0008*%
%ADD427R,0.0744X0.0008*%
%ADD428R,0.0640X0.0008*%
%ADD429R,0.0760X0.0008*%
%ADD430R,0.0592X0.0008*%
%ADD431R,0.0672X0.0008*%
%ADD432R,0.0792X0.0008*%
%ADD433R,0.0808X0.0008*%
%ADD434R,0.0784X0.0008*%
%ADD435R,0.0664X0.0008*%
%ADD436R,0.0824X0.0008*%
%ADD437R,0.0680X0.0008*%
%ADD438R,0.0840X0.0008*%
%ADD439R,0.0792X0.0008*%
%ADD440R,0.0632X0.0008*%
%ADD441R,0.0856X0.0008*%
%ADD442R,0.0800X0.0008*%
%ADD443R,0.0872X0.0008*%
%ADD444R,0.0552X0.0008*%
%ADD445R,0.0888X0.0008*%
%ADD446R,0.0192X0.0008*%
%ADD447R,0.0904X0.0008*%
%ADD448R,0.0272X0.0008*%
%ADD449R,0.0176X0.0008*%
%ADD450R,0.0344X0.0008*%
%ADD451R,0.0352X0.0008*%
%ADD452R,0.0120X0.0008*%
%ADD453R,0.0304X0.0008*%
%ADD454R,0.0112X0.0008*%
%ADD455R,0.0088X0.0008*%
%ADD456R,0.0192X0.0008*%
%ADD457R,0.0032X0.0008*%
%ADD458R,0.0072X0.0008*%
%ADD459R,0.0056X0.0008*%
%ADD460R,0.0048X0.0008*%
%ADD461R,0.0032X0.0008*%
%ADD462R,0.0008X0.0008*%
%ADD463R,0.0016X0.0008*%
%ADD464R,0.0896X0.0008*%
%ADD465R,0.0880X0.0008*%
%ADD466R,0.0080X0.0008*%
%ADD467R,0.0096X0.0008*%
%ADD468R,0.0112X0.0008*%
%ADD469R,0.0152X0.0008*%
%ADD470R,0.0392X0.0008*%
%ADD471R,0.0816X0.0008*%
%ADD472R,0.0712X0.0008*%
%ADD473R,0.0464X0.0008*%
%ADD474R,0.0440X0.0008*%
%ADD475R,0.0432X0.0008*%
%ADD476R,0.0392X0.0008*%
%ADD477R,0.0384X0.0008*%
%ADD478R,0.0024X0.0008*%
%ADD479R,0.0104X0.0008*%
%ADD480R,0.0030X0.0005*%
%ADD481R,0.0050X0.0005*%
%ADD482R,0.0060X0.0005*%
%ADD483R,0.0070X0.0005*%
%ADD484R,0.0085X0.0005*%
%ADD485R,0.0095X0.0005*%
%ADD486R,0.0110X0.0005*%
%ADD487R,0.0120X0.0005*%
%ADD488R,0.0135X0.0005*%
%ADD489R,0.0145X0.0005*%
%ADD490R,0.0160X0.0005*%
%ADD491R,0.0170X0.0005*%
%ADD492R,0.0185X0.0005*%
%ADD493R,0.0195X0.0005*%
%ADD494R,0.0205X0.0005*%
%ADD495R,0.0220X0.0005*%
%ADD496R,0.0230X0.0005*%
%ADD497R,0.0245X0.0005*%
%ADD498R,0.0255X0.0005*%
%ADD499R,0.0270X0.0005*%
%ADD500R,0.0280X0.0005*%
%ADD501R,0.0295X0.0005*%
%ADD502R,0.0305X0.0005*%
%ADD503R,0.0320X0.0005*%
%ADD504R,0.0330X0.0005*%
%ADD505R,0.0345X0.0005*%
%ADD506R,0.0355X0.0005*%
%ADD507R,0.0365X0.0005*%
%ADD508R,0.0380X0.0005*%
%ADD509R,0.0390X0.0005*%
%ADD510R,0.0405X0.0005*%
%ADD511R,0.0415X0.0005*%
%ADD512R,0.0430X0.0005*%
%ADD513R,0.0440X0.0005*%
%ADD514R,0.0455X0.0005*%
%ADD515R,0.0465X0.0005*%
%ADD516R,0.0480X0.0005*%
%ADD517R,0.0490X0.0005*%
%ADD518R,0.0500X0.0005*%
%ADD519R,0.0515X0.0005*%
%ADD520R,0.0525X0.0005*%
%ADD521R,0.0540X0.0005*%
%ADD522R,0.0550X0.0005*%
%ADD523R,0.0565X0.0005*%
%ADD524R,0.0575X0.0005*%
%ADD525R,0.0010X0.0005*%
%ADD526R,0.0590X0.0005*%
%ADD527R,0.0035X0.0005*%
%ADD528R,0.0600X0.0005*%
%ADD529R,0.0040X0.0005*%
%ADD530R,0.0615X0.0005*%
%ADD531R,0.0055X0.0005*%
%ADD532R,0.0625X0.0005*%
%ADD533R,0.0065X0.0005*%
%ADD534R,0.0635X0.0005*%
%ADD535R,0.0080X0.0005*%
%ADD536R,0.0640X0.0005*%
%ADD537R,0.0650X0.0005*%
%ADD538R,0.0090X0.0005*%
%ADD539R,0.0660X0.0005*%
%ADD540R,0.0105X0.0005*%
%ADD541R,0.0675X0.0005*%
%ADD542R,0.0115X0.0005*%
%ADD543R,0.0685X0.0005*%
%ADD544R,0.0125X0.0005*%
%ADD545R,0.0700X0.0005*%
%ADD546R,0.0710X0.0005*%
%ADD547R,0.0725X0.0005*%
%ADD548R,0.0735X0.0005*%
%ADD549R,0.0750X0.0005*%
%ADD550R,0.0180X0.0005*%
%ADD551R,0.0760X0.0005*%
%ADD552R,0.0775X0.0005*%
%ADD553R,0.0785X0.0005*%
%ADD554R,0.0795X0.0005*%
%ADD555R,0.0225X0.0005*%
%ADD556R,0.0810X0.0005*%
%ADD557R,0.0240X0.0005*%
%ADD558R,0.0820X0.0005*%
%ADD559R,0.0250X0.0005*%
%ADD560R,0.0835X0.0005*%
%ADD561R,0.0260X0.0005*%
%ADD562R,0.0845X0.0005*%
%ADD563R,0.0275X0.0005*%
%ADD564R,0.0860X0.0005*%
%ADD565R,0.0285X0.0005*%
%ADD566R,0.0875X0.0005*%
%ADD567R,0.0300X0.0005*%
%ADD568R,0.1210X0.0005*%
%ADD569R,0.1215X0.0005*%
%ADD570R,0.1225X0.0005*%
%ADD571R,0.1230X0.0005*%
%ADD572R,0.1240X0.0005*%
%ADD573R,0.1245X0.0005*%
%ADD574R,0.1255X0.0005*%
%ADD575R,0.1260X0.0005*%
%ADD576R,0.1265X0.0005*%
%ADD577R,0.1275X0.0005*%
%ADD578R,0.1280X0.0005*%
%ADD579R,0.1290X0.0005*%
%ADD580R,0.1295X0.0005*%
%ADD581R,0.1300X0.0005*%
%ADD582R,0.1310X0.0005*%
%ADD583R,0.1315X0.0005*%
%ADD584R,0.1325X0.0005*%
%ADD585R,0.1330X0.0005*%
%ADD586R,0.1335X0.0005*%
%ADD587R,0.1345X0.0005*%
%ADD588R,0.1350X0.0005*%
%ADD589R,0.1360X0.0005*%
%ADD590R,0.1370X0.0005*%
%ADD591R,0.1375X0.0005*%
%ADD592R,0.1380X0.0005*%
%ADD593R,0.1365X0.0005*%
%ADD594R,0.1355X0.0005*%
%ADD595R,0.1340X0.0005*%
%ADD596R,0.1320X0.0005*%
%ADD597R,0.1305X0.0005*%
%ADD598R,0.1285X0.0005*%
%ADD599R,0.1270X0.0005*%
%ADD600R,0.1250X0.0005*%
%ADD601R,0.1385X0.0005*%
%ADD602R,0.1390X0.0005*%
%ADD603R,0.1395X0.0005*%
%ADD604R,0.1405X0.0005*%
%ADD605R,0.1410X0.0005*%
%ADD606R,0.1415X0.0005*%
%ADD607R,0.1425X0.0005*%
%ADD608R,0.1435X0.0005*%
%ADD609R,0.1445X0.0005*%
%ADD610R,0.1455X0.0005*%
%ADD611R,0.1465X0.0005*%
%ADD612R,0.1475X0.0005*%
%ADD613R,0.1485X0.0005*%
%ADD614R,0.1490X0.0005*%
%ADD615R,0.1480X0.0005*%
%ADD616R,0.1460X0.0005*%
%ADD617R,0.1430X0.0005*%
%ADD618R,0.1420X0.0005*%
%ADD619R,0.1450X0.0005*%
%ADD620R,0.1470X0.0005*%
%ADD621R,0.1495X0.0005*%
%ADD622R,0.1520X0.0005*%
%ADD623R,0.1545X0.0005*%
%ADD624R,0.1565X0.0005*%
%ADD625R,0.1590X0.0005*%
%ADD626R,0.1615X0.0005*%
%ADD627R,0.1635X0.0005*%
%ADD628R,0.1660X0.0005*%
%ADD629R,0.1685X0.0005*%
%ADD630R,0.1705X0.0005*%
%ADD631R,0.1735X0.0005*%
%ADD632R,0.1755X0.0005*%
%ADD633R,0.1775X0.0005*%
%ADD634R,0.1805X0.0005*%
%ADD635R,0.1825X0.0005*%
%ADD636R,0.1850X0.0005*%
%ADD637R,0.1865X0.0005*%
%ADD638R,0.1870X0.0005*%
%ADD639R,0.1875X0.0005*%
%ADD640R,0.1860X0.0005*%
%ADD641R,0.1855X0.0005*%
%ADD642R,0.1845X0.0005*%
%ADD643R,0.1840X0.0005*%
%ADD644R,0.1835X0.0005*%
%ADD645R,0.1830X0.0005*%
%ADD646R,0.1820X0.0005*%
%ADD647R,0.1815X0.0005*%
%ADD648R,0.1810X0.0005*%
%ADD649R,0.1800X0.0005*%
%ADD650R,0.1785X0.0005*%
%ADD651R,0.1765X0.0005*%
%ADD652R,0.1740X0.0005*%
%ADD653R,0.1715X0.0005*%
%ADD654R,0.1695X0.0005*%
%ADD655R,0.1665X0.0005*%
%ADD656R,0.1645X0.0005*%
%ADD657R,0.1620X0.0005*%
%ADD658R,0.1600X0.0005*%
%ADD659R,0.1575X0.0005*%
%ADD660R,0.1550X0.0005*%
%ADD661R,0.1530X0.0005*%
%ADD662R,0.1510X0.0005*%
%ADD663R,0.1400X0.0005*%
%ADD664R,0.1440X0.0005*%
%ADD665R,0.1500X0.0005*%
%ADD666R,0.1515X0.0005*%
%ADD667R,0.1525X0.0005*%
%ADD668R,0.1540X0.0005*%
%ADD669R,0.1560X0.0005*%
%ADD670R,0.1595X0.0005*%
%ADD671R,0.1650X0.0005*%
%ADD672R,0.1720X0.0005*%
%ADD673R,0.3460X0.0005*%
%ADD674R,0.3450X0.0005*%
%ADD675R,0.3440X0.0005*%
%ADD676R,0.3430X0.0005*%
%ADD677R,0.3420X0.0005*%
%ADD678R,0.3410X0.0005*%
%ADD679R,0.3400X0.0005*%
%ADD680R,0.3390X0.0005*%
%ADD681R,0.3380X0.0005*%
%ADD682R,0.3370X0.0005*%
%ADD683R,0.3360X0.0005*%
%ADD684R,0.3350X0.0005*%
%ADD685R,0.3340X0.0005*%
%ADD686R,0.3330X0.0005*%
%ADD687R,0.3320X0.0005*%
%ADD688R,0.3310X0.0005*%
%ADD689R,0.3300X0.0005*%
%ADD690R,0.3290X0.0005*%
%ADD691R,0.3280X0.0005*%
%ADD692R,0.3270X0.0005*%
%ADD693R,0.3260X0.0005*%
%ADD694R,0.3470X0.0005*%
%ADD695R,0.3475X0.0005*%
%ADD696R,0.3480X0.0005*%
%ADD697R,0.3490X0.0005*%
%ADD698R,0.3500X0.0005*%
%ADD699R,0.3510X0.0005*%
%ADD700R,0.3520X0.0005*%
%ADD701R,0.3530X0.0005*%
%ADD702R,0.3540X0.0005*%
%ADD703R,0.3550X0.0005*%
%ADD704R,0.3560X0.0005*%
%ADD705R,0.3570X0.0005*%
%ADD706R,0.3580X0.0005*%
%ADD707R,0.3590X0.0005*%
%ADD708R,0.3600X0.0005*%
%ADD709R,0.3610X0.0005*%
%ADD710R,0.3620X0.0005*%
%ADD711R,0.3630X0.0005*%
%ADD712R,0.3640X0.0005*%
%ADD713R,0.3650X0.0005*%
%ADD714R,0.3660X0.0005*%
%ADD715R,0.3670X0.0005*%
%ADD716R,0.3680X0.0005*%
%ADD717R,0.3690X0.0005*%
%ADD718R,0.3700X0.0005*%
%ADD719R,0.3710X0.0005*%
%ADD720R,0.3720X0.0005*%
%ADD721R,0.3730X0.0005*%
%ADD722R,0.3740X0.0005*%
%ADD723R,0.3750X0.0005*%
%ADD724R,0.3760X0.0005*%
%ADD725R,0.3770X0.0005*%
%ADD726R,0.3780X0.0005*%
%ADD727R,0.3790X0.0005*%
%ADD728R,0.3800X0.0005*%
%ADD729R,0.3810X0.0005*%
%ADD730R,0.3820X0.0005*%
%ADD731R,0.3825X0.0005*%
%ADD732R,0.3830X0.0005*%
%ADD733R,0.3840X0.0005*%
%ADD734R,0.3850X0.0005*%
%ADD735R,0.3860X0.0005*%
%ADD736R,0.3870X0.0005*%
%ADD737R,0.3880X0.0005*%
%ADD738R,0.3890X0.0005*%
%ADD739R,0.3900X0.0005*%
%ADD740R,0.3910X0.0005*%
%ADD741R,0.3920X0.0005*%
%ADD742R,0.3930X0.0005*%
%ADD743R,0.3940X0.0005*%
%ADD744R,0.3950X0.0005*%
%ADD745R,0.3960X0.0005*%
%ADD746R,0.3970X0.0005*%
%ADD747R,0.3980X0.0005*%
%ADD748R,0.3990X0.0005*%
%ADD749R,0.4000X0.0005*%
%ADD750R,0.0955X0.0005*%
%ADD751R,0.0935X0.0005*%
%ADD752R,0.0920X0.0005*%
%ADD753R,0.0910X0.0005*%
%ADD754R,0.1780X0.0005*%
%ADD755R,0.0895X0.0005*%
%ADD756R,0.1760X0.0005*%
%ADD757R,0.0885X0.0005*%
%ADD758R,0.0870X0.0005*%
%ADD759R,0.1710X0.0005*%
%ADD760R,0.1690X0.0005*%
%ADD761R,0.1640X0.0005*%
%ADD762R,0.0825X0.0005*%
%ADD763R,0.1610X0.0005*%
%ADD764R,0.0800X0.0005*%
%ADD765R,0.0690X0.0005*%
%ADD766R,0.0665X0.0005*%
%ADD767R,0.1220X0.0005*%
%ADD768R,0.1200X0.0005*%
%ADD769R,0.1170X0.0005*%
%ADD770R,0.1150X0.0005*%
%ADD771R,0.1125X0.0005*%
%ADD772R,0.1100X0.0005*%
%ADD773R,0.0555X0.0005*%
%ADD774R,0.1080X0.0005*%
%ADD775R,0.1050X0.0005*%
%ADD776R,0.0530X0.0005*%
%ADD777R,0.1030X0.0005*%
%ADD778R,0.1000X0.0005*%
%ADD779R,0.0505X0.0005*%
%ADD780R,0.0980X0.0005*%
%ADD781R,0.0970X0.0005*%
%ADD782R,0.0950X0.0005*%
%ADD783R,0.0940X0.0005*%
%ADD784R,0.0930X0.0005*%
%ADD785R,0.0395X0.0005*%
%ADD786R,0.0370X0.0005*%
%ADD787R,0.0915X0.0005*%
%ADD788R,0.0900X0.0005*%
%ADD789R,0.0235X0.0005*%
%ADD790R,0.0210X0.0005*%
%ADD791R,0.0890X0.0005*%
%ADD792R,0.0880X0.0005*%
%ADD793R,0.0100X0.0005*%
%ADD794R,0.0075X0.0005*%
%ADD795R,0.0005X0.0005*%
%ADD796R,0.0865X0.0005*%
%ADD797R,0.0850X0.0005*%
%ADD798R,0.0840X0.0005*%
%ADD799R,0.0830X0.0005*%
%ADD800R,0.0790X0.0005*%
%ADD801R,0.0780X0.0005*%
%ADD802R,0.0770X0.0005*%
%ADD803R,0.0740X0.0005*%
%ADD804R,0.0730X0.0005*%
%ADD805R,0.0720X0.0005*%
%ADD806R,0.0705X0.0005*%
%ADD807R,0.0680X0.0005*%
%ADD808R,0.0670X0.0005*%
%ADD809R,0.0630X0.0005*%
%ADD810R,0.0031X0.0031*%
%ADD811R,0.0125X0.0031*%
%ADD812R,0.0219X0.0031*%
%ADD813R,0.0250X0.0031*%
%ADD814R,0.0313X0.0031*%
%ADD815R,0.0344X0.0031*%
%ADD816R,0.0187X0.0031*%
%ADD817R,0.0375X0.0031*%
%ADD818R,0.0437X0.0031*%
%ADD819R,0.0156X0.0031*%
%ADD820R,0.0469X0.0031*%
%ADD821R,0.0500X0.0031*%
%ADD822R,0.0531X0.0031*%
%ADD823R,0.0563X0.0031*%
%ADD824R,0.0594X0.0031*%
%ADD825R,0.0656X0.0031*%
%ADD826R,0.0406X0.0031*%
%ADD827R,0.0281X0.0031*%
%ADD828R,0.0063X0.0031*%
%ADD829R,0.0625X0.0031*%
%ADD830R,0.0750X0.0031*%
%ADD831R,0.1563X0.0031*%
%ADD832R,0.1500X0.0031*%
%ADD833R,0.1437X0.0031*%
%ADD834R,0.1375X0.0031*%
%ADD835R,0.1313X0.0031*%
%ADD836R,0.1250X0.0031*%
%ADD837R,0.1125X0.0031*%
%ADD838R,0.1063X0.0031*%
%ADD839R,0.0938X0.0031*%
%ADD840R,0.0813X0.0031*%
%ADD841R,0.0688X0.0031*%
D10*
X009771Y008743D02*
X009925Y008590D01*
X010385Y008590D01*
X010385Y009511D01*
X009925Y009511D01*
X009771Y009357D01*
X009771Y008743D01*
X010692Y008590D02*
X010692Y009204D01*
X010999Y009511D01*
X011306Y009204D01*
X011306Y008590D01*
X011613Y008743D02*
X011613Y009357D01*
X011766Y009511D01*
X012073Y009511D01*
X012227Y009357D01*
X012227Y008743D01*
X012073Y008590D01*
X011766Y008590D01*
X011613Y008743D01*
X011306Y009050D02*
X010692Y009050D01*
X012534Y008590D02*
X013147Y008590D01*
X013147Y009511D01*
X013454Y009357D02*
X013454Y009050D01*
X013608Y008897D01*
X014068Y008897D01*
X013761Y008897D02*
X013454Y008590D01*
X014068Y008590D02*
X014068Y009511D01*
X013608Y009511D01*
X013454Y009357D01*
X014375Y009511D02*
X014989Y009511D01*
X014989Y008590D01*
X014375Y008590D01*
X014682Y009050D02*
X014989Y009050D01*
X015296Y008897D02*
X015296Y009511D01*
X015910Y009511D02*
X015910Y008897D01*
X015603Y008590D01*
X015296Y008897D01*
X016217Y008743D02*
X016217Y009357D01*
X016370Y009511D01*
X016677Y009511D01*
X016831Y009357D01*
X016831Y008743D01*
X016677Y008590D01*
X016370Y008590D01*
X016217Y008743D01*
X018058Y009357D02*
X018058Y009511D01*
X018058Y009357D02*
X018365Y009050D01*
X018365Y008590D01*
X018365Y009050D02*
X018672Y009357D01*
X018672Y009511D01*
X018979Y009357D02*
X018979Y009050D01*
X019133Y008897D01*
X019593Y008897D01*
X019286Y008897D02*
X018979Y008590D01*
X019593Y008590D02*
X019593Y009511D01*
X019133Y009511D01*
X018979Y009357D01*
X019900Y009357D02*
X019900Y008743D01*
X020053Y008590D01*
X020360Y008590D01*
X020514Y008743D01*
X020514Y009357D01*
X020360Y009511D01*
X020053Y009511D01*
X019900Y009357D01*
X020821Y009357D02*
X020974Y009511D01*
X021281Y009511D01*
X021435Y009357D01*
X021435Y009204D01*
X021281Y009050D01*
X020974Y009050D01*
X020821Y008897D01*
X020821Y008743D01*
X020974Y008590D01*
X021281Y008590D01*
X021435Y008743D01*
X021741Y008590D02*
X021741Y009511D01*
X022355Y009511D02*
X021741Y008590D01*
X022355Y008590D02*
X022355Y009511D01*
X022662Y009511D02*
X023276Y009511D01*
X023276Y008590D01*
X022662Y008590D01*
X022969Y009050D02*
X023276Y009050D01*
X023583Y008897D02*
X023583Y008743D01*
X023737Y008590D01*
X024043Y008590D01*
X024197Y008743D01*
X024043Y009050D02*
X023737Y009050D01*
X023583Y008897D01*
X024043Y009050D02*
X024197Y009204D01*
X024197Y009357D01*
X024043Y009511D01*
X023737Y009511D01*
X023583Y009357D01*
D11*
X019173Y008074D02*
X019173Y007580D01*
X019173Y007827D02*
X018926Y008074D01*
X018803Y008074D01*
X018559Y007950D02*
X018436Y008074D01*
X018189Y008074D01*
X018066Y007950D01*
X018066Y007827D01*
X018559Y007827D01*
X018559Y007950D02*
X018559Y007703D01*
X018436Y007580D01*
X018189Y007580D01*
X017576Y007580D02*
X017823Y008074D01*
X017329Y008074D02*
X017576Y007580D01*
X017086Y007950D02*
X016592Y007950D01*
X016350Y008074D02*
X016103Y008321D01*
X016103Y007580D01*
X016350Y007580D02*
X015856Y007580D01*
X015613Y007580D02*
X015489Y007580D01*
X015489Y007703D01*
X015613Y007703D01*
X015613Y007580D01*
X015245Y007703D02*
X014751Y008197D01*
X014751Y007703D01*
X014874Y007580D01*
X015121Y007580D01*
X015245Y007703D01*
X015245Y008197D01*
X015121Y008321D01*
X014874Y008321D01*
X014751Y008197D01*
D12*
X008871Y010300D02*
X024871Y010300D01*
D13*
X014501Y012550D03*
X012469Y020141D03*
D14*
X015001Y018684D03*
X014229Y013361D03*
X014229Y013353D03*
X014229Y013345D03*
X014260Y012660D03*
X014260Y012652D03*
X014260Y012644D03*
X014268Y012558D03*
X013292Y012826D03*
X013292Y012833D03*
X012670Y012644D03*
X012670Y012637D03*
X012670Y012629D03*
X012670Y012621D03*
X012670Y012613D03*
D15*
X013260Y012558D03*
X014245Y012833D03*
X014245Y012841D03*
X014245Y012849D03*
X014245Y012857D03*
X014245Y012865D03*
X014229Y013141D03*
X014229Y013148D03*
X014229Y013156D03*
X014229Y013164D03*
X014229Y013172D03*
X014371Y019857D03*
D16*
X013658Y019849D03*
X012689Y018613D03*
X014997Y018676D03*
X014233Y013259D03*
X014249Y012755D03*
X014249Y012747D03*
X014249Y012739D03*
X013264Y012715D03*
X013264Y012707D03*
X013264Y012700D03*
X013264Y012692D03*
X012666Y012558D03*
D17*
X012674Y012652D03*
X012674Y012660D03*
X013296Y012841D03*
X013296Y012849D03*
X013296Y012857D03*
X012650Y013337D03*
X012650Y013345D03*
X012650Y013353D03*
X012650Y013361D03*
X012650Y013369D03*
X012642Y013385D03*
X012642Y013393D03*
X012642Y013400D03*
X012642Y013408D03*
X014233Y013377D03*
X014233Y013369D03*
X014256Y012637D03*
X014272Y012566D03*
X012682Y018629D03*
D18*
X012627Y019700D03*
X012619Y019707D03*
X014233Y013180D03*
X014249Y012826D03*
X014249Y012818D03*
X014249Y012810D03*
X013256Y012605D03*
X013256Y012597D03*
X013256Y012589D03*
X013256Y012581D03*
X013256Y012574D03*
X013256Y012566D03*
D19*
X013272Y012739D03*
X013272Y012747D03*
X013272Y012755D03*
X013280Y012763D03*
X013280Y012770D03*
X012666Y012574D03*
X012666Y012566D03*
X014256Y012707D03*
X014233Y013290D03*
X014233Y013298D03*
X014209Y014581D03*
D20*
X014213Y014574D03*
X014229Y013393D03*
X014229Y013385D03*
X014260Y012629D03*
X014260Y012621D03*
X014260Y012613D03*
X014268Y012597D03*
X014268Y012589D03*
X014268Y012581D03*
X014268Y012574D03*
X013300Y012865D03*
X012670Y012700D03*
X012670Y012692D03*
X012670Y012684D03*
X012670Y012676D03*
X012670Y012668D03*
X012654Y013282D03*
X012654Y013290D03*
X012654Y013298D03*
X012654Y013306D03*
X012654Y013314D03*
X012654Y013322D03*
X012654Y013330D03*
X012646Y013377D03*
X012638Y013416D03*
X012638Y013424D03*
X012638Y013432D03*
X012638Y013440D03*
X012638Y013448D03*
X012686Y019668D03*
D21*
X012686Y018621D03*
X014331Y019841D03*
X014977Y017369D03*
X014969Y015109D03*
X014229Y013322D03*
X014229Y013314D03*
X014229Y013306D03*
X014252Y012700D03*
X014252Y012692D03*
X013284Y012778D03*
X013284Y012786D03*
X013284Y012794D03*
X012670Y012581D03*
D22*
X012666Y012589D03*
X012666Y012597D03*
X012666Y012605D03*
X013288Y012802D03*
X013288Y012810D03*
X013288Y012818D03*
X014256Y012684D03*
X014256Y012676D03*
X014256Y012668D03*
X014233Y013330D03*
X014233Y013337D03*
X012666Y019676D03*
D23*
X012634Y013487D03*
X012634Y013479D03*
X012634Y013471D03*
X012634Y013463D03*
X012634Y013456D03*
X012658Y013274D03*
X012658Y013267D03*
X012674Y012786D03*
X012674Y012778D03*
X012674Y012770D03*
X012674Y012763D03*
X012674Y012755D03*
X012674Y012747D03*
X012674Y012739D03*
X012674Y012731D03*
X012674Y012723D03*
X012674Y012715D03*
X012674Y012707D03*
X013296Y012873D03*
X013296Y012881D03*
X014264Y012605D03*
X014233Y013400D03*
X014233Y013408D03*
X014233Y013416D03*
X014233Y013424D03*
X014233Y013432D03*
D24*
X014229Y013211D03*
X014229Y013204D03*
X014229Y013196D03*
X014229Y013188D03*
X014245Y012802D03*
X013252Y012621D03*
X013252Y012613D03*
X014213Y014589D03*
X012693Y018605D03*
D25*
X014351Y019849D03*
X014233Y013219D03*
X014249Y012794D03*
X014249Y012786D03*
X014249Y012778D03*
X014249Y012770D03*
X013256Y012660D03*
X013256Y012652D03*
X013256Y012644D03*
X013256Y012637D03*
X013256Y012629D03*
D26*
X013260Y012668D03*
X013260Y012676D03*
X013260Y012684D03*
X014252Y012763D03*
X014229Y013227D03*
X014229Y013235D03*
X014229Y013243D03*
X014229Y013251D03*
X014875Y019353D03*
X012638Y019692D03*
D27*
X012654Y019684D03*
X014229Y013282D03*
X014229Y013274D03*
X014229Y013267D03*
X014252Y012731D03*
X014252Y012723D03*
X014252Y012715D03*
X013268Y012723D03*
X013268Y012731D03*
D28*
X013300Y012889D03*
X013300Y012896D03*
X012678Y012833D03*
X012678Y012826D03*
X012678Y012818D03*
X012678Y012810D03*
X012678Y012802D03*
X012678Y012794D03*
X012654Y013235D03*
X012654Y013243D03*
X012654Y013251D03*
X012654Y013259D03*
X012630Y013495D03*
X012630Y013503D03*
X012630Y013511D03*
X012630Y013519D03*
X014859Y019345D03*
X013678Y019841D03*
D29*
X012674Y018637D03*
X015004Y018692D03*
X014493Y014298D03*
X014501Y014282D03*
X014501Y014274D03*
X014233Y013471D03*
X014233Y013463D03*
X014233Y013456D03*
X014233Y013448D03*
X014233Y013440D03*
X013304Y012920D03*
X013304Y012912D03*
X013304Y012904D03*
X012674Y012904D03*
X012674Y012896D03*
X012674Y012889D03*
X012674Y012881D03*
X012674Y012873D03*
X012674Y012865D03*
X012674Y012857D03*
X012674Y012849D03*
X012674Y012841D03*
X012674Y012912D03*
X012658Y013164D03*
X012658Y013172D03*
X012658Y013180D03*
X012658Y013188D03*
X012658Y013196D03*
X012658Y013204D03*
X012658Y013211D03*
X012658Y013219D03*
X012658Y013227D03*
X012627Y013526D03*
D30*
X014233Y013133D03*
X014233Y013125D03*
X014241Y012920D03*
X014241Y012912D03*
X014241Y012904D03*
X014241Y012896D03*
X014241Y012889D03*
X014241Y012881D03*
X014241Y012873D03*
X014973Y015101D03*
X014752Y018085D03*
X014737Y018109D03*
X014729Y018117D03*
X014729Y018125D03*
X014721Y018133D03*
X014713Y018141D03*
X014713Y018148D03*
X014705Y018156D03*
X012697Y018597D03*
X012611Y019715D03*
D31*
X014969Y015117D03*
X014213Y014566D03*
X014489Y014306D03*
X014497Y014290D03*
X014504Y014267D03*
X014237Y013503D03*
X014237Y013495D03*
X014237Y013487D03*
X014237Y013479D03*
X013308Y012936D03*
X013308Y012928D03*
X012670Y012928D03*
X012670Y012936D03*
X012670Y012944D03*
X012670Y012952D03*
X012670Y012959D03*
X012670Y012967D03*
X012670Y012975D03*
X012670Y012983D03*
X012670Y012991D03*
X012670Y012999D03*
X012670Y013007D03*
X012670Y013015D03*
X012662Y013054D03*
X012662Y013062D03*
X012662Y013070D03*
X012662Y013078D03*
X012662Y013085D03*
X012662Y013093D03*
X012662Y013101D03*
X012662Y013109D03*
X012662Y013117D03*
X012662Y013125D03*
X012662Y013133D03*
X012662Y013141D03*
X012662Y013148D03*
X012662Y013156D03*
X012670Y012920D03*
X012630Y013534D03*
X012630Y013542D03*
X012630Y013550D03*
X012630Y013558D03*
D32*
X014229Y013117D03*
X014229Y013109D03*
X014229Y013101D03*
X014229Y013093D03*
X014229Y013085D03*
X014229Y013078D03*
X014237Y012999D03*
X014237Y012991D03*
X014237Y012983D03*
X014237Y012975D03*
X014237Y012967D03*
X014237Y012959D03*
X014237Y012952D03*
X014237Y012944D03*
X014237Y012936D03*
X014237Y012928D03*
X014977Y017377D03*
X014772Y018062D03*
X014764Y018070D03*
X014756Y018078D03*
X014749Y018093D03*
X014741Y018101D03*
X014701Y018164D03*
X014701Y018172D03*
X014693Y018180D03*
X014693Y018188D03*
X014686Y018196D03*
X013654Y019857D03*
X012599Y019723D03*
D33*
X014981Y017361D03*
X014501Y014259D03*
X014501Y014251D03*
X014241Y013534D03*
X014241Y013526D03*
X014241Y013519D03*
X014241Y013511D03*
X013312Y012959D03*
X013312Y012952D03*
X013312Y012944D03*
X012666Y013022D03*
X012666Y013030D03*
X012666Y013038D03*
X012666Y013046D03*
X012627Y013566D03*
X012627Y013574D03*
X012627Y013581D03*
X012627Y013589D03*
X012627Y013597D03*
D34*
X012623Y013605D03*
X012623Y013613D03*
X012623Y013621D03*
X012623Y013629D03*
X012623Y013637D03*
X013315Y012991D03*
X013315Y012983D03*
X013315Y012975D03*
X013315Y012967D03*
X014245Y013542D03*
X014418Y014046D03*
X014426Y014062D03*
X014434Y014078D03*
X014441Y014093D03*
X014449Y014109D03*
X014449Y014117D03*
X014457Y014133D03*
X014465Y014148D03*
X014473Y014172D03*
X014481Y014188D03*
X014489Y014211D03*
X014497Y014227D03*
X012670Y018644D03*
X012717Y019660D03*
D35*
X014402Y014015D03*
X014394Y013999D03*
X014386Y013983D03*
X014378Y013967D03*
X014371Y013952D03*
X014252Y013621D03*
X014252Y013613D03*
X014252Y013605D03*
X014252Y013597D03*
X014245Y013589D03*
X014245Y013581D03*
X014245Y013574D03*
X013315Y013015D03*
X013315Y013007D03*
X013315Y012999D03*
D36*
X014233Y013007D03*
X014233Y013015D03*
X014233Y013022D03*
X014233Y013030D03*
X014233Y013038D03*
X014233Y013046D03*
X014233Y013054D03*
X014233Y013062D03*
X014233Y013070D03*
X014209Y014597D03*
X013548Y017400D03*
X014682Y018204D03*
X014776Y018054D03*
X014784Y018046D03*
X014989Y018668D03*
X014382Y019865D03*
D37*
X015012Y018700D03*
X012666Y018652D03*
X014382Y013975D03*
X014375Y013959D03*
X014367Y013944D03*
X014359Y013936D03*
X014359Y013928D03*
X014351Y013920D03*
X014256Y013652D03*
X014256Y013644D03*
X014256Y013637D03*
X014256Y013629D03*
X013319Y013038D03*
X013319Y013030D03*
X013319Y013022D03*
X012619Y013676D03*
X012619Y013684D03*
X012619Y013692D03*
X012619Y013700D03*
D38*
X012615Y013707D03*
X012615Y013715D03*
X013323Y013070D03*
X013323Y013062D03*
X013323Y013054D03*
X013323Y013046D03*
X014260Y013660D03*
X014260Y013668D03*
X014260Y013676D03*
X014268Y013684D03*
X014268Y013692D03*
X014268Y013700D03*
X014276Y013715D03*
X014276Y013723D03*
X014315Y013841D03*
X014323Y013857D03*
X014331Y013873D03*
X014331Y013881D03*
X014339Y013889D03*
X014339Y013896D03*
X014347Y013904D03*
X014347Y013912D03*
D39*
X014327Y013865D03*
X014319Y013849D03*
X014312Y013833D03*
X014312Y013826D03*
X014304Y013818D03*
X014304Y013810D03*
X014304Y013802D03*
X014296Y013794D03*
X014296Y013786D03*
X014296Y013778D03*
X014288Y013770D03*
X014288Y013763D03*
X014288Y013755D03*
X014280Y013747D03*
X014280Y013739D03*
X014280Y013731D03*
X014272Y013707D03*
X014217Y014550D03*
X013327Y013078D03*
X012666Y018660D03*
D40*
X014969Y015125D03*
X013323Y013093D03*
X013323Y013085D03*
D41*
X013327Y013101D03*
X013327Y013109D03*
X013327Y013117D03*
X013327Y013125D03*
D42*
X013331Y013133D03*
X013331Y013141D03*
X013331Y013148D03*
X013331Y013156D03*
X014221Y014542D03*
X014985Y017353D03*
X015016Y018707D03*
X012662Y018668D03*
D43*
X013367Y013456D03*
X013367Y013448D03*
X013367Y013440D03*
X013359Y013369D03*
X013359Y013361D03*
X013359Y013353D03*
X013359Y013345D03*
X013351Y013290D03*
X013351Y013282D03*
X013351Y013274D03*
X013343Y013235D03*
X013343Y013227D03*
X013343Y013219D03*
X013343Y013211D03*
X013343Y013204D03*
X013335Y013196D03*
X013335Y013188D03*
X013335Y013180D03*
X013335Y013172D03*
X013335Y013164D03*
D44*
X013347Y013243D03*
X013347Y013251D03*
X013347Y013259D03*
X013347Y013267D03*
X013355Y013298D03*
X013355Y013306D03*
X013355Y013314D03*
X013355Y013322D03*
X013355Y013330D03*
X013355Y013337D03*
X013363Y013377D03*
X013363Y013385D03*
X013363Y013393D03*
X013363Y013400D03*
X013363Y013408D03*
X013363Y013416D03*
X013363Y013424D03*
X013363Y013432D03*
X013371Y013463D03*
X013371Y013471D03*
X013371Y013479D03*
X013371Y013487D03*
X013371Y013495D03*
X013371Y013503D03*
X013371Y013511D03*
D45*
X013375Y013519D03*
X013375Y013526D03*
X013375Y013534D03*
X014225Y014534D03*
X012658Y018676D03*
D46*
X013378Y013566D03*
X013378Y013558D03*
X013378Y013550D03*
X013378Y013542D03*
D47*
X012619Y013644D03*
X012619Y013652D03*
X012619Y013660D03*
X012619Y013668D03*
X014241Y013566D03*
X014241Y013558D03*
X014241Y013550D03*
X014390Y013991D03*
X014398Y014007D03*
X014406Y014022D03*
X014414Y014030D03*
X014414Y014038D03*
X014422Y014054D03*
X014430Y014070D03*
X014438Y014085D03*
X014445Y014101D03*
X014453Y014125D03*
X014461Y014141D03*
X014469Y014156D03*
X014469Y014164D03*
X014477Y014180D03*
X014485Y014196D03*
X014485Y014204D03*
X014493Y014219D03*
X014501Y014235D03*
X014501Y014243D03*
X014217Y014558D03*
D48*
X014965Y015133D03*
X013382Y013589D03*
X013382Y013581D03*
X013382Y013574D03*
D49*
X013386Y013597D03*
X013386Y013605D03*
X013386Y013613D03*
X012654Y018684D03*
X015016Y018715D03*
D50*
X014981Y017345D03*
X013390Y013637D03*
X013390Y013629D03*
X013390Y013621D03*
D51*
X013394Y013644D03*
X013394Y013652D03*
X013394Y013660D03*
X013394Y013668D03*
D52*
X013398Y013676D03*
X012650Y018692D03*
D53*
X015016Y018723D03*
X014969Y015141D03*
X013394Y013684D03*
D54*
X013390Y013692D03*
X012650Y018700D03*
D55*
X012993Y013692D03*
D56*
X013335Y013700D03*
X015036Y018755D03*
D57*
X014977Y017314D03*
X013331Y013707D03*
D58*
X013323Y013715D03*
D59*
X013040Y013723D03*
X014835Y016999D03*
D60*
X014831Y016983D03*
X014981Y015345D03*
X013052Y013731D03*
D61*
X013067Y013739D03*
D62*
X013071Y013747D03*
X014827Y016936D03*
X013788Y018652D03*
X013780Y018668D03*
X013772Y018684D03*
X013772Y018692D03*
X013764Y018707D03*
D63*
X013804Y018613D03*
X013812Y018597D03*
X013812Y018589D03*
X013819Y018581D03*
X014969Y015393D03*
X013079Y013755D03*
D64*
X013083Y013763D03*
X014823Y016912D03*
X014823Y016920D03*
X013831Y018558D03*
X013823Y018574D03*
D65*
X013827Y018566D03*
X013835Y018550D03*
X013087Y013770D03*
D66*
X013087Y013778D03*
X014961Y015408D03*
X014819Y016896D03*
X013851Y018519D03*
X013851Y018526D03*
D67*
X013855Y018511D03*
X013091Y013794D03*
X013091Y013786D03*
D68*
X013095Y013802D03*
X013095Y013810D03*
X014961Y015416D03*
X014819Y016881D03*
X014819Y016889D03*
X013867Y018495D03*
X013859Y018503D03*
D69*
X013875Y018479D03*
X014819Y016873D03*
X014953Y015432D03*
X013095Y013826D03*
X013095Y013818D03*
D70*
X013099Y013833D03*
X013099Y013841D03*
X014815Y016865D03*
X013878Y018471D03*
D71*
X013875Y018463D03*
X014819Y016857D03*
X014953Y015448D03*
X014953Y015440D03*
X013095Y013881D03*
X013095Y013873D03*
X013095Y013865D03*
X013095Y013857D03*
X013095Y013849D03*
D72*
X013095Y013889D03*
X013095Y013896D03*
X013095Y013904D03*
X013095Y013912D03*
X013095Y013920D03*
X014953Y015456D03*
X014819Y016841D03*
X013875Y018456D03*
D73*
X014815Y016833D03*
X014949Y015463D03*
X013091Y013959D03*
X013091Y013952D03*
X013091Y013944D03*
X013091Y013936D03*
X013091Y013928D03*
D74*
X013087Y013967D03*
X013087Y013975D03*
X012914Y014652D03*
X012906Y014660D03*
X012867Y014692D03*
X014945Y015471D03*
X013875Y018448D03*
D75*
X013878Y018440D03*
X014815Y016826D03*
X014815Y016818D03*
X012926Y014644D03*
X012934Y014637D03*
X012894Y014668D03*
X012886Y014676D03*
X012878Y014684D03*
X012855Y014700D03*
X012847Y014707D03*
X013091Y013999D03*
X013091Y013991D03*
X013091Y013983D03*
D76*
X013087Y014007D03*
X013087Y014015D03*
X013087Y014022D03*
X012945Y014621D03*
X012938Y014629D03*
X012835Y014715D03*
X012827Y014723D03*
X012819Y014731D03*
X014945Y015479D03*
D77*
X014941Y015487D03*
X014815Y016802D03*
X014815Y016810D03*
X013878Y018432D03*
X012800Y014747D03*
X012808Y014739D03*
X012957Y014613D03*
X012965Y014605D03*
X013091Y014038D03*
X013091Y014030D03*
D78*
X013087Y014046D03*
X013087Y014054D03*
X012969Y014597D03*
X012788Y014755D03*
X012780Y014763D03*
X013875Y018424D03*
D79*
X014815Y016794D03*
X014941Y015495D03*
X012989Y014581D03*
X012981Y014589D03*
X012768Y014770D03*
X012760Y014778D03*
X012745Y014786D03*
X012737Y014794D03*
X012729Y014802D03*
X013091Y014078D03*
X013091Y014070D03*
X013091Y014062D03*
D80*
X013087Y014085D03*
X012725Y014810D03*
X014938Y015503D03*
X014938Y015511D03*
X014812Y016786D03*
D81*
X014815Y016778D03*
X013871Y018416D03*
X012997Y014574D03*
X013004Y014566D03*
X013091Y014109D03*
X013091Y014101D03*
X013091Y014093D03*
D82*
X013095Y014117D03*
X013008Y014558D03*
X014938Y015519D03*
X014812Y016770D03*
D83*
X014815Y016763D03*
X014934Y015526D03*
X013020Y014550D03*
X012721Y014818D03*
X013091Y014125D03*
X013871Y018408D03*
D84*
X012469Y020117D03*
X014130Y020408D03*
X014075Y014133D03*
D85*
X013095Y014133D03*
X013024Y014542D03*
X012717Y014826D03*
X014930Y015534D03*
X014812Y016755D03*
D86*
X014071Y014141D03*
D87*
X013099Y014141D03*
X013099Y014148D03*
X013036Y014534D03*
X014934Y015542D03*
X014815Y016739D03*
X014815Y016747D03*
X013871Y018400D03*
D88*
X012469Y020070D03*
X012469Y020078D03*
X014067Y014148D03*
D89*
X013186Y014156D03*
X012107Y016078D03*
X012280Y016952D03*
X014823Y016534D03*
X014823Y016526D03*
X013453Y019574D03*
D90*
X013827Y018337D03*
X012111Y016085D03*
X012670Y014952D03*
X013189Y014164D03*
X014898Y015739D03*
X014898Y015747D03*
D91*
X014898Y015770D03*
X014827Y016495D03*
X012662Y014967D03*
X013189Y014172D03*
X012119Y016093D03*
X012284Y016928D03*
X012284Y016936D03*
X013449Y019589D03*
D92*
X013453Y019597D03*
X014823Y016487D03*
X014823Y016479D03*
X014894Y015786D03*
X014894Y015778D03*
X013193Y014180D03*
X012249Y015613D03*
D93*
X012127Y016101D03*
X012284Y016920D03*
X012654Y014975D03*
X013197Y014196D03*
X013197Y014188D03*
X014890Y015794D03*
X014890Y015802D03*
X014827Y016463D03*
X014827Y016471D03*
X013449Y019605D03*
D94*
X013815Y018330D03*
X012288Y016912D03*
X012288Y016904D03*
X012256Y015605D03*
X012650Y014983D03*
X013201Y014211D03*
X013201Y014204D03*
X014886Y015810D03*
X014886Y015818D03*
X014831Y016456D03*
D95*
X014831Y016432D03*
X014831Y016424D03*
X014831Y016416D03*
X014886Y015849D03*
X014886Y015841D03*
X014886Y015833D03*
X013201Y014235D03*
X013201Y014227D03*
X013201Y014219D03*
X012642Y014999D03*
X012138Y016117D03*
X012288Y016889D03*
X012288Y016896D03*
D96*
X012292Y016881D03*
X012142Y016125D03*
X012268Y015597D03*
X012638Y015015D03*
X012638Y015007D03*
X013205Y014259D03*
X013205Y014251D03*
X013205Y014243D03*
X014882Y015857D03*
X014882Y015865D03*
X014882Y015873D03*
X014835Y016400D03*
X014835Y016408D03*
X013449Y019621D03*
D97*
X013445Y019629D03*
X014831Y016393D03*
X014831Y016385D03*
X012634Y015022D03*
X013209Y014267D03*
X012146Y016133D03*
D98*
X012284Y015589D03*
X012630Y015030D03*
X013205Y014282D03*
X013205Y014274D03*
X014882Y015881D03*
X014882Y015889D03*
X014835Y016361D03*
X014835Y016369D03*
X014835Y016377D03*
X013796Y018322D03*
X012292Y016873D03*
X012292Y016865D03*
D99*
X012296Y016857D03*
X012154Y016141D03*
X012627Y015038D03*
X013209Y014298D03*
X013209Y014290D03*
X014878Y015896D03*
X014878Y015904D03*
X014878Y015912D03*
X014878Y015920D03*
X014839Y016337D03*
X014839Y016345D03*
X014839Y016353D03*
X013445Y019637D03*
X013445Y019644D03*
D100*
X012292Y016849D03*
X012158Y016148D03*
X012292Y015581D03*
X012300Y015574D03*
X012623Y015046D03*
X013213Y014306D03*
X014875Y015928D03*
X014875Y015936D03*
X014875Y015944D03*
X014875Y015952D03*
X014835Y016330D03*
D101*
X013481Y014322D03*
X013481Y014314D03*
D102*
X013477Y014330D03*
X013477Y014337D03*
X013469Y014345D03*
X013469Y014353D03*
X013556Y018282D03*
D103*
X014087Y019196D03*
X013465Y014361D03*
D104*
X013461Y014369D03*
D105*
X013457Y014377D03*
X013457Y014385D03*
D106*
X013453Y014393D03*
X014091Y019204D03*
D107*
X013441Y014416D03*
X013449Y014400D03*
D108*
X013445Y014408D03*
X013438Y014424D03*
D109*
X013434Y014432D03*
X014095Y019211D03*
D110*
X013579Y018290D03*
X013430Y014440D03*
D111*
X013426Y014448D03*
X014095Y019219D03*
D112*
X013414Y014463D03*
X013422Y014456D03*
D113*
X013410Y014471D03*
D114*
X013402Y014479D03*
D115*
X013398Y014487D03*
X014099Y019235D03*
D116*
X013386Y014503D03*
X013394Y014495D03*
D117*
X013378Y014511D03*
D118*
X013375Y014519D03*
X013256Y018196D03*
X013288Y018841D03*
X014091Y019251D03*
D119*
X014087Y019259D03*
X013292Y018833D03*
X013363Y014526D03*
D120*
X014205Y014605D03*
X014835Y017991D03*
X014827Y017999D03*
X014410Y019889D03*
X012560Y019763D03*
D121*
X012508Y019841D03*
X012508Y019849D03*
X014319Y020330D03*
X014422Y020243D03*
X014430Y020235D03*
X014485Y020030D03*
X014485Y020022D03*
X014485Y020015D03*
X014477Y020007D03*
X014477Y019999D03*
X014973Y017385D03*
X013540Y017377D03*
X014209Y014613D03*
D122*
X014205Y014621D03*
X012717Y018534D03*
X014898Y019377D03*
X014237Y020377D03*
D123*
X012473Y020125D03*
X014205Y014629D03*
D124*
X014930Y015550D03*
X012717Y014833D03*
D125*
X012709Y014841D03*
X014930Y015558D03*
X014812Y016715D03*
D126*
X014812Y016700D03*
X012709Y014849D03*
X013630Y019369D03*
X013607Y019385D03*
X013583Y019400D03*
X013575Y019408D03*
D127*
X013564Y019416D03*
X013658Y019353D03*
X014815Y016692D03*
X014926Y015581D03*
X012705Y014857D03*
D128*
X012705Y014865D03*
X012249Y017022D03*
X012249Y017030D03*
X012256Y017046D03*
X012256Y017054D03*
X012264Y017062D03*
X012264Y017070D03*
X012272Y017078D03*
X012272Y017085D03*
X012280Y017101D03*
X012288Y017117D03*
X012288Y017125D03*
X012296Y017141D03*
X012304Y017156D03*
X013524Y019448D03*
X013516Y019456D03*
X013508Y019463D03*
X014815Y016676D03*
X014815Y016668D03*
X014918Y015605D03*
X014918Y015597D03*
D129*
X012701Y014873D03*
X012252Y017015D03*
X012276Y017093D03*
X012284Y017109D03*
X012292Y017133D03*
X012300Y017148D03*
X012308Y017164D03*
X012308Y017172D03*
X012315Y017180D03*
X012315Y017188D03*
X012323Y017196D03*
X013497Y019471D03*
X013489Y019479D03*
D130*
X013481Y019495D03*
X012394Y017337D03*
X012386Y017322D03*
X012378Y017306D03*
X012371Y017298D03*
X012371Y017290D03*
X012363Y017274D03*
X012127Y015794D03*
X012127Y015786D03*
X012134Y015770D03*
X012134Y015763D03*
X012134Y015755D03*
X012142Y015747D03*
X012142Y015739D03*
X012142Y015731D03*
X012150Y015715D03*
X012150Y015707D03*
X012158Y015684D03*
X012693Y014881D03*
X014914Y015629D03*
X014812Y016644D03*
D131*
X014914Y015644D03*
X014914Y015637D03*
X012693Y014889D03*
X012111Y015857D03*
X012103Y015889D03*
X012103Y015896D03*
X012103Y015904D03*
X012095Y015920D03*
X012095Y015928D03*
X012095Y015936D03*
X012095Y015944D03*
X012087Y015959D03*
X012087Y015967D03*
X012087Y015975D03*
X012087Y015983D03*
X012087Y015991D03*
X012079Y016022D03*
X012079Y016030D03*
X012079Y016038D03*
X012260Y016999D03*
X012418Y017377D03*
X012434Y017400D03*
X013851Y018361D03*
X013473Y019511D03*
D132*
X013469Y019519D03*
X014815Y016621D03*
X014815Y016613D03*
X014910Y015660D03*
X014910Y015652D03*
X012689Y014896D03*
X012091Y015952D03*
X012083Y015999D03*
X012083Y016007D03*
X012083Y016015D03*
X012075Y016046D03*
X012075Y016054D03*
D133*
X012268Y016991D03*
X013843Y018353D03*
X013465Y019526D03*
X013465Y019534D03*
X014819Y016605D03*
X012686Y014904D03*
D134*
X012686Y014912D03*
X012268Y016983D03*
X014819Y016589D03*
X014819Y016581D03*
X014906Y015684D03*
X014906Y015676D03*
D135*
X014902Y015692D03*
X014815Y016574D03*
X012682Y014920D03*
X012272Y016975D03*
X013461Y019550D03*
D136*
X013457Y019558D03*
X013835Y018345D03*
X012276Y016967D03*
X012095Y016070D03*
X012678Y014928D03*
X014906Y015700D03*
X014819Y016558D03*
X014819Y016566D03*
D137*
X014902Y015715D03*
X014902Y015707D03*
X012674Y014936D03*
D138*
X012670Y014944D03*
X012221Y015621D03*
X012276Y016959D03*
X014819Y016550D03*
X014819Y016542D03*
X014898Y015731D03*
X014898Y015723D03*
X013457Y019566D03*
D139*
X013453Y019581D03*
X012280Y016944D03*
X012666Y014959D03*
X014894Y015755D03*
X014894Y015763D03*
X014823Y016503D03*
X014823Y016511D03*
X014823Y016519D03*
D140*
X014827Y016448D03*
X014827Y016440D03*
X014890Y015826D03*
X012646Y014991D03*
X012134Y016109D03*
X013449Y019613D03*
D141*
X013445Y019652D03*
X012296Y016841D03*
X012296Y016833D03*
X012162Y016156D03*
X012619Y015054D03*
X014871Y015959D03*
X014871Y015967D03*
X014871Y015975D03*
X014871Y015983D03*
X014839Y016298D03*
X014839Y016306D03*
X014839Y016314D03*
X014839Y016322D03*
D142*
X014843Y016290D03*
X014843Y016282D03*
X014843Y016274D03*
X014843Y016267D03*
X014843Y016259D03*
X014867Y016022D03*
X014867Y016015D03*
X014867Y016007D03*
X014867Y015999D03*
X014867Y015991D03*
X012615Y015062D03*
X012308Y015566D03*
X012166Y016164D03*
X012292Y016826D03*
D143*
X012296Y016818D03*
X012296Y016810D03*
X012170Y016172D03*
X012319Y015558D03*
X012611Y015070D03*
X014863Y016030D03*
X014863Y016038D03*
X014863Y016046D03*
X014863Y016054D03*
X014863Y016062D03*
X014863Y016070D03*
X014863Y016078D03*
X014847Y016219D03*
X014847Y016227D03*
X014847Y016235D03*
X014847Y016243D03*
X014847Y016251D03*
D144*
X014851Y016211D03*
X014851Y016204D03*
X014851Y016196D03*
X014851Y016188D03*
X014851Y016180D03*
X014851Y016172D03*
X014851Y016164D03*
X014851Y016156D03*
X014851Y016148D03*
X014859Y016141D03*
X014859Y016133D03*
X014859Y016125D03*
X014859Y016117D03*
X014859Y016109D03*
X014859Y016101D03*
X014859Y016093D03*
X014859Y016085D03*
X012607Y015085D03*
X012607Y015078D03*
X012323Y015550D03*
X012174Y016180D03*
D145*
X012717Y018526D03*
X012473Y019991D03*
X014977Y015085D03*
D146*
X014973Y015093D03*
X012705Y018566D03*
X012532Y019802D03*
X014445Y019928D03*
X014445Y019936D03*
X014453Y019944D03*
D147*
X013776Y018314D03*
X012296Y016802D03*
X012296Y016794D03*
X012296Y016786D03*
X012178Y016188D03*
X012603Y015093D03*
D148*
X012599Y015101D03*
X012339Y015534D03*
X012331Y015542D03*
X012182Y016196D03*
X012292Y016778D03*
D149*
X012296Y016770D03*
X012296Y016763D03*
X012296Y016755D03*
X012186Y016211D03*
X012186Y016204D03*
X012587Y015125D03*
X012595Y015109D03*
D150*
X012591Y015117D03*
X012583Y015133D03*
X012355Y015519D03*
X012347Y015526D03*
X012189Y016219D03*
D151*
X012193Y016227D03*
X012193Y016235D03*
X012296Y016731D03*
X012296Y016739D03*
X012296Y016747D03*
X012359Y015511D03*
X012367Y015503D03*
X012579Y015141D03*
D152*
X014969Y015148D03*
D153*
X012575Y015148D03*
X012567Y015156D03*
X012567Y015164D03*
X012378Y015487D03*
X012371Y015495D03*
X012197Y016243D03*
X012292Y016715D03*
X012292Y016723D03*
D154*
X014969Y015156D03*
X015032Y018747D03*
D155*
X014969Y015164D03*
D156*
X014969Y015172D03*
D157*
X012564Y015172D03*
X012556Y015188D03*
X012382Y015479D03*
X012201Y016251D03*
X012201Y016259D03*
X012296Y016707D03*
D158*
X014969Y015180D03*
D159*
X012560Y015180D03*
X012552Y015196D03*
X012205Y016267D03*
X012292Y016684D03*
X012292Y016692D03*
X012292Y016700D03*
D160*
X014973Y015188D03*
X015036Y018794D03*
D161*
X014973Y015196D03*
D162*
X014973Y015204D03*
X014926Y017251D03*
X015028Y018818D03*
D163*
X012288Y016676D03*
X012288Y016668D03*
X012288Y016660D03*
X012217Y016298D03*
X012209Y016282D03*
X012209Y016274D03*
X012390Y015471D03*
X012398Y015463D03*
X012398Y015456D03*
X012406Y015448D03*
X012540Y015219D03*
X012540Y015211D03*
X012548Y015204D03*
D164*
X014973Y015211D03*
X014918Y017235D03*
D165*
X014910Y017219D03*
X014973Y015219D03*
D166*
X014973Y015227D03*
X014902Y017204D03*
D167*
X012418Y015432D03*
X012410Y015440D03*
X012528Y015243D03*
X012528Y015235D03*
X012536Y015227D03*
X012213Y016290D03*
X012221Y016306D03*
X012221Y016314D03*
D168*
X014894Y017188D03*
X014973Y015235D03*
D169*
X014977Y015243D03*
X014890Y017180D03*
D170*
X014977Y015251D03*
D171*
X012524Y015251D03*
X012516Y015259D03*
X012516Y015267D03*
X012508Y015274D03*
X012508Y015282D03*
X012501Y015290D03*
X012493Y015306D03*
X012485Y015322D03*
X012461Y015361D03*
X012453Y015377D03*
X012445Y015393D03*
X012438Y015400D03*
X012430Y015408D03*
X012430Y015416D03*
X012422Y015424D03*
X012225Y016322D03*
X012225Y016330D03*
X012288Y016629D03*
X012288Y016637D03*
X012288Y016644D03*
X012288Y016652D03*
D172*
X014878Y017148D03*
X014973Y015259D03*
D173*
X014977Y015267D03*
X013914Y019770D03*
D174*
X013875Y019739D03*
X014867Y017117D03*
X014977Y015274D03*
D175*
X014981Y015282D03*
X014863Y017101D03*
X013847Y019715D03*
D176*
X013827Y019700D03*
X014859Y017085D03*
X014977Y015290D03*
D177*
X014981Y015298D03*
X014855Y017070D03*
D178*
X012284Y016621D03*
X012284Y016613D03*
X012284Y016605D03*
X012284Y016597D03*
X012237Y016369D03*
X012237Y016361D03*
X012229Y016353D03*
X012229Y016345D03*
X012229Y016337D03*
X012449Y015385D03*
X012457Y015369D03*
X012465Y015353D03*
X012473Y015345D03*
X012473Y015337D03*
X012481Y015330D03*
X012489Y015314D03*
X012497Y015298D03*
D179*
X014981Y015306D03*
D180*
X014981Y015314D03*
X014847Y017038D03*
X013768Y019668D03*
D181*
X014843Y017022D03*
X014985Y015322D03*
D182*
X014985Y015330D03*
D183*
X014985Y015337D03*
D184*
X014981Y015353D03*
X014831Y016967D03*
D185*
X014827Y016959D03*
X014977Y015361D03*
D186*
X014977Y015369D03*
X014827Y016952D03*
D187*
X014823Y016944D03*
X014973Y015377D03*
D188*
X014973Y015385D03*
X014823Y016928D03*
X013808Y018605D03*
X013800Y018621D03*
X013800Y018629D03*
X013792Y018637D03*
X013792Y018644D03*
X013784Y018660D03*
X013776Y018676D03*
X013768Y018700D03*
D189*
X013839Y018542D03*
X013847Y018534D03*
X014823Y016904D03*
X014965Y015400D03*
D190*
X014957Y015424D03*
X013871Y018487D03*
D191*
X013863Y018385D03*
X013642Y019361D03*
X013619Y019377D03*
X013595Y019393D03*
X014815Y016707D03*
X014926Y015574D03*
X014926Y015566D03*
D192*
X014922Y015589D03*
X014812Y016684D03*
X013859Y018377D03*
X013678Y019345D03*
X013552Y019424D03*
X013544Y019432D03*
X013536Y019440D03*
X012252Y017038D03*
D193*
X012327Y017204D03*
X012327Y017211D03*
X012335Y017219D03*
X012335Y017227D03*
X012343Y017235D03*
X012343Y017243D03*
X012351Y017251D03*
X012351Y017259D03*
X012359Y017267D03*
X012367Y017282D03*
X012146Y015723D03*
X012154Y015700D03*
X012154Y015692D03*
X012162Y015676D03*
X012162Y015668D03*
X012162Y015660D03*
X012170Y015652D03*
X012170Y015644D03*
X012170Y015637D03*
X012178Y015629D03*
X014918Y015621D03*
X014918Y015613D03*
X014815Y016652D03*
X014815Y016660D03*
X013855Y018369D03*
X013485Y019487D03*
D194*
X013461Y019542D03*
X014815Y016597D03*
X014910Y015668D03*
X012083Y016062D03*
D195*
X012099Y015912D03*
X012107Y015881D03*
X012107Y015873D03*
X012107Y015865D03*
X012115Y015849D03*
X012115Y015841D03*
X012115Y015833D03*
X012115Y015826D03*
X012123Y015818D03*
X012123Y015810D03*
X012123Y015802D03*
X012130Y015778D03*
X012256Y017007D03*
X012382Y017314D03*
X012390Y017330D03*
X012398Y017345D03*
X012406Y017353D03*
X012406Y017361D03*
X012414Y017369D03*
X012422Y017385D03*
X012430Y017393D03*
X013477Y019503D03*
X014815Y016637D03*
X014815Y016629D03*
D196*
X012280Y016589D03*
X012280Y016581D03*
X012280Y016574D03*
X012280Y016566D03*
X012272Y016550D03*
X012272Y016542D03*
X012272Y016534D03*
X012249Y016416D03*
X012241Y016393D03*
X012241Y016385D03*
X012241Y016377D03*
D197*
X012245Y016400D03*
X012245Y016408D03*
X012252Y016424D03*
X012252Y016432D03*
X012252Y016440D03*
X012252Y016448D03*
X012260Y016456D03*
X012260Y016463D03*
X012260Y016471D03*
X012260Y016479D03*
X012260Y016487D03*
X012268Y016495D03*
X012268Y016503D03*
X012268Y016511D03*
X012268Y016519D03*
X012268Y016526D03*
X012276Y016558D03*
D198*
X013871Y018393D03*
X014815Y016731D03*
X014815Y016723D03*
D199*
X014815Y016849D03*
D200*
X014827Y016975D03*
D201*
X014831Y016991D03*
X013737Y019660D03*
D202*
X014839Y017007D03*
D203*
X014839Y017015D03*
D204*
X014843Y017030D03*
D205*
X014847Y017046D03*
X014847Y017054D03*
D206*
X014851Y017062D03*
X013804Y019684D03*
D207*
X014855Y017078D03*
D208*
X014859Y017093D03*
X013835Y019707D03*
D209*
X013863Y019731D03*
X014863Y017109D03*
D210*
X014867Y017125D03*
D211*
X014871Y017133D03*
X013894Y019755D03*
X013902Y019763D03*
D212*
X013930Y019786D03*
X014875Y017141D03*
D213*
X014878Y017156D03*
X013957Y019810D03*
D214*
X013965Y019818D03*
X013973Y019826D03*
X014886Y017164D03*
D215*
X014886Y017172D03*
X013981Y019833D03*
D216*
X014898Y017196D03*
D217*
X014906Y017211D03*
D218*
X014914Y017227D03*
X015008Y018841D03*
D219*
X015020Y018826D03*
X014926Y017243D03*
D220*
X014934Y017259D03*
D221*
X014938Y017267D03*
X015032Y018802D03*
D222*
X014945Y017274D03*
D223*
X014949Y017282D03*
X015036Y018786D03*
D224*
X015036Y018778D03*
X014957Y017290D03*
D225*
X014961Y017298D03*
D226*
X014973Y017306D03*
D227*
X014989Y017322D03*
D228*
X014989Y017330D03*
X015028Y018739D03*
D229*
X015024Y018731D03*
X014985Y017337D03*
X012646Y018707D03*
D230*
X012721Y018519D03*
X013532Y017361D03*
X012469Y020046D03*
X012469Y020054D03*
D231*
X012481Y019928D03*
X012481Y019920D03*
X014930Y017928D03*
X013536Y017369D03*
D232*
X013540Y017385D03*
X014855Y017975D03*
X014438Y019920D03*
X012548Y019778D03*
D233*
X014977Y017393D03*
D234*
X014812Y018015D03*
X013544Y017393D03*
X012701Y018581D03*
X012575Y019747D03*
D235*
X012997Y018015D03*
X012997Y018007D03*
X012642Y017408D03*
D236*
X012654Y017416D03*
X012662Y017424D03*
X012993Y017975D03*
X012993Y017983D03*
X013079Y018109D03*
X013394Y018715D03*
D237*
X013378Y018731D03*
X013095Y018117D03*
X012985Y017952D03*
X012985Y017944D03*
X012985Y017936D03*
X012670Y017432D03*
D238*
X012682Y017440D03*
X012981Y017928D03*
X013107Y018125D03*
D239*
X013119Y018133D03*
X012985Y017920D03*
X012977Y017904D03*
X012693Y017448D03*
X013371Y018739D03*
D240*
X013359Y018747D03*
X012981Y017912D03*
X012973Y017896D03*
X012973Y017889D03*
X012973Y017881D03*
X012697Y017456D03*
D241*
X012709Y017463D03*
X012969Y017865D03*
X012969Y017873D03*
X013134Y018141D03*
X013355Y018755D03*
D242*
X013343Y018763D03*
X013154Y018148D03*
X012965Y017857D03*
X012965Y017849D03*
X012721Y017479D03*
X012713Y017471D03*
D243*
X012729Y017487D03*
X012737Y017495D03*
X012745Y017503D03*
X012941Y017794D03*
X012941Y017802D03*
X012949Y017810D03*
X012949Y017818D03*
X013327Y018778D03*
D244*
X013323Y018786D03*
X013315Y018794D03*
X013182Y018164D03*
X012938Y017786D03*
X012930Y017770D03*
X012756Y017519D03*
X012749Y017511D03*
D245*
X012760Y017526D03*
X012768Y017534D03*
X012776Y017542D03*
X012918Y017747D03*
X012918Y017755D03*
X012926Y017763D03*
X012934Y017778D03*
X013201Y018172D03*
D246*
X012914Y017739D03*
X012906Y017731D03*
X012906Y017723D03*
X012898Y017715D03*
X012890Y017700D03*
X012796Y017566D03*
X012788Y017558D03*
X012780Y017550D03*
X013308Y018802D03*
X013969Y019337D03*
X013985Y019330D03*
D247*
X013997Y019322D03*
X014012Y019314D03*
X013304Y018810D03*
X013217Y018180D03*
X012894Y017707D03*
X012886Y017692D03*
X012878Y017684D03*
X012871Y017668D03*
X012863Y017660D03*
X012855Y017644D03*
X012839Y017621D03*
X012831Y017613D03*
X012823Y017605D03*
X012815Y017589D03*
X012808Y017581D03*
X012800Y017574D03*
D248*
X012819Y017597D03*
X012843Y017629D03*
X012851Y017637D03*
X012859Y017652D03*
X012875Y017676D03*
X013300Y018818D03*
X014024Y019306D03*
X014032Y019298D03*
X014048Y019290D03*
X014056Y019282D03*
D249*
X013339Y018770D03*
X013166Y018156D03*
X012961Y017841D03*
X012953Y017833D03*
X012953Y017826D03*
D250*
X014977Y017912D03*
X012473Y020038D03*
D251*
X012473Y019975D03*
X012473Y019967D03*
X014221Y020385D03*
X014953Y017920D03*
D252*
X014914Y017936D03*
X014497Y020093D03*
X014489Y020133D03*
X014473Y020172D03*
X014473Y020180D03*
X014465Y020188D03*
X014284Y020353D03*
X012497Y019881D03*
X012497Y019873D03*
D253*
X012501Y019865D03*
X012713Y018550D03*
X014493Y020062D03*
X014493Y020070D03*
X014493Y020078D03*
X014493Y020085D03*
X014461Y020196D03*
X014453Y020204D03*
X014296Y020345D03*
X014981Y018652D03*
X014902Y017944D03*
D254*
X014890Y017952D03*
X014473Y019983D03*
X014473Y019991D03*
X014410Y020251D03*
X014402Y020259D03*
X014394Y020267D03*
X014386Y020274D03*
X014378Y020282D03*
X014371Y020290D03*
X014363Y020298D03*
X014355Y020306D03*
X014339Y020314D03*
X014331Y020322D03*
X012512Y019833D03*
X012709Y018558D03*
D255*
X012528Y019810D03*
X013646Y019873D03*
X014457Y019952D03*
X014465Y019967D03*
X014875Y017959D03*
D256*
X013382Y018723D03*
X012989Y017967D03*
X012989Y017959D03*
D257*
X014867Y017967D03*
X012544Y019786D03*
X012536Y019794D03*
D258*
X012701Y018574D03*
X014426Y019904D03*
X014434Y019912D03*
X014985Y018660D03*
X014843Y017983D03*
D259*
X013056Y018093D03*
X012993Y017999D03*
X012993Y017991D03*
D260*
X014823Y018007D03*
X014406Y019881D03*
X013650Y019865D03*
X012571Y019755D03*
D261*
X012579Y019739D03*
X014886Y019361D03*
X014808Y018022D03*
D262*
X012997Y018022D03*
X012997Y018030D03*
D263*
X012701Y018589D03*
X012591Y019731D03*
X014394Y019873D03*
X014788Y018038D03*
X014796Y018030D03*
D264*
X013032Y018078D03*
X013001Y018038D03*
D265*
X013001Y018046D03*
X013001Y018054D03*
X013008Y018062D03*
D266*
X013020Y018070D03*
D267*
X013040Y018085D03*
D268*
X013067Y018101D03*
D269*
X013241Y018188D03*
X013296Y018826D03*
X014067Y019274D03*
X014075Y019267D03*
D270*
X014091Y019243D03*
X013611Y018298D03*
X013280Y018204D03*
D271*
X013485Y018211D03*
D272*
X013489Y018219D03*
X014024Y019141D03*
D273*
X013493Y018227D03*
D274*
X013497Y018235D03*
D275*
X013508Y018243D03*
D276*
X013512Y018251D03*
D277*
X013520Y018259D03*
D278*
X013536Y018267D03*
X014071Y019172D03*
D279*
X014079Y019180D03*
X013544Y018274D03*
D280*
X013729Y018306D03*
D281*
X012729Y018511D03*
X012469Y020109D03*
D282*
X012485Y019912D03*
X012485Y019904D03*
X012713Y018542D03*
X014256Y020369D03*
D283*
X012465Y020015D03*
X014977Y018644D03*
D284*
X015036Y018763D03*
D285*
X015036Y018770D03*
D286*
X015032Y018810D03*
D287*
X015016Y018833D03*
D288*
X013815Y018849D03*
X013808Y018967D03*
D289*
X013804Y018959D03*
X013812Y018857D03*
D290*
X013808Y018865D03*
X013808Y018952D03*
D291*
X013804Y018944D03*
X013804Y018936D03*
X013812Y018873D03*
D292*
X013808Y018881D03*
X013808Y018889D03*
X013800Y018928D03*
D293*
X013804Y018920D03*
X013804Y018912D03*
X013804Y018904D03*
X013804Y018896D03*
D294*
X013812Y018975D03*
D295*
X013812Y018983D03*
D296*
X013815Y018991D03*
D297*
X013815Y018999D03*
D298*
X013815Y019007D03*
D299*
X013819Y019015D03*
D300*
X013823Y019022D03*
D301*
X013823Y019030D03*
D302*
X013831Y019038D03*
D303*
X013835Y019046D03*
D304*
X013839Y019054D03*
D305*
X013843Y019062D03*
D306*
X013851Y019070D03*
D307*
X013863Y019078D03*
D308*
X013875Y019085D03*
D309*
X013882Y019093D03*
D310*
X013902Y019101D03*
D311*
X013918Y019109D03*
D312*
X013945Y019117D03*
D313*
X013973Y019125D03*
D314*
X013997Y019133D03*
D315*
X014036Y019148D03*
D316*
X014052Y019156D03*
D317*
X014060Y019164D03*
D318*
X014083Y019188D03*
D319*
X014099Y019227D03*
D320*
X014461Y019959D03*
X014469Y019975D03*
X014894Y019369D03*
X012524Y019818D03*
X012516Y019826D03*
D321*
X013788Y019676D03*
D322*
X013812Y019692D03*
D323*
X013859Y019723D03*
D324*
X013886Y019747D03*
D325*
X014422Y019896D03*
X012556Y019770D03*
D326*
X013918Y019778D03*
D327*
X013938Y019794D03*
X013945Y019802D03*
D328*
X014434Y020227D03*
X014441Y020219D03*
X014449Y020211D03*
X014489Y020054D03*
X014489Y020046D03*
X014489Y020038D03*
X014308Y020337D03*
X012504Y019857D03*
D329*
X012489Y019896D03*
X013646Y019881D03*
X014268Y020361D03*
D330*
X013642Y019889D03*
X012469Y019999D03*
X012469Y020007D03*
D331*
X012493Y019889D03*
X014477Y020164D03*
X014485Y020156D03*
X014485Y020148D03*
X014485Y020141D03*
X014493Y020125D03*
X014493Y020117D03*
X014493Y020109D03*
X014493Y020101D03*
D332*
X012477Y019944D03*
X012477Y019936D03*
D333*
X012477Y019952D03*
X012477Y019959D03*
D334*
X012469Y019983D03*
D335*
X012469Y020022D03*
X012469Y020030D03*
X014193Y020393D03*
D336*
X012473Y020062D03*
D337*
X012469Y020085D03*
X012469Y020093D03*
X014162Y020400D03*
D338*
X012469Y020101D03*
D339*
X012469Y020133D03*
D340*
X011755Y012168D03*
X007267Y011640D03*
X017955Y010800D03*
X023635Y011776D03*
D341*
X022719Y011736D03*
X022719Y011392D03*
X021639Y011704D03*
X021639Y011712D03*
X021119Y011744D03*
X021119Y011752D03*
X020679Y011736D03*
X020679Y011392D03*
X020063Y011408D03*
X020063Y011416D03*
X020063Y011712D03*
X019639Y012144D03*
X019639Y012272D03*
X018263Y011720D03*
X018279Y011064D03*
X017959Y010808D03*
X017663Y011048D03*
X016759Y012136D03*
X016759Y012144D03*
X016759Y012272D03*
X014919Y011736D03*
X014919Y011384D03*
X014319Y011720D03*
X013383Y011360D03*
X012959Y011736D03*
X012959Y011744D03*
X012959Y011752D03*
X011959Y012160D03*
X011519Y012144D03*
X011519Y012136D03*
X011519Y012272D03*
X011079Y011784D03*
X009679Y011736D03*
X009679Y011392D03*
X009063Y011408D03*
X009063Y011416D03*
X009063Y011704D03*
X009063Y011712D03*
X007263Y011848D03*
X007263Y011856D03*
X024879Y011344D03*
X025343Y011360D03*
X025823Y011496D03*
X025823Y011504D03*
X025823Y011920D03*
X026703Y011472D03*
X026719Y011496D03*
X026719Y011504D03*
X026719Y011920D03*
X026719Y011928D03*
D342*
X026603Y012072D03*
X023883Y011664D03*
X023795Y011144D03*
X020099Y011784D03*
X019179Y011792D03*
X017963Y010816D03*
X017667Y011360D03*
X016299Y011792D03*
X014843Y011808D03*
X014627Y011984D03*
X011875Y012288D03*
X011027Y011304D03*
X010795Y011136D03*
X009603Y011312D03*
X009099Y011784D03*
D343*
X009131Y011312D03*
X013619Y011152D03*
X014627Y011152D03*
X015987Y011952D03*
X017699Y011808D03*
X018003Y011960D03*
X018867Y011952D03*
X020131Y011312D03*
X017963Y010824D03*
X022467Y011960D03*
X023731Y011544D03*
X023739Y011552D03*
X023763Y011568D03*
X023771Y011576D03*
X023779Y011584D03*
X023787Y011592D03*
X023795Y011160D03*
X025107Y011152D03*
D344*
X025107Y011168D03*
X023795Y011176D03*
X023779Y011936D03*
X022467Y011944D03*
X017963Y010832D03*
X012867Y011880D03*
D345*
X013619Y011176D03*
X009427Y011192D03*
X017963Y010840D03*
X017995Y011208D03*
X018003Y011936D03*
X020427Y011192D03*
X022459Y011192D03*
X023171Y011816D03*
X023171Y011824D03*
X023171Y011832D03*
X023171Y011840D03*
X023171Y011848D03*
X023171Y011856D03*
X023171Y011864D03*
X023171Y011872D03*
X023171Y011880D03*
X023171Y011888D03*
X023171Y011896D03*
X023171Y011904D03*
X023171Y011912D03*
X023171Y011920D03*
X023171Y011928D03*
X023171Y011936D03*
X023171Y011944D03*
X023171Y011952D03*
X023171Y011960D03*
X023171Y011968D03*
X023171Y011976D03*
X023171Y011984D03*
X022467Y011936D03*
X024371Y011936D03*
X024371Y011944D03*
X024371Y011952D03*
X024371Y011960D03*
X024371Y011968D03*
X024371Y011976D03*
X024371Y011984D03*
X024371Y011928D03*
X024371Y011920D03*
X024371Y011912D03*
X024371Y011904D03*
X024371Y011896D03*
X024371Y011888D03*
X024371Y011880D03*
X024371Y011872D03*
X024371Y011864D03*
X024371Y011856D03*
X024371Y011848D03*
X024371Y011840D03*
X024371Y011832D03*
X024371Y011824D03*
X024371Y011816D03*
X025107Y011176D03*
X026043Y012112D03*
X026499Y012112D03*
D346*
X023771Y011904D03*
X022467Y011920D03*
X021299Y011904D03*
X020427Y011920D03*
X018875Y011904D03*
X017995Y011224D03*
X017963Y010848D03*
X015995Y011904D03*
X014627Y011184D03*
X009427Y011920D03*
D347*
X010803Y011936D03*
X017963Y010856D03*
D348*
X017963Y010864D03*
X018003Y011896D03*
X013619Y011216D03*
X010795Y011192D03*
X023803Y011240D03*
X025107Y011216D03*
D349*
X025107Y011240D03*
X017963Y010872D03*
X014627Y011904D03*
X013619Y011240D03*
X010803Y011912D03*
D350*
X010803Y011904D03*
X013619Y011248D03*
X017963Y010880D03*
D351*
X017963Y010888D03*
X014627Y011888D03*
X013619Y011256D03*
X010795Y011216D03*
X010803Y011896D03*
X025107Y011264D03*
X025107Y011256D03*
D352*
X017967Y010896D03*
D353*
X017963Y010904D03*
X014627Y011864D03*
X013619Y011304D03*
X013619Y011296D03*
X010795Y011240D03*
X010803Y011872D03*
X025107Y011304D03*
X025107Y011296D03*
D354*
X017963Y010912D03*
X010803Y011864D03*
D355*
X010803Y011856D03*
X010795Y011256D03*
X014627Y011848D03*
X017963Y010920D03*
D356*
X017963Y010928D03*
X018979Y011888D03*
X018979Y011896D03*
X021403Y011888D03*
X016099Y011888D03*
X016099Y011896D03*
X014627Y011288D03*
X010795Y011264D03*
D357*
X010795Y011272D03*
X014627Y011296D03*
X016091Y011864D03*
X016091Y011872D03*
X017963Y010936D03*
X018971Y011864D03*
X018971Y011872D03*
X021395Y011864D03*
X021395Y011856D03*
D358*
X021391Y011848D03*
X021391Y011840D03*
X018967Y011848D03*
X018967Y011856D03*
X017967Y010944D03*
X016087Y011840D03*
X016087Y011848D03*
X016087Y011856D03*
X014623Y011824D03*
X014623Y011304D03*
X010799Y011280D03*
X026271Y011232D03*
D359*
X026275Y012192D03*
X021387Y011832D03*
X021387Y011824D03*
X018963Y011824D03*
X018963Y011832D03*
X018963Y011840D03*
X017963Y010952D03*
X016083Y011824D03*
X016083Y011832D03*
X014627Y011816D03*
X010795Y011288D03*
D360*
X009323Y011240D03*
X017963Y010960D03*
X020323Y011240D03*
D361*
X020331Y011256D03*
X020331Y011872D03*
X020331Y011880D03*
X022363Y011880D03*
X022363Y011248D03*
X017963Y010968D03*
X017899Y011264D03*
X017899Y011888D03*
X009331Y011880D03*
X009331Y011872D03*
X009331Y011256D03*
D362*
X009335Y011264D03*
X009335Y011864D03*
X017903Y011880D03*
X017903Y011280D03*
X017903Y011272D03*
X017967Y010976D03*
X020335Y011264D03*
X020335Y011864D03*
X022367Y011872D03*
X022367Y011256D03*
X026271Y011248D03*
X026271Y012176D03*
D363*
X020339Y011856D03*
X020339Y011272D03*
X017963Y010984D03*
X017907Y011288D03*
X017907Y011864D03*
X017907Y011872D03*
X009339Y011856D03*
X009339Y011272D03*
D364*
X009423Y011168D03*
X009431Y011960D03*
X010607Y011296D03*
X014631Y011968D03*
X017759Y010992D03*
X017991Y011184D03*
X018175Y010992D03*
X020423Y011168D03*
X020431Y011960D03*
X022167Y011312D03*
X022463Y011168D03*
X023751Y011560D03*
X023775Y011952D03*
X025999Y012104D03*
X026543Y012104D03*
X026271Y011136D03*
D365*
X026591Y012080D03*
X023871Y011656D03*
X023671Y011496D03*
X022471Y011976D03*
X022135Y011784D03*
X021295Y011968D03*
X020431Y011976D03*
X019175Y011800D03*
X018007Y011976D03*
X017671Y011784D03*
X017671Y011352D03*
X017991Y011168D03*
X018207Y011000D03*
X016295Y011800D03*
X014407Y011808D03*
X011007Y011832D03*
X009431Y011976D03*
D366*
X009103Y011336D03*
X010599Y011832D03*
X011879Y012280D03*
X014839Y011312D03*
X015983Y011968D03*
X017719Y011000D03*
X018183Y011808D03*
X018863Y011968D03*
X020103Y011336D03*
X020599Y011312D03*
X021599Y011800D03*
X022639Y011312D03*
X025943Y011352D03*
X026599Y011352D03*
X025943Y012072D03*
D367*
X025923Y012056D03*
X025915Y012048D03*
X026267Y012304D03*
X026619Y012056D03*
X026627Y011376D03*
X025923Y011368D03*
X025915Y011376D03*
X025299Y011312D03*
X025107Y011136D03*
X024915Y011312D03*
X023891Y011672D03*
X023651Y011480D03*
X022659Y011800D03*
X022123Y011768D03*
X021611Y011784D03*
X021291Y011976D03*
X020627Y011800D03*
X020619Y011320D03*
X020419Y011144D03*
X020091Y011352D03*
X019187Y011784D03*
X018227Y011008D03*
X018195Y011344D03*
X017659Y011368D03*
X017659Y011768D03*
X016307Y011784D03*
X014859Y011800D03*
X014627Y011136D03*
X013811Y011312D03*
X013619Y011136D03*
X013427Y011312D03*
X011867Y012304D03*
X011027Y011824D03*
X009627Y011800D03*
X009619Y011320D03*
X009091Y011352D03*
X022459Y011144D03*
D368*
X022663Y011328D03*
X022671Y011792D03*
X022119Y011760D03*
X022119Y011360D03*
X021615Y011776D03*
X020631Y011328D03*
X020087Y011360D03*
X020087Y011768D03*
X019191Y011776D03*
X018863Y011976D03*
X018727Y011808D03*
X018207Y011792D03*
X018207Y011352D03*
X017655Y011376D03*
X017703Y011008D03*
X016311Y011776D03*
X015983Y011976D03*
X015847Y011808D03*
X014871Y011792D03*
X014383Y011328D03*
X012935Y011816D03*
X010575Y011824D03*
X009631Y011328D03*
X009087Y011360D03*
X009087Y011768D03*
X023903Y011680D03*
X025903Y011384D03*
X025903Y012040D03*
X026631Y012048D03*
X026639Y012040D03*
X026631Y011384D03*
D369*
X026651Y011400D03*
X025891Y011400D03*
X025891Y012024D03*
X022675Y011336D03*
X022115Y011368D03*
X022115Y011752D03*
X022467Y011984D03*
X021155Y011808D03*
X020635Y011792D03*
X020427Y011984D03*
X020635Y011336D03*
X019195Y011768D03*
X018235Y011016D03*
X017987Y011160D03*
X017691Y011016D03*
X017651Y011384D03*
X017651Y011760D03*
X016315Y011768D03*
X014867Y011328D03*
X010811Y011992D03*
X009635Y011792D03*
X009427Y011984D03*
X009635Y011336D03*
D370*
X009647Y011344D03*
X009079Y011376D03*
X009079Y011752D03*
X010567Y011816D03*
X011055Y011808D03*
X011519Y012176D03*
X011519Y012184D03*
X011519Y012192D03*
X011519Y012200D03*
X011519Y012208D03*
X011519Y012216D03*
X011519Y012224D03*
X011519Y012232D03*
X011519Y012240D03*
X011055Y011320D03*
X012943Y011800D03*
X013415Y011320D03*
X013823Y011320D03*
X014375Y011336D03*
X014367Y011784D03*
X014879Y011784D03*
X014887Y011344D03*
X014879Y011336D03*
X015839Y011800D03*
X016319Y011760D03*
X016759Y012176D03*
X016759Y012184D03*
X016759Y012192D03*
X016759Y012200D03*
X016759Y012208D03*
X016759Y012216D03*
X016759Y012224D03*
X016759Y012232D03*
X016759Y012240D03*
X017647Y011752D03*
X017647Y011392D03*
X018215Y011360D03*
X018223Y011368D03*
X018223Y011776D03*
X018719Y011800D03*
X019199Y011760D03*
X019199Y011752D03*
X019639Y012184D03*
X019639Y012192D03*
X019639Y012200D03*
X019639Y012208D03*
X019639Y012216D03*
X019639Y012224D03*
X019639Y012232D03*
X019639Y012240D03*
X020079Y011752D03*
X020079Y011376D03*
X020647Y011344D03*
X021143Y011800D03*
X021623Y011760D03*
X023783Y011984D03*
X024903Y011320D03*
X025879Y011416D03*
X025879Y012008D03*
X025887Y012016D03*
X026655Y012024D03*
X026663Y012016D03*
X026663Y011416D03*
X026655Y011408D03*
X018247Y011024D03*
D371*
X017683Y011024D03*
X017643Y011400D03*
X017643Y011736D03*
X017643Y011744D03*
X018715Y011792D03*
X019203Y011744D03*
X019635Y012168D03*
X019635Y012176D03*
X020075Y011744D03*
X020075Y011384D03*
X020651Y011352D03*
X020659Y011360D03*
X020659Y011768D03*
X020651Y011776D03*
X021139Y011792D03*
X021291Y011984D03*
X021627Y011752D03*
X021627Y011744D03*
X022107Y011736D03*
X022107Y011392D03*
X022107Y011384D03*
X022683Y011344D03*
X022691Y011352D03*
X022691Y011776D03*
X023635Y011464D03*
X024891Y011328D03*
X025315Y011328D03*
X025859Y011440D03*
X025867Y011432D03*
X025859Y011984D03*
X025867Y011992D03*
X026667Y012008D03*
X026675Y012000D03*
X026683Y011440D03*
X026667Y011424D03*
X016323Y011744D03*
X016323Y011752D03*
X015835Y011792D03*
X014891Y011776D03*
X014627Y011992D03*
X014363Y011776D03*
X014355Y011352D03*
X014363Y011344D03*
X013835Y011328D03*
X012947Y011784D03*
X012947Y011792D03*
X011947Y012168D03*
X011067Y011328D03*
X010795Y011128D03*
X010555Y011808D03*
X009659Y011768D03*
X009651Y011776D03*
X009651Y011352D03*
X009075Y011384D03*
X009075Y011744D03*
D372*
X009071Y011736D03*
X009071Y011392D03*
X009423Y011136D03*
X009663Y011360D03*
X009671Y011752D03*
X009663Y011760D03*
X010575Y011312D03*
X011063Y011800D03*
X011519Y012152D03*
X011519Y012160D03*
X011519Y012168D03*
X011519Y012248D03*
X011519Y012256D03*
X012951Y011776D03*
X013399Y011336D03*
X013407Y011328D03*
X013839Y011336D03*
X014343Y011368D03*
X014351Y011360D03*
X014351Y011768D03*
X014895Y011768D03*
X014903Y011760D03*
X014903Y011360D03*
X014895Y011352D03*
X015823Y011776D03*
X015831Y011784D03*
X015983Y011984D03*
X016327Y011736D03*
X016759Y012152D03*
X016759Y012160D03*
X016759Y012168D03*
X016759Y012248D03*
X016759Y012256D03*
X016759Y012264D03*
X017639Y011728D03*
X017639Y011408D03*
X018231Y011376D03*
X018239Y011384D03*
X018263Y011040D03*
X018255Y011032D03*
X018239Y011760D03*
X018703Y011776D03*
X018711Y011784D03*
X018863Y011984D03*
X019207Y011736D03*
X019207Y011728D03*
X019639Y012160D03*
X019639Y012248D03*
X019639Y012256D03*
X020071Y011736D03*
X020071Y011392D03*
X020423Y011136D03*
X020671Y011752D03*
X020663Y011760D03*
X021135Y011784D03*
X021631Y011736D03*
X022103Y011728D03*
X022103Y011720D03*
X022103Y011400D03*
X022463Y011136D03*
X022695Y011360D03*
X022703Y011368D03*
X022703Y011760D03*
X022695Y011768D03*
X023623Y011456D03*
X023919Y011696D03*
X025327Y011336D03*
X025839Y011472D03*
X025847Y011456D03*
X025855Y011448D03*
X025847Y011968D03*
X025855Y011976D03*
X026679Y011992D03*
X026687Y011984D03*
X026687Y011976D03*
X026695Y011968D03*
X026695Y011456D03*
X026687Y011448D03*
X026679Y011432D03*
X006999Y012184D03*
X006999Y012192D03*
X006999Y012200D03*
D373*
X006995Y012208D03*
X006995Y012216D03*
X007523Y012200D03*
X007523Y012192D03*
X007523Y012184D03*
X007267Y011864D03*
X008603Y011248D03*
X008603Y011240D03*
X008603Y011232D03*
X008603Y011224D03*
X008603Y011216D03*
X009067Y011400D03*
X009067Y011720D03*
X009067Y011728D03*
X009675Y011744D03*
X009675Y011384D03*
X009675Y011376D03*
X009667Y011368D03*
X010547Y011800D03*
X011075Y011792D03*
X011083Y011344D03*
X011075Y011336D03*
X011523Y012264D03*
X011867Y012320D03*
X012955Y011768D03*
X012955Y011760D03*
X013619Y011128D03*
X013843Y011344D03*
X013851Y011352D03*
X014339Y011376D03*
X014339Y011752D03*
X014347Y011760D03*
X014907Y011752D03*
X014915Y011744D03*
X014915Y011376D03*
X014907Y011368D03*
X015819Y011768D03*
X016331Y011728D03*
X016331Y011720D03*
X016331Y011712D03*
X017635Y011720D03*
X017635Y011424D03*
X017635Y011416D03*
X017667Y011040D03*
X017675Y011032D03*
X018267Y011048D03*
X018275Y011056D03*
X018243Y011392D03*
X018251Y011736D03*
X018251Y011744D03*
X018243Y011752D03*
X018699Y011768D03*
X019211Y011720D03*
X019211Y011712D03*
X019635Y012152D03*
X019635Y012264D03*
X020067Y011728D03*
X020067Y011720D03*
X020067Y011400D03*
X020667Y011368D03*
X020675Y011384D03*
X020675Y011744D03*
X021123Y011760D03*
X021123Y011768D03*
X021131Y011776D03*
X021635Y011728D03*
X021635Y011720D03*
X022099Y011712D03*
X022099Y011416D03*
X022099Y011408D03*
X022707Y011376D03*
X022715Y011384D03*
X022715Y011744D03*
X022707Y011752D03*
X022467Y011992D03*
X023619Y011448D03*
X023619Y011304D03*
X023931Y011704D03*
X024883Y011336D03*
X025107Y011128D03*
X025331Y011344D03*
X025835Y011480D03*
X025843Y011464D03*
X025827Y011928D03*
X025835Y011944D03*
X025843Y011952D03*
X025843Y011960D03*
X026699Y011960D03*
X026707Y011952D03*
X026707Y011944D03*
X026707Y011480D03*
X026699Y011464D03*
D374*
X026723Y011512D03*
X026739Y011544D03*
X026739Y011552D03*
X026747Y011576D03*
X026755Y011808D03*
X026747Y011840D03*
X026747Y011848D03*
X026739Y011872D03*
X026739Y011880D03*
X026723Y011912D03*
X025819Y011912D03*
X025803Y011880D03*
X025803Y011872D03*
X025803Y011864D03*
X025795Y011848D03*
X025795Y011840D03*
X025787Y011616D03*
X025795Y011584D03*
X025795Y011576D03*
X025803Y011560D03*
X025803Y011552D03*
X025803Y011544D03*
X025819Y011512D03*
X025355Y011392D03*
X025347Y011376D03*
X025347Y011368D03*
X024867Y011368D03*
X024867Y011360D03*
X023939Y011712D03*
X023939Y011816D03*
X023603Y011432D03*
X022739Y011432D03*
X022723Y011400D03*
X022739Y011696D03*
X022723Y011728D03*
X021643Y011696D03*
X021643Y011688D03*
X021643Y011680D03*
X021115Y011728D03*
X021115Y011736D03*
X020699Y011704D03*
X020699Y011696D03*
X020699Y011432D03*
X020699Y011424D03*
X020059Y011424D03*
X020059Y011432D03*
X020059Y011696D03*
X020059Y011704D03*
X019635Y012136D03*
X019635Y012280D03*
X019219Y011688D03*
X019219Y011680D03*
X019219Y011672D03*
X019219Y011664D03*
X018275Y011688D03*
X018267Y011704D03*
X018267Y011712D03*
X018275Y011456D03*
X018267Y011440D03*
X018267Y011432D03*
X018259Y011424D03*
X017987Y011152D03*
X017659Y011056D03*
X017627Y011448D03*
X017627Y011456D03*
X017627Y011688D03*
X017627Y011696D03*
X016763Y012280D03*
X016339Y011688D03*
X016339Y011680D03*
X016339Y011672D03*
X014939Y011704D03*
X014939Y011416D03*
X014627Y011128D03*
X014323Y011400D03*
X014315Y011408D03*
X014315Y011416D03*
X014307Y011432D03*
X014307Y011696D03*
X014315Y011712D03*
X014323Y011728D03*
X013867Y011384D03*
X013859Y011368D03*
X013387Y011352D03*
X013379Y011368D03*
X012963Y011704D03*
X012963Y011712D03*
X012963Y011720D03*
X012963Y011728D03*
X012763Y011904D03*
X012763Y011912D03*
X011523Y012280D03*
X011099Y011760D03*
X011107Y011376D03*
X011099Y011368D03*
X010523Y011776D03*
X010515Y011768D03*
X009699Y011704D03*
X009699Y011696D03*
X009699Y011432D03*
X009699Y011424D03*
X009059Y011424D03*
X009059Y011432D03*
X009059Y011696D03*
X008603Y011280D03*
X008603Y011272D03*
X008603Y011192D03*
X007267Y011840D03*
X006987Y012240D03*
X006987Y012248D03*
X006987Y012256D03*
D375*
X007531Y012240D03*
X007531Y012232D03*
X007531Y012224D03*
X009691Y011720D03*
X009691Y011712D03*
X009691Y011416D03*
X009691Y011408D03*
X011091Y011768D03*
X012771Y011888D03*
X012771Y011896D03*
X014931Y011720D03*
X014931Y011408D03*
X014931Y011400D03*
X015811Y011728D03*
X015811Y011736D03*
X015811Y011744D03*
X017651Y011064D03*
X018691Y011736D03*
X018691Y011744D03*
X020691Y011712D03*
X020691Y011416D03*
X020691Y011408D03*
X022091Y011432D03*
X022091Y011440D03*
X022091Y011448D03*
X022091Y011680D03*
X022091Y011688D03*
X022731Y011712D03*
X022731Y011416D03*
X023611Y011440D03*
X023611Y011312D03*
X023931Y011304D03*
X025811Y011528D03*
X025811Y011536D03*
X025811Y011888D03*
X025811Y011896D03*
X026731Y011896D03*
X026731Y011888D03*
X026731Y011536D03*
X026731Y011528D03*
D376*
X026743Y011560D03*
X026743Y011568D03*
X026751Y011584D03*
X026751Y011592D03*
X026751Y011600D03*
X026751Y011608D03*
X026759Y011616D03*
X026759Y011624D03*
X026759Y011632D03*
X026759Y011640D03*
X026759Y011648D03*
X026759Y011656D03*
X026759Y011664D03*
X026759Y011672D03*
X026759Y011680D03*
X026767Y011712D03*
X026759Y011744D03*
X026759Y011752D03*
X026759Y011760D03*
X026759Y011768D03*
X026759Y011776D03*
X026759Y011784D03*
X026759Y011792D03*
X026759Y011800D03*
X026751Y011816D03*
X026751Y011824D03*
X026751Y011832D03*
X026743Y011856D03*
X026743Y011864D03*
X025799Y011856D03*
X025791Y011832D03*
X025791Y011824D03*
X025791Y011816D03*
X025791Y011808D03*
X025783Y011800D03*
X025783Y011792D03*
X025783Y011784D03*
X025783Y011776D03*
X025783Y011768D03*
X025783Y011760D03*
X025783Y011664D03*
X025783Y011656D03*
X025783Y011648D03*
X025783Y011640D03*
X025783Y011632D03*
X025783Y011624D03*
X025791Y011608D03*
X025791Y011600D03*
X025791Y011592D03*
X025799Y011568D03*
X025375Y011568D03*
X025375Y011576D03*
X025375Y011584D03*
X025375Y011592D03*
X025375Y011600D03*
X025375Y011608D03*
X025375Y011616D03*
X025375Y011624D03*
X025375Y011632D03*
X025375Y011640D03*
X025375Y011648D03*
X025375Y011656D03*
X025375Y011664D03*
X025375Y011672D03*
X025375Y011680D03*
X025375Y011688D03*
X025375Y011696D03*
X025375Y011704D03*
X025375Y011712D03*
X025375Y011720D03*
X025375Y011728D03*
X025375Y011736D03*
X025375Y011744D03*
X025375Y011752D03*
X025375Y011760D03*
X025375Y011768D03*
X025375Y011776D03*
X025375Y011784D03*
X025375Y011792D03*
X025375Y011800D03*
X025375Y011808D03*
X025375Y011816D03*
X025375Y011824D03*
X025375Y011832D03*
X025375Y011840D03*
X025375Y011848D03*
X025375Y011856D03*
X025375Y011864D03*
X025375Y011872D03*
X025375Y011880D03*
X025375Y011888D03*
X025375Y011896D03*
X025375Y011904D03*
X025375Y011912D03*
X025375Y011920D03*
X025375Y011928D03*
X025375Y011936D03*
X025375Y011944D03*
X025375Y011952D03*
X025375Y011960D03*
X025375Y011968D03*
X025375Y011976D03*
X025375Y011984D03*
X025367Y011448D03*
X025367Y011440D03*
X025359Y011408D03*
X025359Y011400D03*
X025351Y011384D03*
X024863Y011376D03*
X024855Y011384D03*
X024855Y011392D03*
X023943Y011720D03*
X023783Y011992D03*
X023599Y011424D03*
X022751Y011464D03*
X022751Y011472D03*
X022743Y011448D03*
X022743Y011440D03*
X022735Y011424D03*
X022751Y011648D03*
X022751Y011656D03*
X022743Y011672D03*
X022743Y011680D03*
X022743Y011688D03*
X022735Y011704D03*
X022087Y011672D03*
X022087Y011664D03*
X022087Y011656D03*
X022087Y011472D03*
X022087Y011464D03*
X022087Y011456D03*
X021647Y011640D03*
X021647Y011648D03*
X021647Y011656D03*
X021647Y011664D03*
X021647Y011672D03*
X021111Y011680D03*
X021111Y011688D03*
X021111Y011696D03*
X021111Y011704D03*
X021111Y011712D03*
X021111Y011720D03*
X020711Y011664D03*
X020711Y011656D03*
X020703Y011680D03*
X020703Y011688D03*
X020711Y011472D03*
X020711Y011464D03*
X020711Y011456D03*
X020703Y011448D03*
X020703Y011440D03*
X020055Y011440D03*
X020055Y011448D03*
X020055Y011672D03*
X020055Y011680D03*
X020055Y011688D03*
X019639Y012128D03*
X019639Y012288D03*
X019223Y011656D03*
X019223Y011648D03*
X019223Y011640D03*
X019223Y011632D03*
X019223Y011624D03*
X019223Y011616D03*
X018863Y011992D03*
X018687Y011728D03*
X018687Y011720D03*
X018687Y011712D03*
X018687Y011704D03*
X018287Y011648D03*
X018279Y011672D03*
X018279Y011680D03*
X018271Y011696D03*
X018279Y011472D03*
X018279Y011464D03*
X018271Y011448D03*
X017623Y011464D03*
X017623Y011472D03*
X017623Y011664D03*
X017623Y011672D03*
X017623Y011680D03*
X017639Y011096D03*
X017647Y011080D03*
X017647Y011072D03*
X016759Y012128D03*
X016759Y012288D03*
X016343Y011664D03*
X016343Y011656D03*
X016343Y011648D03*
X016343Y011640D03*
X016343Y011632D03*
X015807Y011696D03*
X015807Y011704D03*
X015807Y011712D03*
X015807Y011720D03*
X014959Y011640D03*
X014951Y011672D03*
X014951Y011680D03*
X014943Y011688D03*
X014943Y011696D03*
X014935Y011712D03*
X014959Y011480D03*
X014951Y011456D03*
X014951Y011448D03*
X014943Y011432D03*
X014943Y011424D03*
X014311Y011424D03*
X014303Y011440D03*
X014303Y011448D03*
X014295Y011456D03*
X014295Y011464D03*
X014295Y011472D03*
X014287Y011496D03*
X014287Y011504D03*
X014287Y011512D03*
X014287Y011616D03*
X014287Y011624D03*
X014295Y011656D03*
X014295Y011664D03*
X014303Y011680D03*
X014303Y011688D03*
X014311Y011704D03*
X013887Y011552D03*
X013887Y011544D03*
X013887Y011536D03*
X013887Y011528D03*
X013887Y011520D03*
X013879Y011440D03*
X013879Y011432D03*
X013879Y011424D03*
X013871Y011400D03*
X013871Y011392D03*
X013863Y011376D03*
X013375Y011376D03*
X013375Y011384D03*
X013367Y011392D03*
X013367Y011400D03*
X012967Y011648D03*
X012967Y011656D03*
X012967Y011664D03*
X012967Y011672D03*
X012967Y011680D03*
X012967Y011688D03*
X012967Y011696D03*
X012759Y011920D03*
X012751Y011928D03*
X012743Y011944D03*
X011967Y012144D03*
X011967Y012152D03*
X011519Y012128D03*
X011519Y012288D03*
X011103Y011752D03*
X011111Y011744D03*
X011119Y011392D03*
X011111Y011384D03*
X010511Y011760D03*
X009711Y011672D03*
X009711Y011664D03*
X009711Y011656D03*
X009703Y011680D03*
X009703Y011688D03*
X009711Y011472D03*
X009711Y011464D03*
X009711Y011456D03*
X009703Y011448D03*
X009703Y011440D03*
X009055Y011440D03*
X009055Y011448D03*
X009055Y011672D03*
X009055Y011680D03*
X009055Y011688D03*
X008607Y011184D03*
X007263Y011832D03*
X007535Y012248D03*
X007535Y012256D03*
X006983Y012264D03*
X006983Y012272D03*
D377*
X006979Y012280D03*
X006979Y012288D03*
X007539Y012280D03*
X007539Y012272D03*
X007539Y012264D03*
X007267Y011824D03*
X008603Y011288D03*
X008603Y011176D03*
X009051Y011176D03*
X009051Y011184D03*
X009051Y011192D03*
X009051Y011200D03*
X009051Y011208D03*
X009051Y011216D03*
X009051Y011224D03*
X009051Y011168D03*
X009051Y011160D03*
X009051Y011152D03*
X009051Y011144D03*
X009051Y011136D03*
X009051Y011456D03*
X009051Y011464D03*
X009051Y011472D03*
X009051Y011480D03*
X009051Y011648D03*
X009051Y011656D03*
X009051Y011664D03*
X009051Y011896D03*
X009051Y011904D03*
X009051Y011912D03*
X009051Y011920D03*
X009051Y011928D03*
X009051Y011936D03*
X009051Y011944D03*
X009051Y011952D03*
X009051Y011960D03*
X009051Y011968D03*
X009051Y011976D03*
X009051Y011984D03*
X009051Y011992D03*
X009051Y012000D03*
X009051Y012008D03*
X009051Y012016D03*
X009051Y012024D03*
X009051Y012032D03*
X009051Y012040D03*
X009051Y012048D03*
X009051Y012056D03*
X009051Y012064D03*
X009051Y012072D03*
X009051Y012080D03*
X009051Y012088D03*
X009051Y012096D03*
X009051Y012104D03*
X009051Y012112D03*
X009051Y012120D03*
X009051Y012128D03*
X009051Y012136D03*
X009051Y012144D03*
X009051Y012152D03*
X009051Y012160D03*
X009051Y012168D03*
X009051Y012176D03*
X009051Y012184D03*
X009051Y012192D03*
X009051Y012200D03*
X009051Y012208D03*
X009051Y012216D03*
X009051Y012224D03*
X009051Y012232D03*
X009051Y012240D03*
X009051Y012248D03*
X009051Y012256D03*
X009051Y012264D03*
X009051Y012272D03*
X009051Y012280D03*
X009051Y012288D03*
X009051Y012296D03*
X009051Y012304D03*
X009051Y012312D03*
X009051Y012320D03*
X009715Y011648D03*
X009715Y011640D03*
X009715Y011632D03*
X009715Y011624D03*
X009723Y011616D03*
X009723Y011608D03*
X009723Y011600D03*
X009723Y011592D03*
X009723Y011584D03*
X009723Y011576D03*
X009723Y011568D03*
X009723Y011560D03*
X009723Y011552D03*
X009723Y011544D03*
X009723Y011536D03*
X009723Y011528D03*
X009723Y011520D03*
X009723Y011512D03*
X009715Y011504D03*
X009715Y011496D03*
X009715Y011488D03*
X009715Y011480D03*
X010091Y011480D03*
X010091Y011488D03*
X010091Y011496D03*
X010091Y011504D03*
X010091Y011512D03*
X010091Y011520D03*
X010091Y011528D03*
X010091Y011536D03*
X010091Y011544D03*
X010091Y011552D03*
X010091Y011560D03*
X010091Y011568D03*
X010091Y011576D03*
X010091Y011584D03*
X010091Y011592D03*
X010091Y011600D03*
X010091Y011608D03*
X010091Y011616D03*
X010091Y011624D03*
X010091Y011632D03*
X010091Y011640D03*
X010091Y011648D03*
X010091Y011656D03*
X010091Y011664D03*
X010091Y011672D03*
X010091Y011680D03*
X010091Y011688D03*
X010091Y011696D03*
X010091Y011704D03*
X010091Y011712D03*
X010091Y011720D03*
X010091Y011728D03*
X010091Y011736D03*
X010091Y011744D03*
X010091Y011752D03*
X010091Y011760D03*
X010091Y011768D03*
X010091Y011776D03*
X010091Y011784D03*
X010091Y011792D03*
X010091Y011800D03*
X010091Y011808D03*
X010091Y011816D03*
X010091Y011824D03*
X010091Y011832D03*
X010091Y011840D03*
X010091Y011848D03*
X010091Y011856D03*
X010091Y011864D03*
X010091Y011872D03*
X010091Y011880D03*
X010091Y011888D03*
X010091Y011896D03*
X010091Y011904D03*
X010091Y011912D03*
X010091Y011920D03*
X010091Y011928D03*
X010091Y011936D03*
X010091Y011944D03*
X010091Y011952D03*
X010091Y011960D03*
X010091Y011968D03*
X010091Y011976D03*
X010091Y011984D03*
X010091Y011992D03*
X010091Y012000D03*
X010091Y012008D03*
X010091Y012016D03*
X010091Y012024D03*
X010091Y012032D03*
X010091Y012040D03*
X010091Y012048D03*
X010091Y012056D03*
X010091Y012064D03*
X010091Y012072D03*
X010091Y012080D03*
X010091Y012088D03*
X010091Y012096D03*
X010091Y012104D03*
X010091Y012112D03*
X010091Y012120D03*
X010091Y012128D03*
X010091Y012136D03*
X010091Y012144D03*
X010091Y012152D03*
X010091Y012160D03*
X010091Y012168D03*
X010091Y012176D03*
X010091Y012184D03*
X010091Y012192D03*
X010091Y012200D03*
X010091Y012208D03*
X010091Y012216D03*
X010091Y012224D03*
X010091Y012232D03*
X010091Y012240D03*
X010091Y012248D03*
X010091Y012256D03*
X010091Y012264D03*
X010091Y012272D03*
X010091Y012280D03*
X010091Y012288D03*
X010091Y012296D03*
X010091Y012304D03*
X010091Y012312D03*
X010091Y012320D03*
X010507Y011752D03*
X010499Y011744D03*
X010491Y011728D03*
X010811Y012000D03*
X011115Y011736D03*
X011115Y011728D03*
X011123Y011720D03*
X011123Y011712D03*
X011131Y011696D03*
X011139Y011448D03*
X011131Y011424D03*
X011131Y011416D03*
X011123Y011408D03*
X011123Y011400D03*
X011523Y011400D03*
X011523Y011408D03*
X011523Y011416D03*
X011523Y011424D03*
X011523Y011432D03*
X011523Y011440D03*
X011523Y011448D03*
X011523Y011456D03*
X011523Y011464D03*
X011523Y011472D03*
X011523Y011480D03*
X011523Y011488D03*
X011523Y011496D03*
X011523Y011504D03*
X011523Y011512D03*
X011523Y011520D03*
X011523Y011528D03*
X011523Y011536D03*
X011523Y011544D03*
X011523Y011552D03*
X011523Y011560D03*
X011523Y011568D03*
X011523Y011576D03*
X011523Y011584D03*
X011523Y011592D03*
X011523Y011600D03*
X011523Y011608D03*
X011523Y011616D03*
X011523Y011624D03*
X011523Y011632D03*
X011523Y011640D03*
X011523Y011648D03*
X011523Y011656D03*
X011523Y011664D03*
X011523Y011672D03*
X011523Y011680D03*
X011523Y011688D03*
X011523Y011696D03*
X011523Y011704D03*
X011523Y011712D03*
X011523Y011720D03*
X011523Y011728D03*
X011523Y011736D03*
X011523Y011744D03*
X011523Y011752D03*
X011523Y011760D03*
X011523Y011768D03*
X011523Y011776D03*
X011523Y011784D03*
X011523Y011792D03*
X011523Y011800D03*
X011523Y011808D03*
X011523Y011816D03*
X011523Y011824D03*
X011523Y011832D03*
X011523Y011840D03*
X011523Y011848D03*
X011523Y011856D03*
X011523Y011864D03*
X011523Y011872D03*
X011523Y011880D03*
X011523Y011888D03*
X011523Y011896D03*
X011523Y011904D03*
X011523Y011912D03*
X011523Y011920D03*
X011523Y011928D03*
X011523Y011936D03*
X011523Y011944D03*
X011523Y011952D03*
X011523Y011960D03*
X011523Y011968D03*
X011523Y011976D03*
X011523Y011984D03*
X011971Y011992D03*
X011971Y012000D03*
X011971Y012008D03*
X011971Y012016D03*
X011971Y012024D03*
X011971Y012032D03*
X011971Y012040D03*
X011971Y012048D03*
X011971Y012056D03*
X011971Y012064D03*
X011971Y012072D03*
X011971Y012080D03*
X011971Y012088D03*
X011971Y012096D03*
X011971Y012104D03*
X011971Y012112D03*
X011971Y012120D03*
X011971Y012128D03*
X011971Y012136D03*
X011971Y011808D03*
X011971Y011800D03*
X011971Y011792D03*
X011971Y011784D03*
X011971Y011776D03*
X011971Y011768D03*
X011971Y011760D03*
X011971Y011752D03*
X011971Y011744D03*
X011971Y011736D03*
X011971Y011728D03*
X011971Y011720D03*
X011971Y011712D03*
X011971Y011704D03*
X011971Y011696D03*
X011971Y011688D03*
X011971Y011680D03*
X011971Y011672D03*
X011971Y011664D03*
X011971Y011656D03*
X011971Y011648D03*
X011971Y011640D03*
X011971Y011632D03*
X011971Y011624D03*
X011971Y011616D03*
X011971Y011608D03*
X011971Y011600D03*
X011971Y011592D03*
X011971Y011584D03*
X011971Y011576D03*
X011971Y011568D03*
X011971Y011560D03*
X011971Y011552D03*
X011971Y011544D03*
X011971Y011536D03*
X011971Y011528D03*
X011971Y011520D03*
X011971Y011512D03*
X011971Y011504D03*
X011971Y011496D03*
X011971Y011488D03*
X011971Y011480D03*
X011971Y011472D03*
X011971Y011464D03*
X011971Y011456D03*
X011971Y011448D03*
X011971Y011440D03*
X011971Y011432D03*
X011971Y011424D03*
X011971Y011416D03*
X011971Y011408D03*
X011971Y011400D03*
X011971Y011392D03*
X011971Y011384D03*
X011971Y011376D03*
X011971Y011368D03*
X011971Y011360D03*
X011971Y011352D03*
X011971Y011344D03*
X011971Y011336D03*
X011971Y011328D03*
X011971Y011320D03*
X011971Y011312D03*
X011971Y011304D03*
X011971Y011296D03*
X011971Y011288D03*
X011971Y011280D03*
X011971Y011272D03*
X011971Y011264D03*
X011971Y011256D03*
X011971Y011248D03*
X011971Y011240D03*
X011971Y011232D03*
X011971Y011224D03*
X011971Y011216D03*
X011971Y011208D03*
X011971Y011200D03*
X011971Y011192D03*
X011971Y011184D03*
X011971Y011176D03*
X011971Y011168D03*
X011971Y011160D03*
X011971Y011152D03*
X011971Y011144D03*
X011971Y011136D03*
X011523Y011136D03*
X011523Y011144D03*
X011523Y011152D03*
X011523Y011160D03*
X011523Y011168D03*
X011523Y011176D03*
X011523Y011184D03*
X011523Y011192D03*
X011523Y011200D03*
X011523Y011208D03*
X011523Y011216D03*
X011523Y011224D03*
X011523Y011232D03*
X011523Y011240D03*
X011523Y011248D03*
X011523Y011256D03*
X011523Y011264D03*
X011523Y011272D03*
X011523Y011280D03*
X011523Y011288D03*
X011523Y011296D03*
X011523Y011304D03*
X011523Y011312D03*
X011523Y011320D03*
X011523Y011328D03*
X011523Y011336D03*
X011523Y011344D03*
X011523Y011352D03*
X011523Y011360D03*
X011523Y011368D03*
X011523Y011376D03*
X011523Y011384D03*
X011523Y011392D03*
X010571Y011320D03*
X010091Y011320D03*
X010091Y011328D03*
X010091Y011336D03*
X010091Y011344D03*
X010091Y011352D03*
X010091Y011360D03*
X010091Y011368D03*
X010091Y011376D03*
X010091Y011384D03*
X010091Y011392D03*
X010091Y011400D03*
X010091Y011408D03*
X010091Y011416D03*
X010091Y011424D03*
X010091Y011432D03*
X010091Y011440D03*
X010091Y011448D03*
X010091Y011456D03*
X010091Y011464D03*
X010091Y011472D03*
X010091Y011312D03*
X010091Y011304D03*
X010091Y011296D03*
X010091Y011288D03*
X010091Y011280D03*
X010091Y011272D03*
X010091Y011264D03*
X010091Y011256D03*
X010091Y011248D03*
X010091Y011240D03*
X010091Y011232D03*
X010091Y011224D03*
X010091Y011216D03*
X010091Y011208D03*
X010091Y011200D03*
X010091Y011192D03*
X010091Y011184D03*
X010091Y011176D03*
X010091Y011168D03*
X010091Y011160D03*
X010091Y011152D03*
X010091Y011144D03*
X010091Y011136D03*
X012739Y011952D03*
X012747Y011936D03*
X012971Y011640D03*
X012971Y011632D03*
X012971Y011624D03*
X012971Y011616D03*
X012971Y011608D03*
X012971Y011600D03*
X012971Y011592D03*
X012971Y011584D03*
X012971Y011576D03*
X012971Y011568D03*
X012971Y011560D03*
X012971Y011552D03*
X012971Y011544D03*
X012971Y011536D03*
X012971Y011528D03*
X012971Y011520D03*
X012971Y011512D03*
X012971Y011504D03*
X012971Y011496D03*
X012971Y011488D03*
X012971Y011480D03*
X012971Y011472D03*
X012971Y011464D03*
X012971Y011456D03*
X012971Y011448D03*
X012971Y011440D03*
X012971Y011432D03*
X012971Y011424D03*
X012971Y011416D03*
X012971Y011408D03*
X012971Y011400D03*
X012971Y011392D03*
X012971Y011384D03*
X012971Y011376D03*
X012971Y011368D03*
X012971Y011360D03*
X012971Y011352D03*
X012971Y011344D03*
X012971Y011336D03*
X012971Y011328D03*
X012971Y011320D03*
X012971Y011312D03*
X012971Y011304D03*
X012971Y011296D03*
X012971Y011288D03*
X012971Y011280D03*
X012971Y011272D03*
X012971Y011264D03*
X012971Y011256D03*
X012971Y011248D03*
X012971Y011240D03*
X012971Y011232D03*
X012971Y011224D03*
X012971Y011216D03*
X012971Y011208D03*
X012971Y011200D03*
X012971Y011192D03*
X012971Y011184D03*
X012971Y011176D03*
X012971Y011168D03*
X012971Y011160D03*
X012971Y011152D03*
X012971Y011144D03*
X012971Y011136D03*
X013363Y011408D03*
X013363Y011416D03*
X013363Y011424D03*
X013355Y011448D03*
X013355Y011456D03*
X013355Y011464D03*
X013355Y011472D03*
X013355Y011480D03*
X013355Y011488D03*
X013355Y011496D03*
X013355Y011504D03*
X013355Y011512D03*
X013355Y011520D03*
X013355Y011528D03*
X013355Y011536D03*
X013355Y011544D03*
X013347Y011568D03*
X013347Y011576D03*
X013347Y011584D03*
X013347Y011592D03*
X013347Y011600D03*
X013347Y011608D03*
X013347Y011616D03*
X013347Y011624D03*
X013347Y011632D03*
X013347Y011640D03*
X013347Y011648D03*
X013347Y011656D03*
X013347Y011664D03*
X013347Y011672D03*
X013347Y011680D03*
X013347Y011688D03*
X013347Y011696D03*
X013347Y011704D03*
X013347Y011712D03*
X013347Y011720D03*
X013347Y011728D03*
X013347Y011736D03*
X013347Y011744D03*
X013347Y011752D03*
X013347Y011760D03*
X013347Y011768D03*
X013347Y011776D03*
X013347Y011784D03*
X013347Y011792D03*
X013347Y011800D03*
X013347Y011808D03*
X013347Y011816D03*
X013347Y011824D03*
X013347Y011832D03*
X013347Y011840D03*
X013347Y011848D03*
X013347Y011856D03*
X013347Y011864D03*
X013347Y011872D03*
X013347Y011880D03*
X013347Y011888D03*
X013347Y011896D03*
X013347Y011904D03*
X013347Y011912D03*
X013347Y011920D03*
X013347Y011928D03*
X013347Y011936D03*
X013347Y011944D03*
X013347Y011952D03*
X013347Y011960D03*
X013347Y011968D03*
X013347Y011976D03*
X013347Y011984D03*
X013891Y011984D03*
X013891Y011976D03*
X013891Y011968D03*
X013891Y011960D03*
X013891Y011952D03*
X013891Y011944D03*
X013891Y011936D03*
X013891Y011928D03*
X013891Y011920D03*
X013891Y011912D03*
X013891Y011904D03*
X013891Y011896D03*
X013891Y011888D03*
X013891Y011880D03*
X013891Y011872D03*
X013891Y011864D03*
X013891Y011856D03*
X013891Y011848D03*
X013891Y011840D03*
X013891Y011832D03*
X013891Y011824D03*
X013891Y011816D03*
X013891Y011808D03*
X013891Y011800D03*
X013891Y011792D03*
X013891Y011784D03*
X013891Y011776D03*
X013891Y011768D03*
X013891Y011760D03*
X013891Y011752D03*
X013891Y011744D03*
X013891Y011736D03*
X013891Y011728D03*
X013891Y011720D03*
X013891Y011712D03*
X013891Y011704D03*
X013891Y011696D03*
X013891Y011688D03*
X013891Y011680D03*
X013891Y011672D03*
X013891Y011664D03*
X013891Y011656D03*
X013891Y011648D03*
X013891Y011640D03*
X013891Y011632D03*
X013891Y011624D03*
X013891Y011616D03*
X013891Y011608D03*
X013891Y011600D03*
X013891Y011592D03*
X013891Y011584D03*
X013891Y011576D03*
X013891Y011568D03*
X013891Y011560D03*
X013883Y011512D03*
X013883Y011504D03*
X013883Y011496D03*
X013883Y011488D03*
X013883Y011480D03*
X013883Y011472D03*
X013883Y011464D03*
X013883Y011456D03*
X013883Y011448D03*
X013875Y011416D03*
X013875Y011408D03*
X014291Y011480D03*
X014291Y011488D03*
X014283Y011520D03*
X014283Y011528D03*
X014283Y011536D03*
X014283Y011544D03*
X014283Y011552D03*
X014283Y011560D03*
X014283Y011568D03*
X014283Y011576D03*
X014283Y011584D03*
X014283Y011592D03*
X014283Y011600D03*
X014283Y011608D03*
X014291Y011632D03*
X014291Y011640D03*
X014291Y011648D03*
X014299Y011672D03*
X014955Y011664D03*
X014955Y011656D03*
X014955Y011648D03*
X014963Y011632D03*
X014963Y011624D03*
X014963Y011616D03*
X014963Y011608D03*
X014963Y011600D03*
X014963Y011528D03*
X014963Y011520D03*
X014963Y011512D03*
X014963Y011504D03*
X014963Y011496D03*
X014963Y011488D03*
X014955Y011472D03*
X014955Y011464D03*
X014947Y011440D03*
X015803Y011584D03*
X015803Y011592D03*
X015803Y011600D03*
X015803Y011608D03*
X015803Y011616D03*
X015803Y011624D03*
X015803Y011632D03*
X015803Y011640D03*
X015803Y011648D03*
X015803Y011656D03*
X015803Y011664D03*
X015803Y011672D03*
X015803Y011680D03*
X015803Y011688D03*
X015987Y011992D03*
X016347Y011984D03*
X016347Y011976D03*
X016347Y011968D03*
X016347Y011960D03*
X016347Y011952D03*
X016347Y011944D03*
X016347Y011936D03*
X016347Y011928D03*
X016347Y011920D03*
X016347Y011912D03*
X016347Y011904D03*
X016347Y011624D03*
X016347Y011616D03*
X016347Y011608D03*
X016347Y011600D03*
X016347Y011592D03*
X016347Y011584D03*
X016347Y011576D03*
X016347Y011568D03*
X016347Y011560D03*
X016347Y011552D03*
X016347Y011544D03*
X016347Y011536D03*
X016347Y011528D03*
X016347Y011520D03*
X016347Y011512D03*
X016347Y011504D03*
X016347Y011496D03*
X016347Y011488D03*
X016347Y011480D03*
X016347Y011472D03*
X016347Y011464D03*
X016347Y011456D03*
X016347Y011448D03*
X016347Y011440D03*
X016347Y011432D03*
X016347Y011424D03*
X016347Y011416D03*
X016347Y011408D03*
X016347Y011400D03*
X016347Y011392D03*
X016347Y011384D03*
X016347Y011376D03*
X016347Y011368D03*
X016347Y011360D03*
X016347Y011352D03*
X016347Y011344D03*
X016347Y011336D03*
X016347Y011328D03*
X016347Y011320D03*
X016347Y011312D03*
X016347Y011304D03*
X016347Y011296D03*
X016347Y011288D03*
X016347Y011280D03*
X016347Y011272D03*
X016347Y011264D03*
X016347Y011256D03*
X016347Y011248D03*
X016347Y011240D03*
X016347Y011232D03*
X016347Y011224D03*
X016347Y011216D03*
X016347Y011208D03*
X016347Y011200D03*
X016347Y011192D03*
X016347Y011184D03*
X016347Y011176D03*
X016347Y011168D03*
X016347Y011160D03*
X016347Y011152D03*
X016347Y011144D03*
X016347Y011136D03*
X016763Y011136D03*
X016763Y011144D03*
X016763Y011152D03*
X016763Y011160D03*
X016763Y011168D03*
X016763Y011176D03*
X016763Y011184D03*
X016763Y011192D03*
X016763Y011200D03*
X016763Y011208D03*
X016763Y011216D03*
X016763Y011224D03*
X016763Y011232D03*
X016763Y011240D03*
X016763Y011248D03*
X016763Y011256D03*
X016763Y011264D03*
X016763Y011272D03*
X016763Y011280D03*
X016763Y011288D03*
X016763Y011296D03*
X016763Y011304D03*
X016763Y011312D03*
X016763Y011320D03*
X016763Y011328D03*
X016763Y011336D03*
X016763Y011344D03*
X016763Y011352D03*
X016763Y011360D03*
X016763Y011368D03*
X016763Y011376D03*
X016763Y011384D03*
X016763Y011392D03*
X016763Y011400D03*
X016763Y011408D03*
X016763Y011416D03*
X016763Y011424D03*
X016763Y011432D03*
X016763Y011440D03*
X016763Y011448D03*
X016763Y011456D03*
X016763Y011464D03*
X016763Y011472D03*
X016763Y011480D03*
X016763Y011488D03*
X016763Y011496D03*
X016763Y011504D03*
X016763Y011512D03*
X016763Y011520D03*
X016763Y011528D03*
X016763Y011536D03*
X016763Y011544D03*
X016763Y011552D03*
X016763Y011560D03*
X016763Y011568D03*
X016763Y011576D03*
X016763Y011584D03*
X016763Y011592D03*
X016763Y011600D03*
X016763Y011608D03*
X016763Y011616D03*
X016763Y011624D03*
X016763Y011632D03*
X016763Y011640D03*
X016763Y011648D03*
X016763Y011656D03*
X016763Y011664D03*
X016763Y011672D03*
X016763Y011680D03*
X016763Y011688D03*
X016763Y011696D03*
X016763Y011704D03*
X016763Y011712D03*
X016763Y011720D03*
X016763Y011728D03*
X016763Y011736D03*
X016763Y011744D03*
X016763Y011752D03*
X016763Y011760D03*
X016763Y011768D03*
X016763Y011776D03*
X016763Y011784D03*
X016763Y011792D03*
X016763Y011800D03*
X016763Y011808D03*
X016763Y011816D03*
X016763Y011824D03*
X016763Y011832D03*
X016763Y011840D03*
X016763Y011848D03*
X016763Y011856D03*
X016763Y011864D03*
X016763Y011872D03*
X016763Y011880D03*
X016763Y011888D03*
X016763Y011896D03*
X016763Y011904D03*
X016763Y011912D03*
X016763Y011920D03*
X016763Y011928D03*
X016763Y011936D03*
X016763Y011944D03*
X016763Y011952D03*
X016763Y011960D03*
X016763Y011968D03*
X016763Y011976D03*
X016763Y011984D03*
X017619Y011984D03*
X017619Y011976D03*
X017619Y011968D03*
X017619Y011960D03*
X017619Y011952D03*
X017619Y011944D03*
X017619Y011936D03*
X017619Y011928D03*
X017619Y011920D03*
X017619Y011912D03*
X017619Y011904D03*
X017619Y011896D03*
X017619Y011656D03*
X017619Y011648D03*
X017619Y011640D03*
X017619Y011632D03*
X017619Y011504D03*
X017619Y011496D03*
X017619Y011488D03*
X017619Y011480D03*
X017619Y011240D03*
X017619Y011232D03*
X017619Y011224D03*
X017619Y011216D03*
X017619Y011208D03*
X017627Y011176D03*
X017627Y011168D03*
X017627Y011160D03*
X017627Y011152D03*
X017627Y011144D03*
X017627Y011136D03*
X017635Y011120D03*
X017635Y011112D03*
X017635Y011104D03*
X017643Y011088D03*
X018283Y011480D03*
X018283Y011488D03*
X018283Y011496D03*
X018291Y011504D03*
X018291Y011512D03*
X018291Y011520D03*
X018291Y011528D03*
X018291Y011536D03*
X018291Y011544D03*
X018291Y011552D03*
X018291Y011560D03*
X018291Y011568D03*
X018291Y011576D03*
X018291Y011584D03*
X018291Y011592D03*
X018291Y011600D03*
X018291Y011608D03*
X018291Y011616D03*
X018291Y011624D03*
X018291Y011632D03*
X018291Y011640D03*
X018283Y011656D03*
X018283Y011664D03*
X018683Y011664D03*
X018683Y011672D03*
X018683Y011680D03*
X018683Y011688D03*
X018683Y011696D03*
X018683Y011656D03*
X018683Y011648D03*
X018683Y011640D03*
X018683Y011632D03*
X018683Y011624D03*
X018683Y011616D03*
X019227Y011608D03*
X019227Y011600D03*
X019227Y011592D03*
X019227Y011584D03*
X019227Y011576D03*
X019227Y011568D03*
X019227Y011560D03*
X019227Y011552D03*
X019227Y011544D03*
X019227Y011536D03*
X019227Y011528D03*
X019227Y011520D03*
X019227Y011512D03*
X019227Y011504D03*
X019227Y011496D03*
X019227Y011488D03*
X019227Y011480D03*
X019227Y011472D03*
X019227Y011464D03*
X019227Y011456D03*
X019227Y011448D03*
X019227Y011440D03*
X019227Y011432D03*
X019227Y011424D03*
X019227Y011416D03*
X019227Y011408D03*
X019227Y011400D03*
X019227Y011392D03*
X019227Y011384D03*
X019227Y011376D03*
X019227Y011368D03*
X019227Y011360D03*
X019227Y011352D03*
X019227Y011344D03*
X019227Y011336D03*
X019227Y011328D03*
X019227Y011320D03*
X019227Y011312D03*
X019227Y011304D03*
X019227Y011296D03*
X019227Y011288D03*
X019227Y011280D03*
X019227Y011272D03*
X019227Y011264D03*
X019227Y011256D03*
X019227Y011248D03*
X019227Y011240D03*
X019227Y011232D03*
X019227Y011224D03*
X019227Y011216D03*
X019227Y011208D03*
X019227Y011200D03*
X019227Y011192D03*
X019227Y011184D03*
X019227Y011176D03*
X019227Y011168D03*
X019227Y011160D03*
X019227Y011152D03*
X019227Y011144D03*
X019227Y011136D03*
X019635Y011136D03*
X019635Y011144D03*
X019635Y011152D03*
X019635Y011160D03*
X019635Y011168D03*
X019635Y011176D03*
X019635Y011184D03*
X019635Y011192D03*
X019635Y011200D03*
X019635Y011208D03*
X019635Y011216D03*
X019635Y011224D03*
X019635Y011232D03*
X019635Y011240D03*
X019635Y011248D03*
X019635Y011256D03*
X019635Y011264D03*
X019635Y011272D03*
X019635Y011280D03*
X019635Y011288D03*
X019635Y011296D03*
X019635Y011304D03*
X019635Y011312D03*
X019635Y011320D03*
X019635Y011328D03*
X019635Y011336D03*
X019635Y011344D03*
X019635Y011352D03*
X019635Y011360D03*
X019635Y011368D03*
X019635Y011376D03*
X019635Y011384D03*
X019635Y011392D03*
X019635Y011400D03*
X019635Y011408D03*
X019635Y011416D03*
X019635Y011424D03*
X019635Y011432D03*
X019635Y011440D03*
X019635Y011448D03*
X019635Y011456D03*
X019635Y011464D03*
X019635Y011472D03*
X019635Y011480D03*
X019635Y011488D03*
X019635Y011496D03*
X019635Y011504D03*
X019635Y011512D03*
X019635Y011520D03*
X019635Y011528D03*
X019635Y011536D03*
X019635Y011544D03*
X019635Y011552D03*
X019635Y011560D03*
X019635Y011568D03*
X019635Y011576D03*
X019635Y011584D03*
X019635Y011592D03*
X019635Y011600D03*
X019635Y011608D03*
X019635Y011616D03*
X019635Y011624D03*
X019635Y011632D03*
X019635Y011640D03*
X019635Y011648D03*
X019635Y011656D03*
X019635Y011664D03*
X019635Y011672D03*
X019635Y011680D03*
X019635Y011688D03*
X019635Y011696D03*
X019635Y011704D03*
X019635Y011712D03*
X019635Y011720D03*
X019635Y011728D03*
X019635Y011736D03*
X019635Y011744D03*
X019635Y011752D03*
X019635Y011760D03*
X019635Y011768D03*
X019635Y011776D03*
X019635Y011784D03*
X019635Y011792D03*
X019635Y011800D03*
X019635Y011808D03*
X019635Y011816D03*
X019635Y011824D03*
X019635Y011832D03*
X019635Y011840D03*
X019635Y011848D03*
X019635Y011856D03*
X019635Y011864D03*
X019635Y011872D03*
X019635Y011880D03*
X019635Y011888D03*
X019635Y011896D03*
X019635Y011904D03*
X019635Y011912D03*
X019635Y011920D03*
X019635Y011928D03*
X019635Y011936D03*
X019635Y011944D03*
X019635Y011952D03*
X019635Y011960D03*
X019635Y011968D03*
X019635Y011976D03*
X019635Y011984D03*
X019227Y011984D03*
X019227Y011976D03*
X019227Y011968D03*
X019227Y011960D03*
X019227Y011952D03*
X019227Y011944D03*
X019227Y011936D03*
X019227Y011928D03*
X019227Y011920D03*
X019227Y011912D03*
X019227Y011904D03*
X020051Y011904D03*
X020051Y011912D03*
X020051Y011920D03*
X020051Y011928D03*
X020051Y011936D03*
X020051Y011944D03*
X020051Y011952D03*
X020051Y011960D03*
X020051Y011968D03*
X020051Y011976D03*
X020051Y011984D03*
X020051Y011992D03*
X020051Y012000D03*
X020051Y012008D03*
X020051Y012016D03*
X020051Y012024D03*
X020051Y012032D03*
X020051Y012040D03*
X020051Y012048D03*
X020051Y012056D03*
X020051Y012064D03*
X020051Y012072D03*
X020051Y012080D03*
X020051Y012088D03*
X020051Y012096D03*
X020051Y012104D03*
X020051Y012112D03*
X020051Y012120D03*
X020051Y012128D03*
X020051Y012136D03*
X020051Y012144D03*
X020051Y012152D03*
X020051Y012160D03*
X020051Y012168D03*
X020051Y012176D03*
X020051Y012184D03*
X020051Y012192D03*
X020051Y012200D03*
X020051Y012208D03*
X020051Y012216D03*
X020051Y012224D03*
X020051Y012232D03*
X020051Y012240D03*
X020051Y012248D03*
X020051Y012256D03*
X020051Y012264D03*
X020051Y012272D03*
X020051Y012280D03*
X020051Y012288D03*
X020051Y012296D03*
X020051Y012304D03*
X020051Y012312D03*
X020051Y012320D03*
X020051Y011896D03*
X020051Y011664D03*
X020051Y011656D03*
X020051Y011648D03*
X020051Y011472D03*
X020051Y011464D03*
X020051Y011456D03*
X020051Y011224D03*
X020051Y011216D03*
X020051Y011208D03*
X020051Y011200D03*
X020051Y011192D03*
X020051Y011184D03*
X020051Y011176D03*
X020051Y011168D03*
X020051Y011160D03*
X020051Y011152D03*
X020051Y011144D03*
X020051Y011136D03*
X020715Y011480D03*
X020715Y011488D03*
X020715Y011496D03*
X020715Y011504D03*
X020723Y011512D03*
X020723Y011520D03*
X020723Y011528D03*
X020723Y011536D03*
X020723Y011544D03*
X020723Y011552D03*
X020723Y011560D03*
X020723Y011568D03*
X020723Y011576D03*
X020723Y011584D03*
X020723Y011592D03*
X020723Y011600D03*
X020723Y011608D03*
X020723Y011616D03*
X020715Y011624D03*
X020715Y011632D03*
X020715Y011640D03*
X020715Y011648D03*
X020707Y011672D03*
X021107Y011672D03*
X021107Y011664D03*
X021107Y011656D03*
X021107Y011648D03*
X021107Y011640D03*
X021107Y011632D03*
X021107Y011624D03*
X021107Y011616D03*
X021107Y011608D03*
X021107Y011600D03*
X021107Y011592D03*
X021107Y011584D03*
X021107Y011576D03*
X021107Y011568D03*
X021107Y011560D03*
X021107Y011552D03*
X021107Y011544D03*
X021107Y011536D03*
X021107Y011528D03*
X021107Y011520D03*
X021107Y011512D03*
X021107Y011504D03*
X021107Y011496D03*
X021107Y011488D03*
X021107Y011480D03*
X021107Y011472D03*
X021107Y011464D03*
X021107Y011456D03*
X021107Y011448D03*
X021107Y011440D03*
X021107Y011432D03*
X021107Y011424D03*
X021107Y011416D03*
X021107Y011408D03*
X021107Y011400D03*
X021107Y011392D03*
X021107Y011384D03*
X021107Y011376D03*
X021107Y011368D03*
X021107Y011360D03*
X021107Y011352D03*
X021107Y011344D03*
X021107Y011336D03*
X021107Y011328D03*
X021107Y011320D03*
X021107Y011312D03*
X021107Y011304D03*
X021107Y011296D03*
X021107Y011288D03*
X021107Y011280D03*
X021107Y011272D03*
X021107Y011264D03*
X021107Y011256D03*
X021107Y011248D03*
X021107Y011240D03*
X021107Y011232D03*
X021107Y011224D03*
X021107Y011216D03*
X021107Y011208D03*
X021107Y011200D03*
X021107Y011192D03*
X021107Y011184D03*
X021107Y011176D03*
X021107Y011168D03*
X021107Y011160D03*
X021107Y011152D03*
X021107Y011144D03*
X021107Y011136D03*
X021651Y011136D03*
X021651Y011144D03*
X021651Y011152D03*
X021651Y011160D03*
X021651Y011168D03*
X021651Y011176D03*
X021651Y011184D03*
X021651Y011192D03*
X021651Y011200D03*
X021651Y011208D03*
X021651Y011216D03*
X021651Y011224D03*
X021651Y011232D03*
X021651Y011240D03*
X021651Y011248D03*
X021651Y011256D03*
X021651Y011264D03*
X021651Y011272D03*
X021651Y011280D03*
X021651Y011288D03*
X021651Y011296D03*
X021651Y011304D03*
X021651Y011312D03*
X021651Y011320D03*
X021651Y011328D03*
X021651Y011336D03*
X021651Y011344D03*
X021651Y011352D03*
X021651Y011360D03*
X021651Y011368D03*
X021651Y011376D03*
X021651Y011384D03*
X021651Y011392D03*
X021651Y011400D03*
X021651Y011408D03*
X021651Y011416D03*
X021651Y011424D03*
X021651Y011432D03*
X021651Y011440D03*
X021651Y011448D03*
X021651Y011456D03*
X021651Y011464D03*
X021651Y011472D03*
X021651Y011480D03*
X021651Y011488D03*
X021651Y011496D03*
X021651Y011504D03*
X021651Y011512D03*
X021651Y011520D03*
X021651Y011528D03*
X021651Y011536D03*
X021651Y011544D03*
X021651Y011552D03*
X021651Y011560D03*
X021651Y011568D03*
X021651Y011576D03*
X021651Y011584D03*
X021651Y011592D03*
X021651Y011600D03*
X021651Y011608D03*
X021651Y011616D03*
X021651Y011624D03*
X021651Y011632D03*
X021651Y011904D03*
X021651Y011912D03*
X021651Y011920D03*
X021651Y011928D03*
X021651Y011936D03*
X021651Y011944D03*
X021651Y011952D03*
X021651Y011960D03*
X021651Y011968D03*
X021651Y011976D03*
X021651Y011984D03*
X021291Y011992D03*
X022083Y011984D03*
X022083Y011976D03*
X022083Y011968D03*
X022083Y011960D03*
X022083Y011952D03*
X022083Y011944D03*
X022083Y011936D03*
X022083Y011928D03*
X022083Y011920D03*
X022083Y011912D03*
X022083Y011904D03*
X022083Y011896D03*
X022083Y011648D03*
X022083Y011640D03*
X022083Y011632D03*
X022083Y011624D03*
X022083Y011616D03*
X022083Y011504D03*
X022083Y011496D03*
X022083Y011488D03*
X022083Y011480D03*
X022083Y011224D03*
X022083Y011216D03*
X022083Y011208D03*
X022083Y011200D03*
X022083Y011192D03*
X022083Y011184D03*
X022083Y011176D03*
X022083Y011168D03*
X022083Y011160D03*
X022083Y011152D03*
X022083Y011144D03*
X022083Y011136D03*
X022459Y011128D03*
X022747Y011456D03*
X022755Y011480D03*
X022755Y011488D03*
X022755Y011496D03*
X022755Y011504D03*
X022755Y011512D03*
X022755Y011520D03*
X022763Y011536D03*
X022763Y011544D03*
X022763Y011552D03*
X022763Y011560D03*
X022763Y011568D03*
X022763Y011576D03*
X022763Y011584D03*
X022763Y011592D03*
X022755Y011608D03*
X022755Y011616D03*
X022755Y011624D03*
X022755Y011632D03*
X022755Y011640D03*
X022747Y011664D03*
X023179Y011664D03*
X023179Y011672D03*
X023179Y011680D03*
X023179Y011688D03*
X023179Y011696D03*
X023179Y011704D03*
X023179Y011712D03*
X023179Y011720D03*
X023179Y011728D03*
X023179Y011736D03*
X023179Y011744D03*
X023179Y011752D03*
X023179Y011760D03*
X023179Y011768D03*
X023179Y011776D03*
X023179Y011784D03*
X023179Y011792D03*
X023179Y011800D03*
X023179Y011808D03*
X023179Y011656D03*
X023179Y011648D03*
X023179Y011640D03*
X023179Y011632D03*
X023179Y011624D03*
X023179Y011616D03*
X023179Y011608D03*
X023179Y011600D03*
X023179Y011592D03*
X023179Y011584D03*
X023179Y011576D03*
X023179Y011568D03*
X023179Y011560D03*
X023179Y011552D03*
X023179Y011544D03*
X023179Y011536D03*
X023179Y011528D03*
X023179Y011520D03*
X023179Y011512D03*
X023179Y011504D03*
X023179Y011496D03*
X023179Y011488D03*
X023179Y011480D03*
X023179Y011472D03*
X023179Y011464D03*
X023179Y011456D03*
X023179Y011448D03*
X023179Y011440D03*
X023179Y011432D03*
X023179Y011424D03*
X023179Y011416D03*
X023179Y011408D03*
X023179Y011400D03*
X023179Y011392D03*
X023179Y011384D03*
X023179Y011376D03*
X023179Y011368D03*
X023179Y011360D03*
X023179Y011352D03*
X023179Y011344D03*
X023179Y011336D03*
X023179Y011328D03*
X023179Y011320D03*
X023179Y011312D03*
X023179Y011304D03*
X023179Y011296D03*
X023179Y011288D03*
X023179Y011280D03*
X023179Y011272D03*
X023179Y011264D03*
X023179Y011256D03*
X023179Y011248D03*
X023179Y011240D03*
X023179Y011232D03*
X023179Y011224D03*
X023179Y011216D03*
X023179Y011208D03*
X023179Y011200D03*
X023179Y011192D03*
X023179Y011184D03*
X023179Y011176D03*
X023179Y011168D03*
X023179Y011160D03*
X023179Y011152D03*
X023179Y011144D03*
X023179Y011136D03*
X023595Y011328D03*
X023603Y011320D03*
X023595Y011416D03*
X023795Y011128D03*
X024379Y011136D03*
X024379Y011144D03*
X024379Y011152D03*
X024379Y011160D03*
X024379Y011168D03*
X024379Y011176D03*
X024379Y011184D03*
X024379Y011192D03*
X024379Y011200D03*
X024379Y011208D03*
X024379Y011216D03*
X024379Y011224D03*
X024379Y011232D03*
X024379Y011240D03*
X024379Y011248D03*
X024379Y011256D03*
X024379Y011264D03*
X024379Y011272D03*
X024379Y011280D03*
X024379Y011288D03*
X024379Y011296D03*
X024379Y011304D03*
X024379Y011312D03*
X024379Y011320D03*
X024379Y011328D03*
X024379Y011336D03*
X024379Y011344D03*
X024379Y011352D03*
X024379Y011360D03*
X024379Y011368D03*
X024379Y011376D03*
X024379Y011384D03*
X024379Y011392D03*
X024379Y011400D03*
X024379Y011408D03*
X024379Y011416D03*
X024379Y011424D03*
X024379Y011432D03*
X024379Y011440D03*
X024379Y011448D03*
X024379Y011456D03*
X024379Y011464D03*
X024379Y011472D03*
X024379Y011480D03*
X024379Y011488D03*
X024379Y011496D03*
X024379Y011504D03*
X024379Y011512D03*
X024379Y011520D03*
X024379Y011528D03*
X024379Y011536D03*
X024379Y011544D03*
X024379Y011552D03*
X024379Y011560D03*
X024379Y011568D03*
X024379Y011576D03*
X024379Y011584D03*
X024379Y011592D03*
X024379Y011600D03*
X024379Y011608D03*
X024379Y011616D03*
X024379Y011624D03*
X024379Y011632D03*
X024379Y011640D03*
X024379Y011648D03*
X024379Y011656D03*
X024379Y011664D03*
X024379Y011672D03*
X024379Y011680D03*
X024379Y011688D03*
X024379Y011696D03*
X024379Y011704D03*
X024379Y011712D03*
X024379Y011720D03*
X024379Y011728D03*
X024379Y011736D03*
X024379Y011744D03*
X024379Y011752D03*
X024379Y011760D03*
X024379Y011768D03*
X024379Y011776D03*
X024379Y011784D03*
X024379Y011792D03*
X024379Y011800D03*
X024379Y011808D03*
X024379Y011992D03*
X024379Y012000D03*
X024379Y012008D03*
X024379Y012016D03*
X024379Y012024D03*
X024379Y012032D03*
X024379Y012040D03*
X024379Y012048D03*
X024379Y012056D03*
X024379Y012064D03*
X024379Y012072D03*
X024379Y012080D03*
X024379Y012088D03*
X024379Y012096D03*
X024379Y012104D03*
X024379Y012112D03*
X024379Y012120D03*
X024379Y012128D03*
X024379Y012136D03*
X024379Y012144D03*
X024379Y012152D03*
X024379Y012160D03*
X024379Y012168D03*
X024379Y012176D03*
X024379Y012184D03*
X024379Y012192D03*
X024379Y012200D03*
X024379Y012208D03*
X024379Y012216D03*
X024379Y012224D03*
X024379Y012232D03*
X024379Y012240D03*
X024379Y012248D03*
X024379Y012256D03*
X024379Y012264D03*
X024379Y012272D03*
X024379Y012280D03*
X024379Y012288D03*
X024379Y012296D03*
X024379Y012304D03*
X024835Y011984D03*
X024835Y011976D03*
X024835Y011968D03*
X024835Y011960D03*
X024835Y011952D03*
X024835Y011944D03*
X024835Y011936D03*
X024835Y011928D03*
X024835Y011920D03*
X024835Y011912D03*
X024835Y011904D03*
X024835Y011896D03*
X024835Y011888D03*
X024835Y011880D03*
X024835Y011872D03*
X024835Y011864D03*
X024835Y011856D03*
X024835Y011848D03*
X024835Y011840D03*
X024835Y011832D03*
X024835Y011824D03*
X024835Y011816D03*
X024835Y011808D03*
X024835Y011800D03*
X024835Y011792D03*
X024835Y011784D03*
X024835Y011776D03*
X024835Y011768D03*
X024835Y011760D03*
X024835Y011752D03*
X024835Y011744D03*
X024835Y011736D03*
X024835Y011728D03*
X024835Y011720D03*
X024835Y011712D03*
X024835Y011704D03*
X024835Y011696D03*
X024835Y011688D03*
X024835Y011680D03*
X024835Y011672D03*
X024835Y011664D03*
X024835Y011656D03*
X024835Y011648D03*
X024835Y011640D03*
X024835Y011632D03*
X024835Y011624D03*
X024835Y011616D03*
X024835Y011608D03*
X024835Y011600D03*
X024835Y011592D03*
X024835Y011584D03*
X024835Y011576D03*
X024835Y011568D03*
X024835Y011560D03*
X024835Y011552D03*
X024835Y011544D03*
X024835Y011536D03*
X024835Y011528D03*
X024843Y011488D03*
X024843Y011480D03*
X024843Y011472D03*
X024843Y011464D03*
X024843Y011456D03*
X024843Y011448D03*
X024843Y011440D03*
X024843Y011432D03*
X024851Y011416D03*
X024851Y011408D03*
X024851Y011400D03*
X025363Y011416D03*
X025363Y011424D03*
X025363Y011432D03*
X025371Y011456D03*
X025371Y011464D03*
X025371Y011472D03*
X025371Y011480D03*
X025371Y011488D03*
X025371Y011496D03*
X025371Y011504D03*
X025371Y011512D03*
X025371Y011520D03*
X025371Y011528D03*
X025371Y011536D03*
X025371Y011544D03*
X025371Y011552D03*
X025371Y011560D03*
X025779Y011672D03*
X025779Y011680D03*
X025779Y011688D03*
X025779Y011696D03*
X025779Y011704D03*
X025779Y011712D03*
X025779Y011720D03*
X025779Y011728D03*
X025779Y011736D03*
X025779Y011744D03*
X025779Y011752D03*
X026267Y012312D03*
X026763Y011736D03*
X026763Y011728D03*
X026763Y011720D03*
X026763Y011704D03*
X026763Y011696D03*
X026763Y011688D03*
X023955Y011736D03*
X023955Y011800D03*
X023947Y011808D03*
X023179Y011992D03*
X023179Y012000D03*
X023179Y012008D03*
X023179Y012016D03*
X023179Y012024D03*
X023179Y012032D03*
X023179Y012040D03*
X023179Y012048D03*
X023179Y012056D03*
X023179Y012064D03*
X023179Y012072D03*
X023179Y012080D03*
X023179Y012088D03*
X023179Y012096D03*
X023179Y012104D03*
X023179Y012112D03*
X023179Y012120D03*
X023179Y012128D03*
X023179Y012136D03*
X023179Y012144D03*
X023179Y012152D03*
X023179Y012160D03*
X023179Y012168D03*
X023179Y012176D03*
X023179Y012184D03*
X023179Y012192D03*
X023179Y012200D03*
X023179Y012208D03*
X023179Y012216D03*
X023179Y012224D03*
X023179Y012232D03*
X023179Y012240D03*
X023179Y012248D03*
X023179Y012256D03*
X023179Y012264D03*
X023179Y012272D03*
X023179Y012280D03*
X023179Y012288D03*
X023179Y012296D03*
X023179Y012304D03*
D378*
X023783Y012000D03*
X023943Y011320D03*
X026271Y011112D03*
X019639Y012104D03*
X019639Y012312D03*
X016759Y012312D03*
X016759Y012104D03*
X012711Y011984D03*
X011519Y012104D03*
X011519Y012312D03*
X010799Y011120D03*
X008607Y011152D03*
X007263Y011768D03*
D379*
X018231Y011768D03*
X022111Y011744D03*
X022111Y011376D03*
X023791Y011136D03*
X023911Y011688D03*
X025311Y011320D03*
X025871Y011424D03*
X026271Y011120D03*
X025871Y012000D03*
D380*
X025107Y011120D03*
X021291Y012000D03*
X017987Y011144D03*
X015987Y012000D03*
X013619Y011120D03*
X012707Y011992D03*
X008603Y011320D03*
X007267Y011760D03*
D381*
X007263Y011728D03*
X006943Y011728D03*
X006943Y011720D03*
X006943Y011712D03*
X006943Y011704D03*
X006943Y011696D03*
X006943Y011688D03*
X006943Y011680D03*
X006943Y011672D03*
X006943Y011664D03*
X006943Y011656D03*
X006943Y011648D03*
X006943Y011640D03*
X006943Y011736D03*
X006943Y011744D03*
X006943Y011752D03*
X006943Y011760D03*
X006943Y011768D03*
X006943Y011776D03*
X006943Y011784D03*
X006943Y011792D03*
X006943Y011800D03*
X006943Y011808D03*
X006943Y011816D03*
X006943Y011824D03*
X006943Y011832D03*
X006943Y011840D03*
X006943Y011848D03*
X006943Y011856D03*
X006943Y011864D03*
X006943Y011872D03*
X006943Y011880D03*
X006943Y011888D03*
X006943Y011896D03*
X006943Y011904D03*
X006943Y011912D03*
X006943Y011920D03*
X006943Y011928D03*
X006943Y011936D03*
X006943Y011944D03*
X006943Y011952D03*
X006943Y011960D03*
X006943Y011968D03*
X006943Y011976D03*
X006943Y011984D03*
X006943Y011992D03*
X006943Y012000D03*
X006943Y012008D03*
X006943Y012016D03*
X006943Y012024D03*
X006943Y012032D03*
X006943Y012040D03*
X006943Y012048D03*
X006943Y012056D03*
X006943Y012064D03*
X006943Y012072D03*
X006943Y012080D03*
X006943Y012088D03*
X006943Y012096D03*
X006943Y012104D03*
X006943Y012112D03*
X006943Y012120D03*
X006943Y012128D03*
X006943Y012136D03*
X006943Y012144D03*
X006943Y012152D03*
X006943Y012160D03*
X006943Y012168D03*
X006943Y012176D03*
X008023Y012176D03*
X008023Y012168D03*
X008023Y012160D03*
X008023Y012152D03*
X008023Y012144D03*
X008023Y012136D03*
X008023Y012128D03*
X008023Y012120D03*
X008023Y012112D03*
X008023Y012104D03*
X008023Y012096D03*
X008023Y012088D03*
X008023Y012080D03*
X008023Y012072D03*
X008023Y012064D03*
X008023Y012056D03*
X008023Y012048D03*
X008023Y012040D03*
X008023Y012032D03*
X008023Y012024D03*
X008023Y012016D03*
X008023Y012008D03*
X008023Y012000D03*
X008023Y011992D03*
X008023Y011984D03*
X008023Y011976D03*
X008023Y011968D03*
X008023Y011960D03*
X008023Y011952D03*
X008023Y011944D03*
X008023Y011936D03*
X008023Y011928D03*
X008023Y011920D03*
X008023Y011912D03*
X008023Y011904D03*
X008023Y011896D03*
X008023Y011888D03*
X008023Y011880D03*
X008023Y011872D03*
X008023Y011864D03*
X008023Y011856D03*
X008023Y011848D03*
X008023Y011840D03*
X008023Y011832D03*
X008023Y011824D03*
X008023Y011816D03*
X008023Y011808D03*
X008023Y011800D03*
X008023Y011792D03*
X008023Y011784D03*
X008023Y011776D03*
X008023Y011768D03*
X008023Y011760D03*
X008023Y011752D03*
X008023Y011744D03*
X008023Y011736D03*
X008023Y011728D03*
X008023Y011720D03*
X008023Y011712D03*
X008023Y011704D03*
X008023Y011696D03*
X008023Y011688D03*
X008023Y011680D03*
X008023Y011672D03*
X008023Y011664D03*
X008023Y011656D03*
X008023Y011648D03*
X008023Y011640D03*
X008607Y011136D03*
X023791Y011120D03*
D382*
X022459Y011120D03*
X020419Y011120D03*
X011875Y012336D03*
X009419Y011120D03*
X007579Y011640D03*
X007579Y011648D03*
X007579Y011656D03*
X007579Y011664D03*
X007579Y011672D03*
X007579Y011680D03*
X007579Y011688D03*
X007579Y011696D03*
X007579Y011704D03*
X007579Y011712D03*
X007579Y011720D03*
X007579Y011728D03*
X007579Y011736D03*
X007579Y011744D03*
X007579Y011752D03*
X007579Y011760D03*
X007579Y011768D03*
X007579Y011776D03*
X007579Y011784D03*
X007579Y011792D03*
X007579Y011800D03*
X007579Y011808D03*
X007579Y011816D03*
X007579Y011824D03*
X007579Y011832D03*
X007579Y011840D03*
X007579Y011848D03*
X007579Y011856D03*
X007579Y011864D03*
X007579Y011872D03*
X007579Y011880D03*
X007579Y011888D03*
X007579Y011896D03*
X007579Y011904D03*
X007579Y011912D03*
X007579Y011920D03*
X007579Y011928D03*
X007579Y011936D03*
X007579Y011944D03*
X007579Y011952D03*
X007579Y011960D03*
X007579Y011968D03*
X007579Y011976D03*
X007579Y011984D03*
X007579Y011992D03*
X007579Y012000D03*
X007579Y012008D03*
X007579Y012016D03*
X007579Y012024D03*
X007579Y012032D03*
X007579Y012040D03*
X007579Y012048D03*
X007579Y012056D03*
X007579Y012064D03*
X007579Y012072D03*
X007579Y012080D03*
X007579Y012088D03*
X007579Y012096D03*
X007579Y012104D03*
X007579Y012112D03*
X007579Y012120D03*
X007579Y012128D03*
X007579Y012136D03*
X007579Y012144D03*
X007579Y012152D03*
X007579Y012160D03*
X007579Y012168D03*
X007579Y012176D03*
X007267Y011720D03*
D383*
X007267Y011736D03*
X007267Y011744D03*
X008603Y011328D03*
X011523Y012320D03*
X014627Y011120D03*
X023643Y011808D03*
X023947Y011328D03*
D384*
X008607Y011120D03*
D385*
X009111Y011328D03*
X009423Y011152D03*
X011887Y012256D03*
X016287Y011808D03*
X017679Y011344D03*
X018167Y011328D03*
X019167Y011808D03*
X020111Y011328D03*
X020423Y011152D03*
X021591Y011808D03*
X022143Y011328D03*
X022631Y011816D03*
X025967Y012088D03*
X025967Y011336D03*
X026271Y011128D03*
D386*
X024847Y011424D03*
X024839Y011496D03*
X024839Y011504D03*
X024839Y011512D03*
X024839Y011520D03*
X023959Y011744D03*
X023959Y011752D03*
X023959Y011760D03*
X023959Y011768D03*
X023959Y011776D03*
X023959Y011784D03*
X023959Y011792D03*
X023951Y011728D03*
X023591Y011408D03*
X023591Y011400D03*
X023591Y011344D03*
X023591Y011336D03*
X022759Y011528D03*
X022759Y011600D03*
X022079Y011600D03*
X022079Y011608D03*
X022079Y011592D03*
X022079Y011584D03*
X022079Y011576D03*
X022079Y011568D03*
X022079Y011560D03*
X022079Y011552D03*
X022079Y011544D03*
X022079Y011536D03*
X022079Y011528D03*
X022079Y011520D03*
X022079Y011512D03*
X020423Y011128D03*
X020047Y011480D03*
X020047Y011488D03*
X020047Y011496D03*
X020047Y011504D03*
X020047Y011512D03*
X020047Y011520D03*
X020047Y011608D03*
X020047Y011616D03*
X020047Y011624D03*
X020047Y011632D03*
X020047Y011640D03*
X019639Y012120D03*
X019639Y012296D03*
X018679Y011608D03*
X018679Y011600D03*
X018679Y011592D03*
X018679Y011584D03*
X018679Y011576D03*
X018679Y011568D03*
X018679Y011560D03*
X018679Y011552D03*
X018679Y011544D03*
X018679Y011536D03*
X018679Y011528D03*
X018679Y011520D03*
X018679Y011512D03*
X018679Y011504D03*
X018679Y011496D03*
X018679Y011488D03*
X018679Y011480D03*
X018679Y011472D03*
X018679Y011464D03*
X018679Y011456D03*
X018679Y011448D03*
X018679Y011440D03*
X018679Y011432D03*
X018679Y011424D03*
X018679Y011416D03*
X018679Y011408D03*
X018679Y011400D03*
X018679Y011392D03*
X018679Y011384D03*
X018679Y011376D03*
X018679Y011368D03*
X018679Y011360D03*
X018679Y011352D03*
X018679Y011344D03*
X018679Y011336D03*
X018679Y011328D03*
X018679Y011320D03*
X018679Y011312D03*
X018679Y011304D03*
X018679Y011296D03*
X018679Y011288D03*
X018679Y011280D03*
X018679Y011272D03*
X018679Y011264D03*
X018679Y011256D03*
X018679Y011248D03*
X018679Y011240D03*
X018679Y011232D03*
X018679Y011224D03*
X018679Y011216D03*
X018679Y011208D03*
X018679Y011200D03*
X018679Y011192D03*
X018679Y011184D03*
X018679Y011176D03*
X018679Y011168D03*
X018679Y011160D03*
X018679Y011152D03*
X018679Y011144D03*
X018679Y011136D03*
X017631Y011128D03*
X017623Y011184D03*
X017623Y011192D03*
X017623Y011200D03*
X017615Y011512D03*
X017615Y011520D03*
X017615Y011528D03*
X017615Y011536D03*
X017615Y011544D03*
X017615Y011552D03*
X017615Y011560D03*
X017615Y011568D03*
X017615Y011576D03*
X017615Y011584D03*
X017615Y011592D03*
X017615Y011600D03*
X017615Y011608D03*
X017615Y011616D03*
X017615Y011624D03*
X016759Y012120D03*
X016759Y012296D03*
X015799Y011576D03*
X015799Y011568D03*
X015799Y011560D03*
X015799Y011552D03*
X015799Y011544D03*
X015799Y011536D03*
X015799Y011528D03*
X015799Y011520D03*
X015799Y011512D03*
X015799Y011504D03*
X015799Y011496D03*
X015799Y011488D03*
X015799Y011480D03*
X015799Y011472D03*
X015799Y011464D03*
X015799Y011456D03*
X015799Y011448D03*
X015799Y011440D03*
X015799Y011432D03*
X015799Y011424D03*
X015799Y011416D03*
X015799Y011408D03*
X015799Y011400D03*
X015799Y011392D03*
X015799Y011384D03*
X015799Y011376D03*
X015799Y011368D03*
X015799Y011360D03*
X015799Y011352D03*
X015799Y011344D03*
X015799Y011336D03*
X015799Y011328D03*
X015799Y011320D03*
X015799Y011312D03*
X015799Y011304D03*
X015799Y011296D03*
X015799Y011288D03*
X015799Y011280D03*
X015799Y011272D03*
X015799Y011264D03*
X015799Y011256D03*
X015799Y011248D03*
X015799Y011240D03*
X015799Y011232D03*
X015799Y011224D03*
X015799Y011216D03*
X015799Y011208D03*
X015799Y011200D03*
X015799Y011192D03*
X015799Y011184D03*
X015799Y011176D03*
X015799Y011168D03*
X015799Y011160D03*
X015799Y011152D03*
X015799Y011144D03*
X015799Y011136D03*
X014967Y011536D03*
X014967Y011544D03*
X014967Y011552D03*
X014967Y011560D03*
X014967Y011568D03*
X014967Y011576D03*
X014967Y011584D03*
X014967Y011592D03*
X013359Y011440D03*
X013359Y011432D03*
X013351Y011552D03*
X013351Y011560D03*
X012735Y011960D03*
X011519Y012120D03*
X011519Y012296D03*
X011127Y011704D03*
X011135Y011688D03*
X011135Y011680D03*
X011143Y011672D03*
X011151Y011496D03*
X011143Y011472D03*
X011143Y011464D03*
X011143Y011456D03*
X011135Y011440D03*
X011135Y011432D03*
X010487Y011712D03*
X010487Y011720D03*
X010495Y011736D03*
X010479Y011704D03*
X010479Y011696D03*
X010471Y011680D03*
X010471Y011672D03*
X009423Y011128D03*
X009047Y011488D03*
X009047Y011496D03*
X009047Y011504D03*
X009047Y011512D03*
X009047Y011520D03*
X009047Y011528D03*
X009047Y011600D03*
X009047Y011608D03*
X009047Y011616D03*
X009047Y011624D03*
X009047Y011632D03*
X009047Y011640D03*
X008607Y011296D03*
X008607Y011168D03*
X007263Y011808D03*
X007263Y011816D03*
X007543Y012288D03*
D387*
X007447Y012168D03*
X007263Y011688D03*
X008607Y011128D03*
X010807Y012008D03*
X023639Y011792D03*
X023959Y011344D03*
D388*
X026271Y011144D03*
X020431Y011944D03*
X018871Y011928D03*
X017991Y011200D03*
X015991Y011928D03*
X009431Y011944D03*
D389*
X009595Y011816D03*
X009115Y011800D03*
X011891Y012232D03*
X011891Y012240D03*
X011891Y012248D03*
X013619Y011144D03*
X014627Y011976D03*
X015987Y011960D03*
X017683Y011800D03*
X018867Y011960D03*
X020115Y011800D03*
X020595Y011816D03*
X021291Y011960D03*
X023691Y011512D03*
X023851Y011640D03*
X023795Y011152D03*
X025107Y011144D03*
X026267Y012296D03*
X026579Y012088D03*
X026571Y011336D03*
D390*
X026587Y011344D03*
X025955Y011344D03*
X025955Y012080D03*
X023859Y011648D03*
X023683Y011504D03*
X023779Y011968D03*
X022459Y011152D03*
X022139Y011336D03*
X022139Y011792D03*
X020107Y011792D03*
X017675Y011792D03*
X014627Y011144D03*
X014411Y011312D03*
X011883Y012264D03*
X011883Y012272D03*
X010811Y011984D03*
X009107Y011792D03*
D391*
X009575Y011304D03*
X009423Y011160D03*
X010799Y011144D03*
X010991Y011296D03*
X010807Y011976D03*
X018159Y011816D03*
X020423Y011160D03*
X020575Y011304D03*
X021295Y011952D03*
X022159Y011808D03*
X022607Y011304D03*
X023799Y011600D03*
X023807Y011608D03*
D392*
X023663Y011488D03*
X023783Y011976D03*
X022655Y011320D03*
X022127Y011352D03*
X022127Y011776D03*
X021607Y011792D03*
X021167Y011816D03*
X020095Y011776D03*
X020095Y011344D03*
X018735Y011816D03*
X018199Y011800D03*
X018183Y011336D03*
X017663Y011776D03*
X015863Y011816D03*
X014855Y011320D03*
X014399Y011320D03*
X014391Y011800D03*
X012927Y011824D03*
X011871Y012296D03*
X010583Y011304D03*
X009423Y011144D03*
X009095Y011344D03*
X009095Y011776D03*
X026607Y011360D03*
X026615Y011368D03*
D393*
X010575Y011336D03*
X008607Y011144D03*
D394*
X026271Y011152D03*
X026271Y012272D03*
D395*
X025107Y011160D03*
X022467Y011952D03*
X022179Y011816D03*
X020427Y011952D03*
X018867Y011936D03*
X018003Y011952D03*
X017995Y011192D03*
X014627Y011160D03*
X013619Y011160D03*
X012875Y011832D03*
X012875Y011840D03*
X012875Y011848D03*
X010795Y011152D03*
X009427Y011952D03*
D396*
X009431Y011912D03*
X020431Y011912D03*
X023791Y011840D03*
X026271Y012264D03*
X026271Y011160D03*
D397*
X025979Y011328D03*
X025979Y012096D03*
X026563Y012096D03*
X023819Y011616D03*
X023723Y011536D03*
X023779Y011960D03*
X022459Y011160D03*
X021579Y011816D03*
X020123Y011808D03*
X011899Y012176D03*
X011899Y012184D03*
X011899Y012192D03*
X011899Y012200D03*
X009123Y011808D03*
D398*
X010795Y011160D03*
X014627Y011168D03*
X014627Y011952D03*
X022195Y011304D03*
X023795Y011184D03*
X026267Y012280D03*
D399*
X019639Y012304D03*
X019639Y012112D03*
X016759Y012112D03*
X016759Y012304D03*
X012719Y011976D03*
X011519Y012112D03*
X011519Y012304D03*
X008607Y011160D03*
X007263Y011792D03*
D400*
X009431Y011896D03*
X010807Y011928D03*
X014623Y011920D03*
X020431Y011896D03*
X023799Y011232D03*
X026271Y011168D03*
X026271Y012256D03*
D401*
X026539Y011320D03*
X026003Y011320D03*
X023795Y011168D03*
X018867Y011944D03*
X017707Y011328D03*
X015987Y011944D03*
D402*
X018007Y011944D03*
X020159Y011304D03*
X020423Y011184D03*
X021295Y011928D03*
X022463Y011184D03*
X013623Y011168D03*
X011943Y011816D03*
X011943Y011824D03*
X011943Y011832D03*
X011943Y011840D03*
X011943Y011848D03*
X011943Y011856D03*
X011943Y011864D03*
X011943Y011872D03*
X011943Y011880D03*
X011943Y011888D03*
X011943Y011896D03*
X011943Y011904D03*
X011943Y011912D03*
X011943Y011920D03*
X011943Y011928D03*
X011943Y011936D03*
X011943Y011944D03*
X011943Y011952D03*
X011943Y011960D03*
X011943Y011968D03*
X011943Y011976D03*
X011943Y011984D03*
X009423Y011184D03*
X009159Y011304D03*
D403*
X009427Y011928D03*
X010795Y011168D03*
X013619Y011184D03*
X014627Y011944D03*
X018003Y011928D03*
X017995Y011216D03*
X020427Y011928D03*
X021299Y011912D03*
X022467Y011928D03*
X025107Y011184D03*
D404*
X025103Y011232D03*
X026271Y011176D03*
X026271Y012248D03*
X023799Y011264D03*
X014623Y011216D03*
X013623Y011232D03*
D405*
X012871Y011856D03*
X012871Y011864D03*
X012871Y011872D03*
X014623Y011960D03*
X015991Y011936D03*
X017719Y011816D03*
X020423Y011176D03*
X021295Y011936D03*
X022463Y011176D03*
X009423Y011176D03*
D406*
X009431Y011968D03*
X017991Y011176D03*
X020431Y011968D03*
X022151Y011800D03*
X022151Y011320D03*
X023711Y011528D03*
X023831Y011624D03*
D407*
X023775Y011920D03*
X023799Y011192D03*
X018871Y011912D03*
X015991Y011912D03*
X014623Y011176D03*
X010807Y011952D03*
D408*
X010795Y011176D03*
X022467Y011912D03*
X023771Y011896D03*
X023803Y011824D03*
D409*
X026271Y012240D03*
X026271Y011184D03*
X014623Y011232D03*
D410*
X014627Y011928D03*
X010795Y011184D03*
X022467Y011904D03*
X023771Y011880D03*
X023787Y011848D03*
X025107Y011200D03*
D411*
X026271Y011192D03*
X026271Y012232D03*
X014623Y011240D03*
X013623Y011264D03*
D412*
X013623Y011192D03*
X014623Y011936D03*
X018007Y011920D03*
X020423Y011208D03*
X022463Y011208D03*
X023799Y011208D03*
X025111Y011192D03*
X010807Y011944D03*
X009423Y011208D03*
D413*
X009423Y011216D03*
X013623Y011200D03*
X014623Y011192D03*
X017999Y011232D03*
X018007Y011912D03*
X020423Y011216D03*
X022463Y011216D03*
X023799Y011216D03*
X023799Y011832D03*
X023775Y011888D03*
D414*
X026271Y012224D03*
X026271Y011200D03*
X014623Y011256D03*
D415*
X009423Y011200D03*
X020423Y011200D03*
X022463Y011200D03*
X023799Y011200D03*
D416*
X023771Y011872D03*
X022467Y011896D03*
X025107Y011208D03*
X017995Y011240D03*
X014627Y011200D03*
D417*
X010795Y011200D03*
X023787Y011280D03*
X023795Y011272D03*
X023803Y011256D03*
X023803Y011248D03*
X025107Y011224D03*
D418*
X025335Y011352D03*
X024871Y011352D03*
X025815Y011520D03*
X025831Y011488D03*
X025815Y011904D03*
X025831Y011936D03*
X026711Y011936D03*
X026727Y011904D03*
X026727Y011520D03*
X026711Y011488D03*
X022727Y011408D03*
X022727Y011720D03*
X022095Y011704D03*
X022095Y011696D03*
X022095Y011424D03*
X020687Y011400D03*
X020671Y011376D03*
X020687Y011720D03*
X020687Y011728D03*
X020431Y011992D03*
X019215Y011704D03*
X019215Y011696D03*
X018695Y011752D03*
X018695Y011760D03*
X018255Y011728D03*
X018255Y011416D03*
X018255Y011408D03*
X018247Y011400D03*
X017631Y011432D03*
X017631Y011440D03*
X017631Y011704D03*
X017631Y011712D03*
X018007Y011992D03*
X016335Y011704D03*
X016335Y011696D03*
X015815Y011752D03*
X015815Y011760D03*
X014927Y011728D03*
X014927Y011392D03*
X014335Y011384D03*
X014327Y011392D03*
X014327Y011736D03*
X014335Y011744D03*
X013855Y011360D03*
X013391Y011344D03*
X011095Y011360D03*
X011087Y011352D03*
X011087Y011776D03*
X010535Y011792D03*
X010527Y011784D03*
X009687Y011728D03*
X009687Y011400D03*
X009431Y011992D03*
X008607Y011264D03*
X008607Y011256D03*
X008607Y011208D03*
X008607Y011200D03*
X007527Y012208D03*
X007527Y012216D03*
X006991Y012224D03*
X006991Y012232D03*
D419*
X026271Y012216D03*
X026271Y011208D03*
D420*
X023783Y011288D03*
X014623Y011208D03*
X014623Y011912D03*
X013623Y011224D03*
X008023Y012184D03*
X008023Y012192D03*
X008023Y012200D03*
X008023Y012208D03*
X008023Y012216D03*
X008023Y012224D03*
X008023Y012232D03*
X008023Y012240D03*
X008023Y012248D03*
X008023Y012256D03*
X008023Y012264D03*
X008023Y012272D03*
X008023Y012280D03*
X008023Y012288D03*
D421*
X009423Y011224D03*
X009431Y011904D03*
X013623Y011208D03*
X018007Y011904D03*
X020423Y011224D03*
X020431Y011904D03*
X022463Y011224D03*
X023799Y011224D03*
X023783Y011856D03*
X023775Y011864D03*
D422*
X014623Y011224D03*
X010799Y011208D03*
D423*
X010807Y011848D03*
X014623Y011840D03*
X014623Y011280D03*
X021407Y011896D03*
X026271Y012208D03*
X026271Y011216D03*
D424*
X026271Y011224D03*
X026271Y012200D03*
X018975Y011880D03*
X016095Y011880D03*
X010807Y011840D03*
D425*
X010803Y011888D03*
X010795Y011224D03*
X013619Y011272D03*
X025107Y011272D03*
D426*
X022355Y011232D03*
X017891Y011248D03*
D427*
X020319Y011232D03*
X009319Y011232D03*
D428*
X010795Y011232D03*
X010803Y011880D03*
X013619Y011288D03*
X014627Y011248D03*
X014627Y011872D03*
X025107Y011288D03*
X025107Y011280D03*
D429*
X026271Y011240D03*
X026271Y012184D03*
X022359Y011888D03*
X022359Y011240D03*
X020327Y011248D03*
X020327Y011888D03*
X017895Y011256D03*
X009327Y011248D03*
X009327Y011888D03*
D430*
X014627Y011896D03*
X025107Y011248D03*
D431*
X014627Y011856D03*
X010795Y011248D03*
D432*
X017911Y011296D03*
X017911Y011856D03*
X022375Y011856D03*
X022375Y011280D03*
X022375Y011272D03*
X026271Y011256D03*
X026271Y012168D03*
D433*
X026271Y012160D03*
X026271Y011264D03*
X022383Y011296D03*
X022383Y011832D03*
X020351Y011824D03*
X017919Y011832D03*
X017919Y011840D03*
X017919Y011320D03*
X017919Y011312D03*
X009351Y011824D03*
D434*
X022371Y011864D03*
X022371Y011264D03*
D435*
X014623Y011264D03*
D436*
X026271Y011272D03*
X026271Y012152D03*
D437*
X014623Y011272D03*
D438*
X026271Y011280D03*
X026271Y012144D03*
D439*
X020343Y011848D03*
X020343Y011288D03*
X020343Y011280D03*
X009343Y011280D03*
X009343Y011288D03*
X009343Y011848D03*
D440*
X013623Y011280D03*
X014623Y011880D03*
D441*
X026271Y012136D03*
X026271Y011288D03*
D442*
X022379Y011288D03*
X022379Y011840D03*
X022379Y011848D03*
X020347Y011840D03*
X020347Y011832D03*
X020347Y011296D03*
X017915Y011304D03*
X017915Y011848D03*
X009347Y011840D03*
X009347Y011832D03*
X009347Y011296D03*
D443*
X010807Y011648D03*
X010807Y011656D03*
X010807Y011664D03*
X026271Y011296D03*
X026271Y012128D03*
D444*
X023775Y011296D03*
X010807Y011920D03*
D445*
X010807Y011624D03*
X010807Y011616D03*
X010807Y011608D03*
X010807Y011600D03*
X010807Y011592D03*
X010807Y011584D03*
X010807Y011576D03*
X010807Y011568D03*
X026271Y011304D03*
X026271Y012120D03*
D446*
X023939Y011312D03*
X020043Y011528D03*
X020043Y011536D03*
X020043Y011544D03*
X020043Y011552D03*
X020043Y011560D03*
X020043Y011568D03*
X020043Y011576D03*
X020043Y011584D03*
X020043Y011592D03*
X020043Y011600D03*
X012723Y011968D03*
X009043Y011592D03*
X009043Y011584D03*
X009043Y011576D03*
X009043Y011568D03*
X009043Y011560D03*
X009043Y011552D03*
X009043Y011544D03*
X009043Y011536D03*
X008603Y011304D03*
D447*
X026271Y011312D03*
D448*
X026643Y011392D03*
X026643Y012032D03*
X025899Y012032D03*
X025883Y011408D03*
X025899Y011392D03*
X023643Y011472D03*
X022683Y011784D03*
X021619Y011768D03*
X020643Y011784D03*
X020083Y011760D03*
X020083Y011368D03*
X018219Y011784D03*
X018003Y011984D03*
X014379Y011792D03*
X012939Y011808D03*
X011859Y012312D03*
X011043Y011816D03*
X011043Y011312D03*
X009643Y011784D03*
X009083Y011760D03*
X009083Y011368D03*
D449*
X008603Y011312D03*
X009427Y012000D03*
X010571Y011328D03*
X012987Y011888D03*
X012987Y011896D03*
X012987Y011904D03*
X012987Y011912D03*
X012987Y011920D03*
X012987Y011928D03*
X012987Y011936D03*
X012987Y011944D03*
X012987Y011952D03*
X012987Y011960D03*
X012987Y011968D03*
X012987Y011976D03*
X012987Y011984D03*
X018003Y012000D03*
X020427Y012000D03*
X022467Y012000D03*
X023651Y011816D03*
X007267Y011784D03*
X007267Y011776D03*
D450*
X009119Y011320D03*
X011895Y012208D03*
X011895Y012216D03*
X011895Y012224D03*
X018007Y011968D03*
X020119Y011320D03*
X022463Y011968D03*
X023703Y011520D03*
X023839Y011632D03*
D451*
X026555Y011328D03*
X019155Y011816D03*
X017691Y011336D03*
X016275Y011816D03*
D452*
X016759Y012088D03*
X016759Y012328D03*
X019639Y012328D03*
X019639Y012088D03*
X023639Y011800D03*
X023951Y011336D03*
X012703Y012000D03*
X011519Y012088D03*
X011519Y012328D03*
X008607Y011336D03*
X007335Y011880D03*
X007343Y011904D03*
X007359Y011944D03*
X007375Y011984D03*
X007191Y011896D03*
X007191Y011888D03*
X007199Y011880D03*
X007199Y011872D03*
X007183Y011912D03*
X007175Y011928D03*
X007175Y011936D03*
X007167Y011952D03*
X007159Y011968D03*
X007151Y011992D03*
X007143Y012008D03*
X007135Y012032D03*
X007127Y012048D03*
X007111Y012088D03*
X007263Y011712D03*
D453*
X009611Y011808D03*
X020611Y011808D03*
X022131Y011344D03*
X022651Y011808D03*
X025931Y012064D03*
X026611Y012064D03*
X025931Y011360D03*
D454*
X010579Y011344D03*
X007443Y012152D03*
X007443Y012160D03*
X007419Y012104D03*
X007419Y012096D03*
X007419Y012088D03*
X007403Y012064D03*
X007403Y012056D03*
X007403Y012048D03*
X007379Y012000D03*
X007379Y011992D03*
X007363Y011960D03*
X007363Y011952D03*
X007339Y011896D03*
X007339Y011888D03*
X007179Y011920D03*
X007163Y011960D03*
X007139Y012016D03*
X007139Y012024D03*
X007123Y012056D03*
X007123Y012064D03*
X007099Y012112D03*
X007099Y012120D03*
X007083Y012152D03*
X007083Y012160D03*
D455*
X008607Y011344D03*
X010583Y011352D03*
X011519Y012080D03*
X016759Y012080D03*
X019639Y012080D03*
X022463Y012008D03*
X023783Y012008D03*
X023959Y011352D03*
D456*
X023587Y011352D03*
X023587Y011360D03*
X023587Y011368D03*
X023587Y011376D03*
X023587Y011384D03*
X023587Y011392D03*
X014627Y012000D03*
X011867Y012328D03*
X011147Y011488D03*
X011147Y011480D03*
X010475Y011688D03*
X007267Y011800D03*
D457*
X008603Y011352D03*
X012699Y011824D03*
X023963Y011376D03*
D458*
X023959Y011360D03*
X018863Y012008D03*
X015983Y012008D03*
X007263Y011648D03*
D459*
X010583Y011360D03*
X012703Y012008D03*
X026263Y012320D03*
D460*
X023963Y011368D03*
X023635Y011768D03*
D461*
X023635Y011760D03*
X010587Y011368D03*
D462*
X010591Y011376D03*
X012687Y011816D03*
D463*
X011731Y012160D03*
X019635Y012072D03*
X023635Y011752D03*
X023963Y011384D03*
D464*
X010803Y011504D03*
X010803Y011512D03*
X010803Y011520D03*
X010803Y011528D03*
X010803Y011536D03*
X010803Y011544D03*
X010803Y011552D03*
X010803Y011560D03*
D465*
X010803Y011632D03*
X010803Y011640D03*
D466*
X011523Y012336D03*
X009427Y012008D03*
X007267Y011664D03*
X007267Y011656D03*
X016763Y012336D03*
X018003Y012008D03*
X019635Y012336D03*
X020427Y012008D03*
X021291Y012008D03*
X023635Y011784D03*
D467*
X014627Y012008D03*
X007267Y011680D03*
X007267Y011672D03*
D468*
X007267Y011696D03*
X007267Y011704D03*
X007331Y011872D03*
X007347Y011912D03*
X007347Y011920D03*
X007355Y011928D03*
X007355Y011936D03*
X007371Y011968D03*
X007371Y011976D03*
X007387Y012008D03*
X007387Y012016D03*
X007387Y012024D03*
X007395Y012032D03*
X007395Y012040D03*
X007411Y012072D03*
X007411Y012080D03*
X007427Y012112D03*
X007427Y012120D03*
X007435Y012136D03*
X007435Y012144D03*
X007451Y012176D03*
X007131Y012040D03*
X007115Y012072D03*
X007115Y012080D03*
X007107Y012096D03*
X007107Y012104D03*
X007091Y012128D03*
X007091Y012136D03*
X007091Y012144D03*
X007075Y012168D03*
X007075Y012176D03*
X007147Y012000D03*
X007155Y011984D03*
X007155Y011976D03*
X007171Y011944D03*
X007187Y011904D03*
D469*
X007263Y011752D03*
X011519Y012096D03*
X016759Y012096D03*
X016759Y012320D03*
X018863Y012000D03*
X019639Y012096D03*
X019639Y012320D03*
D470*
X020143Y011816D03*
X009143Y011816D03*
D471*
X017923Y011824D03*
X022387Y011824D03*
D472*
X021399Y011872D03*
X021399Y011880D03*
X014623Y011832D03*
D473*
X023771Y011912D03*
D474*
X021295Y011920D03*
X020431Y011936D03*
X018871Y011920D03*
X015991Y011920D03*
X009431Y011936D03*
D475*
X010803Y011960D03*
X023779Y011928D03*
D476*
X023775Y011944D03*
X026271Y012288D03*
X010807Y011968D03*
D477*
X021291Y011944D03*
D478*
X016759Y012072D03*
X011519Y012072D03*
D479*
X007431Y012128D03*
D480*
X018848Y014055D03*
X021888Y014055D03*
X021888Y018040D03*
X018848Y018040D03*
D481*
X018848Y018035D03*
X021888Y018035D03*
X021888Y014060D03*
X018848Y014060D03*
D482*
X018848Y014065D03*
X021888Y014065D03*
X021888Y018030D03*
X018848Y018030D03*
D483*
X018848Y014070D03*
X021888Y014070D03*
D484*
X021886Y014075D03*
X018851Y014075D03*
X018851Y018020D03*
X021886Y018020D03*
D485*
X021886Y014080D03*
X018851Y014080D03*
D486*
X018853Y014085D03*
X021883Y014085D03*
X021883Y018010D03*
X018853Y018010D03*
D487*
X018853Y018005D03*
X021883Y018005D03*
X021883Y014090D03*
X018853Y014090D03*
D488*
X018856Y014095D03*
X019596Y014325D03*
X021141Y014325D03*
X021881Y014095D03*
X021881Y018000D03*
X018856Y018000D03*
D489*
X018856Y017995D03*
X021881Y017995D03*
X021146Y014330D03*
X021881Y014100D03*
X019591Y014330D03*
X018856Y014100D03*
D490*
X018858Y014105D03*
X019588Y014335D03*
X021148Y014335D03*
X021878Y014105D03*
X021878Y017990D03*
X018858Y017990D03*
D491*
X018858Y017985D03*
X021878Y017985D03*
X021153Y014340D03*
X021878Y014110D03*
X019583Y014340D03*
X018858Y014110D03*
D492*
X018861Y014115D03*
X021876Y014115D03*
X021876Y017980D03*
X018861Y017980D03*
D493*
X018861Y017975D03*
X021876Y017975D03*
X021161Y014350D03*
X021876Y014120D03*
X019576Y014350D03*
X018861Y014120D03*
D494*
X018861Y014125D03*
X019571Y014355D03*
X021166Y014355D03*
X021876Y014125D03*
D495*
X021873Y014130D03*
X021168Y014360D03*
X019568Y014360D03*
X018863Y014130D03*
X018863Y017965D03*
X021873Y017965D03*
D496*
X021873Y014135D03*
X018863Y014135D03*
D497*
X018866Y014140D03*
X021871Y014140D03*
X021871Y017955D03*
X018866Y017955D03*
D498*
X021871Y017950D03*
X021871Y014145D03*
X018866Y014145D03*
D499*
X018868Y014150D03*
X021868Y014150D03*
X021868Y017945D03*
X018868Y017945D03*
D500*
X018868Y017940D03*
X021868Y017940D03*
X021868Y014155D03*
X018868Y014155D03*
D501*
X018871Y014160D03*
X021866Y014160D03*
X021866Y017935D03*
X018871Y017935D03*
D502*
X018871Y017930D03*
X021866Y017930D03*
X021866Y014165D03*
X018871Y014165D03*
D503*
X018873Y014170D03*
X021863Y014170D03*
X021863Y017925D03*
X018873Y017925D03*
D504*
X018873Y017920D03*
X021863Y017920D03*
X021863Y014175D03*
X018873Y014175D03*
D505*
X018876Y014180D03*
X021861Y014180D03*
X021861Y017915D03*
X018876Y017915D03*
D506*
X018876Y017910D03*
X021861Y017910D03*
X021861Y014185D03*
X018876Y014185D03*
D507*
X018876Y014190D03*
X021861Y014190D03*
D508*
X021858Y014195D03*
X018878Y014195D03*
X018878Y017900D03*
X021858Y017900D03*
D509*
X021858Y014200D03*
X018878Y014200D03*
D510*
X018881Y014205D03*
X021856Y014205D03*
X021856Y017890D03*
X018881Y017890D03*
D511*
X018881Y017885D03*
X021856Y017885D03*
X021856Y014210D03*
X018881Y014210D03*
D512*
X018883Y014215D03*
X021853Y014215D03*
X021853Y017880D03*
X018883Y017880D03*
D513*
X018883Y017875D03*
X021853Y017875D03*
X021853Y014220D03*
X018883Y014220D03*
D514*
X018886Y014225D03*
X021851Y014225D03*
X021851Y017870D03*
X018886Y017870D03*
D515*
X018886Y017865D03*
X021851Y017865D03*
X021851Y014230D03*
X018886Y014230D03*
D516*
X018888Y014235D03*
X021848Y014235D03*
X021848Y017860D03*
X018888Y017860D03*
D517*
X018888Y017855D03*
X021848Y017855D03*
X021848Y014240D03*
X018888Y014240D03*
D518*
X018888Y014245D03*
X021848Y014245D03*
D519*
X021846Y014250D03*
X018891Y014250D03*
X018891Y017845D03*
X021846Y017845D03*
D520*
X021846Y014255D03*
X018891Y014255D03*
D521*
X018893Y014260D03*
X021843Y014260D03*
X021843Y017835D03*
X018893Y017835D03*
D522*
X021843Y017830D03*
X021843Y014265D03*
X018893Y014265D03*
D523*
X018896Y014270D03*
X021841Y014270D03*
X021841Y017825D03*
X018896Y017825D03*
D524*
X018896Y017820D03*
X021841Y017820D03*
X021841Y014275D03*
X018896Y014275D03*
D525*
X019628Y014275D03*
X021108Y014275D03*
D526*
X021838Y014280D03*
X018898Y014280D03*
X018898Y017815D03*
X021838Y017815D03*
D527*
X021111Y014280D03*
X019626Y014280D03*
D528*
X018898Y014285D03*
X021838Y014285D03*
X021838Y017810D03*
X018898Y017810D03*
D529*
X019623Y014285D03*
X021113Y014285D03*
D530*
X021836Y014290D03*
X018901Y014290D03*
X018901Y017805D03*
X021836Y017805D03*
D531*
X021116Y014290D03*
X019621Y014290D03*
D532*
X018901Y014295D03*
X021836Y014295D03*
X021836Y017800D03*
X018901Y017800D03*
D533*
X019616Y014295D03*
X021121Y014295D03*
D534*
X018901Y014300D03*
D535*
X019613Y014300D03*
X021123Y014300D03*
D536*
X021833Y014300D03*
X021833Y017795D03*
X018903Y017795D03*
D537*
X018903Y017790D03*
X021833Y017790D03*
X021833Y014305D03*
X018903Y014305D03*
D538*
X019608Y014305D03*
X021128Y014305D03*
D539*
X021833Y014310D03*
X018903Y014310D03*
X020368Y018540D03*
D540*
X019606Y014310D03*
X021131Y014310D03*
D541*
X021831Y014315D03*
X018906Y014315D03*
X018906Y017780D03*
X021831Y017780D03*
D542*
X021136Y014315D03*
X019601Y014315D03*
D543*
X018906Y014320D03*
X021831Y014320D03*
D544*
X021141Y014320D03*
X019596Y014320D03*
D545*
X018908Y014325D03*
X021828Y014325D03*
X021828Y017770D03*
X020368Y018490D03*
X020368Y018495D03*
X020368Y018500D03*
X020368Y018505D03*
X020368Y018510D03*
X018908Y017770D03*
D546*
X018908Y017765D03*
X020368Y018460D03*
X020368Y018465D03*
X020368Y018470D03*
X020368Y018475D03*
X020368Y018480D03*
X021828Y017765D03*
X021828Y014330D03*
X018908Y014330D03*
D547*
X018911Y014335D03*
X021826Y014335D03*
X021826Y017760D03*
X018911Y017760D03*
D548*
X018911Y017755D03*
X021826Y017755D03*
X021826Y014340D03*
X018911Y014340D03*
D549*
X018913Y014345D03*
X021823Y014345D03*
X021823Y017750D03*
X020368Y018355D03*
X020368Y018360D03*
X020368Y018365D03*
X020368Y018370D03*
X020368Y018375D03*
X018913Y017750D03*
D550*
X019578Y014345D03*
X021158Y014345D03*
D551*
X021823Y014350D03*
X018913Y014350D03*
X018913Y017745D03*
X020368Y018325D03*
X020368Y018330D03*
X020368Y018335D03*
X020368Y018340D03*
X020368Y018345D03*
X020368Y018350D03*
X021823Y017745D03*
D552*
X021821Y017740D03*
X018916Y017740D03*
X018916Y014355D03*
X021821Y014355D03*
D553*
X021821Y014360D03*
X018916Y014360D03*
X018916Y017735D03*
X020371Y018270D03*
X021821Y017735D03*
D554*
X021821Y014365D03*
X018916Y014365D03*
D555*
X019566Y014365D03*
X021171Y014365D03*
D556*
X021818Y014370D03*
X018918Y014370D03*
X018918Y017725D03*
X020368Y018190D03*
X020368Y018195D03*
X020368Y018200D03*
X020368Y018205D03*
X020368Y018210D03*
X020368Y018215D03*
X021818Y017725D03*
D557*
X021173Y014370D03*
X019563Y014370D03*
D558*
X018918Y014375D03*
X021818Y014375D03*
X020368Y018165D03*
X020368Y018170D03*
X020368Y018175D03*
X020368Y018180D03*
X020368Y018185D03*
D559*
X019558Y014375D03*
X021178Y014375D03*
D560*
X021816Y014380D03*
X018921Y014380D03*
X018921Y017715D03*
X020371Y018135D03*
X021816Y017715D03*
D561*
X018868Y017950D03*
X019553Y014380D03*
X021183Y014380D03*
D562*
X021816Y014385D03*
X018921Y014385D03*
X018921Y017710D03*
X021816Y017710D03*
D563*
X021186Y014385D03*
X019551Y014385D03*
D564*
X018923Y014390D03*
X021813Y014390D03*
X021813Y017705D03*
X020368Y018060D03*
X020368Y018065D03*
X020368Y018070D03*
X020368Y018075D03*
X020368Y018080D03*
X018923Y017705D03*
D565*
X019546Y014390D03*
X021191Y014390D03*
D566*
X021811Y014395D03*
X018926Y014395D03*
D567*
X019543Y014395D03*
X021193Y014395D03*
D568*
X021648Y014400D03*
X019088Y014400D03*
D569*
X019086Y014405D03*
X021651Y014405D03*
D570*
X021651Y014410D03*
X019086Y014410D03*
D571*
X019083Y014415D03*
X021653Y014415D03*
D572*
X021653Y014420D03*
X021398Y015040D03*
X021398Y015045D03*
X021393Y015055D03*
X019343Y015055D03*
X019338Y015045D03*
X019338Y015040D03*
X019083Y014420D03*
D573*
X019081Y014425D03*
X019326Y015020D03*
X019331Y015030D03*
X019336Y015035D03*
X019341Y015050D03*
X019346Y015060D03*
X019346Y015065D03*
X019346Y015070D03*
X021391Y015070D03*
X021391Y015065D03*
X021391Y015060D03*
X021396Y015050D03*
X021401Y015035D03*
X021406Y015030D03*
X021411Y015020D03*
X021656Y014425D03*
D574*
X021656Y014430D03*
X021431Y014985D03*
X021426Y014990D03*
X021426Y014995D03*
X021421Y015000D03*
X021416Y015010D03*
X021386Y015085D03*
X019351Y015085D03*
X019321Y015010D03*
X019316Y015000D03*
X019311Y014995D03*
X019311Y014990D03*
X019306Y014985D03*
X019081Y014430D03*
D575*
X019078Y014435D03*
X019293Y014960D03*
X019298Y014970D03*
X019303Y014975D03*
X019303Y014980D03*
X019348Y015090D03*
X021388Y015090D03*
X021433Y014980D03*
X021433Y014975D03*
X021438Y014970D03*
X021443Y014960D03*
X021658Y014435D03*
D576*
X021661Y014440D03*
X021451Y014945D03*
X021446Y014955D03*
X021441Y014965D03*
X021386Y015095D03*
X021386Y015100D03*
X019351Y015100D03*
X019351Y015095D03*
X019296Y014965D03*
X019291Y014955D03*
X019076Y014440D03*
D577*
X019076Y014445D03*
X019266Y014910D03*
X019271Y014920D03*
X019276Y014930D03*
X019351Y015110D03*
X021386Y015110D03*
X021461Y014930D03*
X021466Y014920D03*
X021471Y014910D03*
X021661Y014445D03*
D578*
X021663Y014450D03*
X021478Y014895D03*
X021478Y014900D03*
X021473Y014905D03*
X021468Y014915D03*
X021388Y015115D03*
X019348Y015115D03*
X019268Y014915D03*
X019263Y014905D03*
X019258Y014900D03*
X019258Y014895D03*
X019073Y014450D03*
D579*
X019073Y014455D03*
X019238Y014860D03*
X019243Y014865D03*
X019243Y014870D03*
X019348Y015130D03*
X021388Y015130D03*
X021493Y014870D03*
X021493Y014865D03*
X021498Y014860D03*
X021663Y014455D03*
D580*
X021666Y014460D03*
X021511Y014840D03*
X021506Y014845D03*
X021506Y014850D03*
X021501Y014855D03*
X021386Y015135D03*
X019351Y015135D03*
X019236Y014855D03*
X019231Y014850D03*
X019231Y014845D03*
X019226Y014840D03*
X019071Y014460D03*
D581*
X019068Y014465D03*
X019213Y014815D03*
X019218Y014825D03*
X019223Y014830D03*
X019223Y014835D03*
X019348Y015140D03*
X021388Y015140D03*
X021513Y014835D03*
X021513Y014830D03*
X021518Y014825D03*
X021523Y014815D03*
X021668Y014465D03*
X020368Y017785D03*
D582*
X019208Y014805D03*
X019203Y014795D03*
X019198Y014790D03*
X019198Y014785D03*
X019193Y014780D03*
X019068Y014470D03*
X021528Y014805D03*
X021533Y014795D03*
X021538Y014790D03*
X021538Y014785D03*
X021543Y014780D03*
X021668Y014470D03*
D583*
X021671Y014475D03*
X021551Y014765D03*
X021546Y014775D03*
X021386Y015155D03*
X021386Y015160D03*
X019351Y015160D03*
X019351Y015155D03*
X019191Y014775D03*
X019186Y014765D03*
X019066Y014475D03*
D584*
X019066Y014480D03*
X019166Y014730D03*
X019171Y014735D03*
X019171Y014740D03*
X019176Y014745D03*
X019351Y015170D03*
X019351Y015175D03*
X019196Y015560D03*
X019191Y015570D03*
X019186Y015575D03*
X019181Y015580D03*
X019181Y016510D03*
X019206Y016535D03*
X019211Y016540D03*
X021526Y016540D03*
X021531Y016535D03*
X021556Y016510D03*
X021556Y015580D03*
X021551Y015575D03*
X021546Y015570D03*
X021541Y015560D03*
X021386Y015175D03*
X021386Y015170D03*
X021561Y014745D03*
X021566Y014740D03*
X021566Y014735D03*
X021571Y014730D03*
X021671Y014480D03*
D585*
X021673Y014485D03*
X021583Y014705D03*
X021578Y014715D03*
X021573Y014720D03*
X021573Y014725D03*
X021538Y015555D03*
X021543Y015565D03*
X021563Y015585D03*
X021523Y016545D03*
X021518Y016550D03*
X019218Y016550D03*
X019213Y016545D03*
X019173Y015585D03*
X019193Y015565D03*
X019198Y015555D03*
X019163Y014725D03*
X019163Y014720D03*
X019158Y014715D03*
X019153Y014705D03*
X019063Y014485D03*
D586*
X019061Y014490D03*
X019146Y014695D03*
X019151Y014700D03*
X019156Y014710D03*
X019351Y015180D03*
X019351Y015185D03*
X019206Y015545D03*
X019201Y015550D03*
X019166Y015590D03*
X019221Y016555D03*
X019226Y016560D03*
X021511Y016560D03*
X021516Y016555D03*
X021571Y015590D03*
X021536Y015550D03*
X021531Y015545D03*
X021386Y015185D03*
X021386Y015180D03*
X021581Y014710D03*
X021586Y014700D03*
X021591Y014695D03*
X021591Y014690D03*
X021676Y014490D03*
D587*
X021676Y014495D03*
X021611Y014655D03*
X021606Y014665D03*
X021601Y014675D03*
X021386Y015195D03*
X021571Y016505D03*
X021501Y016575D03*
X019236Y016575D03*
X019166Y016505D03*
X019351Y015195D03*
X019136Y014675D03*
X019131Y014665D03*
X019126Y014655D03*
X019061Y014495D03*
D588*
X019058Y014500D03*
X019113Y014635D03*
X019118Y014640D03*
X019118Y014645D03*
X019123Y014650D03*
X019128Y014660D03*
X019348Y015200D03*
X019218Y015530D03*
X019238Y016580D03*
X019243Y016585D03*
X021498Y016580D03*
X021518Y015530D03*
X021388Y015200D03*
X021608Y014660D03*
X021613Y014650D03*
X021618Y014645D03*
X021618Y014640D03*
X021623Y014635D03*
X021678Y014500D03*
D589*
X021678Y014505D03*
X021678Y014510D03*
X021638Y014605D03*
X021633Y014615D03*
X021388Y015215D03*
X021503Y015510D03*
X021508Y015515D03*
X021588Y015595D03*
X021488Y016590D03*
X021483Y016595D03*
X019253Y016595D03*
X019248Y016590D03*
X019148Y015595D03*
X019228Y015515D03*
X019233Y015510D03*
X019348Y015215D03*
X019103Y014615D03*
X019098Y014605D03*
X019058Y014510D03*
X019058Y014505D03*
D590*
X019058Y014515D03*
X019058Y014520D03*
X019073Y014560D03*
X019078Y014570D03*
X019083Y014575D03*
X019083Y014580D03*
X019348Y015225D03*
X019238Y015500D03*
X019263Y016605D03*
X020368Y017770D03*
X021473Y016605D03*
X021498Y015500D03*
X021388Y015225D03*
X021653Y014580D03*
X021653Y014575D03*
X021658Y014570D03*
X021663Y014560D03*
X021678Y014520D03*
X021678Y014515D03*
D591*
X021681Y014525D03*
X021676Y014535D03*
X021671Y014545D03*
X021671Y014550D03*
X021666Y014555D03*
X021661Y014565D03*
X021386Y015230D03*
X021386Y015235D03*
X021491Y015495D03*
X021471Y016610D03*
X019266Y016610D03*
X019246Y015495D03*
X019351Y015235D03*
X019351Y015230D03*
X019076Y014565D03*
X019071Y014555D03*
X019066Y014550D03*
X019066Y014545D03*
X019061Y014535D03*
X019056Y014525D03*
D592*
X019058Y014530D03*
X019063Y014540D03*
X019253Y015485D03*
X019248Y015490D03*
X019133Y015600D03*
X019268Y016615D03*
X021483Y015485D03*
X021488Y015490D03*
X021603Y015600D03*
X021673Y014540D03*
X021678Y014530D03*
D593*
X021651Y014585D03*
X021646Y014590D03*
X021646Y014595D03*
X021641Y014600D03*
X021386Y015220D03*
X021501Y015505D03*
X021586Y016500D03*
X021481Y016600D03*
X019256Y016600D03*
X019151Y016500D03*
X019236Y015505D03*
X019351Y015220D03*
X019096Y014600D03*
X019091Y014595D03*
X019091Y014590D03*
X019086Y014585D03*
D594*
X019101Y014610D03*
X019106Y014620D03*
X019111Y014625D03*
X019111Y014630D03*
X019351Y015205D03*
X019351Y015210D03*
X019226Y015520D03*
X019221Y015525D03*
X021386Y015210D03*
X021386Y015205D03*
X021511Y015520D03*
X021516Y015525D03*
X021626Y014630D03*
X021626Y014625D03*
X021631Y014620D03*
X021636Y014610D03*
X021491Y016585D03*
D595*
X021503Y016570D03*
X021508Y016565D03*
X021528Y015540D03*
X021523Y015535D03*
X021388Y015190D03*
X021593Y014685D03*
X021598Y014680D03*
X021603Y014670D03*
X019348Y015190D03*
X019213Y015535D03*
X019208Y015540D03*
X019143Y014690D03*
X019143Y014685D03*
X019138Y014680D03*
X019133Y014670D03*
X019228Y016565D03*
X019233Y016570D03*
X020368Y017775D03*
D596*
X020368Y017780D03*
X019203Y016530D03*
X019198Y016525D03*
X019193Y016520D03*
X019188Y016515D03*
X019348Y015165D03*
X019188Y014770D03*
X019183Y014760D03*
X019178Y014755D03*
X019178Y014750D03*
X021388Y015165D03*
X021548Y014770D03*
X021553Y014760D03*
X021558Y014755D03*
X021558Y014750D03*
X021548Y016515D03*
X021543Y016520D03*
X021538Y016525D03*
X021533Y016530D03*
D597*
X021386Y015150D03*
X021386Y015145D03*
X021521Y014820D03*
X021526Y014810D03*
X021531Y014800D03*
X019351Y015145D03*
X019351Y015150D03*
X019216Y014820D03*
X019211Y014810D03*
X019206Y014800D03*
D598*
X019246Y014875D03*
X019251Y014880D03*
X019251Y014885D03*
X019256Y014890D03*
X019351Y015120D03*
X019351Y015125D03*
X021386Y015125D03*
X021386Y015120D03*
X021481Y014890D03*
X021486Y014885D03*
X021486Y014880D03*
X021491Y014875D03*
D599*
X021463Y014925D03*
X021458Y014935D03*
X021453Y014940D03*
X021448Y014950D03*
X021388Y015105D03*
X019348Y015105D03*
X019288Y014950D03*
X019283Y014945D03*
X019283Y014940D03*
X019278Y014935D03*
X019273Y014925D03*
X020368Y017790D03*
D600*
X020368Y017795D03*
X019348Y015080D03*
X019348Y015075D03*
X019328Y015025D03*
X019323Y015015D03*
X019318Y015005D03*
X021388Y015075D03*
X021388Y015080D03*
X021408Y015025D03*
X021413Y015015D03*
X021418Y015005D03*
D601*
X021386Y015240D03*
X021386Y015245D03*
X021466Y016615D03*
X021461Y016620D03*
X019276Y016620D03*
X019351Y015245D03*
X019351Y015240D03*
D602*
X019348Y015250D03*
X019258Y015480D03*
X019133Y016495D03*
X019278Y016625D03*
X020368Y017765D03*
X021458Y016625D03*
X021603Y016495D03*
X021478Y015480D03*
X021388Y015250D03*
D603*
X021386Y015255D03*
X021386Y015260D03*
X021471Y015470D03*
X021476Y015475D03*
X021451Y016630D03*
X019286Y016630D03*
X019261Y015475D03*
X019266Y015470D03*
X019351Y015260D03*
X019351Y015255D03*
D604*
X019351Y015265D03*
X019351Y015270D03*
X019276Y015460D03*
X019271Y015465D03*
X019121Y015605D03*
X019296Y016640D03*
X021441Y016640D03*
X021616Y015605D03*
X021466Y015465D03*
X021461Y015460D03*
X021386Y015270D03*
X021386Y015265D03*
D605*
X021388Y015275D03*
X019348Y015275D03*
D606*
X019351Y015280D03*
X019351Y015285D03*
X019281Y015455D03*
X019121Y016490D03*
X019301Y016645D03*
X021436Y016645D03*
X021616Y016490D03*
X021456Y015455D03*
X021386Y015285D03*
X021386Y015280D03*
D607*
X021386Y015290D03*
X021386Y015295D03*
X021426Y016655D03*
X019311Y016655D03*
X019351Y015295D03*
X019351Y015290D03*
D608*
X019351Y015300D03*
X019351Y015305D03*
X019351Y015310D03*
X019301Y015430D03*
X019106Y016485D03*
X019316Y016660D03*
X021421Y016660D03*
X021631Y016485D03*
X021436Y015430D03*
X021386Y015310D03*
X021386Y015305D03*
X021386Y015300D03*
D609*
X021386Y015315D03*
X021386Y015320D03*
X021426Y015420D03*
X021431Y015425D03*
X019351Y015320D03*
X019351Y015315D03*
X019311Y015420D03*
X019306Y015425D03*
D610*
X019316Y015415D03*
X019351Y015335D03*
X019351Y015330D03*
X019351Y015325D03*
X019336Y016675D03*
X021401Y016675D03*
X021421Y015415D03*
X021386Y015335D03*
X021386Y015330D03*
X021386Y015325D03*
D611*
X021386Y015340D03*
X021386Y015345D03*
X021411Y015405D03*
X021396Y016680D03*
X019341Y016680D03*
X019326Y015405D03*
X019351Y015345D03*
X019351Y015340D03*
D612*
X019351Y015350D03*
X019351Y015355D03*
X019351Y015360D03*
X019331Y015400D03*
X019346Y016685D03*
X021391Y016685D03*
X021666Y015620D03*
X021406Y015400D03*
X021386Y015360D03*
X021386Y015355D03*
X021386Y015350D03*
D613*
X021386Y015365D03*
X021386Y015370D03*
X021391Y015380D03*
X021391Y015385D03*
X021396Y015390D03*
X019351Y015370D03*
X019351Y015365D03*
X019346Y015380D03*
X019346Y015385D03*
X019341Y015390D03*
D614*
X019348Y015375D03*
X021388Y015375D03*
X020368Y017745D03*
D615*
X019353Y016690D03*
X019073Y016475D03*
X019338Y015395D03*
X021398Y015395D03*
X021663Y016475D03*
X021383Y016690D03*
D616*
X021648Y016480D03*
X021413Y015410D03*
X019323Y015410D03*
X019088Y016480D03*
D617*
X019103Y015610D03*
X019293Y015440D03*
X019298Y015435D03*
X021438Y015435D03*
X021443Y015440D03*
X021633Y015610D03*
D618*
X021453Y015450D03*
X021448Y015445D03*
X021433Y016650D03*
X020368Y017760D03*
X019303Y016650D03*
X019283Y015450D03*
X019288Y015445D03*
D619*
X019088Y015615D03*
X019328Y016670D03*
X021408Y016670D03*
X021648Y015615D03*
D620*
X020368Y017750D03*
X019073Y015620D03*
D621*
X019056Y015625D03*
X019361Y016695D03*
X021376Y016695D03*
X021681Y015625D03*
D622*
X021693Y015630D03*
X020368Y017740D03*
X019043Y015630D03*
D623*
X019026Y015635D03*
X021711Y015635D03*
D624*
X021726Y015640D03*
X019011Y015640D03*
D625*
X018998Y015645D03*
X020368Y017725D03*
X021738Y015645D03*
D626*
X021756Y015650D03*
X018981Y015650D03*
D627*
X018966Y015655D03*
X021771Y015655D03*
D628*
X021783Y015660D03*
X020368Y017710D03*
X018953Y015660D03*
D629*
X018936Y015665D03*
X021801Y015665D03*
D630*
X021816Y015670D03*
X018921Y015670D03*
D631*
X018906Y015675D03*
X021831Y015675D03*
D632*
X021846Y015680D03*
X018891Y015680D03*
D633*
X018876Y015685D03*
X021861Y015685D03*
D634*
X021876Y015690D03*
X021966Y015935D03*
X021966Y015940D03*
X021966Y015945D03*
X021966Y015950D03*
X021966Y015955D03*
X021966Y015960D03*
X021966Y015965D03*
X021966Y015970D03*
X021966Y016120D03*
X021966Y016125D03*
X021966Y016130D03*
X021966Y016135D03*
X021966Y016140D03*
X021966Y016145D03*
X021966Y016150D03*
X018861Y015690D03*
X018771Y015935D03*
X018771Y015940D03*
X018771Y015945D03*
X018771Y015950D03*
X018771Y015955D03*
X018771Y015960D03*
X018771Y015965D03*
X018771Y015970D03*
X018771Y016120D03*
X018771Y016125D03*
X018771Y016130D03*
X018771Y016135D03*
X018771Y016140D03*
X018771Y016145D03*
X018771Y016150D03*
D635*
X018781Y016225D03*
X018781Y016230D03*
X018781Y016235D03*
X018781Y016240D03*
X018781Y015860D03*
X018781Y015855D03*
X018781Y015850D03*
X018781Y015845D03*
X018846Y015695D03*
X021891Y015695D03*
X021956Y015845D03*
X021956Y015850D03*
X021956Y015855D03*
X021956Y015860D03*
X021956Y016225D03*
X021956Y016230D03*
X021956Y016235D03*
X021956Y016240D03*
D636*
X021943Y016305D03*
X021943Y016310D03*
X021943Y015785D03*
X021943Y015780D03*
X021943Y015775D03*
X021903Y015700D03*
X018833Y015700D03*
X018793Y015775D03*
X018793Y015780D03*
X018793Y015785D03*
X018793Y016305D03*
X018793Y016310D03*
X018793Y016315D03*
D637*
X018801Y016340D03*
X018801Y016345D03*
X018801Y015750D03*
X018801Y015745D03*
X018821Y015705D03*
X021916Y015705D03*
X021936Y015745D03*
X021936Y015750D03*
X021936Y016340D03*
X021936Y016345D03*
D638*
X021933Y016350D03*
X021933Y016355D03*
X021928Y016365D03*
X021918Y016385D03*
X021913Y016390D03*
X021933Y015740D03*
X021933Y015735D03*
X021928Y015730D03*
X021928Y015725D03*
X021923Y015715D03*
X021918Y015710D03*
X018818Y015710D03*
X018813Y015715D03*
X018808Y015725D03*
X018808Y015730D03*
X018803Y015735D03*
X018803Y015740D03*
X018803Y016350D03*
X018803Y016355D03*
X018808Y016365D03*
X018818Y016385D03*
X018823Y016390D03*
D639*
X018816Y016380D03*
X018811Y016375D03*
X018811Y016370D03*
X018806Y016360D03*
X018811Y015720D03*
X021926Y015720D03*
X021931Y016360D03*
X021926Y016370D03*
X021926Y016375D03*
X021921Y016380D03*
D640*
X021903Y016395D03*
X021938Y016335D03*
X021938Y016330D03*
X021938Y015760D03*
X021938Y015755D03*
X020368Y017670D03*
X018833Y016395D03*
X018798Y016335D03*
X018798Y016330D03*
X018798Y015760D03*
X018798Y015755D03*
D641*
X018796Y015765D03*
X018796Y015770D03*
X018796Y016320D03*
X018796Y016325D03*
X021941Y016325D03*
X021941Y016320D03*
X021941Y016315D03*
X021941Y015770D03*
X021941Y015765D03*
D642*
X021946Y015790D03*
X021946Y015795D03*
X021946Y016290D03*
X021946Y016295D03*
X021946Y016300D03*
X018791Y016300D03*
X018791Y016295D03*
X018791Y016290D03*
X018791Y015795D03*
X018791Y015790D03*
D643*
X018788Y015800D03*
X018788Y015805D03*
X018788Y015810D03*
X018788Y016275D03*
X018788Y016280D03*
X018788Y016285D03*
X021948Y016285D03*
X021948Y016280D03*
X021948Y016275D03*
X021948Y015810D03*
X021948Y015805D03*
X021948Y015800D03*
D644*
X021951Y015815D03*
X021951Y015820D03*
X021951Y015825D03*
X021951Y016265D03*
X021951Y016270D03*
X021891Y016400D03*
X018846Y016400D03*
X018786Y016270D03*
X018786Y016265D03*
X018786Y015825D03*
X018786Y015820D03*
X018786Y015815D03*
D645*
X018783Y015830D03*
X018783Y015835D03*
X018783Y015840D03*
X018783Y016245D03*
X018783Y016250D03*
X018783Y016255D03*
X018783Y016260D03*
X020368Y017675D03*
X021953Y016260D03*
X021953Y016255D03*
X021953Y016250D03*
X021953Y016245D03*
X021953Y015840D03*
X021953Y015835D03*
X021953Y015830D03*
D646*
X021958Y015865D03*
X021958Y015870D03*
X021958Y015875D03*
X021958Y015880D03*
X021958Y016205D03*
X021958Y016210D03*
X021958Y016215D03*
X021958Y016220D03*
X018778Y016220D03*
X018778Y016215D03*
X018778Y016210D03*
X018778Y016205D03*
X018778Y015880D03*
X018778Y015875D03*
X018778Y015870D03*
X018778Y015865D03*
D647*
X018776Y015885D03*
X018776Y015890D03*
X018776Y015895D03*
X018776Y015900D03*
X018776Y016185D03*
X018776Y016190D03*
X018776Y016195D03*
X018776Y016200D03*
X021961Y016200D03*
X021961Y016195D03*
X021961Y016190D03*
X021961Y016185D03*
X021961Y015900D03*
X021961Y015895D03*
X021961Y015890D03*
X021961Y015885D03*
D648*
X021963Y015905D03*
X021963Y015910D03*
X021963Y015915D03*
X021963Y015920D03*
X021963Y015925D03*
X021963Y015930D03*
X021963Y016155D03*
X021963Y016160D03*
X021963Y016165D03*
X021963Y016170D03*
X021963Y016175D03*
X021963Y016180D03*
X021873Y016405D03*
X020368Y017680D03*
X018863Y016405D03*
X018773Y016180D03*
X018773Y016175D03*
X018773Y016170D03*
X018773Y016165D03*
X018773Y016160D03*
X018773Y016155D03*
X018773Y015930D03*
X018773Y015925D03*
X018773Y015920D03*
X018773Y015915D03*
X018773Y015910D03*
X018773Y015905D03*
D649*
X018768Y015975D03*
X018768Y015980D03*
X018768Y015985D03*
X018768Y015990D03*
X018768Y015995D03*
X018768Y016000D03*
X018768Y016005D03*
X018768Y016010D03*
X018768Y016015D03*
X018768Y016020D03*
X018768Y016025D03*
X018768Y016030D03*
X018768Y016035D03*
X018768Y016040D03*
X018768Y016045D03*
X018768Y016050D03*
X018768Y016055D03*
X018768Y016060D03*
X018768Y016065D03*
X018768Y016070D03*
X018768Y016075D03*
X018768Y016080D03*
X018768Y016085D03*
X018768Y016090D03*
X018768Y016095D03*
X018768Y016100D03*
X018768Y016105D03*
X018768Y016110D03*
X018768Y016115D03*
X021968Y016115D03*
X021968Y016110D03*
X021968Y016105D03*
X021968Y016100D03*
X021968Y016095D03*
X021968Y016090D03*
X021968Y016085D03*
X021968Y016080D03*
X021968Y016075D03*
X021968Y016070D03*
X021968Y016065D03*
X021968Y016060D03*
X021968Y016055D03*
X021968Y016050D03*
X021968Y016045D03*
X021968Y016040D03*
X021968Y016035D03*
X021968Y016030D03*
X021968Y016025D03*
X021968Y016020D03*
X021968Y016015D03*
X021968Y016010D03*
X021968Y016005D03*
X021968Y016000D03*
X021968Y015995D03*
X021968Y015990D03*
X021968Y015985D03*
X021968Y015980D03*
X021968Y015975D03*
D650*
X021861Y016410D03*
X018876Y016410D03*
D651*
X018891Y016415D03*
X021846Y016415D03*
D652*
X021828Y016420D03*
X020368Y017695D03*
X018908Y016420D03*
D653*
X018921Y016425D03*
X021816Y016425D03*
D654*
X021801Y016430D03*
X018936Y016430D03*
D655*
X018951Y016435D03*
X021786Y016435D03*
D656*
X021771Y016440D03*
X018966Y016440D03*
D657*
X018983Y016445D03*
X019443Y016735D03*
X021293Y016735D03*
X021753Y016445D03*
D658*
X021738Y016450D03*
X018998Y016450D03*
D659*
X019011Y016455D03*
X019416Y016725D03*
X021321Y016725D03*
X021726Y016455D03*
D660*
X021708Y016460D03*
X019028Y016460D03*
D661*
X019043Y016465D03*
X021693Y016465D03*
D662*
X021678Y016470D03*
X019058Y016470D03*
D663*
X019288Y016635D03*
X021448Y016635D03*
D664*
X021413Y016665D03*
X020368Y017755D03*
X019323Y016665D03*
D665*
X019368Y016700D03*
X021368Y016700D03*
D666*
X021361Y016705D03*
X019376Y016705D03*
D667*
X019386Y016710D03*
X021351Y016710D03*
D668*
X021343Y016715D03*
X020368Y017735D03*
X019393Y016715D03*
D669*
X019403Y016720D03*
X020368Y017730D03*
X021333Y016720D03*
D670*
X021311Y016730D03*
X019426Y016730D03*
D671*
X019458Y016740D03*
X021278Y016740D03*
D672*
X021238Y016745D03*
X019498Y016745D03*
D673*
X020368Y016750D03*
X020368Y016755D03*
X020368Y017170D03*
D674*
X020368Y017165D03*
X020368Y017160D03*
X020368Y016765D03*
X020368Y016760D03*
D675*
X020368Y016770D03*
X020368Y016775D03*
X020368Y017155D03*
D676*
X020368Y017150D03*
X020368Y017145D03*
X020368Y016790D03*
X020368Y016785D03*
X020368Y016780D03*
D677*
X020368Y016795D03*
X020368Y016800D03*
X020368Y017140D03*
D678*
X020368Y017135D03*
X020368Y017130D03*
X020368Y016810D03*
X020368Y016805D03*
D679*
X020368Y016815D03*
X020368Y016820D03*
X020368Y016825D03*
X020368Y017125D03*
D680*
X020368Y017120D03*
X020368Y017115D03*
X020368Y016835D03*
X020368Y016830D03*
D681*
X020368Y016840D03*
X020368Y016845D03*
X020368Y017110D03*
D682*
X020368Y017105D03*
X020368Y017100D03*
X020368Y016860D03*
X020368Y016855D03*
X020368Y016850D03*
D683*
X020368Y016865D03*
X020368Y016870D03*
X020368Y017095D03*
D684*
X020368Y017090D03*
X020368Y016880D03*
X020368Y016875D03*
D685*
X020368Y016885D03*
X020368Y016890D03*
X020368Y016895D03*
X020368Y017080D03*
X020368Y017085D03*
D686*
X020368Y017075D03*
X020368Y016905D03*
X020368Y016900D03*
D687*
X020368Y016910D03*
X020368Y016915D03*
X020368Y017065D03*
X020368Y017070D03*
D688*
X020368Y017060D03*
X020368Y016930D03*
X020368Y016925D03*
X020368Y016920D03*
D689*
X020368Y016935D03*
X020368Y016940D03*
X020368Y017050D03*
X020368Y017055D03*
D690*
X020368Y017045D03*
X020368Y016950D03*
X020368Y016945D03*
D691*
X020368Y016955D03*
X020368Y016960D03*
X020368Y016965D03*
X020368Y017035D03*
X020368Y017040D03*
D692*
X020368Y017030D03*
X020368Y016975D03*
X020368Y016970D03*
D693*
X020368Y016980D03*
X020368Y016985D03*
X020368Y016990D03*
X020368Y016995D03*
X020368Y017000D03*
X020368Y017005D03*
X020368Y017010D03*
X020368Y017015D03*
X020368Y017020D03*
X020368Y017025D03*
D694*
X020368Y017175D03*
D695*
X020371Y017180D03*
D696*
X020368Y017185D03*
D697*
X020368Y017190D03*
D698*
X020368Y017195D03*
X020368Y017200D03*
D699*
X020368Y017205D03*
D700*
X020368Y017210D03*
X020368Y017215D03*
D701*
X020368Y017220D03*
D702*
X020368Y017225D03*
X020368Y017230D03*
D703*
X020368Y017235D03*
D704*
X020368Y017240D03*
X020368Y017245D03*
D705*
X020368Y017250D03*
D706*
X020368Y017255D03*
X020368Y017260D03*
D707*
X020368Y017265D03*
D708*
X020368Y017270D03*
D709*
X020368Y017275D03*
X020368Y017280D03*
D710*
X020368Y017285D03*
D711*
X020368Y017290D03*
X020368Y017295D03*
D712*
X020368Y017300D03*
D713*
X020368Y017305D03*
X020368Y017310D03*
D714*
X020368Y017315D03*
D715*
X020368Y017320D03*
X020368Y017325D03*
D716*
X020368Y017330D03*
D717*
X020368Y017335D03*
X020368Y017340D03*
D718*
X020368Y017345D03*
D719*
X020368Y017350D03*
D720*
X020368Y017355D03*
X020368Y017360D03*
D721*
X020368Y017365D03*
D722*
X020368Y017370D03*
X020368Y017375D03*
D723*
X020368Y017380D03*
D724*
X020368Y017385D03*
X020368Y017390D03*
D725*
X020368Y017395D03*
D726*
X020368Y017400D03*
X020368Y017405D03*
D727*
X020368Y017410D03*
D728*
X020368Y017415D03*
X020368Y017420D03*
D729*
X020368Y017425D03*
D730*
X020368Y017430D03*
D731*
X020371Y017435D03*
D732*
X020368Y017440D03*
X020368Y017665D03*
D733*
X020368Y017660D03*
X020368Y017445D03*
D734*
X020368Y017450D03*
X020368Y017455D03*
X020368Y017655D03*
D735*
X020368Y017650D03*
X020368Y017460D03*
D736*
X020368Y017465D03*
X020368Y017470D03*
X020368Y017645D03*
D737*
X020368Y017640D03*
X020368Y017475D03*
D738*
X020368Y017480D03*
X020368Y017485D03*
X020368Y017635D03*
D739*
X020368Y017630D03*
X020368Y017490D03*
D740*
X020368Y017495D03*
X020368Y017500D03*
X020368Y017625D03*
D741*
X020368Y017620D03*
X020368Y017505D03*
D742*
X020368Y017510D03*
X020368Y017515D03*
X020368Y017615D03*
D743*
X020368Y017610D03*
X020368Y017520D03*
D744*
X020368Y017525D03*
X020368Y017605D03*
D745*
X020368Y017600D03*
X020368Y017535D03*
X020368Y017530D03*
D746*
X020368Y017540D03*
X020368Y017595D03*
D747*
X020368Y017590D03*
X020368Y017585D03*
X020368Y017550D03*
X020368Y017545D03*
D748*
X020368Y017555D03*
X020368Y017560D03*
X020368Y017565D03*
X020368Y017575D03*
X020368Y017580D03*
D749*
X020368Y017570D03*
D750*
X018936Y017670D03*
X021801Y017670D03*
D751*
X021806Y017675D03*
X018931Y017675D03*
D752*
X018928Y017680D03*
X020368Y017895D03*
X020368Y017900D03*
X020368Y017905D03*
X020368Y017910D03*
X020368Y017915D03*
X021808Y017680D03*
D753*
X021808Y017685D03*
X020368Y017925D03*
X020368Y017930D03*
X020368Y017935D03*
X020368Y017940D03*
X020368Y017945D03*
X018928Y017685D03*
D754*
X020368Y017685D03*
D755*
X018926Y017690D03*
X021811Y017690D03*
D756*
X020368Y017690D03*
D757*
X018926Y017695D03*
X021811Y017695D03*
D758*
X021813Y017700D03*
X020368Y018030D03*
X020368Y018035D03*
X020368Y018040D03*
X020368Y018045D03*
X020368Y018050D03*
X018923Y017700D03*
D759*
X020368Y017700D03*
D760*
X020368Y017705D03*
D761*
X020368Y017715D03*
D762*
X018921Y017720D03*
X021816Y017720D03*
D763*
X020368Y017720D03*
D764*
X020368Y018220D03*
X020368Y018225D03*
X020368Y018230D03*
X020368Y018235D03*
X020368Y018240D03*
X018918Y017730D03*
X021818Y017730D03*
D765*
X021828Y017775D03*
X020368Y018515D03*
X020368Y018520D03*
X020368Y018525D03*
X018908Y017775D03*
D766*
X018906Y017785D03*
X021831Y017785D03*
D767*
X020368Y017800D03*
D768*
X020368Y017805D03*
D769*
X020368Y017810D03*
D770*
X020368Y017815D03*
D771*
X020371Y017820D03*
D772*
X020368Y017825D03*
D773*
X018896Y017830D03*
D774*
X020368Y017830D03*
D775*
X020368Y017835D03*
D776*
X018893Y017840D03*
X021843Y017840D03*
D777*
X020368Y017840D03*
D778*
X020368Y017845D03*
D779*
X018891Y017850D03*
X021846Y017850D03*
D780*
X020368Y017850D03*
D781*
X020368Y017855D03*
D782*
X020368Y017860D03*
X020368Y017865D03*
D783*
X020368Y017870D03*
D784*
X020368Y017875D03*
X020368Y017880D03*
X020368Y017885D03*
X020368Y017890D03*
D785*
X018881Y017895D03*
X021856Y017895D03*
D786*
X021858Y017905D03*
X018878Y017905D03*
D787*
X020371Y017920D03*
D788*
X020368Y017950D03*
X020368Y017955D03*
X020368Y017960D03*
X020368Y017965D03*
X020368Y017970D03*
D789*
X018866Y017960D03*
X021871Y017960D03*
D790*
X021873Y017970D03*
X018863Y017970D03*
D791*
X020368Y017975D03*
X020368Y017980D03*
X020368Y017985D03*
X020368Y017990D03*
X020368Y017995D03*
X020368Y018000D03*
D792*
X020368Y018005D03*
X020368Y018010D03*
X020368Y018015D03*
X020368Y018020D03*
X020368Y018025D03*
D793*
X018853Y018015D03*
X021883Y018015D03*
D794*
X021886Y018025D03*
X018851Y018025D03*
D795*
X018846Y018045D03*
X021891Y018045D03*
D796*
X020371Y018055D03*
D797*
X020368Y018085D03*
X020368Y018090D03*
X020368Y018095D03*
X020368Y018100D03*
X020368Y018105D03*
D798*
X020368Y018110D03*
X020368Y018115D03*
X020368Y018120D03*
X020368Y018125D03*
X020368Y018130D03*
D799*
X020368Y018140D03*
X020368Y018145D03*
X020368Y018150D03*
X020368Y018155D03*
X020368Y018160D03*
D800*
X020368Y018245D03*
X020368Y018250D03*
X020368Y018255D03*
X020368Y018260D03*
X020368Y018265D03*
D801*
X020368Y018275D03*
X020368Y018280D03*
X020368Y018285D03*
X020368Y018290D03*
X020368Y018295D03*
D802*
X020368Y018300D03*
X020368Y018305D03*
X020368Y018310D03*
X020368Y018315D03*
X020368Y018320D03*
D803*
X020368Y018380D03*
X020368Y018385D03*
X020368Y018390D03*
X020368Y018395D03*
X020368Y018400D03*
D804*
X020368Y018405D03*
X020368Y018410D03*
X020368Y018415D03*
X020368Y018420D03*
X020368Y018425D03*
X020368Y018430D03*
D805*
X020368Y018435D03*
X020368Y018440D03*
X020368Y018445D03*
X020368Y018450D03*
X020368Y018455D03*
D806*
X020371Y018485D03*
D807*
X020368Y018530D03*
D808*
X020368Y018535D03*
D809*
X020368Y018545D03*
D810*
X028589Y025113D03*
X029183Y025113D03*
D811*
X029199Y025144D03*
X028574Y025144D03*
X029699Y025613D03*
D812*
X029246Y025488D03*
X029246Y025175D03*
X028527Y025175D03*
D813*
X028511Y025206D03*
X029261Y025206D03*
X029261Y025519D03*
X029261Y025550D03*
X029324Y025613D03*
X029574Y026581D03*
X029542Y026613D03*
X028230Y026613D03*
X028199Y026581D03*
D814*
X028167Y026488D03*
X028167Y026456D03*
X028074Y026175D03*
X028074Y026144D03*
X028074Y026113D03*
X028074Y026081D03*
X028074Y025988D03*
X028074Y025956D03*
X028480Y025238D03*
X029292Y025238D03*
X029261Y025581D03*
X029699Y025956D03*
X029699Y025988D03*
X029699Y026081D03*
X029699Y026113D03*
X029699Y026144D03*
X029699Y026175D03*
X029605Y026456D03*
X029605Y026488D03*
D815*
X029621Y026425D03*
X029621Y026394D03*
X029652Y026331D03*
X029652Y026300D03*
X029683Y026269D03*
X029683Y026238D03*
X029683Y026206D03*
X029714Y026050D03*
X029714Y026019D03*
X029683Y025925D03*
X029683Y025894D03*
X029683Y025863D03*
X029308Y025269D03*
X028464Y025269D03*
X028089Y025863D03*
X028089Y025894D03*
X028089Y025925D03*
X028058Y026019D03*
X028058Y026050D03*
X028089Y026206D03*
X028089Y026238D03*
X028089Y026269D03*
X028121Y026300D03*
X028121Y026331D03*
X028152Y026394D03*
X028152Y026425D03*
D816*
X029386Y025644D03*
X029574Y025456D03*
X029605Y025488D03*
X029636Y025519D03*
X029636Y025550D03*
X029480Y025331D03*
X029417Y025300D03*
D817*
X029636Y025769D03*
X029667Y025800D03*
X029667Y025831D03*
X029636Y026363D03*
X028449Y025300D03*
X028136Y025769D03*
X028105Y025800D03*
X028105Y025831D03*
X028136Y026363D03*
D818*
X028167Y025706D03*
X028199Y025675D03*
X028417Y025331D03*
X029574Y025675D03*
X029605Y025706D03*
D819*
X029714Y025644D03*
X029683Y025581D03*
X029558Y025425D03*
X029527Y025394D03*
X029527Y025363D03*
D820*
X028402Y025363D03*
X028402Y025394D03*
D821*
X028386Y025425D03*
X028230Y025644D03*
X028886Y026988D03*
D822*
X028371Y025456D03*
D823*
X028355Y025488D03*
X028292Y025613D03*
D824*
X028339Y025550D03*
X028339Y025519D03*
D825*
X028339Y025581D03*
D826*
X028152Y025738D03*
X029621Y025738D03*
D827*
X029589Y026519D03*
X029589Y026550D03*
X028183Y026550D03*
X028183Y026519D03*
D828*
X028667Y026550D03*
X029105Y026550D03*
X028886Y027019D03*
D829*
X028886Y026581D03*
D830*
X028886Y026613D03*
D831*
X028886Y026644D03*
D832*
X028886Y026675D03*
D833*
X028886Y026706D03*
D834*
X028886Y026738D03*
D835*
X028886Y026769D03*
D836*
X028886Y026800D03*
D837*
X028886Y026831D03*
D838*
X028886Y026863D03*
D839*
X028886Y026894D03*
D840*
X028886Y026925D03*
D841*
X028886Y026956D03*
M02*
