G75*
%MOIN*%
%OFA0B0*%
%FSLAX24Y24*%
%IPPOS*%
%LPD*%
%AMOC8*
5,1,8,0,0,1.08239X$1,22.5*
%
%ADD10C,0.0100*%
%ADD11C,0.0000*%
D10*
X002871Y000550D02*
X002871Y028550D01*
X030871Y028550D01*
X030871Y000550D01*
X002871Y000550D01*
D11*
X006584Y008550D02*
X006586Y008606D01*
X006592Y008661D01*
X006602Y008715D01*
X006615Y008769D01*
X006633Y008822D01*
X006654Y008873D01*
X006678Y008923D01*
X006706Y008971D01*
X006738Y009017D01*
X006772Y009061D01*
X006810Y009102D01*
X006850Y009140D01*
X006893Y009175D01*
X006938Y009207D01*
X006986Y009236D01*
X007035Y009262D01*
X007086Y009284D01*
X007138Y009302D01*
X007192Y009316D01*
X007247Y009327D01*
X007302Y009334D01*
X007357Y009337D01*
X007413Y009336D01*
X007468Y009331D01*
X007523Y009322D01*
X007577Y009310D01*
X007630Y009293D01*
X007682Y009273D01*
X007732Y009249D01*
X007780Y009222D01*
X007827Y009192D01*
X007871Y009158D01*
X007913Y009121D01*
X007951Y009081D01*
X007988Y009039D01*
X008021Y008994D01*
X008050Y008948D01*
X008077Y008899D01*
X008099Y008848D01*
X008119Y008796D01*
X008134Y008742D01*
X008146Y008688D01*
X008154Y008633D01*
X008158Y008578D01*
X008158Y008522D01*
X008154Y008467D01*
X008146Y008412D01*
X008134Y008358D01*
X008119Y008304D01*
X008099Y008252D01*
X008077Y008201D01*
X008050Y008152D01*
X008021Y008106D01*
X007988Y008061D01*
X007951Y008019D01*
X007913Y007979D01*
X007871Y007942D01*
X007827Y007908D01*
X007780Y007878D01*
X007732Y007851D01*
X007682Y007827D01*
X007630Y007807D01*
X007577Y007790D01*
X007523Y007778D01*
X007468Y007769D01*
X007413Y007764D01*
X007357Y007763D01*
X007302Y007766D01*
X007247Y007773D01*
X007192Y007784D01*
X007138Y007798D01*
X007086Y007816D01*
X007035Y007838D01*
X006986Y007864D01*
X006938Y007893D01*
X006893Y007925D01*
X006850Y007960D01*
X006810Y007998D01*
X006772Y008039D01*
X006738Y008083D01*
X006706Y008129D01*
X006678Y008177D01*
X006654Y008227D01*
X006633Y008278D01*
X006615Y008331D01*
X006602Y008385D01*
X006592Y008439D01*
X006586Y008494D01*
X006584Y008550D01*
X006584Y025050D02*
X006586Y025106D01*
X006592Y025161D01*
X006602Y025215D01*
X006615Y025269D01*
X006633Y025322D01*
X006654Y025373D01*
X006678Y025423D01*
X006706Y025471D01*
X006738Y025517D01*
X006772Y025561D01*
X006810Y025602D01*
X006850Y025640D01*
X006893Y025675D01*
X006938Y025707D01*
X006986Y025736D01*
X007035Y025762D01*
X007086Y025784D01*
X007138Y025802D01*
X007192Y025816D01*
X007247Y025827D01*
X007302Y025834D01*
X007357Y025837D01*
X007413Y025836D01*
X007468Y025831D01*
X007523Y025822D01*
X007577Y025810D01*
X007630Y025793D01*
X007682Y025773D01*
X007732Y025749D01*
X007780Y025722D01*
X007827Y025692D01*
X007871Y025658D01*
X007913Y025621D01*
X007951Y025581D01*
X007988Y025539D01*
X008021Y025494D01*
X008050Y025448D01*
X008077Y025399D01*
X008099Y025348D01*
X008119Y025296D01*
X008134Y025242D01*
X008146Y025188D01*
X008154Y025133D01*
X008158Y025078D01*
X008158Y025022D01*
X008154Y024967D01*
X008146Y024912D01*
X008134Y024858D01*
X008119Y024804D01*
X008099Y024752D01*
X008077Y024701D01*
X008050Y024652D01*
X008021Y024606D01*
X007988Y024561D01*
X007951Y024519D01*
X007913Y024479D01*
X007871Y024442D01*
X007827Y024408D01*
X007780Y024378D01*
X007732Y024351D01*
X007682Y024327D01*
X007630Y024307D01*
X007577Y024290D01*
X007523Y024278D01*
X007468Y024269D01*
X007413Y024264D01*
X007357Y024263D01*
X007302Y024266D01*
X007247Y024273D01*
X007192Y024284D01*
X007138Y024298D01*
X007086Y024316D01*
X007035Y024338D01*
X006986Y024364D01*
X006938Y024393D01*
X006893Y024425D01*
X006850Y024460D01*
X006810Y024498D01*
X006772Y024539D01*
X006738Y024583D01*
X006706Y024629D01*
X006678Y024677D01*
X006654Y024727D01*
X006633Y024778D01*
X006615Y024831D01*
X006602Y024885D01*
X006592Y024939D01*
X006586Y024994D01*
X006584Y025050D01*
X025584Y025050D02*
X025586Y025106D01*
X025592Y025161D01*
X025602Y025215D01*
X025615Y025269D01*
X025633Y025322D01*
X025654Y025373D01*
X025678Y025423D01*
X025706Y025471D01*
X025738Y025517D01*
X025772Y025561D01*
X025810Y025602D01*
X025850Y025640D01*
X025893Y025675D01*
X025938Y025707D01*
X025986Y025736D01*
X026035Y025762D01*
X026086Y025784D01*
X026138Y025802D01*
X026192Y025816D01*
X026247Y025827D01*
X026302Y025834D01*
X026357Y025837D01*
X026413Y025836D01*
X026468Y025831D01*
X026523Y025822D01*
X026577Y025810D01*
X026630Y025793D01*
X026682Y025773D01*
X026732Y025749D01*
X026780Y025722D01*
X026827Y025692D01*
X026871Y025658D01*
X026913Y025621D01*
X026951Y025581D01*
X026988Y025539D01*
X027021Y025494D01*
X027050Y025448D01*
X027077Y025399D01*
X027099Y025348D01*
X027119Y025296D01*
X027134Y025242D01*
X027146Y025188D01*
X027154Y025133D01*
X027158Y025078D01*
X027158Y025022D01*
X027154Y024967D01*
X027146Y024912D01*
X027134Y024858D01*
X027119Y024804D01*
X027099Y024752D01*
X027077Y024701D01*
X027050Y024652D01*
X027021Y024606D01*
X026988Y024561D01*
X026951Y024519D01*
X026913Y024479D01*
X026871Y024442D01*
X026827Y024408D01*
X026780Y024378D01*
X026732Y024351D01*
X026682Y024327D01*
X026630Y024307D01*
X026577Y024290D01*
X026523Y024278D01*
X026468Y024269D01*
X026413Y024264D01*
X026357Y024263D01*
X026302Y024266D01*
X026247Y024273D01*
X026192Y024284D01*
X026138Y024298D01*
X026086Y024316D01*
X026035Y024338D01*
X025986Y024364D01*
X025938Y024393D01*
X025893Y024425D01*
X025850Y024460D01*
X025810Y024498D01*
X025772Y024539D01*
X025738Y024583D01*
X025706Y024629D01*
X025678Y024677D01*
X025654Y024727D01*
X025633Y024778D01*
X025615Y024831D01*
X025602Y024885D01*
X025592Y024939D01*
X025586Y024994D01*
X025584Y025050D01*
X025584Y008550D02*
X025586Y008606D01*
X025592Y008661D01*
X025602Y008715D01*
X025615Y008769D01*
X025633Y008822D01*
X025654Y008873D01*
X025678Y008923D01*
X025706Y008971D01*
X025738Y009017D01*
X025772Y009061D01*
X025810Y009102D01*
X025850Y009140D01*
X025893Y009175D01*
X025938Y009207D01*
X025986Y009236D01*
X026035Y009262D01*
X026086Y009284D01*
X026138Y009302D01*
X026192Y009316D01*
X026247Y009327D01*
X026302Y009334D01*
X026357Y009337D01*
X026413Y009336D01*
X026468Y009331D01*
X026523Y009322D01*
X026577Y009310D01*
X026630Y009293D01*
X026682Y009273D01*
X026732Y009249D01*
X026780Y009222D01*
X026827Y009192D01*
X026871Y009158D01*
X026913Y009121D01*
X026951Y009081D01*
X026988Y009039D01*
X027021Y008994D01*
X027050Y008948D01*
X027077Y008899D01*
X027099Y008848D01*
X027119Y008796D01*
X027134Y008742D01*
X027146Y008688D01*
X027154Y008633D01*
X027158Y008578D01*
X027158Y008522D01*
X027154Y008467D01*
X027146Y008412D01*
X027134Y008358D01*
X027119Y008304D01*
X027099Y008252D01*
X027077Y008201D01*
X027050Y008152D01*
X027021Y008106D01*
X026988Y008061D01*
X026951Y008019D01*
X026913Y007979D01*
X026871Y007942D01*
X026827Y007908D01*
X026780Y007878D01*
X026732Y007851D01*
X026682Y007827D01*
X026630Y007807D01*
X026577Y007790D01*
X026523Y007778D01*
X026468Y007769D01*
X026413Y007764D01*
X026357Y007763D01*
X026302Y007766D01*
X026247Y007773D01*
X026192Y007784D01*
X026138Y007798D01*
X026086Y007816D01*
X026035Y007838D01*
X025986Y007864D01*
X025938Y007893D01*
X025893Y007925D01*
X025850Y007960D01*
X025810Y007998D01*
X025772Y008039D01*
X025738Y008083D01*
X025706Y008129D01*
X025678Y008177D01*
X025654Y008227D01*
X025633Y008278D01*
X025615Y008331D01*
X025602Y008385D01*
X025592Y008439D01*
X025586Y008494D01*
X025584Y008550D01*
M02*
